G04*
G04 #@! TF.GenerationSoftware,Altium Limited,Altium Designer,20.2.5 (213)*
G04*
G04 Layer_Color=65535*
%FSLAX44Y44*%
%MOMM*%
G71*
G04*
G04 #@! TF.SameCoordinates,3C0D8923-7957-4DC4-8908-925B2C91420C*
G04*
G04*
G04 #@! TF.FilePolarity,Positive*
G04*
G01*
G75*
%ADD10C,0.3000*%
%ADD11C,0.1270*%
%ADD12C,0.1778*%
%ADD13C,0.2540*%
G36*
X447160Y99479D02*
X427094D01*
Y105321D01*
X447160D01*
Y99479D01*
D02*
G37*
G36*
X78902Y118327D02*
X79124Y118105D01*
X79235Y117883D01*
Y117827D01*
Y117772D01*
X79180Y117549D01*
X79124Y117272D01*
X78847Y116661D01*
X78680Y116383D01*
X78569Y116161D01*
X78513Y115994D01*
X78458Y115939D01*
X78180Y115494D01*
X77958Y115161D01*
X77791Y114883D01*
X77624Y114661D01*
X77513Y114494D01*
X77402Y114383D01*
X77347Y114328D01*
X77069Y114050D01*
X76791Y113828D01*
X76624Y113661D01*
X76513Y113605D01*
X76180Y113439D01*
X75902Y113328D01*
X75736Y113217D01*
X75680D01*
X75347Y113105D01*
X74902Y112994D01*
X73958Y112828D01*
X73458Y112772D01*
X73069Y112717D01*
X72847Y112661D01*
X72014D01*
X71458Y112717D01*
X71125Y112828D01*
X70847Y112939D01*
X70681Y113050D01*
X70625Y113217D01*
X70570Y113272D01*
Y113328D01*
X70625Y113494D01*
X70736Y113717D01*
X71014Y114216D01*
X71181Y114439D01*
X71347Y114661D01*
X71403Y114772D01*
X71458Y114828D01*
X72125Y115605D01*
X72625Y116161D01*
X72792Y116383D01*
X72958Y116550D01*
X73014Y116605D01*
X73069Y116661D01*
X73625Y117105D01*
X74180Y117438D01*
X74402Y117549D01*
X74569Y117661D01*
X74680Y117716D01*
X74736D01*
X75069Y117883D01*
X75402Y117938D01*
X75902D01*
X76236Y117883D01*
X76347Y117827D01*
X77235Y118105D01*
X77624Y118327D01*
X78013Y118438D01*
X78735D01*
X78902Y118327D01*
D02*
G37*
G36*
X90456Y118383D02*
X90845Y118327D01*
X91123Y118272D01*
X91234D01*
X92123Y118049D01*
X92845Y117827D01*
X93456Y117605D01*
X93900Y117438D01*
X94234Y117272D01*
X94456Y117105D01*
X94567Y117050D01*
X94623Y116994D01*
X94845Y116772D01*
X95067Y116494D01*
X95623Y115883D01*
X95845Y115605D01*
X96067Y115328D01*
X96178Y115161D01*
X96234Y115105D01*
X96622Y114661D01*
X96900Y114272D01*
X97122Y113939D01*
X97233Y113717D01*
X97345Y113550D01*
X97400Y113439D01*
Y113383D01*
X97289Y113105D01*
X97067Y112883D01*
X96678Y112772D01*
X96289Y112717D01*
X95900Y112661D01*
X95178D01*
X94456Y112717D01*
X93789Y112828D01*
X93289Y112939D01*
X92901Y112994D01*
X92623Y113105D01*
X92456Y113161D01*
X92345Y113217D01*
X92289D01*
X92012Y113328D01*
X91678Y113439D01*
X91512Y113550D01*
X91401Y113605D01*
X91123Y113828D01*
X90901Y113994D01*
X90790Y114105D01*
X90734Y114161D01*
X90512Y114383D01*
X90345Y114661D01*
X89901Y115216D01*
X89734Y115494D01*
X89568Y115716D01*
X89512Y115883D01*
X89457Y115939D01*
X89234Y116383D01*
X89068Y116772D01*
X88901Y117105D01*
X88845Y117383D01*
X88790Y117549D01*
X88734Y117661D01*
Y117772D01*
X88790Y117938D01*
X88845Y118105D01*
X89123Y118272D01*
X89512Y118383D01*
X90012Y118438D01*
X90456Y118383D01*
D02*
G37*
G36*
X98011Y115716D02*
X98067D01*
X98844Y115494D01*
X99566Y115272D01*
X99844Y115105D01*
X100066Y115050D01*
X100178Y114939D01*
X100233D01*
X100789Y114605D01*
X101344Y114216D01*
X101844Y113828D01*
X102289Y113383D01*
X102677Y112994D01*
X102955Y112661D01*
X103177Y112439D01*
X103233Y112383D01*
X103788Y111717D01*
X104233Y111050D01*
X104566Y110439D01*
X104899Y109939D01*
X105066Y109439D01*
X105233Y109106D01*
X105344Y108884D01*
Y108773D01*
Y108328D01*
X105233Y108050D01*
X105066Y107884D01*
X105010Y107828D01*
X104788Y107773D01*
X104566Y107717D01*
X104010Y107662D01*
X102788D01*
X102233Y107717D01*
X101677Y107773D01*
X101122Y107884D01*
X100677Y107939D01*
X100289Y107995D01*
X100066Y108050D01*
X99955D01*
X99233Y108217D01*
X98622Y108384D01*
X98067Y108550D01*
X97567Y108717D01*
X97178Y108828D01*
X96900Y108939D01*
X96734Y109050D01*
X96678D01*
X96456Y109162D01*
X96178Y109328D01*
X95623Y109717D01*
X95400Y109884D01*
X95234Y109995D01*
X95122Y110106D01*
X95067Y110161D01*
X94734Y110495D01*
X94511Y110772D01*
X94400Y111050D01*
X94289Y111272D01*
Y111550D01*
Y111661D01*
X94400Y111772D01*
X94511Y111883D01*
X94845Y111939D01*
X95178Y111994D01*
X97511D01*
X97956Y111939D01*
X98511D01*
X98622Y111883D01*
X98733D01*
Y111939D01*
X98622Y112050D01*
X98511Y112217D01*
X98400Y112383D01*
X98122Y112772D01*
X98067Y112883D01*
X98011Y112939D01*
X97733Y113439D01*
X97511Y113883D01*
X97345Y114161D01*
X97289Y114272D01*
X97122Y114717D01*
X97067Y114994D01*
X97011Y115161D01*
Y115216D01*
X97067Y115439D01*
X97178Y115605D01*
X97345Y115716D01*
X97567Y115772D01*
X97900D01*
X98011Y115716D01*
D02*
G37*
G36*
X70681Y115772D02*
X70847Y115550D01*
X70958Y115272D01*
Y115216D01*
Y115161D01*
X70903Y114939D01*
X70792Y114661D01*
X70681Y114383D01*
X70625Y114328D01*
Y114272D01*
X70403Y113828D01*
X70181Y113383D01*
X69959Y113050D01*
X69903Y112994D01*
Y112939D01*
X69681Y112550D01*
X69514Y112272D01*
X69347Y112106D01*
X69292Y111994D01*
X69181Y111828D01*
X69292D01*
X69458Y111883D01*
X69792D01*
X70070Y111939D01*
X70403D01*
X70681Y111994D01*
X72625D01*
X73069Y111939D01*
X73403Y111883D01*
X73569Y111772D01*
X73625Y111717D01*
X73680Y111439D01*
X73625Y111106D01*
X73458Y110828D01*
X73292Y110550D01*
X73069Y110328D01*
X72903Y110161D01*
X72792Y110050D01*
X72736Y109995D01*
X71958Y109439D01*
X71236Y109050D01*
X70958Y108884D01*
X70736Y108773D01*
X70625Y108717D01*
X70570D01*
X70125Y108550D01*
X69625Y108384D01*
X68681Y108162D01*
X68292Y108050D01*
X67959Y107995D01*
X67681Y107939D01*
X67625D01*
X66959Y107828D01*
X66403Y107773D01*
X65848Y107717D01*
X65403D01*
X65015Y107662D01*
X64070D01*
X63737Y107717D01*
X63459D01*
X63292Y107773D01*
X63015Y107828D01*
X62904D01*
X62681Y108050D01*
X62626Y108384D01*
Y108661D01*
Y108717D01*
Y108773D01*
X62848Y109439D01*
X63181Y110106D01*
X63348Y110384D01*
X63459Y110606D01*
X63515Y110717D01*
X63570Y110772D01*
X63848Y111217D01*
X64070Y111550D01*
X64292Y111883D01*
X64459Y112161D01*
X64570Y112328D01*
X64681Y112494D01*
X64792Y112606D01*
X65348Y113217D01*
X65959Y113717D01*
X66237Y113939D01*
X66459Y114105D01*
X66570Y114161D01*
X66625Y114216D01*
X67014Y114494D01*
X67403Y114661D01*
X67681Y114828D01*
X67959Y114883D01*
X68125Y114939D01*
X68403D01*
X69236Y115161D01*
X69514Y115494D01*
X69847Y115716D01*
X70125Y115828D01*
X70458D01*
X70681Y115772D01*
D02*
G37*
G36*
X107955Y108495D02*
X108621Y107717D01*
X109066Y106995D01*
X109288Y106662D01*
X109399Y106440D01*
X109510Y106273D01*
Y106217D01*
X109954Y105273D01*
X110121Y104829D01*
X110232Y104440D01*
X110343Y104106D01*
X110399Y103829D01*
X110454Y103662D01*
Y103607D01*
X110621Y102551D01*
X110676Y101996D01*
X110732Y101551D01*
Y101107D01*
X110788Y100773D01*
Y100496D01*
Y100440D01*
Y99829D01*
X110732Y99385D01*
X110676Y98996D01*
X110565Y98774D01*
X110510Y98552D01*
X110399Y98440D01*
X110343Y98385D01*
X110121Y98329D01*
X109843D01*
X109343Y98440D01*
X109121Y98496D01*
X108954Y98607D01*
X108843Y98663D01*
X108788D01*
X108177Y99051D01*
X107621Y99440D01*
X107344Y99551D01*
X107177Y99718D01*
X107066Y99774D01*
X107010Y99829D01*
X106344Y100385D01*
X105844Y100829D01*
X105510Y101162D01*
X105455Y101218D01*
X105399Y101273D01*
X104955Y101607D01*
X104622Y101940D01*
X104288Y102218D01*
X104010Y102440D01*
X103844Y102662D01*
X103677Y102829D01*
X103622Y102884D01*
X103566Y102940D01*
X103011Y103662D01*
X102566Y104440D01*
X102400Y104773D01*
X102233Y105051D01*
X102177Y105217D01*
X102122Y105273D01*
X101900Y105773D01*
X101789Y106162D01*
X101733Y106495D01*
X101677Y106717D01*
Y106884D01*
Y107051D01*
X101733Y107106D01*
X101900Y107217D01*
X102066Y107273D01*
X102511D01*
X102844Y107162D01*
X102900Y107106D01*
X102955D01*
X103677Y106773D01*
X104455Y106440D01*
X104788Y106273D01*
X105066Y106106D01*
X105233Y106051D01*
X105288Y105995D01*
X105566Y105773D01*
X105733Y105662D01*
X105844Y105551D01*
X105955Y105495D01*
X106010Y105440D01*
Y105551D01*
Y105773D01*
Y106051D01*
Y106384D01*
X105955Y106773D01*
Y107051D01*
Y107273D01*
Y107328D01*
X106566D01*
X105844Y109773D01*
X107955Y108495D01*
D02*
G37*
G36*
X80402Y103718D02*
X80569Y103551D01*
X80791Y103162D01*
X80846Y102773D01*
Y102662D01*
Y102607D01*
Y101440D01*
X78902Y101051D01*
X77847Y100829D01*
X77791Y98274D01*
Y97663D01*
Y97163D01*
X77736Y96718D01*
Y96329D01*
Y95996D01*
X77680Y95774D01*
Y95663D01*
Y95607D01*
X77624Y95274D01*
X77569Y95052D01*
X77458Y94885D01*
X77347Y94719D01*
X77180Y94607D01*
X77069Y94552D01*
X76847D01*
X76736Y94496D01*
X76680D01*
X76402Y94441D01*
X76291Y94385D01*
X76236D01*
X74902Y94219D01*
Y103162D01*
X76847Y102940D01*
X77680Y103218D01*
X78347Y103440D01*
X78847Y103551D01*
X79291Y103662D01*
X79624Y103718D01*
X79902Y103773D01*
X80180D01*
X80402Y103718D01*
D02*
G37*
G36*
X73958Y102162D02*
X74014Y102107D01*
Y102051D01*
X74069Y101884D01*
X74125Y101718D01*
X74180Y101218D01*
X74236Y100607D01*
Y99940D01*
X74291Y99329D01*
Y98774D01*
Y98552D01*
Y98440D01*
Y98329D01*
Y98274D01*
Y97274D01*
Y96829D01*
Y96441D01*
X74236Y96052D01*
Y95774D01*
Y95607D01*
Y95552D01*
X74180Y95107D01*
Y94719D01*
X74069Y94385D01*
X74014Y94163D01*
X73958Y93996D01*
X73903Y93885D01*
X73847Y93830D01*
X73514Y93719D01*
X73403Y93663D01*
X73347D01*
X73180Y93608D01*
X73069D01*
X72958Y93552D01*
X71625Y93385D01*
Y95441D01*
X71569Y95274D01*
X71403Y94663D01*
X71236Y94219D01*
X71069Y93774D01*
X70903Y93496D01*
X70847Y93274D01*
X70736Y93163D01*
Y93108D01*
X70570Y92830D01*
X70347Y92608D01*
X70125Y92441D01*
X69959Y92330D01*
X69625Y92163D01*
X69458D01*
X69292Y92219D01*
X69125Y92274D01*
X68792Y92608D01*
X68570Y92885D01*
X68514Y92941D01*
Y92997D01*
X68236Y93663D01*
X68098Y94043D01*
X68070Y91330D01*
X67125Y90719D01*
X66903Y90552D01*
X66681Y90386D01*
X66514Y90330D01*
X66459Y90274D01*
X66292Y90163D01*
X66125Y90108D01*
X65959D01*
X65737Y90163D01*
X65570Y90330D01*
X65459Y90552D01*
X65348Y90830D01*
X65292Y91052D01*
X65237Y91274D01*
Y91441D01*
Y91497D01*
X65181Y92552D01*
Y93052D01*
Y93496D01*
Y93885D01*
Y94163D01*
Y94385D01*
Y94441D01*
Y98385D01*
X66848Y99440D01*
X66903Y99607D01*
X67070Y99718D01*
X67236Y99829D01*
X67292Y99885D01*
X67625Y100051D01*
X67848Y100107D01*
X68014Y100162D01*
X68236D01*
X68348Y100051D01*
X68625Y99829D01*
X68736Y99607D01*
X68792Y99551D01*
Y99496D01*
X69014Y99051D01*
X69181Y98607D01*
X69292Y98329D01*
X69347Y98274D01*
Y98218D01*
X69570Y97607D01*
X69718Y97163D01*
X69736Y97218D01*
X69959Y97940D01*
X70014Y98218D01*
X70125Y98440D01*
X70181Y98607D01*
Y98663D01*
X70403Y99496D01*
X70570Y100107D01*
X70625Y100385D01*
X70681Y100551D01*
X70736Y100662D01*
Y100718D01*
X70847Y100996D01*
X70903Y101273D01*
X71014Y101440D01*
X71069Y101551D01*
X71125Y101662D01*
X71181Y101718D01*
X71292Y101829D01*
X71458Y101940D01*
X71569Y102051D01*
X71625D01*
X71792Y102107D01*
X71847Y101996D01*
Y101884D01*
Y101829D01*
X72680Y102051D01*
X73069Y102218D01*
X73347Y102329D01*
X73791D01*
X73958Y102162D01*
D02*
G37*
G36*
X61626Y109606D02*
X61793Y109550D01*
X62015Y109328D01*
X62070Y109050D01*
Y108995D01*
Y108939D01*
Y108384D01*
Y107828D01*
Y107606D01*
Y107384D01*
Y107273D01*
Y107217D01*
X62015Y106662D01*
Y106217D01*
X61959Y105884D01*
Y105662D01*
X61904Y105551D01*
Y105495D01*
Y105440D01*
X61959Y105495D01*
X62182Y105606D01*
X62348Y105773D01*
X62404Y105829D01*
X63015Y106162D01*
X63515Y106440D01*
X63959Y106662D01*
X64292Y106828D01*
X64570Y106939D01*
X64792Y107051D01*
X64903Y107106D01*
X64959D01*
X65292Y107217D01*
X65514Y107273D01*
X65903D01*
X66125Y107162D01*
X66181Y107106D01*
X66237Y106939D01*
Y106662D01*
X66181Y106328D01*
X66125Y105995D01*
X66014Y105717D01*
X65903Y105440D01*
X65848Y105273D01*
X65792Y105217D01*
X65237Y104218D01*
X64959Y103773D01*
X64681Y103384D01*
X64459Y103107D01*
X64292Y102884D01*
X64181Y102718D01*
X64126Y102662D01*
X63515Y101996D01*
X62904Y101440D01*
X62626Y101162D01*
X62459Y100996D01*
X62293Y100885D01*
X62237Y100829D01*
X61348Y100162D01*
X60515Y99551D01*
X60182Y99329D01*
X59904Y99163D01*
X59682Y99051D01*
X59626Y98996D01*
X59126Y98774D01*
X58737Y98607D01*
X58404Y98496D01*
X57793D01*
X57682Y98552D01*
X57515Y98718D01*
X57404Y99051D01*
X57293Y99385D01*
X57238Y99774D01*
Y100107D01*
X57182Y100440D01*
Y100662D01*
Y100718D01*
X57238Y101496D01*
X57293Y102273D01*
X57404Y102996D01*
X57571Y103662D01*
X57682Y104162D01*
X57793Y104606D01*
X57849Y104829D01*
X57904Y104940D01*
X58182Y105662D01*
X58515Y106328D01*
X58849Y106828D01*
X59126Y107273D01*
X59404Y107662D01*
X59626Y107884D01*
X59737Y108050D01*
X59793Y108106D01*
X60515Y108273D01*
X60459Y108661D01*
X60515Y108995D01*
X60626Y109217D01*
X60682Y109273D01*
X60959Y109495D01*
X61182Y109606D01*
X61348Y109661D01*
X61404D01*
X61626Y109606D01*
D02*
G37*
G36*
X112954Y99107D02*
X113065Y98829D01*
X113176Y98552D01*
X113398Y97829D01*
X113454Y97552D01*
X113510Y97274D01*
X113565Y97107D01*
Y97052D01*
X113787Y96107D01*
X113843Y95718D01*
Y95385D01*
X113898Y95107D01*
Y94885D01*
Y94774D01*
Y94719D01*
Y94385D01*
X113843Y93996D01*
X113787Y93663D01*
Y93608D01*
Y93552D01*
X113732Y93052D01*
X113621Y92663D01*
X113565Y92385D01*
Y92274D01*
X113287Y91385D01*
X113010Y90497D01*
X112899Y90108D01*
X112787Y89830D01*
X112732Y89608D01*
X112676Y89552D01*
X112454Y89052D01*
X112232Y88664D01*
X112010Y88441D01*
X111843Y88219D01*
X111676Y88108D01*
X111565Y88053D01*
X111454D01*
X111287Y88108D01*
X111065Y88275D01*
X110788Y88441D01*
X110565Y88719D01*
X110343Y88941D01*
X110176Y89108D01*
X110065Y89275D01*
X110010Y89330D01*
X109343Y90219D01*
X109066Y90608D01*
X108788Y90997D01*
X108621Y91274D01*
X108455Y91497D01*
X108399Y91608D01*
X108343Y91663D01*
X107566Y92997D01*
X107288Y93608D01*
X107010Y94163D01*
X106788Y94607D01*
X106621Y94941D01*
X106566Y95218D01*
X106510Y95274D01*
X106288Y95941D01*
X106121Y96552D01*
X106010Y97107D01*
X105955Y97607D01*
X105899Y97996D01*
Y98274D01*
Y98440D01*
Y98496D01*
X106066Y99885D01*
X108677Y98052D01*
X109177Y97607D01*
X109565Y97274D01*
X109788Y97052D01*
X109843Y96996D01*
X109954Y96885D01*
X110065Y96829D01*
X110121Y96996D01*
X110176Y97052D01*
X110399Y97385D01*
X110510Y97663D01*
X110621Y97829D01*
X110676Y97885D01*
X111343Y97996D01*
X112065Y100107D01*
X112954Y99107D01*
D02*
G37*
G36*
X89679Y103607D02*
X90290Y103495D01*
X90568Y103440D01*
X90790Y103384D01*
X90956Y103329D01*
X91012D01*
X91623Y103218D01*
X92234Y103051D01*
X92456Y102996D01*
X92678D01*
X92789Y102940D01*
X92845D01*
X93234Y102884D01*
X93512Y102773D01*
X93734Y102718D01*
X93956D01*
X94178Y102607D01*
X94234D01*
X94623Y102551D01*
X94900Y102495D01*
X95122Y102384D01*
X95345Y102329D01*
X95567Y102218D01*
X95623Y102162D01*
X95789Y101954D01*
Y99792D01*
X95956Y99774D01*
Y101107D01*
Y101162D01*
Y101218D01*
X95900Y101551D01*
X95845Y101884D01*
X95789Y101954D01*
Y102051D01*
X97122Y101773D01*
X97511Y101607D01*
X97844Y101440D01*
X98067Y101273D01*
X98233Y101162D01*
X98455Y100940D01*
X98511Y100885D01*
X98622Y100718D01*
X98678Y100440D01*
Y99885D01*
Y99663D01*
Y99440D01*
Y99274D01*
Y99218D01*
Y98885D01*
Y98607D01*
Y98385D01*
Y98274D01*
Y98107D01*
Y98052D01*
X98900Y97885D01*
X98955Y97829D01*
X99011D01*
X99289Y97774D01*
X99455D01*
X99511Y97829D01*
X99566D01*
X99678Y97996D01*
X99733Y98274D01*
X99789Y98440D01*
Y98552D01*
X99844Y98774D01*
Y98996D01*
X99900Y99163D01*
Y99218D01*
X100011Y99440D01*
X100122Y99663D01*
X100233Y99829D01*
X100289Y99885D01*
X100622Y99829D01*
X100844Y99774D01*
X101011Y99718D01*
X101066Y99663D01*
X101344Y99551D01*
X101566Y99385D01*
X101733Y99329D01*
X101789Y99274D01*
X102733Y98552D01*
Y90719D01*
X101455D01*
X101122Y90774D01*
X100733Y90830D01*
X99900Y91052D01*
X99511Y91163D01*
X99178Y91219D01*
X98955Y91330D01*
X98900D01*
X98289Y91552D01*
X97733Y91774D01*
X97289Y91941D01*
X96956Y92108D01*
X96622Y92274D01*
X96456Y92330D01*
X96345Y92441D01*
X96289D01*
X95956Y92663D01*
X95678Y92885D01*
X95567Y93052D01*
X95511Y93108D01*
X95400Y93441D01*
X95345Y93830D01*
Y94108D01*
Y94163D01*
Y94219D01*
Y95607D01*
X98178Y94496D01*
X98567Y94330D01*
X98900Y94163D01*
X99178Y94052D01*
X99344Y93941D01*
X99455Y93885D01*
X99511D01*
X99566Y93830D01*
X99678Y93774D01*
X99733Y93719D01*
Y93663D01*
X99844Y94052D01*
Y94219D01*
Y94274D01*
X99900Y94496D01*
Y94719D01*
Y94885D01*
Y94941D01*
Y95107D01*
X99789Y94996D01*
X99178Y94941D01*
X98622Y94996D01*
X98400Y95052D01*
X98233Y95107D01*
X98122Y95163D01*
X98067D01*
X97456Y95441D01*
X97011Y95774D01*
X96678Y96052D01*
X96622Y96163D01*
X96567D01*
X96178Y96663D01*
X95956Y96996D01*
X95900Y97274D01*
X95845Y97329D01*
Y97552D01*
X95789Y97829D01*
Y98552D01*
Y98829D01*
Y99107D01*
Y99329D01*
Y99385D01*
Y99792D01*
X94456Y99940D01*
X94178Y99996D01*
X93956D01*
X93789Y100051D01*
X93734D01*
X93512Y100107D01*
X93345D01*
X93289Y97829D01*
Y96996D01*
Y96274D01*
X93234Y95996D01*
Y95774D01*
Y95663D01*
Y95607D01*
X93178Y95274D01*
X93123Y94941D01*
X93012Y94719D01*
X92956Y94552D01*
X92734Y94330D01*
X92678Y94274D01*
X92345D01*
X92067Y94330D01*
X91845D01*
X91678Y94385D01*
X91623D01*
X90456Y94607D01*
X90345Y98218D01*
X90290Y100829D01*
X89345Y101051D01*
X88790Y101162D01*
X88401Y101329D01*
X88123Y101384D01*
X88068Y101440D01*
X87845Y101718D01*
X87734Y102051D01*
X87679Y102329D01*
Y102384D01*
Y102440D01*
Y102662D01*
X87734Y102884D01*
Y102996D01*
Y103051D01*
X87790Y103162D01*
X88568Y103384D01*
X88512Y103495D01*
X88568Y103607D01*
X88734Y103662D01*
X89068D01*
X89679Y103607D01*
D02*
G37*
G36*
X56127Y99829D02*
X56349Y99663D01*
X56460Y99440D01*
X56515Y99385D01*
Y99329D01*
X56793Y98885D01*
X57015Y98496D01*
X57182Y98163D01*
X57238Y98107D01*
Y98052D01*
X57460Y97607D01*
X57626Y97274D01*
X57737Y97052D01*
X57793Y96996D01*
X57890Y96802D01*
X57904Y96829D01*
X58015Y96940D01*
X58071Y96996D01*
X58460Y97329D01*
X58849Y97663D01*
X59126Y97940D01*
X59182Y97996D01*
X59237Y98052D01*
X61904Y99885D01*
X62070Y98440D01*
Y97940D01*
X62015Y97385D01*
X61904Y96885D01*
X61737Y96385D01*
X61626Y95941D01*
X61515Y95607D01*
X61459Y95385D01*
X61404Y95274D01*
X60848Y93941D01*
X60515Y93330D01*
X60237Y92774D01*
X59960Y92330D01*
X59793Y91941D01*
X59626Y91719D01*
X59571Y91663D01*
X59071Y90830D01*
X58515Y90108D01*
X58293Y89775D01*
X58126Y89552D01*
X58015Y89386D01*
X57960Y89330D01*
X57626Y88886D01*
X57293Y88608D01*
X57071Y88386D01*
X56849Y88219D01*
X56738Y88108D01*
X56627Y88053D01*
X56515D01*
X56293Y88108D01*
X56071Y88275D01*
X55849Y88553D01*
X55682Y88830D01*
X55515Y89052D01*
X55404Y89330D01*
X55349Y89497D01*
X55293Y89552D01*
X54904Y90663D01*
X54738Y91108D01*
X54627Y91497D01*
X54516Y91830D01*
X54460Y92052D01*
X54405Y92219D01*
Y92274D01*
X54293Y92719D01*
X54182Y93108D01*
X54127Y93385D01*
Y93441D01*
Y93496D01*
X54071Y93996D01*
Y94385D01*
Y94607D01*
Y94719D01*
X54127Y95496D01*
X54238Y96218D01*
Y96552D01*
X54293Y96774D01*
X54349Y96940D01*
Y96996D01*
X54460Y97441D01*
X54571Y97829D01*
X54627Y98163D01*
X54738Y98440D01*
X54793Y98607D01*
X54849Y98718D01*
X54904Y98829D01*
X55571Y98940D01*
X55404Y99051D01*
X55293Y99163D01*
X55238Y99385D01*
Y99551D01*
Y99607D01*
X55404Y99829D01*
X55627Y99885D01*
X55793Y99940D01*
X56016D01*
X56127Y99829D01*
D02*
G37*
G36*
X60737Y90163D02*
X60848Y89941D01*
X60959Y89608D01*
X61126Y88886D01*
Y88497D01*
X61182Y88164D01*
Y87942D01*
Y87886D01*
Y86553D01*
X61126Y85997D01*
X61070Y85497D01*
Y85053D01*
X61015Y84720D01*
X60959Y84497D01*
Y84442D01*
X60848Y83664D01*
X60682Y82886D01*
X60571Y82220D01*
X60459Y81664D01*
X60404Y81220D01*
X60293Y80831D01*
X60237Y80609D01*
Y80553D01*
X60071Y79998D01*
X59904Y79609D01*
X59737Y79331D01*
X59515Y79165D01*
X59404Y79054D01*
X59237Y78942D01*
X59126D01*
X58904Y78998D01*
X58626Y79109D01*
X58071Y79387D01*
X57793Y79553D01*
X57571Y79720D01*
X57404Y79776D01*
X57349Y79831D01*
X56515Y80498D01*
X56238Y80775D01*
X55960Y80998D01*
X55738Y81220D01*
X55571Y81387D01*
X55515Y81442D01*
X55460Y81498D01*
X55182Y81775D01*
X54904Y82109D01*
X54682Y82387D01*
X54627Y82498D01*
X54349Y82998D01*
X54127Y83331D01*
X54016Y83553D01*
X53960Y83609D01*
X53627Y84331D01*
X53460Y84886D01*
X53349Y85219D01*
X53293Y85331D01*
X53238Y85608D01*
X53182Y85942D01*
X53127Y86608D01*
Y86886D01*
X53071Y87108D01*
Y87275D01*
Y87330D01*
X53016Y89997D01*
X55293Y88386D01*
X55515Y88164D01*
X55738Y87942D01*
X55960Y87775D01*
X56016Y87664D01*
X56293Y87386D01*
X56460Y87275D01*
X56571Y87164D01*
X56849Y86942D01*
X57515Y87719D01*
X57904Y88108D01*
X58238Y88441D01*
X58460Y88664D01*
X58515Y88719D01*
X58793Y88997D01*
X58960Y89164D01*
X59071Y89219D01*
X59737Y89386D01*
X59626Y89552D01*
X59571Y89663D01*
Y89941D01*
X59682Y90052D01*
X59737Y90108D01*
X60071Y90219D01*
X60626D01*
X60737Y90163D01*
D02*
G37*
G36*
X85679Y115494D02*
X85957Y109828D01*
X86012Y109106D01*
X86068Y108439D01*
Y107828D01*
X86124Y107273D01*
Y106828D01*
X86179Y106495D01*
Y106273D01*
Y106217D01*
X86290Y105106D01*
Y104606D01*
X86346Y104162D01*
X86401Y103773D01*
X86457Y103495D01*
Y103329D01*
Y103273D01*
X86568Y102329D01*
X86623Y101884D01*
X86679Y101551D01*
X86735Y101273D01*
X86790Y101051D01*
Y100940D01*
Y100885D01*
X86957Y100162D01*
X87123Y99607D01*
X87179Y99385D01*
Y99218D01*
X87234Y99107D01*
Y99051D01*
X87457Y98274D01*
X87734Y97496D01*
X88012Y96829D01*
X88290Y96274D01*
X88512Y95829D01*
X88734Y95441D01*
X88845Y95218D01*
X88901Y95163D01*
X89623Y94163D01*
X89956Y93774D01*
X90345Y93385D01*
X90623Y93108D01*
X90901Y92885D01*
X91067Y92719D01*
X91123Y92663D01*
X91678Y92274D01*
X92289Y91941D01*
X92845Y91663D01*
X93400Y91385D01*
X93900Y91163D01*
X94289Y90997D01*
X94511Y90941D01*
X94623Y90886D01*
X95456Y90608D01*
X96289Y90386D01*
X97122Y90163D01*
X97844Y89941D01*
X98511Y89830D01*
X99067Y89719D01*
X99400Y89608D01*
X99511D01*
X100178Y89497D01*
X100677Y89386D01*
X100900D01*
X101066Y89330D01*
X101178D01*
X101455Y89275D01*
X101622D01*
X101844Y89219D01*
X101955D01*
X102289Y89164D01*
X102455Y88997D01*
X102566Y88830D01*
Y88775D01*
X102677Y88497D01*
X102733Y88275D01*
Y88108D01*
Y88053D01*
Y86886D01*
X97067Y86719D01*
X95511Y86664D01*
X94178D01*
X93623Y86608D01*
X88512D01*
X88345Y86553D01*
X88234D01*
X88012Y86442D01*
X87957Y86386D01*
Y86330D01*
X87734Y86053D01*
X87512Y85664D01*
X87346Y85386D01*
X87234Y85331D01*
Y85275D01*
X86846Y84720D01*
X86512Y84108D01*
X86346Y83886D01*
X86179Y83664D01*
X86124Y83553D01*
X86068Y83497D01*
X84292Y81338D01*
X85124Y81387D01*
X86068D01*
X86901Y81442D01*
X87623Y81498D01*
X88290Y81553D01*
X88734Y81609D01*
X89068Y81664D01*
X89179D01*
X90123Y81775D01*
X90956Y81887D01*
X91678Y82053D01*
X92345Y82164D01*
X92845Y82331D01*
X93234Y82387D01*
X93512Y82498D01*
X93567D01*
X94345Y82720D01*
X95122Y82942D01*
X95845Y83164D01*
X96456Y83386D01*
X96956Y83609D01*
X97345Y83775D01*
X97567Y83831D01*
X97678Y83886D01*
X98400Y84220D01*
X99011Y84553D01*
X99511Y84831D01*
X100011Y85108D01*
X100344Y85275D01*
X100622Y85442D01*
X100789Y85553D01*
X100844Y85608D01*
X101122Y85831D01*
X101400Y85942D01*
X101566Y86053D01*
X101622Y86108D01*
X101900Y86219D01*
X102177Y86330D01*
X102344D01*
X102566Y86275D01*
X102733Y86108D01*
X102900Y85831D01*
X103011Y85608D01*
X103066Y85331D01*
X103122Y85053D01*
Y84886D01*
Y84831D01*
X103177Y84053D01*
Y83331D01*
Y83053D01*
Y82831D01*
Y82664D01*
Y82609D01*
Y81720D01*
Y81331D01*
Y80998D01*
X103122Y80720D01*
Y80498D01*
Y80387D01*
Y80331D01*
X103066Y79887D01*
X103011Y79553D01*
Y79276D01*
X102955Y79054D01*
X102900Y78942D01*
Y78831D01*
X102844Y78776D01*
X102677Y78609D01*
X102344Y78442D01*
X102011Y78220D01*
X101622Y78054D01*
X101289Y77831D01*
X100955Y77720D01*
X100733Y77609D01*
X100677Y77554D01*
X100066Y77276D01*
X99566Y77054D01*
X99233Y76943D01*
X98955Y76831D01*
X98733Y76776D01*
X98622Y76720D01*
X98511D01*
X98178Y76831D01*
X97956Y76998D01*
X97844Y77165D01*
Y77276D01*
Y77665D01*
Y77998D01*
Y78220D01*
Y78276D01*
Y78442D01*
X97789D01*
X97400Y78331D01*
X96956Y78220D01*
X96567Y78109D01*
X96456Y78054D01*
X96400D01*
X94900Y77609D01*
Y77054D01*
Y76776D01*
Y76443D01*
X94845Y76165D01*
Y76109D01*
Y76054D01*
X94789Y75832D01*
X94734Y75721D01*
X94511Y75498D01*
X94345Y75443D01*
X94123D01*
X93956Y75387D01*
X93789Y75332D01*
X93678D01*
X93289Y75276D01*
X93012Y75221D01*
X92789Y75165D01*
X92678D01*
X92012Y75054D01*
X91456Y74943D01*
X91012Y74887D01*
X90123D01*
X89956Y74998D01*
X89790Y75221D01*
X89623Y75721D01*
Y75943D01*
X89568Y76165D01*
Y76332D01*
Y76387D01*
Y76776D01*
X88512Y76609D01*
X87957Y76554D01*
X87512D01*
X87179Y76498D01*
X86957D01*
X86790Y76443D01*
X86679D01*
X86623Y76332D01*
Y76165D01*
Y75998D01*
Y75943D01*
Y74443D01*
X81291D01*
Y75943D01*
Y76109D01*
Y76220D01*
Y76332D01*
X81346Y76443D01*
X80902D01*
X80457Y76498D01*
X80069Y76554D01*
X79735Y76609D01*
X79569D01*
X78402Y76776D01*
Y76387D01*
Y75998D01*
X78347Y75665D01*
X78291Y75443D01*
X78235Y75332D01*
X78124Y75165D01*
X78013Y75054D01*
X77680Y74943D01*
X77235D01*
X77124Y74998D01*
X76902Y75054D01*
X76680Y75110D01*
X76569D01*
X76125Y75221D01*
X75736Y75276D01*
X75458Y75387D01*
X75347D01*
X73069Y75887D01*
Y77831D01*
X71680Y78276D01*
X71125Y78442D01*
X70736Y78609D01*
X70458Y78665D01*
X70347Y78720D01*
X70278Y78748D01*
X70292Y78720D01*
Y78554D01*
Y78498D01*
X70236Y78054D01*
X70181Y77720D01*
X70070Y77498D01*
X70014Y77442D01*
X69903Y77331D01*
X69736Y77276D01*
X69403Y77165D01*
X68959D01*
X68459Y77331D01*
X67903Y77554D01*
X67681Y77609D01*
X67459Y77720D01*
X67348Y77776D01*
X67292D01*
X66570Y78109D01*
X66070Y78442D01*
X65737Y78665D01*
X65681Y78720D01*
X65626D01*
X64792Y79331D01*
X64848Y82664D01*
Y83553D01*
Y83886D01*
Y84220D01*
Y84497D01*
Y84720D01*
Y84831D01*
Y84886D01*
Y85219D01*
X64903Y85497D01*
Y85664D01*
Y85775D01*
X64959Y85831D01*
X65626Y85997D01*
X65570Y86219D01*
X65626Y86330D01*
X65681Y86442D01*
X65903D01*
X66292Y86275D01*
X66681Y85997D01*
X67014Y85831D01*
X67070Y85719D01*
X67125D01*
X67625Y85331D01*
X68181Y84997D01*
X68681Y84664D01*
X69236Y84386D01*
X69681Y84164D01*
X70014Y83997D01*
X70236Y83886D01*
X70347Y83831D01*
X71125Y83553D01*
X71958Y83220D01*
X72736Y82998D01*
X73514Y82720D01*
X74125Y82553D01*
X74680Y82387D01*
X75013Y82331D01*
X75069Y82275D01*
X75125D01*
X75736Y82164D01*
X76458Y81998D01*
X77124Y81887D01*
X77736Y81775D01*
X78347Y81720D01*
X78791Y81664D01*
X79069Y81609D01*
X79180D01*
X80124Y81498D01*
X81013Y81442D01*
X81846Y81387D01*
X82624D01*
X83235Y81331D01*
X83755D01*
X81568Y84164D01*
X79902Y86553D01*
X73014Y86719D01*
X65181Y86886D01*
Y88053D01*
X65237Y88497D01*
X65403Y88775D01*
X65514Y88941D01*
X65570Y88997D01*
X65792Y89052D01*
X66014Y89164D01*
X66625Y89275D01*
X66903Y89330D01*
X67125Y89386D01*
X67348D01*
X68736Y89608D01*
X69347Y89775D01*
X69903Y89886D01*
X70403Y89997D01*
X70792Y90108D01*
X71014Y90163D01*
X71125D01*
X72069Y90441D01*
X72514Y90552D01*
X72903Y90719D01*
X73236Y90830D01*
X73514Y90941D01*
X73680Y90997D01*
X73736D01*
X74680Y91441D01*
X75069Y91608D01*
X75458Y91830D01*
X75736Y91997D01*
X75958Y92108D01*
X76069Y92163D01*
X76125Y92219D01*
X76847Y92663D01*
X77458Y93108D01*
X77680Y93330D01*
X77847Y93496D01*
X77958Y93552D01*
X78013Y93608D01*
X78569Y94274D01*
X79013Y94941D01*
X79180Y95218D01*
X79346Y95441D01*
X79402Y95607D01*
X79458Y95663D01*
X80013Y96774D01*
X80180Y97329D01*
X80402Y97829D01*
X80513Y98274D01*
X80624Y98607D01*
X80735Y98885D01*
Y98940D01*
X80902Y99663D01*
X81068Y100385D01*
X81235Y101107D01*
X81346Y101773D01*
X81457Y102329D01*
X81513Y102829D01*
X81568Y103107D01*
Y103218D01*
X81679Y104162D01*
X81791Y105051D01*
X81846Y105995D01*
X81902Y106828D01*
X81957Y107550D01*
X82013Y108106D01*
Y108328D01*
Y108495D01*
Y108550D01*
Y108606D01*
X82068Y109495D01*
Y110328D01*
X82124Y110661D01*
Y110939D01*
Y111106D01*
Y111161D01*
X82179Y111661D01*
Y112106D01*
X82235Y112439D01*
Y112772D01*
X82290Y112994D01*
Y113161D01*
Y113217D01*
Y113272D01*
X82902Y113328D01*
X82402Y115716D01*
X85679Y115494D01*
D02*
G37*
G36*
X108066Y90052D02*
X108121Y89997D01*
X108510Y89775D01*
X108732Y89552D01*
X108899Y89386D01*
X108954Y89330D01*
X109232Y88941D01*
X109510Y88664D01*
X109677Y88441D01*
X109732Y88330D01*
X110065Y87997D01*
X110343Y87775D01*
X110565Y87608D01*
X110621Y87553D01*
X110899Y87275D01*
X111010Y87108D01*
X111065Y87053D01*
X111121D01*
X111232Y87108D01*
X111287Y87164D01*
X111343D01*
X111510Y87275D01*
X111676Y87442D01*
X111899Y87608D01*
X111954Y87664D01*
X112287Y87997D01*
X112510Y88219D01*
X112621Y88330D01*
X112676Y88386D01*
X114954Y89997D01*
X114898Y87386D01*
X114843Y86775D01*
X114787Y86219D01*
X114676Y85719D01*
X114621Y85331D01*
X114509Y84997D01*
X114454Y84775D01*
X114398Y84608D01*
Y84553D01*
X114065Y83775D01*
X113676Y83053D01*
X113510Y82775D01*
X113343Y82553D01*
X113287Y82387D01*
X113232Y82331D01*
X112954Y81942D01*
X112621Y81609D01*
X111899Y80887D01*
X111565Y80609D01*
X111287Y80387D01*
X111065Y80220D01*
X111010Y80164D01*
X110454Y79776D01*
X110010Y79442D01*
X109621Y79220D01*
X109343Y79109D01*
X109121Y78998D01*
X108954Y78942D01*
X108843D01*
X108621Y78998D01*
X108399Y79220D01*
X108177Y79498D01*
X108066Y79776D01*
X107899Y80109D01*
X107788Y80331D01*
X107732Y80553D01*
Y80609D01*
X107566Y81331D01*
X107399Y82053D01*
X107344Y82387D01*
X107288Y82609D01*
X107232Y82775D01*
Y82831D01*
X107066Y83886D01*
X107010Y84386D01*
X106955Y84831D01*
X106899Y85219D01*
Y85497D01*
X106844Y85719D01*
Y85775D01*
X106788Y86330D01*
Y86775D01*
Y87219D01*
Y87553D01*
Y87830D01*
Y88053D01*
Y88164D01*
Y88219D01*
X106844Y88608D01*
Y88941D01*
X106899Y89164D01*
Y89275D01*
X106955Y89441D01*
Y89608D01*
X107010Y89719D01*
X107677Y89886D01*
Y90052D01*
Y90108D01*
X107843D01*
X108066Y90052D01*
D02*
G37*
G36*
X61793Y81998D02*
X62126Y81831D01*
X62404Y81664D01*
X62737Y81442D01*
X62959Y81220D01*
X63126Y81053D01*
X63181Y80998D01*
X63570Y80498D01*
X63959Y79942D01*
X64070Y79720D01*
X64181Y79553D01*
X64292Y79442D01*
Y79387D01*
X64737Y78609D01*
X65070Y77887D01*
X65181Y77609D01*
X65292Y77387D01*
X65348Y77220D01*
Y77165D01*
X65681Y76332D01*
X65959Y75554D01*
X66070Y75276D01*
X66125Y75054D01*
X66181Y74887D01*
Y74832D01*
X66459Y73832D01*
X66514Y73443D01*
X66625Y73054D01*
X66681Y72776D01*
Y72554D01*
X66737Y72387D01*
Y72332D01*
X66903Y70665D01*
X65514Y70777D01*
X64903Y70888D01*
X64348Y71054D01*
X63848Y71221D01*
X63459Y71332D01*
X63126Y71499D01*
X62848Y71554D01*
X62681Y71665D01*
X62626D01*
X62015Y71943D01*
X61459Y72165D01*
X60904Y72443D01*
X60459Y72721D01*
X60126Y72888D01*
X59848Y73054D01*
X59682Y73165D01*
X59626Y73221D01*
X59182Y73554D01*
X58737Y73998D01*
X58293Y74387D01*
X57960Y74776D01*
X57626Y75110D01*
X57404Y75387D01*
X57238Y75554D01*
X57182Y75609D01*
X56849Y75887D01*
X56571Y76220D01*
X56071Y76943D01*
X55904Y77220D01*
X55738Y77498D01*
X55682Y77665D01*
X55627Y77720D01*
X55515Y77998D01*
X55460Y78276D01*
X55404Y78665D01*
X55460Y78942D01*
Y78998D01*
X55571Y79165D01*
X55793Y79220D01*
X56571D01*
X56738Y79165D01*
X56904Y79109D01*
X56960D01*
X57737Y78776D01*
X58515Y78554D01*
X58793Y78442D01*
X59015Y78331D01*
X59182Y78276D01*
X59237D01*
X59682Y78165D01*
X60015Y78054D01*
X60293Y77998D01*
X60515Y77943D01*
X60626Y77887D01*
Y77998D01*
X60682Y78165D01*
Y78442D01*
Y78720D01*
Y78998D01*
Y79276D01*
Y79442D01*
Y79498D01*
Y80220D01*
X60793Y80775D01*
X60848Y81220D01*
X60959Y81553D01*
X61070Y81775D01*
X61126Y81887D01*
X61237Y81998D01*
X61459Y82053D01*
X61793Y81998D01*
D02*
G37*
G36*
X106733D02*
X106899Y81775D01*
X107066Y81442D01*
X107177Y81053D01*
X107232Y80609D01*
X107288Y80164D01*
Y79831D01*
Y79609D01*
Y79498D01*
Y78942D01*
Y78554D01*
Y78276D01*
Y78109D01*
Y77998D01*
Y77887D01*
X107344D01*
X107510Y77943D01*
X108010Y78109D01*
X108288Y78165D01*
X108510Y78220D01*
X108621Y78276D01*
X108677D01*
X109565Y78554D01*
X109899Y78665D01*
X110176Y78776D01*
X110399Y78887D01*
X110565Y78942D01*
X110676Y78998D01*
X110732D01*
X111232Y79165D01*
X111676Y79220D01*
X111954D01*
X112176Y79165D01*
X112343Y79109D01*
X112399Y79054D01*
X112454Y78998D01*
X112510Y78609D01*
Y78220D01*
X112399Y77887D01*
X112343Y77831D01*
Y77776D01*
X112065Y77276D01*
X111788Y76831D01*
X111510Y76443D01*
X111287Y76165D01*
X111065Y75943D01*
X110954Y75721D01*
X110843Y75665D01*
X110788Y75609D01*
X110343Y75054D01*
X109899Y74609D01*
X109454Y74221D01*
X109066Y73832D01*
X108732Y73610D01*
X108510Y73387D01*
X108343Y73276D01*
X108288Y73221D01*
X107344Y72610D01*
X106899Y72387D01*
X106455Y72165D01*
X106121Y71999D01*
X105844Y71832D01*
X105622Y71776D01*
X105566Y71721D01*
X104455Y71332D01*
X103955Y71165D01*
X103511Y71054D01*
X103122Y70943D01*
X102844Y70888D01*
X102622Y70832D01*
X102566D01*
X101066Y70665D01*
X101178Y72387D01*
X101344Y73221D01*
X101566Y74054D01*
X101622Y74387D01*
X101733Y74665D01*
X101789Y74832D01*
Y74887D01*
X102066Y75721D01*
X102289Y76443D01*
X102400Y76776D01*
X102511Y76998D01*
X102566Y77109D01*
Y77165D01*
X102955Y77998D01*
X103288Y78720D01*
X103455Y78998D01*
X103566Y79220D01*
X103677Y79331D01*
Y79387D01*
X103899Y79720D01*
X104066Y79998D01*
X104399Y80442D01*
X104622Y80664D01*
X104677Y80720D01*
X105344Y80887D01*
X105622Y81387D01*
X105899Y81720D01*
X106177Y81887D01*
X106344Y81998D01*
X106510Y82053D01*
X106621D01*
X106733Y81998D01*
D02*
G37*
G36*
X61959Y70888D02*
X62182Y70777D01*
X62348Y70721D01*
X62459Y70665D01*
X62515D01*
X63348Y70443D01*
X64181Y70277D01*
X64515Y70221D01*
X64792Y70166D01*
X65015Y70110D01*
X65070D01*
X65737Y70054D01*
X66459Y69999D01*
X67181Y69943D01*
X67903Y69888D01*
X68570D01*
X69070Y69832D01*
X69570D01*
X70458Y69777D01*
X71236D01*
X71847Y69721D01*
X72347Y69666D01*
X72736D01*
X72958Y69610D01*
X73180D01*
X73958Y69499D01*
X74569Y69332D01*
X74847Y69221D01*
X75013Y69166D01*
X75125Y69110D01*
X75180D01*
X76291Y68721D01*
X76847Y68499D01*
X77347Y68277D01*
X77791Y68110D01*
X78124Y67944D01*
X78347Y67832D01*
X78402Y67777D01*
X79680Y67166D01*
X80291Y66832D01*
X80791Y66555D01*
X81235Y66333D01*
X81568Y66110D01*
X81791Y65999D01*
X81846Y65944D01*
X82513Y65555D01*
X83013Y65222D01*
X83290Y65055D01*
X83401Y64999D01*
X83624Y64888D01*
X83735Y64833D01*
X83957Y64722D01*
X84013Y64666D01*
X84068Y64722D01*
X84235Y64833D01*
X84457Y64944D01*
X84568Y64999D01*
X85068Y65277D01*
X85568Y65555D01*
X85901Y65777D01*
X85957Y65833D01*
X86012D01*
X87346Y66610D01*
X87957Y66944D01*
X88457Y67221D01*
X88901Y67444D01*
X89290Y67610D01*
X89512Y67721D01*
X89568Y67777D01*
X90790Y68332D01*
X91345Y68610D01*
X91845Y68777D01*
X92289Y68943D01*
X92567Y69054D01*
X92789Y69166D01*
X92845D01*
X93512Y69388D01*
X94123Y69499D01*
X94345Y69555D01*
X94567Y69610D01*
X94734D01*
X95178Y69666D01*
X95734Y69721D01*
X96956Y69777D01*
X97456D01*
X97956Y69832D01*
X98344D01*
X99400Y69888D01*
X100289Y69943D01*
X101066D01*
X101733Y69999D01*
X102233Y70054D01*
X102566Y70110D01*
X102844D01*
X103399Y70221D01*
X103899Y70277D01*
X104344Y70388D01*
X104677Y70499D01*
X104955Y70554D01*
X105177Y70610D01*
X105288Y70665D01*
X105344D01*
X105733Y70832D01*
X106066Y70888D01*
X106288Y70943D01*
X106733D01*
X106955Y70888D01*
X107066Y70832D01*
X107121Y70777D01*
X107177Y70610D01*
X107066Y70332D01*
X106955Y70054D01*
X106788Y69721D01*
X106621Y69443D01*
X106455Y69221D01*
X106344Y69054D01*
X106288Y68999D01*
X105566Y68110D01*
X105233Y67721D01*
X104955Y67444D01*
X104677Y67166D01*
X104510Y66999D01*
X104399Y66888D01*
X104344Y66832D01*
X103622Y66221D01*
X102900Y65722D01*
X102566Y65555D01*
X102289Y65388D01*
X102122Y65333D01*
X102066Y65277D01*
X101122Y64833D01*
X100677Y64666D01*
X100289Y64499D01*
X99955Y64388D01*
X99733Y64333D01*
X99566Y64277D01*
X99511D01*
X99233Y64222D01*
X98955Y64111D01*
X98289Y64000D01*
X98011Y63944D01*
X97789D01*
X97622Y63888D01*
X97567D01*
X96567Y63833D01*
X96067Y63777D01*
X95678Y63722D01*
X95289D01*
X95011Y63666D01*
X94734D01*
X93734Y63611D01*
X93289D01*
X92845Y63555D01*
X92512D01*
X92178Y63499D01*
X91456D01*
X91012Y63444D01*
X90401D01*
X90234Y63388D01*
X89956D01*
X89123Y63277D01*
X88345Y63111D01*
X88068Y63055D01*
X87790Y63000D01*
X87623Y62944D01*
X87568D01*
X87123Y62833D01*
X86790Y62777D01*
X86758Y62769D01*
X86901Y62722D01*
X87179Y62611D01*
X87679Y62389D01*
X87901Y62277D01*
X88068Y62166D01*
X88179Y62111D01*
X88234Y62055D01*
X88679Y61778D01*
X89123Y61444D01*
X89457Y61222D01*
X89512Y61167D01*
X89568Y61111D01*
X89790Y60889D01*
X89956Y60666D01*
X90012Y60444D01*
Y60278D01*
Y60000D01*
X89956Y59944D01*
Y59889D01*
X89790Y59833D01*
X89623Y59778D01*
X89457Y59722D01*
X89401D01*
X89123Y59611D01*
X88901Y59500D01*
X88679Y59444D01*
X88623Y59389D01*
X87290Y59000D01*
X86068Y60055D01*
X85846Y60222D01*
X85568Y60444D01*
X85401Y60611D01*
X85290Y60666D01*
X84957Y60944D01*
X84735Y61111D01*
X84513Y61222D01*
X84457Y61278D01*
X84013Y61778D01*
X83457Y61278D01*
X83179Y61111D01*
X82902Y60889D01*
X82735Y60722D01*
X82624Y60666D01*
X82346Y60444D01*
X82124Y60222D01*
X82013Y60167D01*
X81957Y60111D01*
X80680Y59000D01*
X79069Y59444D01*
X78847Y59556D01*
X78624Y59667D01*
X78402Y59778D01*
X78291Y59833D01*
X78013Y60055D01*
X77847Y60278D01*
X77791Y60444D01*
Y60500D01*
X77847Y60666D01*
X77902Y60778D01*
X78124Y61055D01*
X78347Y61278D01*
X78458Y61333D01*
X78958Y61666D01*
X79346Y61889D01*
X79569Y62055D01*
X79680Y62111D01*
X80069Y62277D01*
X80346Y62444D01*
X80624Y62555D01*
X80791Y62666D01*
X81068Y62833D01*
X81124Y62888D01*
X81013D01*
X80791Y62944D01*
X80569D01*
X80457Y63000D01*
X80402D01*
X79569Y63166D01*
X78791Y63277D01*
X78513Y63333D01*
X78291Y63388D01*
X77791D01*
X77513Y63444D01*
X76791D01*
X76513Y63499D01*
X76013D01*
X74958Y63555D01*
X74458Y63611D01*
X74069D01*
X73680Y63666D01*
X73180D01*
X71736Y63777D01*
X70514Y63944D01*
X69458Y64111D01*
X68570Y64277D01*
X67903Y64444D01*
X67403Y64611D01*
X67125Y64666D01*
X67014Y64722D01*
X66237Y65055D01*
X65514Y65499D01*
X64792Y65944D01*
X64181Y66444D01*
X63626Y66888D01*
X63237Y67221D01*
X62959Y67444D01*
X62848Y67555D01*
X62459Y67999D01*
X62126Y68388D01*
X61848Y68666D01*
X61793Y68721D01*
X61737Y68777D01*
X61348Y69277D01*
X61070Y69666D01*
X60959Y69943D01*
X60904Y70054D01*
X61515Y69888D01*
X61237Y70166D01*
X61070Y70443D01*
X61015Y70610D01*
X60959Y70777D01*
X61015Y70888D01*
X61070Y70943D01*
X61237Y70999D01*
X61459D01*
X61959Y70888D01*
D02*
G37*
G36*
X84461Y26482D02*
X84545D01*
X84641Y26470D01*
X84869Y26422D01*
X85122Y26362D01*
X85386Y26266D01*
X85650Y26122D01*
X85782Y26037D01*
X85903Y25941D01*
X85915Y25929D01*
X85927Y25917D01*
X85963Y25881D01*
X85999Y25845D01*
X86059Y25785D01*
X86107Y25713D01*
X86239Y25545D01*
X86371Y25329D01*
X86491Y25064D01*
X86599Y24764D01*
X86671Y24428D01*
X85650Y24344D01*
Y24355D01*
X85638Y24367D01*
X85626Y24440D01*
X85590Y24548D01*
X85542Y24680D01*
X85494Y24824D01*
X85422Y24968D01*
X85338Y25100D01*
X85254Y25208D01*
X85230Y25233D01*
X85182Y25281D01*
X85098Y25353D01*
X84978Y25437D01*
X84821Y25509D01*
X84653Y25581D01*
X84449Y25629D01*
X84233Y25653D01*
X84149D01*
X84052Y25641D01*
X83944Y25617D01*
X83800Y25581D01*
X83656Y25533D01*
X83512Y25473D01*
X83368Y25377D01*
X83344Y25365D01*
X83284Y25317D01*
X83199Y25233D01*
X83091Y25112D01*
X82971Y24968D01*
X82839Y24800D01*
X82719Y24584D01*
X82599Y24344D01*
Y24332D01*
X82587Y24307D01*
X82575Y24271D01*
X82551Y24223D01*
X82539Y24151D01*
X82515Y24067D01*
X82491Y23971D01*
X82467Y23851D01*
X82430Y23719D01*
X82407Y23575D01*
X82382Y23418D01*
X82370Y23250D01*
X82346Y23058D01*
X82334Y22866D01*
X82322Y22650D01*
Y22433D01*
X82334Y22445D01*
X82382Y22517D01*
X82467Y22613D01*
X82575Y22734D01*
X82695Y22878D01*
X82851Y23010D01*
X83019Y23142D01*
X83211Y23262D01*
X83223D01*
X83236Y23274D01*
X83308Y23310D01*
X83416Y23346D01*
X83560Y23406D01*
X83728Y23454D01*
X83920Y23491D01*
X84124Y23526D01*
X84341Y23539D01*
X84437D01*
X84509Y23526D01*
X84605Y23514D01*
X84701Y23503D01*
X84821Y23479D01*
X84942Y23442D01*
X85218Y23358D01*
X85362Y23298D01*
X85506Y23214D01*
X85650Y23130D01*
X85807Y23034D01*
X85951Y22914D01*
X86083Y22782D01*
X86095Y22770D01*
X86119Y22746D01*
X86155Y22710D01*
X86191Y22650D01*
X86251Y22565D01*
X86311Y22481D01*
X86371Y22373D01*
X86443Y22253D01*
X86515Y22121D01*
X86575Y21977D01*
X86636Y21809D01*
X86696Y21640D01*
X86732Y21460D01*
X86768Y21256D01*
X86792Y21052D01*
X86804Y20835D01*
Y20823D01*
Y20799D01*
Y20763D01*
Y20703D01*
X86792Y20631D01*
Y20559D01*
X86756Y20367D01*
X86720Y20138D01*
X86659Y19898D01*
X86575Y19634D01*
X86455Y19382D01*
Y19370D01*
X86443Y19358D01*
X86419Y19322D01*
X86395Y19274D01*
X86323Y19153D01*
X86215Y18997D01*
X86083Y18829D01*
X85927Y18661D01*
X85734Y18493D01*
X85530Y18348D01*
X85518D01*
X85506Y18336D01*
X85470Y18312D01*
X85422Y18300D01*
X85302Y18240D01*
X85146Y18180D01*
X84942Y18108D01*
X84713Y18060D01*
X84461Y18012D01*
X84185Y18000D01*
X84124D01*
X84064Y18012D01*
X83968D01*
X83860Y18024D01*
X83740Y18048D01*
X83596Y18084D01*
X83452Y18120D01*
X83284Y18168D01*
X83115Y18228D01*
X82947Y18300D01*
X82767Y18397D01*
X82599Y18505D01*
X82430Y18625D01*
X82262Y18769D01*
X82106Y18937D01*
X82094Y18949D01*
X82070Y18985D01*
X82034Y19033D01*
X81986Y19117D01*
X81914Y19225D01*
X81854Y19346D01*
X81782Y19502D01*
X81710Y19670D01*
X81626Y19874D01*
X81553Y20103D01*
X81493Y20355D01*
X81433Y20631D01*
X81373Y20944D01*
X81337Y21280D01*
X81313Y21640D01*
X81301Y22025D01*
Y22037D01*
Y22049D01*
Y22085D01*
Y22133D01*
X81313Y22253D01*
Y22421D01*
X81325Y22613D01*
X81349Y22842D01*
X81373Y23094D01*
X81409Y23370D01*
X81457Y23647D01*
X81517Y23947D01*
X81589Y24235D01*
X81674Y24524D01*
X81782Y24800D01*
X81902Y25064D01*
X82034Y25317D01*
X82190Y25533D01*
X82202Y25545D01*
X82226Y25569D01*
X82274Y25617D01*
X82334Y25689D01*
X82407Y25761D01*
X82503Y25833D01*
X82623Y25929D01*
X82743Y26014D01*
X82887Y26098D01*
X83043Y26194D01*
X83223Y26266D01*
X83404Y26350D01*
X83608Y26410D01*
X83824Y26458D01*
X84052Y26482D01*
X84293Y26494D01*
X84389D01*
X84461Y26482D01*
D02*
G37*
G36*
X80520Y20643D02*
X77361D01*
Y21664D01*
X80520D01*
Y20643D01*
D02*
G37*
G36*
X69599Y21652D02*
Y21640D01*
Y21592D01*
Y21532D01*
Y21448D01*
X69587Y21340D01*
Y21220D01*
X69575Y21076D01*
X69563Y20931D01*
X69527Y20607D01*
X69479Y20271D01*
X69407Y19946D01*
X69359Y19790D01*
X69311Y19646D01*
Y19634D01*
X69299Y19610D01*
X69275Y19574D01*
X69251Y19526D01*
X69179Y19394D01*
X69071Y19225D01*
X68927Y19033D01*
X68758Y18841D01*
X68542Y18637D01*
X68278Y18457D01*
X68266D01*
X68242Y18433D01*
X68206Y18420D01*
X68146Y18384D01*
X68074Y18348D01*
X67977Y18312D01*
X67881Y18276D01*
X67761Y18228D01*
X67629Y18180D01*
X67485Y18144D01*
X67329Y18108D01*
X67148Y18072D01*
X66968Y18048D01*
X66776Y18024D01*
X66343Y18000D01*
X66235D01*
X66151Y18012D01*
X66055D01*
X65935Y18024D01*
X65803Y18036D01*
X65671Y18048D01*
X65370Y18096D01*
X65046Y18168D01*
X64734Y18264D01*
X64433Y18397D01*
X64421D01*
X64397Y18420D01*
X64361Y18444D01*
X64313Y18469D01*
X64181Y18565D01*
X64025Y18697D01*
X63845Y18865D01*
X63676Y19057D01*
X63508Y19297D01*
X63376Y19562D01*
Y19574D01*
X63364Y19598D01*
X63352Y19646D01*
X63328Y19706D01*
X63304Y19778D01*
X63280Y19874D01*
X63244Y19982D01*
X63220Y20115D01*
X63196Y20259D01*
X63160Y20415D01*
X63136Y20583D01*
X63112Y20763D01*
X63088Y20968D01*
X63076Y21184D01*
X63064Y21412D01*
Y21652D01*
Y26458D01*
X64169D01*
Y21652D01*
Y21640D01*
Y21604D01*
Y21544D01*
Y21472D01*
X64181Y21388D01*
Y21280D01*
X64193Y21052D01*
X64217Y20787D01*
X64253Y20523D01*
X64301Y20271D01*
X64325Y20163D01*
X64361Y20054D01*
X64373Y20030D01*
X64397Y19970D01*
X64457Y19886D01*
X64529Y19766D01*
X64613Y19646D01*
X64734Y19514D01*
X64878Y19382D01*
X65046Y19274D01*
X65070Y19261D01*
X65130Y19225D01*
X65238Y19189D01*
X65382Y19141D01*
X65551Y19081D01*
X65767Y19045D01*
X65995Y19009D01*
X66247Y18997D01*
X66368D01*
X66440Y19009D01*
X66548D01*
X66656Y19021D01*
X66920Y19069D01*
X67208Y19129D01*
X67485Y19225D01*
X67749Y19358D01*
X67869Y19442D01*
X67977Y19538D01*
X67989Y19550D01*
X68001Y19562D01*
X68025Y19598D01*
X68061Y19646D01*
X68098Y19718D01*
X68146Y19790D01*
X68194Y19898D01*
X68242Y20006D01*
X68290Y20138D01*
X68326Y20295D01*
X68374Y20475D01*
X68410Y20667D01*
X68446Y20883D01*
X68470Y21112D01*
X68494Y21376D01*
Y21652D01*
Y26458D01*
X69599D01*
Y21652D01*
D02*
G37*
G36*
X128493Y18144D02*
X127472D01*
Y24644D01*
X127460Y24632D01*
X127400Y24584D01*
X127328Y24512D01*
X127207Y24428D01*
X127075Y24320D01*
X126907Y24199D01*
X126715Y24067D01*
X126499Y23935D01*
X126487D01*
X126475Y23923D01*
X126403Y23875D01*
X126282Y23815D01*
X126138Y23743D01*
X125970Y23659D01*
X125790Y23575D01*
X125610Y23491D01*
X125429Y23418D01*
Y24404D01*
X125441D01*
X125465Y24428D01*
X125513Y24440D01*
X125574Y24476D01*
X125646Y24512D01*
X125730Y24560D01*
X125934Y24680D01*
X126174Y24812D01*
X126414Y24980D01*
X126667Y25173D01*
X126919Y25377D01*
X126931Y25389D01*
X126943Y25401D01*
X126979Y25437D01*
X127027Y25473D01*
X127135Y25593D01*
X127280Y25737D01*
X127424Y25905D01*
X127580Y26098D01*
X127712Y26290D01*
X127832Y26494D01*
X128493D01*
Y18144D01*
D02*
G37*
G36*
X121140Y26482D02*
X121236Y26470D01*
X121356Y26458D01*
X121489Y26434D01*
X121621Y26410D01*
X121933Y26326D01*
X122246Y26206D01*
X122402Y26134D01*
X122558Y26049D01*
X122702Y25941D01*
X122834Y25821D01*
X122846Y25809D01*
X122870Y25797D01*
X122894Y25749D01*
X122942Y25701D01*
X123003Y25641D01*
X123062Y25557D01*
X123123Y25473D01*
X123195Y25365D01*
X123315Y25136D01*
X123435Y24848D01*
X123483Y24704D01*
X123507Y24536D01*
X123531Y24367D01*
X123543Y24187D01*
Y24163D01*
Y24103D01*
X123531Y24007D01*
X123519Y23875D01*
X123495Y23731D01*
X123447Y23563D01*
X123399Y23382D01*
X123327Y23202D01*
X123315Y23178D01*
X123291Y23118D01*
X123243Y23022D01*
X123171Y22890D01*
X123075Y22746D01*
X122954Y22565D01*
X122810Y22385D01*
X122642Y22181D01*
X122618Y22157D01*
X122558Y22085D01*
X122498Y22025D01*
X122438Y21965D01*
X122366Y21893D01*
X122270Y21797D01*
X122174Y21700D01*
X122053Y21592D01*
X121933Y21472D01*
X121789Y21340D01*
X121633Y21208D01*
X121465Y21052D01*
X121272Y20895D01*
X121080Y20727D01*
X121068Y20715D01*
X121044Y20691D01*
X120996Y20655D01*
X120936Y20607D01*
X120864Y20535D01*
X120780Y20463D01*
X120588Y20307D01*
X120383Y20127D01*
X120191Y19946D01*
X120023Y19790D01*
X119951Y19730D01*
X119891Y19670D01*
X119879Y19658D01*
X119843Y19622D01*
X119795Y19574D01*
X119735Y19502D01*
X119675Y19418D01*
X119602Y19334D01*
X119458Y19129D01*
X123555D01*
Y18144D01*
X118041D01*
Y18156D01*
Y18204D01*
Y18276D01*
X118053Y18372D01*
X118065Y18481D01*
X118089Y18601D01*
X118113Y18721D01*
X118161Y18853D01*
Y18865D01*
X118173Y18877D01*
X118197Y18949D01*
X118245Y19057D01*
X118317Y19201D01*
X118413Y19370D01*
X118533Y19562D01*
X118665Y19754D01*
X118834Y19958D01*
Y19970D01*
X118858Y19982D01*
X118918Y20054D01*
X119026Y20163D01*
X119182Y20319D01*
X119362Y20499D01*
X119590Y20715D01*
X119867Y20956D01*
X120167Y21208D01*
X120179Y21220D01*
X120227Y21256D01*
X120299Y21316D01*
X120383Y21388D01*
X120492Y21484D01*
X120624Y21592D01*
X120756Y21712D01*
X120912Y21845D01*
X121212Y22133D01*
X121513Y22421D01*
X121657Y22565D01*
X121789Y22710D01*
X121909Y22842D01*
X122005Y22974D01*
Y22986D01*
X122029Y22998D01*
X122053Y23034D01*
X122077Y23082D01*
X122162Y23214D01*
X122258Y23370D01*
X122342Y23563D01*
X122426Y23767D01*
X122474Y23995D01*
X122498Y24211D01*
Y24223D01*
Y24235D01*
X122486Y24307D01*
X122474Y24428D01*
X122438Y24560D01*
X122390Y24728D01*
X122306Y24896D01*
X122198Y25064D01*
X122053Y25233D01*
X122029Y25257D01*
X121969Y25305D01*
X121885Y25365D01*
X121753Y25449D01*
X121585Y25521D01*
X121393Y25593D01*
X121164Y25641D01*
X120912Y25653D01*
X120840D01*
X120792Y25641D01*
X120648Y25629D01*
X120479Y25593D01*
X120299Y25545D01*
X120095Y25461D01*
X119903Y25353D01*
X119723Y25208D01*
X119699Y25185D01*
X119650Y25124D01*
X119578Y25028D01*
X119506Y24884D01*
X119422Y24716D01*
X119350Y24500D01*
X119302Y24259D01*
X119278Y23983D01*
X118233Y24091D01*
Y24103D01*
X118245Y24139D01*
Y24199D01*
X118257Y24283D01*
X118281Y24380D01*
X118305Y24488D01*
X118341Y24620D01*
X118377Y24752D01*
X118473Y25040D01*
X118617Y25329D01*
X118701Y25473D01*
X118809Y25617D01*
X118918Y25749D01*
X119038Y25869D01*
X119050Y25881D01*
X119074Y25893D01*
X119110Y25929D01*
X119170Y25965D01*
X119242Y26014D01*
X119326Y26061D01*
X119422Y26122D01*
X119542Y26182D01*
X119675Y26242D01*
X119819Y26302D01*
X119975Y26350D01*
X120143Y26398D01*
X120323Y26434D01*
X120515Y26470D01*
X120720Y26482D01*
X120936Y26494D01*
X121056D01*
X121140Y26482D01*
D02*
G37*
G36*
X108213D02*
X108309Y26470D01*
X108429Y26458D01*
X108561Y26434D01*
X108694Y26410D01*
X109006Y26326D01*
X109318Y26206D01*
X109474Y26134D01*
X109631Y26049D01*
X109775Y25941D01*
X109907Y25821D01*
X109919Y25809D01*
X109943Y25797D01*
X109967Y25749D01*
X110015Y25701D01*
X110075Y25641D01*
X110135Y25557D01*
X110195Y25473D01*
X110267Y25365D01*
X110388Y25136D01*
X110508Y24848D01*
X110556Y24704D01*
X110580Y24536D01*
X110604Y24367D01*
X110616Y24187D01*
Y24163D01*
Y24103D01*
X110604Y24007D01*
X110592Y23875D01*
X110568Y23731D01*
X110520Y23563D01*
X110472Y23382D01*
X110400Y23202D01*
X110388Y23178D01*
X110364Y23118D01*
X110316Y23022D01*
X110243Y22890D01*
X110147Y22746D01*
X110027Y22565D01*
X109883Y22385D01*
X109715Y22181D01*
X109691Y22157D01*
X109631Y22085D01*
X109571Y22025D01*
X109510Y21965D01*
X109438Y21893D01*
X109342Y21797D01*
X109246Y21700D01*
X109126Y21592D01*
X109006Y21472D01*
X108862Y21340D01*
X108706Y21208D01*
X108537Y21052D01*
X108345Y20895D01*
X108153Y20727D01*
X108141Y20715D01*
X108117Y20691D01*
X108069Y20655D01*
X108009Y20607D01*
X107937Y20535D01*
X107853Y20463D01*
X107660Y20307D01*
X107456Y20127D01*
X107264Y19946D01*
X107096Y19790D01*
X107024Y19730D01*
X106964Y19670D01*
X106952Y19658D01*
X106916Y19622D01*
X106867Y19574D01*
X106807Y19502D01*
X106747Y19418D01*
X106675Y19334D01*
X106531Y19129D01*
X110628D01*
Y18144D01*
X105113D01*
Y18156D01*
Y18204D01*
Y18276D01*
X105125Y18372D01*
X105137Y18481D01*
X105161Y18601D01*
X105185Y18721D01*
X105233Y18853D01*
Y18865D01*
X105246Y18877D01*
X105269Y18949D01*
X105318Y19057D01*
X105390Y19201D01*
X105486Y19370D01*
X105606Y19562D01*
X105738Y19754D01*
X105906Y19958D01*
Y19970D01*
X105930Y19982D01*
X105990Y20054D01*
X106098Y20163D01*
X106255Y20319D01*
X106435Y20499D01*
X106663Y20715D01*
X106939Y20956D01*
X107240Y21208D01*
X107252Y21220D01*
X107300Y21256D01*
X107372Y21316D01*
X107456Y21388D01*
X107564Y21484D01*
X107696Y21592D01*
X107829Y21712D01*
X107985Y21845D01*
X108285Y22133D01*
X108585Y22421D01*
X108730Y22565D01*
X108862Y22710D01*
X108982Y22842D01*
X109078Y22974D01*
Y22986D01*
X109102Y22998D01*
X109126Y23034D01*
X109150Y23082D01*
X109234Y23214D01*
X109330Y23370D01*
X109414Y23563D01*
X109499Y23767D01*
X109547Y23995D01*
X109571Y24211D01*
Y24223D01*
Y24235D01*
X109559Y24307D01*
X109547Y24428D01*
X109510Y24560D01*
X109462Y24728D01*
X109378Y24896D01*
X109270Y25064D01*
X109126Y25233D01*
X109102Y25257D01*
X109042Y25305D01*
X108958Y25365D01*
X108826Y25449D01*
X108658Y25521D01*
X108465Y25593D01*
X108237Y25641D01*
X107985Y25653D01*
X107913D01*
X107865Y25641D01*
X107720Y25629D01*
X107552Y25593D01*
X107372Y25545D01*
X107168Y25461D01*
X106975Y25353D01*
X106795Y25208D01*
X106771Y25185D01*
X106723Y25124D01*
X106651Y25028D01*
X106579Y24884D01*
X106495Y24716D01*
X106423Y24500D01*
X106375Y24259D01*
X106351Y23983D01*
X105306Y24091D01*
Y24103D01*
X105318Y24139D01*
Y24199D01*
X105330Y24283D01*
X105354Y24380D01*
X105378Y24488D01*
X105414Y24620D01*
X105450Y24752D01*
X105546Y25040D01*
X105690Y25329D01*
X105774Y25473D01*
X105882Y25617D01*
X105990Y25749D01*
X106110Y25869D01*
X106123Y25881D01*
X106146Y25893D01*
X106183Y25929D01*
X106243Y25965D01*
X106315Y26014D01*
X106399Y26061D01*
X106495Y26122D01*
X106615Y26182D01*
X106747Y26242D01*
X106891Y26302D01*
X107048Y26350D01*
X107216Y26398D01*
X107396Y26434D01*
X107588Y26470D01*
X107793Y26482D01*
X108009Y26494D01*
X108129D01*
X108213Y26482D01*
D02*
G37*
G36*
X98001Y26446D02*
X98097D01*
X98313Y26422D01*
X98554Y26398D01*
X98806Y26350D01*
X99058Y26290D01*
X99286Y26206D01*
X99298D01*
X99311Y26194D01*
X99383Y26158D01*
X99491Y26098D01*
X99611Y26014D01*
X99755Y25905D01*
X99911Y25773D01*
X100055Y25605D01*
X100188Y25425D01*
X100199Y25401D01*
X100236Y25329D01*
X100296Y25233D01*
X100356Y25088D01*
X100416Y24920D01*
X100476Y24740D01*
X100512Y24536D01*
X100524Y24332D01*
Y24307D01*
Y24247D01*
X100512Y24139D01*
X100488Y24007D01*
X100452Y23851D01*
X100392Y23683D01*
X100320Y23514D01*
X100224Y23334D01*
X100211Y23310D01*
X100176Y23262D01*
X100103Y23166D01*
X100007Y23070D01*
X99887Y22950D01*
X99743Y22818D01*
X99563Y22698D01*
X99359Y22577D01*
X99370D01*
X99395Y22565D01*
X99431Y22553D01*
X99479Y22529D01*
X99623Y22481D01*
X99791Y22397D01*
X99971Y22289D01*
X100176Y22157D01*
X100356Y22001D01*
X100524Y21809D01*
X100536Y21785D01*
X100584Y21712D01*
X100656Y21604D01*
X100728Y21460D01*
X100800Y21268D01*
X100872Y21064D01*
X100920Y20823D01*
X100932Y20559D01*
Y20547D01*
Y20535D01*
Y20463D01*
X100920Y20343D01*
X100896Y20199D01*
X100872Y20030D01*
X100824Y19850D01*
X100764Y19658D01*
X100680Y19466D01*
X100668Y19442D01*
X100632Y19382D01*
X100584Y19297D01*
X100512Y19177D01*
X100416Y19057D01*
X100320Y18925D01*
X100199Y18793D01*
X100067Y18685D01*
X100055Y18673D01*
X100007Y18637D01*
X99923Y18589D01*
X99815Y18541D01*
X99683Y18469D01*
X99527Y18397D01*
X99359Y18336D01*
X99154Y18276D01*
X99130D01*
X99058Y18252D01*
X98938Y18240D01*
X98782Y18216D01*
X98590Y18192D01*
X98361Y18168D01*
X98109Y18156D01*
X97821Y18144D01*
X94649D01*
Y26458D01*
X97917D01*
X98001Y26446D01*
D02*
G37*
G36*
X91657Y18144D02*
X90636D01*
Y24644D01*
X90624Y24632D01*
X90564Y24584D01*
X90492Y24512D01*
X90372Y24428D01*
X90240Y24320D01*
X90071Y24199D01*
X89879Y24067D01*
X89663Y23935D01*
X89651D01*
X89639Y23923D01*
X89567Y23875D01*
X89447Y23815D01*
X89303Y23743D01*
X89134Y23659D01*
X88954Y23575D01*
X88774Y23491D01*
X88594Y23418D01*
Y24404D01*
X88606D01*
X88630Y24428D01*
X88678Y24440D01*
X88738Y24476D01*
X88810Y24512D01*
X88894Y24560D01*
X89098Y24680D01*
X89339Y24812D01*
X89579Y24980D01*
X89831Y25173D01*
X90084Y25377D01*
X90096Y25389D01*
X90108Y25401D01*
X90144Y25437D01*
X90192Y25473D01*
X90300Y25593D01*
X90444Y25737D01*
X90588Y25905D01*
X90744Y26098D01*
X90877Y26290D01*
X90997Y26494D01*
X91657D01*
Y18144D01*
D02*
G37*
G36*
X75306Y21076D02*
X76435D01*
Y20138D01*
X75306D01*
Y18144D01*
X74285D01*
Y20138D01*
X70669D01*
Y21076D01*
X74477Y26458D01*
X75306D01*
Y21076D01*
D02*
G37*
G36*
X61105Y18144D02*
X60000D01*
Y26458D01*
X61105D01*
Y18144D01*
D02*
G37*
G36*
X114677Y26482D02*
X114833Y26458D01*
X115013Y26422D01*
X115205Y26374D01*
X115409Y26314D01*
X115602Y26218D01*
X115614D01*
X115626Y26206D01*
X115686Y26170D01*
X115782Y26110D01*
X115902Y26026D01*
X116034Y25905D01*
X116178Y25773D01*
X116311Y25617D01*
X116443Y25437D01*
X116455Y25413D01*
X116503Y25353D01*
X116551Y25245D01*
X116635Y25088D01*
X116707Y24908D01*
X116803Y24704D01*
X116887Y24464D01*
X116959Y24199D01*
Y24187D01*
X116971Y24163D01*
X116983Y24127D01*
X116995Y24067D01*
X117007Y23995D01*
X117019Y23911D01*
X117043Y23803D01*
X117055Y23683D01*
X117079Y23551D01*
X117092Y23406D01*
X117104Y23238D01*
X117128Y23070D01*
X117140Y22878D01*
Y22686D01*
X117152Y22469D01*
Y22241D01*
Y22229D01*
Y22181D01*
Y22097D01*
Y22001D01*
X117140Y21869D01*
Y21724D01*
X117128Y21568D01*
X117115Y21400D01*
X117079Y21016D01*
X117019Y20619D01*
X116947Y20235D01*
X116899Y20054D01*
X116839Y19874D01*
Y19862D01*
X116827Y19838D01*
X116803Y19790D01*
X116779Y19730D01*
X116755Y19646D01*
X116707Y19562D01*
X116611Y19358D01*
X116491Y19141D01*
X116335Y18901D01*
X116154Y18685D01*
X115938Y18481D01*
X115926D01*
X115914Y18457D01*
X115878Y18433D01*
X115830Y18408D01*
X115770Y18372D01*
X115710Y18324D01*
X115530Y18240D01*
X115313Y18156D01*
X115061Y18072D01*
X114761Y18024D01*
X114436Y18000D01*
X114316D01*
X114232Y18012D01*
X114136Y18024D01*
X114016Y18048D01*
X113884Y18072D01*
X113740Y18108D01*
X113595Y18156D01*
X113439Y18204D01*
X113283Y18276D01*
X113127Y18360D01*
X112971Y18457D01*
X112814Y18577D01*
X112670Y18709D01*
X112538Y18853D01*
X112526Y18865D01*
X112502Y18901D01*
X112466Y18961D01*
X112406Y19057D01*
X112346Y19165D01*
X112286Y19310D01*
X112202Y19478D01*
X112130Y19670D01*
X112058Y19886D01*
X111986Y20138D01*
X111913Y20415D01*
X111853Y20727D01*
X111793Y21064D01*
X111757Y21424D01*
X111733Y21820D01*
X111721Y22241D01*
Y22253D01*
Y22301D01*
Y22385D01*
Y22481D01*
X111733Y22613D01*
Y22758D01*
X111745Y22914D01*
X111757Y23094D01*
X111793Y23466D01*
X111853Y23863D01*
X111925Y24259D01*
X111973Y24440D01*
X112022Y24620D01*
Y24632D01*
X112034Y24656D01*
X112058Y24704D01*
X112082Y24764D01*
X112106Y24848D01*
X112154Y24932D01*
X112250Y25136D01*
X112370Y25353D01*
X112526Y25581D01*
X112706Y25809D01*
X112923Y26002D01*
X112935D01*
X112947Y26026D01*
X112983Y26049D01*
X113031Y26074D01*
X113091Y26122D01*
X113163Y26158D01*
X113343Y26254D01*
X113559Y26338D01*
X113812Y26422D01*
X114112Y26470D01*
X114436Y26494D01*
X114544D01*
X114677Y26482D01*
D02*
G37*
G36*
X81298Y41590D02*
X81407Y41578D01*
X81539Y41566D01*
X81671Y41554D01*
X81827Y41518D01*
X82151Y41446D01*
X82512Y41338D01*
X82692Y41266D01*
X82860Y41182D01*
X83028Y41074D01*
X83197Y40965D01*
X83209Y40953D01*
X83233Y40941D01*
X83281Y40905D01*
X83341Y40845D01*
X83401Y40785D01*
X83485Y40701D01*
X83569Y40605D01*
X83665Y40509D01*
X83761Y40389D01*
X83857Y40245D01*
X83966Y40100D01*
X84062Y39944D01*
X84146Y39764D01*
X84242Y39584D01*
X84314Y39392D01*
X84386Y39175D01*
X83305Y38923D01*
Y38935D01*
X83293Y38959D01*
X83269Y39007D01*
X83245Y39067D01*
X83221Y39139D01*
X83185Y39235D01*
X83089Y39428D01*
X82968Y39644D01*
X82824Y39860D01*
X82644Y40064D01*
X82452Y40245D01*
X82428Y40269D01*
X82356Y40317D01*
X82235Y40377D01*
X82079Y40461D01*
X81875Y40533D01*
X81647Y40605D01*
X81370Y40653D01*
X81070Y40665D01*
X80974D01*
X80914Y40653D01*
X80830D01*
X80734Y40641D01*
X80506Y40605D01*
X80253Y40557D01*
X79989Y40473D01*
X79713Y40353D01*
X79460Y40196D01*
X79448D01*
X79436Y40173D01*
X79352Y40112D01*
X79244Y40016D01*
X79112Y39872D01*
X78956Y39692D01*
X78811Y39488D01*
X78679Y39235D01*
X78559Y38959D01*
Y38947D01*
X78547Y38923D01*
X78535Y38887D01*
X78523Y38827D01*
X78499Y38755D01*
X78475Y38671D01*
X78439Y38466D01*
X78391Y38226D01*
X78343Y37962D01*
X78319Y37673D01*
X78307Y37361D01*
Y37349D01*
Y37313D01*
Y37253D01*
Y37181D01*
X78319Y37097D01*
Y36989D01*
X78331Y36869D01*
X78343Y36736D01*
X78379Y36448D01*
X78439Y36136D01*
X78511Y35823D01*
X78607Y35511D01*
Y35499D01*
X78619Y35475D01*
X78643Y35439D01*
X78667Y35379D01*
X78739Y35235D01*
X78847Y35066D01*
X78980Y34874D01*
X79148Y34670D01*
X79340Y34490D01*
X79568Y34322D01*
X79580D01*
X79604Y34310D01*
X79640Y34286D01*
X79689Y34262D01*
X79749Y34237D01*
X79821Y34201D01*
X79989Y34129D01*
X80205Y34057D01*
X80445Y33997D01*
X80710Y33949D01*
X80986Y33937D01*
X81070D01*
X81142Y33949D01*
X81226D01*
X81311Y33961D01*
X81527Y34009D01*
X81779Y34069D01*
X82031Y34165D01*
X82296Y34297D01*
X82428Y34370D01*
X82548Y34466D01*
X82560Y34478D01*
X82572Y34490D01*
X82608Y34526D01*
X82656Y34562D01*
X82704Y34622D01*
X82764Y34694D01*
X82836Y34766D01*
X82896Y34862D01*
X82968Y34970D01*
X83053Y35090D01*
X83125Y35211D01*
X83197Y35355D01*
X83257Y35511D01*
X83317Y35679D01*
X83377Y35859D01*
X83425Y36052D01*
X84530Y35775D01*
Y35763D01*
X84518Y35715D01*
X84494Y35643D01*
X84458Y35547D01*
X84422Y35439D01*
X84374Y35307D01*
X84314Y35163D01*
X84242Y35006D01*
X84074Y34670D01*
X83857Y34334D01*
X83725Y34165D01*
X83593Y33997D01*
X83449Y33853D01*
X83281Y33709D01*
X83269Y33697D01*
X83245Y33673D01*
X83185Y33649D01*
X83125Y33601D01*
X83028Y33541D01*
X82932Y33481D01*
X82800Y33421D01*
X82668Y33360D01*
X82512Y33288D01*
X82344Y33228D01*
X82163Y33168D01*
X81971Y33108D01*
X81767Y33060D01*
X81551Y33036D01*
X81322Y33012D01*
X81082Y33000D01*
X80950D01*
X80854Y33012D01*
X80746D01*
X80614Y33024D01*
X80470Y33048D01*
X80301Y33072D01*
X79953Y33132D01*
X79592Y33228D01*
X79232Y33360D01*
X79064Y33444D01*
X78896Y33541D01*
X78884Y33553D01*
X78860Y33565D01*
X78811Y33601D01*
X78763Y33649D01*
X78691Y33697D01*
X78607Y33769D01*
X78511Y33853D01*
X78415Y33949D01*
X78319Y34057D01*
X78211Y34165D01*
X77994Y34442D01*
X77790Y34766D01*
X77610Y35127D01*
Y35138D01*
X77586Y35175D01*
X77574Y35235D01*
X77538Y35307D01*
X77514Y35403D01*
X77478Y35523D01*
X77430Y35655D01*
X77394Y35799D01*
X77358Y35956D01*
X77310Y36136D01*
X77250Y36508D01*
X77202Y36929D01*
X77178Y37361D01*
Y37373D01*
Y37421D01*
Y37493D01*
X77190Y37577D01*
Y37698D01*
X77202Y37818D01*
X77214Y37974D01*
X77238Y38130D01*
X77298Y38479D01*
X77382Y38863D01*
X77502Y39247D01*
X77670Y39620D01*
X77682Y39632D01*
X77694Y39668D01*
X77718Y39716D01*
X77766Y39776D01*
X77814Y39860D01*
X77874Y39956D01*
X78031Y40173D01*
X78235Y40413D01*
X78475Y40653D01*
X78751Y40893D01*
X79076Y41098D01*
X79088Y41110D01*
X79124Y41122D01*
X79172Y41146D01*
X79232Y41182D01*
X79328Y41218D01*
X79424Y41254D01*
X79544Y41302D01*
X79676Y41350D01*
X79821Y41398D01*
X79977Y41446D01*
X80313Y41518D01*
X80698Y41578D01*
X81094Y41602D01*
X81214D01*
X81298Y41590D01*
D02*
G37*
G36*
X153228Y41590D02*
X153324D01*
X153552Y41566D01*
X153804Y41530D01*
X154068Y41470D01*
X154357Y41398D01*
X154633Y41302D01*
X154645D01*
X154669Y41290D01*
X154705Y41278D01*
X154753Y41254D01*
X154885Y41182D01*
X155054Y41098D01*
X155234Y40978D01*
X155426Y40833D01*
X155606Y40677D01*
X155774Y40485D01*
X155799Y40461D01*
X155847Y40389D01*
X155919Y40281D01*
X156015Y40125D01*
X156111Y39932D01*
X156219Y39692D01*
X156327Y39428D01*
X156411Y39127D01*
X155414Y38863D01*
Y38875D01*
X155402Y38887D01*
X155390Y38923D01*
X155378Y38971D01*
X155342Y39079D01*
X155294Y39223D01*
X155222Y39392D01*
X155138Y39548D01*
X155054Y39716D01*
X154945Y39860D01*
X154934Y39872D01*
X154897Y39920D01*
X154825Y39980D01*
X154741Y40064D01*
X154633Y40160D01*
X154489Y40257D01*
X154333Y40353D01*
X154152Y40437D01*
X154129Y40449D01*
X154068Y40473D01*
X153960Y40509D01*
X153816Y40557D01*
X153648Y40593D01*
X153456Y40629D01*
X153239Y40653D01*
X153011Y40665D01*
X152879D01*
X152819Y40653D01*
X152747D01*
X152567Y40641D01*
X152362Y40605D01*
X152134Y40569D01*
X151918Y40509D01*
X151702Y40425D01*
X151678Y40413D01*
X151606Y40389D01*
X151509Y40329D01*
X151389Y40269D01*
X151245Y40173D01*
X151089Y40076D01*
X150945Y39956D01*
X150813Y39824D01*
X150801Y39812D01*
X150752Y39764D01*
X150693Y39680D01*
X150620Y39584D01*
X150536Y39464D01*
X150452Y39320D01*
X150368Y39163D01*
X150284Y38995D01*
Y38983D01*
X150272Y38959D01*
X150260Y38923D01*
X150236Y38863D01*
X150212Y38791D01*
X150188Y38707D01*
X150152Y38611D01*
X150128Y38503D01*
X150068Y38250D01*
X150020Y37962D01*
X149984Y37661D01*
X149972Y37325D01*
Y37313D01*
Y37277D01*
Y37217D01*
X149984Y37145D01*
Y37049D01*
X149996Y36929D01*
X150008Y36809D01*
X150020Y36676D01*
X150068Y36376D01*
X150128Y36064D01*
X150224Y35751D01*
X150344Y35451D01*
Y35439D01*
X150368Y35415D01*
X150380Y35379D01*
X150416Y35331D01*
X150500Y35199D01*
X150632Y35030D01*
X150789Y34850D01*
X150981Y34670D01*
X151209Y34502D01*
X151461Y34346D01*
X151473D01*
X151497Y34334D01*
X151533Y34310D01*
X151594Y34286D01*
X151654Y34262D01*
X151738Y34237D01*
X151930Y34165D01*
X152170Y34105D01*
X152435Y34045D01*
X152723Y33997D01*
X153023Y33985D01*
X153143D01*
X153215Y33997D01*
X153287D01*
X153468Y34021D01*
X153684Y34045D01*
X153912Y34093D01*
X154165Y34165D01*
X154417Y34249D01*
X154429D01*
X154453Y34262D01*
X154477Y34274D01*
X154525Y34298D01*
X154657Y34358D01*
X154801Y34430D01*
X154970Y34514D01*
X155150Y34610D01*
X155318Y34718D01*
X155462Y34838D01*
Y36400D01*
X153011D01*
Y37385D01*
X156543D01*
Y34298D01*
X156531Y34286D01*
X156507Y34274D01*
X156459Y34237D01*
X156399Y34189D01*
X156327Y34141D01*
X156243Y34081D01*
X156135Y34009D01*
X156027Y33937D01*
X155774Y33781D01*
X155486Y33613D01*
X155186Y33457D01*
X154861Y33324D01*
X154849D01*
X154825Y33312D01*
X154777Y33300D01*
X154717Y33276D01*
X154633Y33252D01*
X154537Y33216D01*
X154429Y33192D01*
X154321Y33168D01*
X154056Y33108D01*
X153756Y33048D01*
X153432Y33012D01*
X153095Y33000D01*
X152975D01*
X152891Y33012D01*
X152783D01*
X152651Y33024D01*
X152507Y33048D01*
X152350Y33060D01*
X152002Y33132D01*
X151630Y33216D01*
X151245Y33348D01*
X151053Y33421D01*
X150861Y33517D01*
X150849Y33529D01*
X150813Y33541D01*
X150765Y33577D01*
X150693Y33613D01*
X150608Y33673D01*
X150524Y33733D01*
X150296Y33901D01*
X150056Y34117D01*
X149803Y34382D01*
X149563Y34682D01*
X149347Y35030D01*
Y35042D01*
X149323Y35078D01*
X149299Y35127D01*
X149263Y35211D01*
X149227Y35295D01*
X149191Y35415D01*
X149143Y35535D01*
X149095Y35679D01*
X149046Y35835D01*
X148998Y36016D01*
X148962Y36196D01*
X148926Y36388D01*
X148866Y36809D01*
X148842Y37253D01*
Y37265D01*
Y37313D01*
Y37373D01*
X148854Y37457D01*
Y37565D01*
X148866Y37698D01*
X148890Y37830D01*
X148902Y37986D01*
X148938Y38154D01*
X148962Y38334D01*
X149059Y38719D01*
X149179Y39115D01*
X149347Y39512D01*
X149359Y39524D01*
X149371Y39560D01*
X149395Y39608D01*
X149443Y39680D01*
X149491Y39776D01*
X149551Y39872D01*
X149719Y40100D01*
X149924Y40365D01*
X150176Y40617D01*
X150464Y40869D01*
X150632Y40978D01*
X150801Y41086D01*
X150813Y41098D01*
X150849Y41110D01*
X150897Y41134D01*
X150969Y41170D01*
X151065Y41206D01*
X151173Y41254D01*
X151293Y41302D01*
X151437Y41350D01*
X151594Y41398D01*
X151762Y41434D01*
X151942Y41482D01*
X152134Y41518D01*
X152555Y41578D01*
X152771Y41602D01*
X153155D01*
X153228Y41590D01*
D02*
G37*
G36*
X107405Y41590D02*
X107501D01*
X107730Y41566D01*
X107982Y41530D01*
X108246Y41470D01*
X108535Y41398D01*
X108811Y41302D01*
X108823D01*
X108847Y41290D01*
X108883Y41278D01*
X108931Y41254D01*
X109063Y41182D01*
X109232Y41098D01*
X109412Y40977D01*
X109604Y40833D01*
X109784Y40677D01*
X109952Y40485D01*
X109976Y40461D01*
X110024Y40389D01*
X110097Y40281D01*
X110193Y40124D01*
X110289Y39932D01*
X110397Y39692D01*
X110505Y39428D01*
X110589Y39127D01*
X109592Y38863D01*
Y38875D01*
X109580Y38887D01*
X109568Y38923D01*
X109556Y38971D01*
X109520Y39079D01*
X109472Y39223D01*
X109400Y39392D01*
X109316Y39548D01*
X109232Y39716D01*
X109123Y39860D01*
X109111Y39872D01*
X109075Y39920D01*
X109003Y39980D01*
X108919Y40064D01*
X108811Y40160D01*
X108667Y40257D01*
X108511Y40353D01*
X108330Y40437D01*
X108306Y40449D01*
X108246Y40473D01*
X108138Y40509D01*
X107994Y40557D01*
X107826Y40593D01*
X107634Y40629D01*
X107417Y40653D01*
X107189Y40665D01*
X107057D01*
X106997Y40653D01*
X106925D01*
X106744Y40641D01*
X106540Y40605D01*
X106312Y40569D01*
X106096Y40509D01*
X105879Y40425D01*
X105856Y40413D01*
X105783Y40389D01*
X105687Y40329D01*
X105567Y40269D01*
X105423Y40173D01*
X105267Y40076D01*
X105123Y39956D01*
X104990Y39824D01*
X104978Y39812D01*
X104930Y39764D01*
X104870Y39680D01*
X104798Y39584D01*
X104714Y39464D01*
X104630Y39320D01*
X104546Y39163D01*
X104462Y38995D01*
Y38983D01*
X104450Y38959D01*
X104438Y38923D01*
X104414Y38863D01*
X104390Y38791D01*
X104366Y38707D01*
X104330Y38611D01*
X104306Y38503D01*
X104246Y38250D01*
X104198Y37962D01*
X104162Y37661D01*
X104149Y37325D01*
Y37313D01*
Y37277D01*
Y37217D01*
X104162Y37145D01*
Y37049D01*
X104173Y36929D01*
X104185Y36809D01*
X104198Y36676D01*
X104246Y36376D01*
X104306Y36064D01*
X104402Y35751D01*
X104522Y35451D01*
Y35439D01*
X104546Y35415D01*
X104558Y35379D01*
X104594Y35331D01*
X104678Y35199D01*
X104810Y35030D01*
X104966Y34850D01*
X105159Y34670D01*
X105387Y34502D01*
X105639Y34346D01*
X105651D01*
X105675Y34334D01*
X105711Y34310D01*
X105771Y34286D01*
X105831Y34262D01*
X105915Y34237D01*
X106108Y34165D01*
X106348Y34105D01*
X106612Y34045D01*
X106901Y33997D01*
X107201Y33985D01*
X107321D01*
X107393Y33997D01*
X107465D01*
X107646Y34021D01*
X107862Y34045D01*
X108090Y34093D01*
X108342Y34165D01*
X108595Y34249D01*
X108607D01*
X108631Y34262D01*
X108655Y34274D01*
X108703Y34297D01*
X108835Y34358D01*
X108979Y34430D01*
X109147Y34514D01*
X109328Y34610D01*
X109496Y34718D01*
X109640Y34838D01*
Y36400D01*
X107189D01*
Y37385D01*
X110721D01*
Y34297D01*
X110709Y34286D01*
X110685Y34274D01*
X110637Y34237D01*
X110577Y34189D01*
X110505Y34141D01*
X110421Y34081D01*
X110313Y34009D01*
X110205Y33937D01*
X109952Y33781D01*
X109664Y33613D01*
X109364Y33456D01*
X109039Y33324D01*
X109027D01*
X109003Y33312D01*
X108955Y33300D01*
X108895Y33276D01*
X108811Y33252D01*
X108715Y33216D01*
X108607Y33192D01*
X108499Y33168D01*
X108234Y33108D01*
X107934Y33048D01*
X107610Y33012D01*
X107273Y33000D01*
X107153D01*
X107069Y33012D01*
X106961D01*
X106829Y33024D01*
X106684Y33048D01*
X106528Y33060D01*
X106180Y33132D01*
X105807Y33216D01*
X105423Y33348D01*
X105231Y33421D01*
X105038Y33517D01*
X105027Y33529D01*
X104990Y33541D01*
X104942Y33577D01*
X104870Y33613D01*
X104786Y33673D01*
X104702Y33733D01*
X104474Y33901D01*
X104234Y34117D01*
X103981Y34382D01*
X103741Y34682D01*
X103525Y35030D01*
Y35042D01*
X103501Y35078D01*
X103477Y35127D01*
X103441Y35211D01*
X103405Y35295D01*
X103369Y35415D01*
X103321Y35535D01*
X103272Y35679D01*
X103224Y35835D01*
X103176Y36016D01*
X103140Y36196D01*
X103104Y36388D01*
X103044Y36809D01*
X103020Y37253D01*
Y37265D01*
Y37313D01*
Y37373D01*
X103032Y37457D01*
Y37565D01*
X103044Y37698D01*
X103068Y37830D01*
X103080Y37986D01*
X103116Y38154D01*
X103140Y38334D01*
X103236Y38719D01*
X103357Y39115D01*
X103525Y39512D01*
X103537Y39524D01*
X103549Y39560D01*
X103573Y39608D01*
X103621Y39680D01*
X103669Y39776D01*
X103729Y39872D01*
X103897Y40100D01*
X104101Y40365D01*
X104354Y40617D01*
X104642Y40869D01*
X104810Y40977D01*
X104978Y41086D01*
X104990Y41098D01*
X105027Y41110D01*
X105075Y41134D01*
X105147Y41170D01*
X105243Y41206D01*
X105351Y41254D01*
X105471Y41302D01*
X105615Y41350D01*
X105771Y41398D01*
X105940Y41434D01*
X106120Y41482D01*
X106312Y41518D01*
X106733Y41578D01*
X106949Y41602D01*
X107333D01*
X107405Y41590D01*
D02*
G37*
G36*
X129872Y33144D02*
X128766D01*
Y37061D01*
X124466D01*
Y33144D01*
X123360D01*
Y41458D01*
X124466D01*
Y38046D01*
X128766D01*
Y41458D01*
X129872D01*
Y33144D01*
D02*
G37*
G36*
X56297Y33144D02*
X55192D01*
Y37061D01*
X50890D01*
Y33144D01*
X49785D01*
Y41458D01*
X50890D01*
Y38046D01*
X55192D01*
Y41458D01*
X56297D01*
Y33144D01*
D02*
G37*
G36*
X147280Y33144D02*
X146139D01*
X141790Y39668D01*
Y33144D01*
X140733D01*
Y41458D01*
X141862D01*
X146223Y34922D01*
Y41458D01*
X147280D01*
Y33144D01*
D02*
G37*
G36*
X101458Y33144D02*
X100317D01*
X95968Y39668D01*
Y33144D01*
X94910D01*
Y41458D01*
X96040D01*
X100401Y34922D01*
Y41458D01*
X101458D01*
Y33144D01*
D02*
G37*
G36*
X72420D02*
X71279D01*
X66929Y39668D01*
Y33144D01*
X65872D01*
Y41458D01*
X67002D01*
X71363Y34922D01*
Y41458D01*
X72420D01*
Y33144D01*
D02*
G37*
G36*
X119167Y41446D02*
X119371Y41434D01*
X119588Y41422D01*
X119792Y41398D01*
X119972Y41374D01*
X119996D01*
X120080Y41350D01*
X120188Y41326D01*
X120333Y41290D01*
X120489Y41230D01*
X120657Y41158D01*
X120837Y41074D01*
X120993Y40978D01*
X121017Y40965D01*
X121065Y40929D01*
X121138Y40857D01*
X121234Y40773D01*
X121342Y40665D01*
X121450Y40521D01*
X121570Y40365D01*
X121666Y40184D01*
X121678Y40160D01*
X121702Y40100D01*
X121750Y39992D01*
X121798Y39848D01*
X121834Y39680D01*
X121882Y39488D01*
X121906Y39271D01*
X121918Y39043D01*
Y39031D01*
Y38995D01*
Y38947D01*
X121906Y38863D01*
X121894Y38779D01*
X121882Y38671D01*
X121858Y38551D01*
X121834Y38418D01*
X121750Y38142D01*
X121702Y37998D01*
X121630Y37842D01*
X121546Y37686D01*
X121462Y37541D01*
X121354Y37397D01*
X121234Y37253D01*
X121222Y37241D01*
X121198Y37217D01*
X121162Y37181D01*
X121102Y37145D01*
X121029Y37085D01*
X120933Y37025D01*
X120813Y36953D01*
X120681Y36893D01*
X120525Y36821D01*
X120345Y36748D01*
X120152Y36688D01*
X119924Y36640D01*
X119684Y36592D01*
X119419Y36556D01*
X119119Y36532D01*
X118807Y36520D01*
X116680D01*
Y33144D01*
X115575D01*
Y41458D01*
X118987D01*
X119167Y41446D01*
D02*
G37*
G36*
X64995Y33144D02*
X63746D01*
X62772Y35667D01*
X59288D01*
X58387Y33144D01*
X57222D01*
X60394Y41458D01*
X61595D01*
X64995Y33144D01*
D02*
G37*
G36*
X45592Y41446D02*
X45796Y41434D01*
X46013Y41422D01*
X46217Y41398D01*
X46397Y41374D01*
X46421D01*
X46505Y41350D01*
X46613Y41326D01*
X46758Y41290D01*
X46914Y41230D01*
X47082Y41158D01*
X47262Y41074D01*
X47418Y40977D01*
X47442Y40965D01*
X47491Y40929D01*
X47563Y40857D01*
X47659Y40773D01*
X47767Y40665D01*
X47875Y40521D01*
X47995Y40365D01*
X48091Y40184D01*
X48103Y40160D01*
X48127Y40100D01*
X48175Y39992D01*
X48223Y39848D01*
X48259Y39680D01*
X48307Y39488D01*
X48331Y39271D01*
X48344Y39043D01*
Y39031D01*
Y38995D01*
Y38947D01*
X48331Y38863D01*
X48320Y38779D01*
X48307Y38671D01*
X48283Y38551D01*
X48259Y38418D01*
X48175Y38142D01*
X48127Y37998D01*
X48055Y37842D01*
X47971Y37685D01*
X47887Y37541D01*
X47779Y37397D01*
X47659Y37253D01*
X47647Y37241D01*
X47623Y37217D01*
X47587Y37181D01*
X47526Y37145D01*
X47454Y37085D01*
X47358Y37025D01*
X47238Y36953D01*
X47106Y36893D01*
X46950Y36820D01*
X46770Y36748D01*
X46577Y36688D01*
X46349Y36640D01*
X46109Y36592D01*
X45844Y36556D01*
X45544Y36532D01*
X45232Y36520D01*
X43105D01*
Y33144D01*
X42000D01*
Y41458D01*
X45412D01*
X45592Y41446D01*
D02*
G37*
G36*
X135543Y41590D02*
X135651D01*
X135759Y41578D01*
X135903Y41554D01*
X136047Y41530D01*
X136360Y41470D01*
X136720Y41374D01*
X137068Y41230D01*
X137249Y41146D01*
X137429Y41049D01*
X137441Y41038D01*
X137465Y41026D01*
X137513Y40989D01*
X137585Y40953D01*
X137657Y40893D01*
X137753Y40821D01*
X137957Y40653D01*
X138174Y40437D01*
X138414Y40173D01*
X138642Y39860D01*
X138834Y39512D01*
Y39500D01*
X138858Y39464D01*
X138883Y39416D01*
X138906Y39344D01*
X138955Y39247D01*
X138991Y39139D01*
X139039Y39007D01*
X139087Y38863D01*
X139123Y38707D01*
X139171Y38539D01*
X139219Y38346D01*
X139255Y38154D01*
X139303Y37734D01*
X139327Y37277D01*
Y37265D01*
Y37217D01*
Y37157D01*
X139315Y37061D01*
Y36953D01*
X139303Y36821D01*
X139279Y36676D01*
X139267Y36520D01*
X139207Y36172D01*
X139111Y35787D01*
X138979Y35403D01*
X138906Y35211D01*
X138810Y35018D01*
Y35006D01*
X138786Y34970D01*
X138762Y34922D01*
X138714Y34850D01*
X138666Y34766D01*
X138606Y34682D01*
X138438Y34454D01*
X138234Y34214D01*
X137993Y33961D01*
X137705Y33721D01*
X137369Y33505D01*
X137357D01*
X137333Y33481D01*
X137273Y33457D01*
X137200Y33421D01*
X137116Y33384D01*
X137020Y33348D01*
X136900Y33300D01*
X136768Y33252D01*
X136624Y33204D01*
X136468Y33156D01*
X136119Y33084D01*
X135747Y33024D01*
X135350Y33000D01*
X135230D01*
X135158Y33012D01*
X135050D01*
X134930Y33036D01*
X134798Y33048D01*
X134642Y33072D01*
X134317Y33144D01*
X133969Y33240D01*
X133608Y33384D01*
X133428Y33469D01*
X133248Y33565D01*
X133236Y33577D01*
X133212Y33589D01*
X133164Y33625D01*
X133092Y33673D01*
X133020Y33721D01*
X132935Y33793D01*
X132731Y33973D01*
X132503Y34189D01*
X132263Y34454D01*
X132046Y34754D01*
X131842Y35103D01*
Y35115D01*
X131818Y35151D01*
X131794Y35199D01*
X131770Y35271D01*
X131734Y35367D01*
X131698Y35475D01*
X131650Y35595D01*
X131614Y35727D01*
X131566Y35883D01*
X131518Y36040D01*
X131446Y36400D01*
X131398Y36772D01*
X131374Y37181D01*
Y37193D01*
Y37205D01*
Y37277D01*
X131386Y37385D01*
Y37529D01*
X131410Y37698D01*
X131434Y37902D01*
X131470Y38130D01*
X131518Y38370D01*
X131566Y38623D01*
X131638Y38887D01*
X131734Y39151D01*
X131842Y39428D01*
X131962Y39692D01*
X132119Y39956D01*
X132287Y40196D01*
X132479Y40425D01*
X132491Y40437D01*
X132527Y40473D01*
X132599Y40533D01*
X132683Y40605D01*
X132791Y40701D01*
X132923Y40797D01*
X133080Y40905D01*
X133260Y41013D01*
X133452Y41122D01*
X133668Y41230D01*
X133909Y41326D01*
X134161Y41422D01*
X134437Y41494D01*
X134726Y41554D01*
X135026Y41590D01*
X135350Y41602D01*
X135458D01*
X135543Y41590D01*
D02*
G37*
G36*
X89720Y41590D02*
X89829D01*
X89937Y41578D01*
X90081Y41554D01*
X90225Y41530D01*
X90537Y41470D01*
X90898Y41374D01*
X91246Y41230D01*
X91426Y41146D01*
X91607Y41049D01*
X91619Y41038D01*
X91643Y41026D01*
X91691Y40989D01*
X91763Y40953D01*
X91835Y40893D01*
X91931Y40821D01*
X92135Y40653D01*
X92352Y40437D01*
X92592Y40173D01*
X92820Y39860D01*
X93012Y39512D01*
Y39500D01*
X93036Y39464D01*
X93060Y39416D01*
X93084Y39344D01*
X93132Y39247D01*
X93168Y39139D01*
X93216Y39007D01*
X93265Y38863D01*
X93301Y38707D01*
X93349Y38539D01*
X93397Y38346D01*
X93433Y38154D01*
X93481Y37734D01*
X93505Y37277D01*
Y37265D01*
Y37217D01*
Y37157D01*
X93493Y37061D01*
Y36953D01*
X93481Y36820D01*
X93457Y36676D01*
X93445Y36520D01*
X93385Y36172D01*
X93289Y35787D01*
X93156Y35403D01*
X93084Y35211D01*
X92988Y35018D01*
Y35006D01*
X92964Y34970D01*
X92940Y34922D01*
X92892Y34850D01*
X92844Y34766D01*
X92784Y34682D01*
X92616Y34454D01*
X92412Y34213D01*
X92171Y33961D01*
X91883Y33721D01*
X91547Y33505D01*
X91535D01*
X91510Y33481D01*
X91450Y33456D01*
X91378Y33421D01*
X91294Y33384D01*
X91198Y33348D01*
X91078Y33300D01*
X90946Y33252D01*
X90802Y33204D01*
X90646Y33156D01*
X90297Y33084D01*
X89925Y33024D01*
X89528Y33000D01*
X89408D01*
X89336Y33012D01*
X89228D01*
X89108Y33036D01*
X88975Y33048D01*
X88819Y33072D01*
X88495Y33144D01*
X88146Y33240D01*
X87786Y33384D01*
X87606Y33469D01*
X87426Y33565D01*
X87414Y33577D01*
X87390Y33589D01*
X87342Y33625D01*
X87269Y33673D01*
X87197Y33721D01*
X87113Y33793D01*
X86909Y33973D01*
X86681Y34189D01*
X86440Y34454D01*
X86224Y34754D01*
X86020Y35103D01*
Y35115D01*
X85996Y35151D01*
X85972Y35199D01*
X85948Y35271D01*
X85912Y35367D01*
X85876Y35475D01*
X85828Y35595D01*
X85792Y35727D01*
X85744Y35883D01*
X85696Y36040D01*
X85624Y36400D01*
X85576Y36772D01*
X85552Y37181D01*
Y37193D01*
Y37205D01*
Y37277D01*
X85563Y37385D01*
Y37529D01*
X85588Y37698D01*
X85611Y37902D01*
X85648Y38130D01*
X85696Y38370D01*
X85744Y38623D01*
X85816Y38887D01*
X85912Y39151D01*
X86020Y39428D01*
X86140Y39692D01*
X86296Y39956D01*
X86465Y40196D01*
X86657Y40425D01*
X86669Y40437D01*
X86705Y40473D01*
X86777Y40533D01*
X86861Y40605D01*
X86969Y40701D01*
X87101Y40797D01*
X87257Y40905D01*
X87438Y41013D01*
X87630Y41122D01*
X87846Y41230D01*
X88087Y41326D01*
X88339Y41422D01*
X88615Y41494D01*
X88903Y41554D01*
X89204Y41590D01*
X89528Y41602D01*
X89636D01*
X89720Y41590D01*
D02*
G37*
G36*
X326732Y275597D02*
X326803Y275568D01*
X326873Y275512D01*
X326944Y275441D01*
X326986Y275343D01*
X327000Y275216D01*
Y275174D01*
X326986Y275117D01*
X326972Y275061D01*
X326930Y274990D01*
X326887Y274934D01*
X326817Y274878D01*
X326732Y274835D01*
X324998Y274257D01*
Y271367D01*
X326732Y270790D01*
X326746D01*
X326774Y270775D01*
X326859Y270705D01*
X326915Y270648D01*
X326958Y270592D01*
X326986Y270508D01*
X327000Y270409D01*
Y270352D01*
X326972Y270282D01*
X326944Y270212D01*
X326901Y270127D01*
X326831Y270070D01*
X326732Y270014D01*
X326605Y270000D01*
X326591D01*
X326563D01*
X326478Y270028D01*
X319317Y272411D01*
X319303D01*
X319261Y272439D01*
X319218Y272467D01*
X319148Y272509D01*
X319091Y272552D01*
X319049Y272622D01*
X319007Y272707D01*
X318993Y272805D01*
Y272848D01*
X319007Y272904D01*
X319035Y272960D01*
X319063Y273031D01*
X319120Y273101D01*
X319204Y273158D01*
X319303Y273200D01*
X326478Y275597D01*
X326493D01*
X326521Y275611D01*
X326605D01*
X326619D01*
X326662D01*
X326732Y275597D01*
D02*
G37*
G36*
X299773Y274807D02*
X299857Y274793D01*
X299956Y274779D01*
X300196Y274737D01*
X300463Y274652D01*
X300745Y274525D01*
X300886Y274441D01*
X301027Y274342D01*
X301168Y274229D01*
X301309Y274102D01*
X301323Y274088D01*
X301337Y274074D01*
X301366Y274032D01*
X301422Y273975D01*
X301521Y273834D01*
X301648Y273623D01*
X301775Y273383D01*
X301887Y273087D01*
X301972Y272763D01*
X301986Y272594D01*
X302000Y272411D01*
Y270338D01*
X301972Y270268D01*
X301944Y270197D01*
X301901Y270127D01*
X301831Y270056D01*
X301732Y270014D01*
X301605Y270000D01*
X294388D01*
X294373D01*
X294317D01*
X294261Y270028D01*
X294176Y270056D01*
X294106Y270099D01*
X294035Y270169D01*
X293993Y270268D01*
X293979Y270395D01*
Y272481D01*
X293993Y272537D01*
X294007Y272693D01*
X294049Y272890D01*
X294120Y273116D01*
X294233Y273355D01*
X294373Y273595D01*
X294571Y273820D01*
X294599Y273848D01*
X294670Y273919D01*
X294796Y274004D01*
X294966Y274116D01*
X295177Y274229D01*
X295417Y274314D01*
X295685Y274384D01*
X295995Y274412D01*
X296009D01*
X296037D01*
X296093D01*
X296150Y274398D01*
X296234Y274384D01*
X296333Y274370D01*
X296544Y274314D01*
X296798Y274229D01*
X297052Y274102D01*
X297193Y274018D01*
X297320Y273919D01*
X297447Y273792D01*
X297560Y273665D01*
X297574Y273679D01*
X297588Y273722D01*
X297630Y273778D01*
X297686Y273848D01*
X297757Y273933D01*
X297841Y274032D01*
X297954Y274130D01*
X298067Y274243D01*
X298208Y274356D01*
X298349Y274455D01*
X298518Y274553D01*
X298701Y274638D01*
X298913Y274708D01*
X299124Y274779D01*
X299350Y274807D01*
X299604Y274821D01*
X299618D01*
X299646D01*
X299702D01*
X299773Y274807D01*
D02*
G37*
G36*
X277732Y273990D02*
X277803Y273947D01*
X277873Y273905D01*
X277944Y273834D01*
X277986Y273736D01*
X278000Y273595D01*
Y271917D01*
X277986Y271861D01*
X277972Y271706D01*
X277929Y271508D01*
X277859Y271283D01*
X277760Y271057D01*
X277619Y270804D01*
X277422Y270578D01*
X277394Y270550D01*
X277309Y270493D01*
X277197Y270395D01*
X277027Y270296D01*
X276816Y270183D01*
X276576Y270085D01*
X276294Y270028D01*
X275998Y270000D01*
X271995D01*
X271981D01*
X271952D01*
X271910D01*
X271854Y270014D01*
X271699Y270028D01*
X271501Y270070D01*
X271276Y270141D01*
X271036Y270240D01*
X270796Y270381D01*
X270571Y270578D01*
X270543Y270606D01*
X270472Y270691D01*
X270388Y270804D01*
X270275Y270973D01*
X270162Y271184D01*
X270077Y271424D01*
X270007Y271706D01*
X269979Y272002D01*
Y273665D01*
X269993Y273722D01*
X270035Y273806D01*
X270077Y273877D01*
X270148Y273947D01*
X270247Y273990D01*
X270388Y274004D01*
X270402D01*
X270444D01*
X270515Y273990D01*
X270585Y273947D01*
X270655Y273905D01*
X270726Y273834D01*
X270768Y273736D01*
X270782Y273595D01*
Y271917D01*
X270796Y271819D01*
X270825Y271706D01*
X270867Y271565D01*
X270937Y271424D01*
X271022Y271283D01*
X271135Y271142D01*
X271149Y271128D01*
X271191Y271085D01*
X271276Y271029D01*
X271374Y270973D01*
X271501Y270916D01*
X271642Y270860D01*
X271811Y270818D01*
X271995Y270804D01*
X275998D01*
X276026D01*
X276083D01*
X276182Y270818D01*
X276294Y270846D01*
X276435Y270888D01*
X276576Y270944D01*
X276717Y271029D01*
X276858Y271142D01*
X276872Y271156D01*
X276915Y271212D01*
X276971Y271283D01*
X277027Y271381D01*
X277084Y271508D01*
X277140Y271649D01*
X277182Y271819D01*
X277197Y272002D01*
Y273665D01*
X277211Y273722D01*
X277253Y273806D01*
X277295Y273877D01*
X277366Y273947D01*
X277464Y273990D01*
X277605Y274004D01*
X277619D01*
X277662D01*
X277732Y273990D01*
D02*
G37*
G36*
X254139Y274832D02*
X254294Y274818D01*
X254492Y274775D01*
X254717Y274705D01*
X254943Y274592D01*
X255196Y274451D01*
X255422Y274254D01*
X255450Y274226D01*
X255507Y274155D01*
X255605Y274028D01*
X255704Y273859D01*
X255817Y273648D01*
X255915Y273408D01*
X255972Y273126D01*
X256000Y272830D01*
Y271181D01*
X255972Y271110D01*
X255944Y271040D01*
X255901Y270955D01*
X255831Y270899D01*
X255732Y270842D01*
X255605Y270828D01*
X255591D01*
X255535D01*
X255478Y270856D01*
X255394Y270885D01*
X255323Y270927D01*
X255253Y270998D01*
X255211Y271096D01*
X255196Y271237D01*
Y272915D01*
X255182Y273013D01*
X255154Y273126D01*
X255112Y273267D01*
X255056Y273408D01*
X254971Y273549D01*
X254858Y273690D01*
X254844Y273704D01*
X254788Y273746D01*
X254717Y273803D01*
X254618Y273873D01*
X254492Y273930D01*
X254351Y273986D01*
X254181Y274028D01*
X253998Y274042D01*
X253209D01*
X253181D01*
X253124D01*
X253025Y274028D01*
X252913Y274000D01*
X252772Y273958D01*
X252631Y273887D01*
X252490Y273803D01*
X252349Y273690D01*
X252335Y273676D01*
X252292Y273634D01*
X252236Y273549D01*
X252166Y273450D01*
X252109Y273323D01*
X252053Y273183D01*
X252010Y273013D01*
X251996Y272830D01*
Y271970D01*
X251968Y271900D01*
X251940Y271829D01*
X251898Y271759D01*
X251827Y271688D01*
X251729Y271646D01*
X251602Y271632D01*
X251588D01*
X251531D01*
X251475Y271660D01*
X251390Y271688D01*
X251320Y271730D01*
X251249Y271801D01*
X251207Y271900D01*
X251193Y272027D01*
Y272915D01*
X251179Y273013D01*
X251151Y273126D01*
X251108Y273267D01*
X251052Y273408D01*
X250967Y273549D01*
X250855Y273690D01*
X250840Y273704D01*
X250784Y273746D01*
X250714Y273803D01*
X250615Y273873D01*
X250488Y273930D01*
X250347Y273986D01*
X250178Y274028D01*
X249995Y274042D01*
X249967D01*
X249910D01*
X249825Y274028D01*
X249699Y274000D01*
X249572Y273958D01*
X249431Y273887D01*
X249290Y273803D01*
X249149Y273690D01*
X249135Y273676D01*
X249093Y273634D01*
X249036Y273549D01*
X248966Y273450D01*
X248895Y273323D01*
X248839Y273183D01*
X248796Y273013D01*
X248782Y272830D01*
Y271181D01*
X248754Y271110D01*
X248726Y271040D01*
X248684Y270955D01*
X248613Y270899D01*
X248514Y270842D01*
X248388Y270828D01*
X248374D01*
X248317D01*
X248261Y270856D01*
X248176Y270885D01*
X248106Y270927D01*
X248035Y270998D01*
X247993Y271096D01*
X247979Y271237D01*
Y272915D01*
X247993Y272971D01*
X248007Y273126D01*
X248049Y273323D01*
X248120Y273549D01*
X248232Y273789D01*
X248374Y274028D01*
X248571Y274254D01*
X248599Y274282D01*
X248670Y274352D01*
X248796Y274437D01*
X248966Y274550D01*
X249177Y274663D01*
X249417Y274747D01*
X249699Y274818D01*
X249995Y274846D01*
X250009D01*
X250037D01*
X250093D01*
X250164Y274832D01*
X250248Y274818D01*
X250347Y274804D01*
X250573Y274747D01*
X250826Y274649D01*
X250953Y274592D01*
X251094Y274508D01*
X251221Y274409D01*
X251362Y274310D01*
X251489Y274183D01*
X251602Y274042D01*
Y274056D01*
X251630Y274071D01*
X251658Y274113D01*
X251714Y274169D01*
X251841Y274296D01*
X252025Y274451D01*
X252264Y274592D01*
X252532Y274719D01*
X252687Y274775D01*
X252856Y274818D01*
X253025Y274832D01*
X253209Y274846D01*
X253998D01*
X254012D01*
X254041D01*
X254083D01*
X254139Y274832D01*
D02*
G37*
G36*
X248529Y269207D02*
X255704Y266811D01*
X255718D01*
X255746Y266796D01*
X255845Y266726D01*
X255901Y266670D01*
X255958Y266599D01*
X255986Y266515D01*
X256000Y266416D01*
Y266374D01*
X255986Y266317D01*
X255958Y266261D01*
X255930Y266190D01*
X255873Y266134D01*
X255803Y266078D01*
X255704Y266021D01*
X248529Y263639D01*
X248514D01*
X248486Y263625D01*
X248402Y263611D01*
X248388D01*
X248331D01*
X248275Y263639D01*
X248190Y263667D01*
X248120Y263709D01*
X248049Y263780D01*
X248007Y263878D01*
X247993Y264019D01*
Y264062D01*
X248007Y264118D01*
X248021Y264174D01*
X248063Y264231D01*
X248106Y264301D01*
X248176Y264358D01*
X248275Y264400D01*
X254336Y266416D01*
X248275Y268446D01*
X248261D01*
X248232Y268460D01*
X248134Y268531D01*
X248078Y268573D01*
X248035Y268643D01*
X248007Y268728D01*
X247993Y268827D01*
Y268883D01*
X248007Y268953D01*
X248049Y269024D01*
X248092Y269094D01*
X248162Y269165D01*
X248261Y269207D01*
X248402Y269221D01*
X248416D01*
X248444D01*
X248529Y269207D01*
D02*
G37*
G36*
X254139Y262004D02*
X254294Y261989D01*
X254492Y261947D01*
X254717Y261877D01*
X254943Y261764D01*
X255196Y261623D01*
X255422Y261426D01*
X255450Y261397D01*
X255507Y261327D01*
X255605Y261200D01*
X255704Y261031D01*
X255817Y260819D01*
X255915Y260580D01*
X255972Y260298D01*
X256000Y260002D01*
Y258352D01*
X255972Y258282D01*
X255944Y258211D01*
X255901Y258127D01*
X255831Y258071D01*
X255732Y258014D01*
X255605Y258000D01*
X255591D01*
X255535D01*
X255478Y258028D01*
X255394Y258056D01*
X255323Y258099D01*
X255253Y258169D01*
X255211Y258268D01*
X255196Y258409D01*
Y260086D01*
X255182Y260185D01*
X255154Y260298D01*
X255112Y260439D01*
X255056Y260580D01*
X254971Y260721D01*
X254858Y260862D01*
X254844Y260876D01*
X254788Y260918D01*
X254717Y260975D01*
X254618Y261045D01*
X254492Y261101D01*
X254351Y261158D01*
X254181Y261200D01*
X253998Y261214D01*
X253209D01*
X253181D01*
X253124D01*
X253025Y261200D01*
X252913Y261172D01*
X252772Y261130D01*
X252631Y261059D01*
X252490Y260975D01*
X252349Y260862D01*
X252335Y260848D01*
X252292Y260805D01*
X252236Y260721D01*
X252166Y260622D01*
X252109Y260495D01*
X252053Y260354D01*
X252010Y260185D01*
X251996Y260002D01*
Y259142D01*
X251968Y259071D01*
X251940Y259001D01*
X251898Y258930D01*
X251827Y258860D01*
X251729Y258818D01*
X251602Y258804D01*
X251588D01*
X251531D01*
X251475Y258832D01*
X251390Y258860D01*
X251320Y258902D01*
X251249Y258973D01*
X251207Y259071D01*
X251193Y259198D01*
Y260086D01*
X251179Y260185D01*
X251151Y260298D01*
X251108Y260439D01*
X251052Y260580D01*
X250967Y260721D01*
X250855Y260862D01*
X250840Y260876D01*
X250784Y260918D01*
X250714Y260975D01*
X250615Y261045D01*
X250488Y261101D01*
X250347Y261158D01*
X250178Y261200D01*
X249995Y261214D01*
X249967D01*
X249910D01*
X249825Y261200D01*
X249699Y261172D01*
X249572Y261130D01*
X249431Y261059D01*
X249290Y260975D01*
X249149Y260862D01*
X249135Y260848D01*
X249093Y260805D01*
X249036Y260721D01*
X248966Y260622D01*
X248895Y260495D01*
X248839Y260354D01*
X248796Y260185D01*
X248782Y260002D01*
Y258352D01*
X248754Y258282D01*
X248726Y258211D01*
X248684Y258127D01*
X248613Y258071D01*
X248514Y258014D01*
X248388Y258000D01*
X248374D01*
X248317D01*
X248261Y258028D01*
X248176Y258056D01*
X248106Y258099D01*
X248035Y258169D01*
X247993Y258268D01*
X247979Y258409D01*
Y260086D01*
X247993Y260143D01*
X248007Y260298D01*
X248049Y260495D01*
X248120Y260721D01*
X248232Y260960D01*
X248374Y261200D01*
X248571Y261426D01*
X248599Y261454D01*
X248670Y261524D01*
X248796Y261609D01*
X248966Y261722D01*
X249177Y261834D01*
X249417Y261919D01*
X249699Y261989D01*
X249995Y262018D01*
X250009D01*
X250037D01*
X250093D01*
X250164Y262004D01*
X250248Y261989D01*
X250347Y261975D01*
X250573Y261919D01*
X250826Y261820D01*
X250953Y261764D01*
X251094Y261679D01*
X251221Y261581D01*
X251362Y261482D01*
X251489Y261355D01*
X251602Y261214D01*
Y261228D01*
X251630Y261242D01*
X251658Y261285D01*
X251714Y261341D01*
X251841Y261468D01*
X252025Y261623D01*
X252264Y261764D01*
X252532Y261891D01*
X252687Y261947D01*
X252856Y261989D01*
X253025Y262004D01*
X253209Y262018D01*
X253998D01*
X254012D01*
X254041D01*
X254083D01*
X254139Y262004D01*
D02*
G37*
G36*
X384139Y57621D02*
X384294Y57607D01*
X384492Y57565D01*
X384717Y57494D01*
X384943Y57382D01*
X385196Y57241D01*
X385422Y57043D01*
X385450Y57015D01*
X385507Y56945D01*
X385605Y56818D01*
X385704Y56649D01*
X385817Y56437D01*
X385915Y56198D01*
X385972Y55915D01*
X386000Y55620D01*
Y53167D01*
X385972Y53096D01*
X385944Y53026D01*
X385901Y52955D01*
X385831Y52885D01*
X385732Y52842D01*
X385605Y52828D01*
X378388D01*
X378373D01*
X378317D01*
X378261Y52856D01*
X378176Y52885D01*
X378106Y52927D01*
X378035Y52997D01*
X377993Y53096D01*
X377979Y53223D01*
Y55704D01*
X377993Y55760D01*
X378007Y55915D01*
X378049Y56113D01*
X378120Y56338D01*
X378232Y56578D01*
X378373Y56818D01*
X378571Y57043D01*
X378599Y57071D01*
X378670Y57142D01*
X378796Y57227D01*
X378966Y57339D01*
X379177Y57452D01*
X379417Y57537D01*
X379684Y57607D01*
X379995Y57635D01*
X383998D01*
X384012D01*
X384040D01*
X384083D01*
X384139Y57621D01*
D02*
G37*
G36*
X385732Y51207D02*
X385803Y51165D01*
X385873Y51123D01*
X385944Y51052D01*
X385986Y50953D01*
X386000Y50812D01*
Y50770D01*
X385986Y50728D01*
X385972Y50672D01*
X385915Y50559D01*
X385873Y50502D01*
X385803Y50460D01*
X379938Y47218D01*
X385605D01*
X385619D01*
X385662D01*
X385732Y47204D01*
X385803Y47161D01*
X385873Y47119D01*
X385944Y47049D01*
X385986Y46950D01*
X386000Y46809D01*
Y46753D01*
X385972Y46682D01*
X385944Y46611D01*
X385901Y46541D01*
X385831Y46470D01*
X385732Y46428D01*
X385605Y46414D01*
X378402D01*
X378388D01*
X378331D01*
X378275Y46442D01*
X378190Y46470D01*
X378120Y46513D01*
X378049Y46583D01*
X378007Y46682D01*
X377993Y46809D01*
Y46851D01*
X378007Y46894D01*
X378021Y46950D01*
X378049Y47006D01*
X378092Y47077D01*
X378148Y47133D01*
X378232Y47189D01*
X384055Y50418D01*
X378402D01*
X378388D01*
X378331D01*
X378275Y50446D01*
X378190Y50474D01*
X378120Y50516D01*
X378049Y50587D01*
X378007Y50686D01*
X377993Y50812D01*
Y50883D01*
X378007Y50939D01*
X378049Y51024D01*
X378092Y51094D01*
X378162Y51165D01*
X378261Y51207D01*
X378402Y51221D01*
X385605D01*
X385619D01*
X385662D01*
X385732Y51207D01*
D02*
G37*
G36*
Y44793D02*
X385803Y44751D01*
X385873Y44708D01*
X385944Y44638D01*
X385986Y44539D01*
X386000Y44398D01*
Y41917D01*
X385986Y41861D01*
X385972Y41706D01*
X385929Y41508D01*
X385859Y41283D01*
X385760Y41057D01*
X385619Y40804D01*
X385422Y40578D01*
X385394Y40550D01*
X385309Y40493D01*
X385196Y40395D01*
X385027Y40296D01*
X384816Y40183D01*
X384576Y40085D01*
X384294Y40028D01*
X383998Y40000D01*
X379995D01*
X379981D01*
X379952D01*
X379910D01*
X379854Y40014D01*
X379699Y40028D01*
X379501Y40071D01*
X379276Y40141D01*
X379036Y40240D01*
X378796Y40381D01*
X378571Y40578D01*
X378543Y40606D01*
X378472Y40691D01*
X378388Y40804D01*
X378275Y40973D01*
X378162Y41184D01*
X378078Y41424D01*
X378007Y41706D01*
X377979Y42002D01*
Y44469D01*
X377993Y44525D01*
X378035Y44610D01*
X378078Y44680D01*
X378148Y44751D01*
X378247Y44793D01*
X378388Y44807D01*
X378402D01*
X378444D01*
X378515Y44793D01*
X378585Y44751D01*
X378656Y44708D01*
X378726Y44638D01*
X378768Y44539D01*
X378782Y44398D01*
Y41917D01*
X378796Y41818D01*
X378825Y41706D01*
X378867Y41565D01*
X378937Y41424D01*
X379022Y41283D01*
X379135Y41142D01*
X379149Y41128D01*
X379191Y41086D01*
X379276Y41029D01*
X379374Y40973D01*
X379501Y40916D01*
X379642Y40860D01*
X379811Y40818D01*
X379995Y40804D01*
X383998D01*
X384026D01*
X384083D01*
X384182Y40818D01*
X384294Y40846D01*
X384435Y40888D01*
X384576Y40944D01*
X384717Y41029D01*
X384858Y41142D01*
X384872Y41156D01*
X384915Y41212D01*
X384971Y41283D01*
X385027Y41382D01*
X385084Y41508D01*
X385140Y41649D01*
X385182Y41818D01*
X385196Y42002D01*
Y44004D01*
X381996D01*
Y43144D01*
X381968Y43073D01*
X381940Y43003D01*
X381898Y42918D01*
X381827Y42862D01*
X381729Y42805D01*
X381602Y42791D01*
X381588D01*
X381531D01*
X381475Y42819D01*
X381390Y42848D01*
X381320Y42890D01*
X381249Y42960D01*
X381207Y43059D01*
X381193Y43200D01*
Y44469D01*
X381207Y44525D01*
X381249Y44610D01*
X381292Y44680D01*
X381362Y44751D01*
X381461Y44793D01*
X381602Y44807D01*
X385605D01*
X385619D01*
X385662D01*
X385732Y44793D01*
D02*
G37*
G36*
X357704Y71239D02*
X357789Y71197D01*
X357887Y71126D01*
X357901Y71098D01*
X357944Y71042D01*
X357986Y70957D01*
X358000Y70844D01*
Y70802D01*
X357972Y70717D01*
X357944Y70647D01*
X357915Y70591D01*
X357859Y70534D01*
X357789Y70492D01*
X353827Y68279D01*
X354955Y67249D01*
X357605D01*
X357619D01*
X357662D01*
X357732Y67235D01*
X357803Y67193D01*
X357873Y67151D01*
X357944Y67080D01*
X357986Y66982D01*
X358000Y66841D01*
Y66784D01*
X357972Y66714D01*
X357944Y66643D01*
X357901Y66573D01*
X357831Y66502D01*
X357732Y66460D01*
X357605Y66446D01*
X350402D01*
X350388D01*
X350331D01*
X350275Y66474D01*
X350190Y66502D01*
X350120Y66545D01*
X350049Y66615D01*
X350007Y66714D01*
X349993Y66841D01*
Y66911D01*
X350007Y66968D01*
X350049Y67052D01*
X350092Y67123D01*
X350162Y67193D01*
X350261Y67235D01*
X350402Y67249D01*
X353771D01*
X350134Y70548D01*
X350106Y70562D01*
X350063Y70633D01*
X350021Y70717D01*
X349993Y70844D01*
Y70915D01*
X350007Y70971D01*
X350049Y71056D01*
X350092Y71126D01*
X350162Y71197D01*
X350261Y71239D01*
X350402Y71253D01*
X350430D01*
X350486Y71239D01*
X350585Y71211D01*
X350670Y71140D01*
X353193Y68857D01*
X357408Y71197D01*
X357422Y71211D01*
X357464Y71225D01*
X357535Y71239D01*
X357605Y71253D01*
X357634D01*
X357704Y71239D01*
D02*
G37*
G36*
X357732Y64825D02*
X357803Y64783D01*
X357873Y64740D01*
X357944Y64670D01*
X357986Y64571D01*
X358000Y64430D01*
Y61174D01*
X357972Y61103D01*
X357944Y61033D01*
X357901Y60962D01*
X357831Y60892D01*
X357732Y60849D01*
X357605Y60835D01*
X350402D01*
X350388D01*
X350331D01*
X350275Y60864D01*
X350190Y60892D01*
X350120Y60934D01*
X350049Y61005D01*
X350007Y61103D01*
X349993Y61230D01*
Y61301D01*
X350007Y61357D01*
X350049Y61442D01*
X350092Y61512D01*
X350162Y61582D01*
X350261Y61625D01*
X350402Y61639D01*
X357197D01*
Y64501D01*
X357211Y64557D01*
X357253Y64642D01*
X357295Y64712D01*
X357366Y64783D01*
X357464Y64825D01*
X357605Y64839D01*
X357619D01*
X357662D01*
X357732Y64825D01*
D02*
G37*
G36*
Y59214D02*
X357803Y59172D01*
X357873Y59130D01*
X357944Y59059D01*
X357986Y58960D01*
X358000Y58819D01*
Y57142D01*
X357986Y57086D01*
X357972Y56930D01*
X357929Y56733D01*
X357859Y56508D01*
X357760Y56282D01*
X357619Y56028D01*
X357422Y55803D01*
X357394Y55775D01*
X357309Y55718D01*
X357197Y55620D01*
X357027Y55521D01*
X356816Y55408D01*
X356576Y55309D01*
X356294Y55253D01*
X355998Y55225D01*
X351995D01*
X351981D01*
X351952D01*
X351910D01*
X351854Y55239D01*
X351699Y55253D01*
X351501Y55295D01*
X351276Y55366D01*
X351036Y55464D01*
X350796Y55605D01*
X350571Y55803D01*
X350543Y55831D01*
X350472Y55915D01*
X350388Y56028D01*
X350275Y56198D01*
X350162Y56409D01*
X350078Y56649D01*
X350007Y56930D01*
X349979Y57227D01*
Y58890D01*
X349993Y58946D01*
X350035Y59031D01*
X350078Y59102D01*
X350148Y59172D01*
X350247Y59214D01*
X350388Y59228D01*
X350402D01*
X350444D01*
X350514Y59214D01*
X350585Y59172D01*
X350656Y59130D01*
X350726Y59059D01*
X350768Y58960D01*
X350782Y58819D01*
Y57142D01*
X350796Y57043D01*
X350825Y56930D01*
X350867Y56789D01*
X350937Y56649D01*
X351022Y56508D01*
X351135Y56367D01*
X351149Y56353D01*
X351191Y56310D01*
X351276Y56254D01*
X351374Y56198D01*
X351501Y56141D01*
X351642Y56085D01*
X351811Y56042D01*
X351995Y56028D01*
X355998D01*
X356026D01*
X356083D01*
X356181Y56042D01*
X356294Y56071D01*
X356435Y56113D01*
X356576Y56169D01*
X356717Y56254D01*
X356858Y56367D01*
X356872Y56381D01*
X356914Y56437D01*
X356971Y56508D01*
X357027Y56606D01*
X357084Y56733D01*
X357140Y56874D01*
X357182Y57043D01*
X357197Y57227D01*
Y58890D01*
X357211Y58946D01*
X357253Y59031D01*
X357295Y59102D01*
X357366Y59172D01*
X357464Y59214D01*
X357605Y59228D01*
X357619D01*
X357662D01*
X357732Y59214D01*
D02*
G37*
G36*
X350486Y53604D02*
X357676Y52011D01*
X357690D01*
X357732Y51997D01*
X357774Y51968D01*
X357831Y51940D01*
X357901Y51884D01*
X357944Y51813D01*
X357986Y51729D01*
X358000Y51616D01*
Y51574D01*
X357986Y51517D01*
X357958Y51461D01*
X357915Y51390D01*
X357859Y51320D01*
X357774Y51263D01*
X357662Y51207D01*
X354067Y50009D01*
X357662Y48811D01*
X357676D01*
X357718Y48783D01*
X357774Y48754D01*
X357831Y48712D01*
X357887Y48656D01*
X357944Y48585D01*
X357986Y48500D01*
X358000Y48402D01*
Y48359D01*
X357986Y48303D01*
X357958Y48233D01*
X357915Y48176D01*
X357859Y48106D01*
X357774Y48049D01*
X357662Y48007D01*
X350486Y46414D01*
X350472D01*
X350458D01*
X350402Y46400D01*
X350388D01*
X350331D01*
X350275Y46428D01*
X350190Y46456D01*
X350120Y46499D01*
X350049Y46569D01*
X350007Y46668D01*
X349993Y46809D01*
Y46865D01*
X350007Y46922D01*
X350035Y46978D01*
X350078Y47049D01*
X350134Y47119D01*
X350204Y47161D01*
X350317Y47204D01*
X356111Y48486D01*
X352728Y49614D01*
X352714D01*
X352671Y49642D01*
X352629Y49671D01*
X352559Y49713D01*
X352502Y49755D01*
X352460Y49826D01*
X352418Y49910D01*
X352403Y50009D01*
Y50051D01*
X352418Y50108D01*
X352446Y50178D01*
X352488Y50234D01*
X352545Y50305D01*
X352615Y50361D01*
X352728Y50418D01*
X356097Y51531D01*
X350317Y52828D01*
X350303D01*
X350261Y52842D01*
X350219Y52871D01*
X350148Y52899D01*
X350092Y52955D01*
X350049Y53026D01*
X350007Y53110D01*
X349993Y53223D01*
Y53279D01*
X350007Y53350D01*
X350049Y53420D01*
X350092Y53491D01*
X350162Y53561D01*
X350261Y53604D01*
X350402Y53618D01*
X350416D01*
X350486Y53604D01*
D02*
G37*
G36*
X356139Y44793D02*
X356294Y44779D01*
X356492Y44737D01*
X356717Y44666D01*
X356943Y44553D01*
X357197Y44412D01*
X357422Y44215D01*
X357450Y44187D01*
X357507Y44116D01*
X357605Y43990D01*
X357704Y43820D01*
X357817Y43609D01*
X357915Y43369D01*
X357972Y43087D01*
X358000Y42791D01*
Y42650D01*
X357986Y42537D01*
X357972Y42411D01*
X357958Y42270D01*
X357929Y42101D01*
X357887Y41903D01*
X357789Y41494D01*
X357718Y41283D01*
X357634Y41057D01*
X357535Y40832D01*
X357408Y40606D01*
X357281Y40381D01*
X357126Y40169D01*
X357098Y40141D01*
X357041Y40085D01*
X356929Y40028D01*
X356872Y40014D01*
X356802Y40000D01*
X356788D01*
X356774D01*
X356703Y40014D01*
X356604Y40042D01*
X356520Y40113D01*
X356506Y40127D01*
X356463Y40197D01*
X356421Y40282D01*
X356407Y40395D01*
Y40409D01*
X356421Y40465D01*
X356435Y40536D01*
X356478Y40620D01*
X356492Y40634D01*
X356520Y40691D01*
X356562Y40775D01*
X356618Y40888D01*
X356703Y41043D01*
X356802Y41241D01*
X356900Y41466D01*
X357027Y41734D01*
Y41762D01*
X357056Y41818D01*
X357084Y41917D01*
X357112Y42044D01*
X357140Y42199D01*
X357168Y42382D01*
X357182Y42580D01*
X357197Y42791D01*
Y42876D01*
X357182Y42975D01*
X357154Y43087D01*
X357112Y43228D01*
X357041Y43369D01*
X356957Y43510D01*
X356844Y43651D01*
X356830Y43665D01*
X356788Y43707D01*
X356703Y43764D01*
X356604Y43834D01*
X356478Y43891D01*
X356337Y43947D01*
X356181Y43990D01*
X355998Y44004D01*
X355984D01*
X355970D01*
X355871Y43990D01*
X355745Y43975D01*
X355589Y43919D01*
X355420Y43834D01*
X355237Y43722D01*
X355068Y43552D01*
X354997Y43440D01*
X354927Y43327D01*
X353771Y41086D01*
X353757Y41071D01*
X353743Y41043D01*
X353714Y40987D01*
X353658Y40916D01*
X353531Y40747D01*
X353433Y40648D01*
X353334Y40550D01*
X353221Y40437D01*
X353094Y40338D01*
X352939Y40254D01*
X352784Y40169D01*
X352615Y40099D01*
X352418Y40042D01*
X352220Y40014D01*
X351995Y40000D01*
X351981D01*
X351952D01*
X351910D01*
X351854Y40014D01*
X351699Y40028D01*
X351501Y40071D01*
X351276Y40141D01*
X351036Y40240D01*
X350796Y40381D01*
X350571Y40578D01*
X350543Y40606D01*
X350472Y40691D01*
X350388Y40804D01*
X350275Y40973D01*
X350162Y41184D01*
X350078Y41424D01*
X350007Y41706D01*
X349979Y42002D01*
Y42227D01*
X349993Y42354D01*
X350007Y42481D01*
X350021Y42636D01*
X350035Y42805D01*
X350092Y43144D01*
X350162Y43510D01*
X350275Y43849D01*
X350345Y44018D01*
X350430Y44159D01*
Y44173D01*
X350458Y44201D01*
X350529Y44285D01*
X350641Y44356D01*
X350712Y44384D01*
X350782Y44398D01*
X350796D01*
X350811D01*
X350881Y44384D01*
X350980Y44342D01*
X351078Y44271D01*
X351092Y44257D01*
X351135Y44201D01*
X351177Y44116D01*
X351191Y44004D01*
Y43961D01*
X351177Y43891D01*
X351149Y43820D01*
Y43806D01*
X351135Y43778D01*
X351121Y43736D01*
X351092Y43665D01*
X351064Y43581D01*
X351036Y43482D01*
X350966Y43256D01*
X350895Y42975D01*
X350839Y42664D01*
X350796Y42340D01*
X350782Y42002D01*
Y41917D01*
X350796Y41818D01*
X350825Y41706D01*
X350867Y41565D01*
X350937Y41424D01*
X351022Y41283D01*
X351135Y41142D01*
X351149Y41128D01*
X351191Y41086D01*
X351276Y41029D01*
X351374Y40973D01*
X351501Y40916D01*
X351642Y40860D01*
X351811Y40818D01*
X351995Y40804D01*
X352009D01*
X352023D01*
X352107Y40818D01*
X352248Y40832D01*
X352403Y40888D01*
X352573Y40959D01*
X352756Y41071D01*
X352925Y41241D01*
X352996Y41339D01*
X353066Y41452D01*
X354222Y43707D01*
Y43722D01*
X354250Y43750D01*
X354278Y43806D01*
X354335Y43877D01*
X354462Y44060D01*
X354546Y44159D01*
X354659Y44257D01*
X354772Y44356D01*
X354899Y44455D01*
X355054Y44553D01*
X355209Y44638D01*
X355378Y44708D01*
X355575Y44765D01*
X355773Y44793D01*
X355998Y44807D01*
X356012D01*
X356040D01*
X356083D01*
X356139Y44793D01*
D02*
G37*
G36*
X331773Y68843D02*
X331857D01*
X331956Y68814D01*
X332182Y68772D01*
X332449Y68687D01*
X332731Y68561D01*
X332872Y68476D01*
X333013Y68391D01*
X333154Y68279D01*
X333295Y68152D01*
X333309Y68138D01*
X333323Y68123D01*
X333366Y68081D01*
X333408Y68025D01*
X333464Y67954D01*
X333521Y67870D01*
X333648Y67672D01*
X333774Y67433D01*
X333887Y67137D01*
X333972Y66813D01*
X333986Y66629D01*
X334000Y66446D01*
Y66347D01*
X333986Y66277D01*
X333972Y66192D01*
X333958Y66094D01*
X333915Y65854D01*
X333831Y65586D01*
X333704Y65304D01*
X333619Y65163D01*
X333521Y65022D01*
X333422Y64881D01*
X333295Y64740D01*
X333281Y64726D01*
X333267Y64712D01*
X333225Y64684D01*
X333168Y64627D01*
X333013Y64529D01*
X332816Y64402D01*
X332576Y64275D01*
X332280Y64162D01*
X331956Y64078D01*
X331787Y64064D01*
X331604Y64050D01*
X328389D01*
X328375D01*
X328347D01*
X328291D01*
X328220Y64064D01*
X328136Y64078D01*
X328037Y64092D01*
X327797Y64134D01*
X327529Y64219D01*
X327248Y64345D01*
X327107Y64416D01*
X326966Y64515D01*
X326825Y64613D01*
X326684Y64740D01*
X326670Y64754D01*
X326656Y64769D01*
X326613Y64811D01*
X326571Y64867D01*
X326515Y64938D01*
X326458Y65022D01*
X326331Y65220D01*
X326204Y65473D01*
X326092Y65755D01*
X326007Y66080D01*
X325993Y66263D01*
X325979Y66446D01*
Y66545D01*
X325993Y66615D01*
Y66700D01*
X326021Y66798D01*
X326063Y67038D01*
X326148Y67306D01*
X326275Y67588D01*
X326359Y67729D01*
X326444Y67870D01*
X326557Y68011D01*
X326684Y68152D01*
X326698Y68166D01*
X326712Y68180D01*
X326754Y68222D01*
X326810Y68264D01*
X326881Y68321D01*
X326966Y68377D01*
X327163Y68504D01*
X327403Y68631D01*
X327699Y68744D01*
X328023Y68828D01*
X328206Y68843D01*
X328389Y68857D01*
X331604D01*
X331618D01*
X331646D01*
X331702D01*
X331773Y68843D01*
D02*
G37*
G36*
X333732Y62428D02*
X333803Y62386D01*
X333873Y62344D01*
X333944Y62273D01*
X333986Y62175D01*
X334000Y62034D01*
Y61977D01*
X333972Y61907D01*
X333944Y61836D01*
X333901Y61766D01*
X333831Y61695D01*
X333732Y61653D01*
X333605Y61639D01*
X326402D01*
X326388D01*
X326331D01*
X326275Y61667D01*
X326190Y61695D01*
X326120Y61738D01*
X326049Y61808D01*
X326007Y61907D01*
X325993Y62034D01*
Y62104D01*
X326007Y62161D01*
X326049Y62245D01*
X326092Y62316D01*
X326162Y62386D01*
X326261Y62428D01*
X326402Y62442D01*
X333605D01*
X333619D01*
X333662D01*
X333732Y62428D01*
D02*
G37*
G36*
X332139Y60018D02*
X332294Y60004D01*
X332492Y59961D01*
X332717Y59891D01*
X332943Y59778D01*
X333196Y59637D01*
X333422Y59440D01*
X333450Y59412D01*
X333507Y59341D01*
X333605Y59214D01*
X333704Y59045D01*
X333817Y58834D01*
X333915Y58594D01*
X333972Y58312D01*
X334000Y58016D01*
Y55563D01*
X333972Y55493D01*
X333944Y55422D01*
X333901Y55352D01*
X333831Y55281D01*
X333732Y55239D01*
X333605Y55225D01*
X326388D01*
X326373D01*
X326317D01*
X326261Y55253D01*
X326176Y55281D01*
X326106Y55324D01*
X326035Y55394D01*
X325993Y55493D01*
X325979Y55620D01*
Y58101D01*
X325993Y58157D01*
X326007Y58312D01*
X326049Y58509D01*
X326120Y58735D01*
X326232Y58975D01*
X326373Y59214D01*
X326571Y59440D01*
X326599Y59468D01*
X326670Y59538D01*
X326796Y59623D01*
X326966Y59736D01*
X327177Y59849D01*
X327417Y59933D01*
X327685Y60004D01*
X327995Y60032D01*
X331998D01*
X332012D01*
X332040D01*
X332083D01*
X332139Y60018D01*
D02*
G37*
G36*
X326486Y53604D02*
X333676Y52011D01*
X333690D01*
X333732Y51997D01*
X333774Y51968D01*
X333831Y51940D01*
X333901Y51884D01*
X333944Y51813D01*
X333986Y51729D01*
X334000Y51616D01*
Y51574D01*
X333986Y51517D01*
X333958Y51461D01*
X333915Y51390D01*
X333859Y51320D01*
X333774Y51263D01*
X333662Y51207D01*
X330067Y50009D01*
X333662Y48811D01*
X333676D01*
X333718Y48783D01*
X333774Y48754D01*
X333831Y48712D01*
X333887Y48656D01*
X333944Y48585D01*
X333986Y48500D01*
X334000Y48402D01*
Y48359D01*
X333986Y48303D01*
X333958Y48233D01*
X333915Y48176D01*
X333859Y48106D01*
X333774Y48049D01*
X333662Y48007D01*
X326486Y46414D01*
X326472D01*
X326458D01*
X326402Y46400D01*
X326388D01*
X326331D01*
X326275Y46428D01*
X326190Y46456D01*
X326120Y46499D01*
X326049Y46569D01*
X326007Y46668D01*
X325993Y46809D01*
Y46865D01*
X326007Y46922D01*
X326035Y46978D01*
X326077Y47049D01*
X326134Y47119D01*
X326204Y47161D01*
X326317Y47204D01*
X332111Y48486D01*
X328728Y49614D01*
X328714D01*
X328671Y49642D01*
X328629Y49671D01*
X328559Y49713D01*
X328502Y49755D01*
X328460Y49826D01*
X328418Y49910D01*
X328404Y50009D01*
Y50051D01*
X328418Y50108D01*
X328446Y50178D01*
X328488Y50234D01*
X328545Y50305D01*
X328615Y50361D01*
X328728Y50418D01*
X332097Y51531D01*
X326317Y52828D01*
X326303D01*
X326261Y52842D01*
X326218Y52871D01*
X326148Y52899D01*
X326092Y52955D01*
X326049Y53026D01*
X326007Y53110D01*
X325993Y53223D01*
Y53279D01*
X326007Y53350D01*
X326049Y53420D01*
X326092Y53491D01*
X326162Y53561D01*
X326261Y53604D01*
X326402Y53618D01*
X326416D01*
X326486Y53604D01*
D02*
G37*
G36*
X332139Y44793D02*
X332294Y44779D01*
X332492Y44737D01*
X332717Y44666D01*
X332943Y44553D01*
X333196Y44412D01*
X333422Y44215D01*
X333450Y44187D01*
X333507Y44116D01*
X333605Y43990D01*
X333704Y43820D01*
X333817Y43609D01*
X333915Y43369D01*
X333972Y43087D01*
X334000Y42791D01*
Y42650D01*
X333986Y42537D01*
X333972Y42411D01*
X333958Y42270D01*
X333929Y42101D01*
X333887Y41903D01*
X333788Y41494D01*
X333718Y41283D01*
X333633Y41057D01*
X333535Y40832D01*
X333408Y40606D01*
X333281Y40381D01*
X333126Y40169D01*
X333098Y40141D01*
X333041Y40085D01*
X332929Y40028D01*
X332872Y40014D01*
X332802Y40000D01*
X332788D01*
X332774D01*
X332703Y40014D01*
X332604Y40042D01*
X332520Y40113D01*
X332506Y40127D01*
X332463Y40197D01*
X332421Y40282D01*
X332407Y40395D01*
Y40409D01*
X332421Y40465D01*
X332435Y40536D01*
X332477Y40620D01*
X332492Y40634D01*
X332520Y40691D01*
X332562Y40775D01*
X332618Y40888D01*
X332703Y41043D01*
X332802Y41241D01*
X332900Y41466D01*
X333027Y41734D01*
Y41762D01*
X333055Y41818D01*
X333084Y41917D01*
X333112Y42044D01*
X333140Y42199D01*
X333168Y42382D01*
X333182Y42580D01*
X333196Y42791D01*
Y42876D01*
X333182Y42975D01*
X333154Y43087D01*
X333112Y43228D01*
X333041Y43369D01*
X332957Y43510D01*
X332844Y43651D01*
X332830Y43665D01*
X332788Y43707D01*
X332703Y43764D01*
X332604Y43834D01*
X332477Y43891D01*
X332337Y43947D01*
X332182Y43990D01*
X331998Y44004D01*
X331984D01*
X331970D01*
X331871Y43990D01*
X331744Y43975D01*
X331589Y43919D01*
X331420Y43834D01*
X331237Y43722D01*
X331068Y43552D01*
X330997Y43440D01*
X330927Y43327D01*
X329771Y41086D01*
X329757Y41071D01*
X329743Y41043D01*
X329715Y40987D01*
X329658Y40916D01*
X329531Y40747D01*
X329433Y40648D01*
X329334Y40550D01*
X329221Y40437D01*
X329094Y40338D01*
X328939Y40254D01*
X328784Y40169D01*
X328615Y40099D01*
X328418Y40042D01*
X328220Y40014D01*
X327995Y40000D01*
X327981D01*
X327952D01*
X327910D01*
X327854Y40014D01*
X327699Y40028D01*
X327501Y40071D01*
X327276Y40141D01*
X327036Y40240D01*
X326796Y40381D01*
X326571Y40578D01*
X326543Y40606D01*
X326472Y40691D01*
X326388Y40804D01*
X326275Y40973D01*
X326162Y41184D01*
X326077Y41424D01*
X326007Y41706D01*
X325979Y42002D01*
Y42227D01*
X325993Y42354D01*
X326007Y42481D01*
X326021Y42636D01*
X326035Y42805D01*
X326092Y43144D01*
X326162Y43510D01*
X326275Y43849D01*
X326345Y44018D01*
X326430Y44159D01*
Y44173D01*
X326458Y44201D01*
X326529Y44285D01*
X326641Y44356D01*
X326712Y44384D01*
X326782Y44398D01*
X326796D01*
X326810D01*
X326881Y44384D01*
X326980Y44342D01*
X327078Y44271D01*
X327093Y44257D01*
X327135Y44201D01*
X327177Y44116D01*
X327191Y44004D01*
Y43961D01*
X327177Y43891D01*
X327149Y43820D01*
Y43806D01*
X327135Y43778D01*
X327121Y43736D01*
X327093Y43665D01*
X327064Y43581D01*
X327036Y43482D01*
X326966Y43256D01*
X326895Y42975D01*
X326839Y42664D01*
X326796Y42340D01*
X326782Y42002D01*
Y41917D01*
X326796Y41818D01*
X326825Y41706D01*
X326867Y41565D01*
X326937Y41424D01*
X327022Y41283D01*
X327135Y41142D01*
X327149Y41128D01*
X327191Y41086D01*
X327276Y41029D01*
X327374Y40973D01*
X327501Y40916D01*
X327642Y40860D01*
X327811Y40818D01*
X327995Y40804D01*
X328009D01*
X328023D01*
X328107Y40818D01*
X328248Y40832D01*
X328404Y40888D01*
X328573Y40959D01*
X328756Y41071D01*
X328925Y41241D01*
X328996Y41339D01*
X329066Y41452D01*
X330222Y43707D01*
Y43722D01*
X330250Y43750D01*
X330278Y43806D01*
X330335Y43877D01*
X330462Y44060D01*
X330546Y44159D01*
X330659Y44257D01*
X330772Y44356D01*
X330899Y44455D01*
X331054Y44553D01*
X331209Y44638D01*
X331378Y44708D01*
X331575Y44765D01*
X331773Y44793D01*
X331998Y44807D01*
X332012D01*
X332040D01*
X332083D01*
X332139Y44793D01*
D02*
G37*
G36*
X307139Y56832D02*
X307294Y56818D01*
X307492Y56775D01*
X307717Y56705D01*
X307943Y56592D01*
X308197Y56451D01*
X308422Y56254D01*
X308450Y56226D01*
X308507Y56155D01*
X308605Y56028D01*
X308704Y55859D01*
X308817Y55648D01*
X308915Y55408D01*
X308972Y55126D01*
X309000Y54830D01*
Y53181D01*
X308972Y53110D01*
X308944Y53040D01*
X308901Y52955D01*
X308831Y52899D01*
X308732Y52842D01*
X308605Y52828D01*
X308591D01*
X308535D01*
X308478Y52856D01*
X308394Y52885D01*
X308323Y52927D01*
X308253Y52997D01*
X308211Y53096D01*
X308197Y53237D01*
Y54915D01*
X308182Y55013D01*
X308154Y55126D01*
X308112Y55267D01*
X308055Y55408D01*
X307971Y55549D01*
X307858Y55690D01*
X307844Y55704D01*
X307788Y55746D01*
X307717Y55803D01*
X307619Y55873D01*
X307492Y55930D01*
X307351Y55986D01*
X307181Y56028D01*
X306998Y56042D01*
X306209D01*
X306181D01*
X306124D01*
X306026Y56028D01*
X305913Y56000D01*
X305772Y55958D01*
X305631Y55887D01*
X305490Y55803D01*
X305349Y55690D01*
X305335Y55676D01*
X305292Y55634D01*
X305236Y55549D01*
X305166Y55450D01*
X305109Y55324D01*
X305053Y55182D01*
X305011Y55013D01*
X304996Y54830D01*
Y53970D01*
X304968Y53900D01*
X304940Y53829D01*
X304898Y53759D01*
X304827Y53688D01*
X304729Y53646D01*
X304602Y53632D01*
X304588D01*
X304531D01*
X304475Y53660D01*
X304390Y53688D01*
X304320Y53731D01*
X304249Y53801D01*
X304207Y53900D01*
X304193Y54026D01*
Y54915D01*
X304179Y55013D01*
X304151Y55126D01*
X304108Y55267D01*
X304052Y55408D01*
X303967Y55549D01*
X303855Y55690D01*
X303841Y55704D01*
X303784Y55746D01*
X303714Y55803D01*
X303615Y55873D01*
X303488Y55930D01*
X303347Y55986D01*
X303178Y56028D01*
X302995Y56042D01*
X302966D01*
X302910D01*
X302826Y56028D01*
X302699Y56000D01*
X302572Y55958D01*
X302431Y55887D01*
X302290Y55803D01*
X302149Y55690D01*
X302135Y55676D01*
X302092Y55634D01*
X302036Y55549D01*
X301966Y55450D01*
X301895Y55324D01*
X301839Y55182D01*
X301796Y55013D01*
X301782Y54830D01*
Y53181D01*
X301754Y53110D01*
X301726Y53040D01*
X301684Y52955D01*
X301613Y52899D01*
X301514Y52842D01*
X301388Y52828D01*
X301374D01*
X301317D01*
X301261Y52856D01*
X301176Y52885D01*
X301106Y52927D01*
X301035Y52997D01*
X300993Y53096D01*
X300979Y53237D01*
Y54915D01*
X300993Y54971D01*
X301007Y55126D01*
X301049Y55324D01*
X301120Y55549D01*
X301232Y55789D01*
X301374Y56028D01*
X301571Y56254D01*
X301599Y56282D01*
X301670Y56353D01*
X301796Y56437D01*
X301966Y56550D01*
X302177Y56663D01*
X302417Y56747D01*
X302699Y56818D01*
X302995Y56846D01*
X303009D01*
X303037D01*
X303093D01*
X303164Y56832D01*
X303248Y56818D01*
X303347Y56804D01*
X303573Y56747D01*
X303826Y56649D01*
X303953Y56592D01*
X304094Y56508D01*
X304221Y56409D01*
X304362Y56310D01*
X304489Y56183D01*
X304602Y56042D01*
Y56056D01*
X304630Y56071D01*
X304658Y56113D01*
X304715Y56169D01*
X304841Y56296D01*
X305025Y56451D01*
X305264Y56592D01*
X305532Y56719D01*
X305687Y56775D01*
X305856Y56818D01*
X306026Y56832D01*
X306209Y56846D01*
X306998D01*
X307012D01*
X307041D01*
X307083D01*
X307139Y56832D01*
D02*
G37*
G36*
X301529Y51207D02*
X308704Y48811D01*
X308718D01*
X308746Y48797D01*
X308845Y48726D01*
X308901Y48670D01*
X308958Y48599D01*
X308986Y48515D01*
X309000Y48416D01*
Y48374D01*
X308986Y48317D01*
X308958Y48261D01*
X308930Y48190D01*
X308873Y48134D01*
X308803Y48078D01*
X308704Y48021D01*
X301529Y45639D01*
X301514D01*
X301486Y45625D01*
X301402Y45611D01*
X301388D01*
X301331D01*
X301275Y45639D01*
X301190Y45667D01*
X301120Y45709D01*
X301049Y45780D01*
X301007Y45879D01*
X300993Y46019D01*
Y46062D01*
X301007Y46118D01*
X301021Y46175D01*
X301063Y46231D01*
X301106Y46301D01*
X301176Y46358D01*
X301275Y46400D01*
X307337Y48416D01*
X301275Y50446D01*
X301261D01*
X301232Y50460D01*
X301134Y50531D01*
X301077Y50573D01*
X301035Y50643D01*
X301007Y50728D01*
X300993Y50827D01*
Y50883D01*
X301007Y50953D01*
X301049Y51024D01*
X301092Y51094D01*
X301162Y51165D01*
X301261Y51207D01*
X301402Y51221D01*
X301416D01*
X301444D01*
X301529Y51207D01*
D02*
G37*
G36*
X307139Y44004D02*
X307294Y43990D01*
X307492Y43947D01*
X307717Y43877D01*
X307943Y43764D01*
X308197Y43623D01*
X308422Y43426D01*
X308450Y43397D01*
X308507Y43327D01*
X308605Y43200D01*
X308704Y43031D01*
X308817Y42819D01*
X308915Y42580D01*
X308972Y42298D01*
X309000Y42002D01*
Y40352D01*
X308972Y40282D01*
X308944Y40212D01*
X308901Y40127D01*
X308831Y40071D01*
X308732Y40014D01*
X308605Y40000D01*
X308591D01*
X308535D01*
X308478Y40028D01*
X308394Y40056D01*
X308323Y40099D01*
X308253Y40169D01*
X308211Y40268D01*
X308197Y40409D01*
Y42086D01*
X308182Y42185D01*
X308154Y42298D01*
X308112Y42439D01*
X308055Y42580D01*
X307971Y42721D01*
X307858Y42862D01*
X307844Y42876D01*
X307788Y42918D01*
X307717Y42975D01*
X307619Y43045D01*
X307492Y43101D01*
X307351Y43158D01*
X307181Y43200D01*
X306998Y43214D01*
X306209D01*
X306181D01*
X306124D01*
X306026Y43200D01*
X305913Y43172D01*
X305772Y43130D01*
X305631Y43059D01*
X305490Y42975D01*
X305349Y42862D01*
X305335Y42848D01*
X305292Y42805D01*
X305236Y42721D01*
X305166Y42622D01*
X305109Y42495D01*
X305053Y42354D01*
X305011Y42185D01*
X304996Y42002D01*
Y41142D01*
X304968Y41071D01*
X304940Y41001D01*
X304898Y40930D01*
X304827Y40860D01*
X304729Y40818D01*
X304602Y40804D01*
X304588D01*
X304531D01*
X304475Y40832D01*
X304390Y40860D01*
X304320Y40902D01*
X304249Y40973D01*
X304207Y41071D01*
X304193Y41198D01*
Y42086D01*
X304179Y42185D01*
X304151Y42298D01*
X304108Y42439D01*
X304052Y42580D01*
X303967Y42721D01*
X303855Y42862D01*
X303841Y42876D01*
X303784Y42918D01*
X303714Y42975D01*
X303615Y43045D01*
X303488Y43101D01*
X303347Y43158D01*
X303178Y43200D01*
X302995Y43214D01*
X302966D01*
X302910D01*
X302826Y43200D01*
X302699Y43172D01*
X302572Y43130D01*
X302431Y43059D01*
X302290Y42975D01*
X302149Y42862D01*
X302135Y42848D01*
X302092Y42805D01*
X302036Y42721D01*
X301966Y42622D01*
X301895Y42495D01*
X301839Y42354D01*
X301796Y42185D01*
X301782Y42002D01*
Y40352D01*
X301754Y40282D01*
X301726Y40212D01*
X301684Y40127D01*
X301613Y40071D01*
X301514Y40014D01*
X301388Y40000D01*
X301374D01*
X301317D01*
X301261Y40028D01*
X301176Y40056D01*
X301106Y40099D01*
X301035Y40169D01*
X300993Y40268D01*
X300979Y40409D01*
Y42086D01*
X300993Y42143D01*
X301007Y42298D01*
X301049Y42495D01*
X301120Y42721D01*
X301232Y42960D01*
X301374Y43200D01*
X301571Y43426D01*
X301599Y43454D01*
X301670Y43524D01*
X301796Y43609D01*
X301966Y43722D01*
X302177Y43834D01*
X302417Y43919D01*
X302699Y43990D01*
X302995Y44018D01*
X303009D01*
X303037D01*
X303093D01*
X303164Y44004D01*
X303248Y43990D01*
X303347Y43975D01*
X303573Y43919D01*
X303826Y43820D01*
X303953Y43764D01*
X304094Y43679D01*
X304221Y43581D01*
X304362Y43482D01*
X304489Y43355D01*
X304602Y43214D01*
Y43228D01*
X304630Y43242D01*
X304658Y43285D01*
X304715Y43341D01*
X304841Y43468D01*
X305025Y43623D01*
X305264Y43764D01*
X305532Y43891D01*
X305687Y43947D01*
X305856Y43990D01*
X306026Y44004D01*
X306209Y44018D01*
X306998D01*
X307012D01*
X307041D01*
X307083D01*
X307139Y44004D01*
D02*
G37*
G36*
X446330Y247997D02*
X446400Y247968D01*
X446470Y247912D01*
X446541Y247841D01*
X446583Y247743D01*
X446612Y247616D01*
Y247588D01*
X446597Y247517D01*
X445907Y244402D01*
X446273D01*
X446330Y244388D01*
X446414Y244345D01*
X446485Y244303D01*
X446555Y244233D01*
X446597Y244134D01*
X446612Y243993D01*
Y243979D01*
Y243937D01*
X446597Y243866D01*
X446555Y243796D01*
X446513Y243725D01*
X446442Y243655D01*
X446344Y243612D01*
X446203Y243598D01*
X445709D01*
X444990Y240300D01*
Y240285D01*
X444976Y240257D01*
X444948Y240201D01*
X444906Y240145D01*
X444864Y240088D01*
X444793Y240032D01*
X444708Y240004D01*
X444596Y239989D01*
X444539D01*
X444469Y240018D01*
X444398Y240046D01*
X444328Y240088D01*
X444257Y240159D01*
X444215Y240257D01*
X444201Y240384D01*
Y240398D01*
Y240412D01*
Y240469D01*
X444892Y243598D01*
X444525D01*
X444455Y243626D01*
X444398Y243655D01*
X444328Y243697D01*
X444257Y243767D01*
X444215Y243866D01*
X444201Y243993D01*
Y244007D01*
Y244063D01*
X444229Y244120D01*
X444257Y244204D01*
X444300Y244275D01*
X444370Y244345D01*
X444469Y244388D01*
X444596Y244402D01*
X445075D01*
X445695Y247207D01*
X442932D01*
X442862Y247235D01*
X442791Y247264D01*
X442721Y247306D01*
X442650Y247376D01*
X442608Y247475D01*
X442594Y247602D01*
Y247616D01*
Y247672D01*
X442622Y247729D01*
X442650Y247813D01*
X442692Y247884D01*
X442763Y247954D01*
X442862Y247997D01*
X442989Y248011D01*
X446259D01*
X446330Y247997D01*
D02*
G37*
G36*
X435954D02*
X436039D01*
X436137Y247968D01*
X436377Y247926D01*
X436645Y247841D01*
X436927Y247715D01*
X437068Y247630D01*
X437209Y247545D01*
X437350Y247433D01*
X437491Y247306D01*
X437505Y247292D01*
X437519Y247278D01*
X437561Y247235D01*
X437603Y247179D01*
X437660Y247108D01*
X437716Y247024D01*
X437843Y246826D01*
X437970Y246587D01*
X438083Y246291D01*
X438167Y245967D01*
X438181Y245783D01*
X438196Y245600D01*
Y245586D01*
Y245530D01*
X438181Y245445D01*
X438167Y245332D01*
X438153Y245191D01*
X438125Y245050D01*
X438069Y244881D01*
X438012Y244698D01*
X437942Y244515D01*
X437843Y244317D01*
X437730Y244134D01*
X437589Y243951D01*
X437420Y243782D01*
X437223Y243626D01*
X436997Y243486D01*
X436744Y243359D01*
X438153Y240567D01*
X438167Y240553D01*
X438181Y240511D01*
X438196Y240455D01*
Y240384D01*
Y240356D01*
X438181Y240285D01*
X438139Y240201D01*
X438069Y240102D01*
X438041Y240088D01*
X437984Y240046D01*
X437900Y240004D01*
X437787Y239989D01*
X437744D01*
X437660Y240018D01*
X437589Y240046D01*
X437533Y240074D01*
X437477Y240130D01*
X437434Y240201D01*
X435940Y243190D01*
X434192D01*
Y240384D01*
Y240370D01*
Y240328D01*
X434178Y240257D01*
X434136Y240187D01*
X434093Y240116D01*
X434023Y240046D01*
X433924Y240004D01*
X433783Y239989D01*
X433727D01*
X433656Y240018D01*
X433586Y240046D01*
X433515Y240088D01*
X433445Y240159D01*
X433403Y240257D01*
X433388Y240384D01*
Y247602D01*
Y247616D01*
Y247672D01*
X433417Y247729D01*
X433445Y247813D01*
X433487Y247884D01*
X433558Y247954D01*
X433656Y247997D01*
X433783Y248011D01*
X435884D01*
X435954Y247997D01*
D02*
G37*
G36*
X150448Y127867D02*
X150603Y127853D01*
X150801Y127811D01*
X151012Y127740D01*
X151252Y127627D01*
X151491Y127486D01*
X151717Y127289D01*
X151745Y127261D01*
X151816Y127190D01*
X151900Y127064D01*
X152013Y126894D01*
X152126Y126683D01*
X152210Y126443D01*
X152281Y126161D01*
X152309Y125865D01*
Y125837D01*
Y125767D01*
X152295Y125654D01*
X152267Y125513D01*
X152224Y125330D01*
X152154Y125146D01*
X152069Y124935D01*
X151942Y124709D01*
X149419Y120663D01*
X151971D01*
X152041Y120649D01*
X152112Y120607D01*
X152182Y120565D01*
X152253Y120494D01*
X152295Y120396D01*
X152309Y120255D01*
Y120241D01*
Y120198D01*
X152295Y120128D01*
X152267Y120057D01*
X152210Y119987D01*
X152140Y119916D01*
X152041Y119874D01*
X151914Y119860D01*
X148644D01*
X148573Y119888D01*
X148503Y119916D01*
X148432Y119959D01*
X148362Y120029D01*
X148319Y120128D01*
X148305Y120255D01*
Y120283D01*
X148319Y120325D01*
X148334Y120410D01*
X148376Y120480D01*
X151308Y125203D01*
X151322Y125217D01*
X151336Y125259D01*
X151364Y125330D01*
X151407Y125414D01*
X151449Y125513D01*
X151477Y125626D01*
X151491Y125738D01*
X151505Y125865D01*
Y125893D01*
Y125950D01*
X151491Y126049D01*
X151463Y126161D01*
X151421Y126302D01*
X151350Y126443D01*
X151266Y126584D01*
X151153Y126725D01*
X151139Y126739D01*
X151096Y126782D01*
X151012Y126838D01*
X150913Y126909D01*
X150786Y126965D01*
X150645Y127021D01*
X150490Y127064D01*
X150307Y127078D01*
X150279D01*
X150194Y127064D01*
X150068Y127021D01*
X149898Y126951D01*
X149800Y126894D01*
X149701Y126824D01*
X149602Y126753D01*
X149489Y126655D01*
X149377Y126528D01*
X149278Y126401D01*
X149165Y126246D01*
X149052Y126063D01*
Y126049D01*
X149038Y126034D01*
X148968Y125964D01*
X148855Y125893D01*
X148785Y125879D01*
X148700Y125865D01*
X148644D01*
X148573Y125893D01*
X148503Y125922D01*
X148432Y125964D01*
X148362Y126034D01*
X148319Y126133D01*
X148305Y126274D01*
Y126288D01*
Y126330D01*
X148319Y126373D01*
X148348Y126429D01*
X148362Y126443D01*
X148376Y126486D01*
X148418Y126570D01*
X148489Y126655D01*
X148559Y126768D01*
X148644Y126894D01*
X148756Y127021D01*
X148869Y127162D01*
X149010Y127289D01*
X149151Y127416D01*
X149320Y127543D01*
X149489Y127656D01*
X149673Y127754D01*
X149870Y127825D01*
X150082Y127867D01*
X150307Y127881D01*
X150392D01*
X150448Y127867D01*
D02*
G37*
G36*
X141666D02*
X141750D01*
X141849Y127839D01*
X142089Y127797D01*
X142356Y127712D01*
X142638Y127585D01*
X142779Y127501D01*
X142920Y127416D01*
X143061Y127303D01*
X143202Y127176D01*
X143216Y127162D01*
X143230Y127148D01*
X143273Y127106D01*
X143315Y127050D01*
X143371Y126979D01*
X143428Y126894D01*
X143555Y126697D01*
X143681Y126457D01*
X143794Y126161D01*
X143879Y125837D01*
X143893Y125654D01*
X143907Y125471D01*
Y125456D01*
Y125400D01*
X143893Y125316D01*
X143879Y125203D01*
X143865Y125062D01*
X143837Y124921D01*
X143780Y124752D01*
X143724Y124568D01*
X143653Y124385D01*
X143555Y124188D01*
X143442Y124004D01*
X143301Y123821D01*
X143132Y123652D01*
X142934Y123497D01*
X142709Y123356D01*
X142455Y123229D01*
X143865Y120438D01*
X143879Y120424D01*
X143893Y120382D01*
X143907Y120325D01*
Y120255D01*
Y120226D01*
X143893Y120156D01*
X143851Y120071D01*
X143780Y119973D01*
X143752Y119959D01*
X143696Y119916D01*
X143611Y119874D01*
X143498Y119860D01*
X143456D01*
X143371Y119888D01*
X143301Y119916D01*
X143244Y119945D01*
X143188Y120001D01*
X143146Y120071D01*
X141652Y123060D01*
X139903D01*
Y120255D01*
Y120241D01*
Y120198D01*
X139889Y120128D01*
X139847Y120057D01*
X139805Y119987D01*
X139734Y119916D01*
X139636Y119874D01*
X139495Y119860D01*
X139438D01*
X139368Y119888D01*
X139297Y119916D01*
X139227Y119959D01*
X139156Y120029D01*
X139114Y120128D01*
X139100Y120255D01*
Y127472D01*
Y127486D01*
Y127543D01*
X139128Y127599D01*
X139156Y127684D01*
X139199Y127754D01*
X139269Y127825D01*
X139368Y127867D01*
X139495Y127881D01*
X141595D01*
X141666Y127867D01*
D02*
G37*
G36*
X151491Y64353D02*
X151576Y64311D01*
X151647Y64268D01*
X151717Y64198D01*
X151759Y64099D01*
X151774Y63958D01*
Y56755D01*
Y56741D01*
Y56698D01*
X151759Y56628D01*
X151717Y56557D01*
X151675Y56487D01*
X151604Y56416D01*
X151506Y56374D01*
X151365Y56360D01*
X151308D01*
X151238Y56388D01*
X151167Y56416D01*
X151097Y56459D01*
X151026Y56529D01*
X150984Y56628D01*
X150970Y56755D01*
Y63000D01*
X150040Y62069D01*
X150025Y62055D01*
X149969Y62013D01*
X149870Y61971D01*
X149758Y61957D01*
X149701D01*
X149631Y61985D01*
X149560Y62013D01*
X149490Y62055D01*
X149419Y62126D01*
X149377Y62224D01*
X149363Y62351D01*
Y62365D01*
Y62379D01*
X149377Y62450D01*
X149405Y62549D01*
X149476Y62633D01*
X151040Y64198D01*
X151054Y64212D01*
X151069Y64226D01*
X151139Y64282D01*
X151238Y64339D01*
X151308Y64367D01*
X151435D01*
X151491Y64353D01*
D02*
G37*
G36*
X141920Y64367D02*
X142004D01*
X142103Y64339D01*
X142343Y64297D01*
X142610Y64212D01*
X142892Y64085D01*
X143033Y64001D01*
X143174Y63916D01*
X143315Y63803D01*
X143456Y63676D01*
X143470Y63662D01*
X143484Y63648D01*
X143527Y63606D01*
X143569Y63549D01*
X143625Y63479D01*
X143682Y63394D01*
X143809Y63197D01*
X143935Y62957D01*
X144048Y62661D01*
X144133Y62337D01*
X144147Y62154D01*
X144161Y61971D01*
Y61957D01*
Y61900D01*
X144147Y61816D01*
X144133Y61703D01*
X144119Y61562D01*
X144091Y61421D01*
X144034Y61252D01*
X143978Y61068D01*
X143907Y60885D01*
X143809Y60688D01*
X143696Y60504D01*
X143555Y60321D01*
X143386Y60152D01*
X143188Y59997D01*
X142963Y59856D01*
X142709Y59729D01*
X144119Y56938D01*
X144133Y56924D01*
X144147Y56882D01*
X144161Y56825D01*
Y56755D01*
Y56726D01*
X144147Y56656D01*
X144105Y56571D01*
X144034Y56473D01*
X144006Y56459D01*
X143950Y56416D01*
X143865Y56374D01*
X143752Y56360D01*
X143710D01*
X143625Y56388D01*
X143555Y56416D01*
X143498Y56445D01*
X143442Y56501D01*
X143400Y56571D01*
X141906Y59560D01*
X140157D01*
Y56755D01*
Y56741D01*
Y56698D01*
X140143Y56628D01*
X140101Y56557D01*
X140059Y56487D01*
X139988Y56416D01*
X139890Y56374D01*
X139749Y56360D01*
X139692D01*
X139622Y56388D01*
X139551Y56416D01*
X139481Y56459D01*
X139410Y56529D01*
X139368Y56628D01*
X139354Y56755D01*
Y63972D01*
Y63987D01*
Y64043D01*
X139382Y64099D01*
X139410Y64184D01*
X139453Y64254D01*
X139523Y64325D01*
X139622Y64367D01*
X139749Y64381D01*
X141849D01*
X141920Y64367D01*
D02*
G37*
G36*
X168546Y267997D02*
X168701Y267982D01*
X168899Y267940D01*
X169110Y267870D01*
X169350Y267757D01*
X169590Y267616D01*
X169815Y267418D01*
X169843Y267390D01*
X169914Y267320D01*
X169998Y267193D01*
X170111Y267024D01*
X170224Y266812D01*
X170308Y266573D01*
X170379Y266291D01*
X170407Y265995D01*
Y265966D01*
Y265896D01*
X170393Y265783D01*
X170365Y265642D01*
X170322Y265459D01*
X170252Y265276D01*
X170168Y265064D01*
X170041Y264839D01*
X167517Y260793D01*
X170069D01*
X170139Y260779D01*
X170210Y260737D01*
X170280Y260694D01*
X170351Y260624D01*
X170393Y260525D01*
X170407Y260384D01*
Y260370D01*
Y260328D01*
X170393Y260257D01*
X170365Y260187D01*
X170308Y260116D01*
X170238Y260046D01*
X170139Y260004D01*
X170012Y259989D01*
X166742D01*
X166671Y260018D01*
X166601Y260046D01*
X166530Y260088D01*
X166460Y260159D01*
X166418Y260257D01*
X166404Y260384D01*
Y260412D01*
X166418Y260455D01*
X166432Y260539D01*
X166474Y260610D01*
X169406Y265332D01*
X169420Y265346D01*
X169434Y265389D01*
X169463Y265459D01*
X169505Y265544D01*
X169547Y265642D01*
X169575Y265755D01*
X169590Y265868D01*
X169604Y265995D01*
Y266023D01*
Y266079D01*
X169590Y266178D01*
X169561Y266291D01*
X169519Y266432D01*
X169449Y266573D01*
X169364Y266714D01*
X169251Y266855D01*
X169237Y266869D01*
X169195Y266911D01*
X169110Y266967D01*
X169011Y267038D01*
X168885Y267094D01*
X168744Y267151D01*
X168589Y267193D01*
X168405Y267207D01*
X168377D01*
X168293Y267193D01*
X168166Y267151D01*
X167997Y267080D01*
X167898Y267024D01*
X167799Y266953D01*
X167701Y266883D01*
X167588Y266784D01*
X167475Y266657D01*
X167376Y266530D01*
X167264Y266375D01*
X167151Y266192D01*
Y266178D01*
X167137Y266164D01*
X167066Y266093D01*
X166953Y266023D01*
X166883Y266009D01*
X166798Y265995D01*
X166742D01*
X166671Y266023D01*
X166601Y266051D01*
X166530Y266093D01*
X166460Y266164D01*
X166418Y266263D01*
X166404Y266404D01*
Y266418D01*
Y266460D01*
X166418Y266502D01*
X166446Y266559D01*
X166460Y266573D01*
X166474Y266615D01*
X166516Y266700D01*
X166587Y266784D01*
X166657Y266897D01*
X166742Y267024D01*
X166855Y267151D01*
X166967Y267292D01*
X167108Y267418D01*
X167249Y267545D01*
X167418Y267672D01*
X167588Y267785D01*
X167771Y267884D01*
X167968Y267954D01*
X168180Y267997D01*
X168405Y268011D01*
X168490D01*
X168546Y267997D01*
D02*
G37*
G36*
X161315D02*
X161399Y267954D01*
X161470Y267912D01*
X161540Y267841D01*
X161582Y267743D01*
X161597Y267602D01*
Y267588D01*
Y267545D01*
X161582Y267475D01*
X161540Y267404D01*
X161498Y267334D01*
X161427Y267264D01*
X161329Y267221D01*
X161188Y267207D01*
X159510D01*
X159411Y267193D01*
X159299Y267165D01*
X159158Y267122D01*
X159017Y267052D01*
X158876Y266967D01*
X158735Y266855D01*
X158721Y266841D01*
X158678Y266798D01*
X158622Y266714D01*
X158566Y266615D01*
X158509Y266488D01*
X158453Y266347D01*
X158411Y266178D01*
X158397Y265995D01*
Y261991D01*
Y261963D01*
Y261907D01*
X158411Y261808D01*
X158439Y261695D01*
X158481Y261554D01*
X158537Y261413D01*
X158622Y261272D01*
X158735Y261131D01*
X158749Y261117D01*
X158805Y261075D01*
X158876Y261019D01*
X158974Y260962D01*
X159101Y260906D01*
X159242Y260849D01*
X159411Y260807D01*
X159595Y260793D01*
X161258D01*
X161315Y260779D01*
X161399Y260737D01*
X161470Y260694D01*
X161540Y260624D01*
X161582Y260525D01*
X161597Y260384D01*
Y260370D01*
Y260328D01*
X161582Y260257D01*
X161540Y260187D01*
X161498Y260116D01*
X161427Y260046D01*
X161329Y260004D01*
X161188Y259989D01*
X159510D01*
X159454Y260004D01*
X159299Y260018D01*
X159101Y260060D01*
X158876Y260130D01*
X158650Y260229D01*
X158397Y260370D01*
X158171Y260567D01*
X158143Y260596D01*
X158086Y260680D01*
X157988Y260793D01*
X157889Y260962D01*
X157776Y261174D01*
X157677Y261413D01*
X157621Y261695D01*
X157593Y261991D01*
Y265995D01*
Y266009D01*
Y266037D01*
Y266079D01*
X157607Y266136D01*
X157621Y266291D01*
X157663Y266488D01*
X157734Y266714D01*
X157833Y266953D01*
X157973Y267193D01*
X158171Y267418D01*
X158199Y267447D01*
X158284Y267517D01*
X158397Y267602D01*
X158566Y267715D01*
X158777Y267827D01*
X159017Y267912D01*
X159299Y267982D01*
X159595Y268011D01*
X161258D01*
X161315Y267997D01*
D02*
G37*
G36*
X432844Y172811D02*
X432929Y172769D01*
X432999Y172726D01*
X433070Y172656D01*
X433112Y172557D01*
X433126Y172416D01*
Y165213D01*
Y165199D01*
Y165156D01*
X433112Y165086D01*
X433070Y165015D01*
X433027Y164945D01*
X432957Y164874D01*
X432858Y164832D01*
X432717Y164818D01*
X432661D01*
X432590Y164846D01*
X432520Y164874D01*
X432449Y164917D01*
X432379Y164987D01*
X432337Y165086D01*
X432323Y165213D01*
Y171458D01*
X431392Y170527D01*
X431378Y170513D01*
X431322Y170471D01*
X431223Y170429D01*
X431110Y170415D01*
X431054D01*
X430983Y170443D01*
X430913Y170471D01*
X430842Y170513D01*
X430772Y170584D01*
X430730Y170682D01*
X430715Y170809D01*
Y170823D01*
Y170837D01*
X430730Y170908D01*
X430758Y171007D01*
X430828Y171091D01*
X432393Y172656D01*
X432407Y172670D01*
X432421Y172684D01*
X432492Y172740D01*
X432590Y172797D01*
X432661Y172825D01*
X432788D01*
X432844Y172811D01*
D02*
G37*
G36*
X422878Y172825D02*
X422962D01*
X423061Y172797D01*
X423286Y172755D01*
X423554Y172670D01*
X423836Y172543D01*
X423977Y172459D01*
X424132Y172374D01*
X424259Y172261D01*
X424400Y172134D01*
X424414Y172120D01*
X424428Y172106D01*
X424470Y172064D01*
X424513Y172008D01*
X424569Y171937D01*
X424626Y171852D01*
X424753Y171655D01*
X424879Y171415D01*
X424992Y171119D01*
X425077Y170795D01*
X425091Y170612D01*
X425105Y170429D01*
Y167215D01*
Y167200D01*
Y167144D01*
X425091Y167059D01*
Y166947D01*
X425063Y166806D01*
X425034Y166665D01*
X424992Y166510D01*
X424936Y166341D01*
X425767Y165509D01*
X425782Y165481D01*
X425838Y165424D01*
X425880Y165326D01*
X425894Y165213D01*
Y165199D01*
Y165156D01*
X425880Y165086D01*
X425852Y165015D01*
X425796Y164945D01*
X425725Y164874D01*
X425626Y164832D01*
X425500Y164818D01*
X425471D01*
X425387Y164832D01*
X425288Y164860D01*
X425190Y164931D01*
X424499Y165636D01*
X424485Y165621D01*
X424470Y165607D01*
X424428Y165565D01*
X424372Y165509D01*
X424301Y165452D01*
X424217Y165382D01*
X424005Y165227D01*
X423752Y165072D01*
X423441Y164945D01*
X423272Y164888D01*
X423103Y164860D01*
X422906Y164832D01*
X422708Y164818D01*
X422610D01*
X422539Y164832D01*
X422455Y164846D01*
X422356Y164860D01*
X422116Y164903D01*
X421848Y164987D01*
X421567Y165114D01*
X421426Y165199D01*
X421285Y165297D01*
X421144Y165396D01*
X421003Y165523D01*
X420989Y165537D01*
X420975Y165551D01*
X420946Y165593D01*
X420890Y165650D01*
X420791Y165805D01*
X420664Y166002D01*
X420537Y166242D01*
X420425Y166538D01*
X420340Y166862D01*
X420326Y167031D01*
X420312Y167215D01*
Y170429D01*
Y170443D01*
Y170471D01*
Y170527D01*
X420326Y170598D01*
X420340Y170682D01*
X420354Y170781D01*
X420396Y171021D01*
X420481Y171289D01*
X420608Y171570D01*
X420678Y171711D01*
X420777Y171852D01*
X420876Y171993D01*
X421003Y172134D01*
X421017Y172148D01*
X421031Y172162D01*
X421073Y172205D01*
X421129Y172247D01*
X421200Y172304D01*
X421285Y172360D01*
X421482Y172487D01*
X421736Y172614D01*
X422018Y172726D01*
X422342Y172811D01*
X422525Y172825D01*
X422708Y172839D01*
X422807D01*
X422878Y172825D01*
D02*
G37*
G36*
X416421D02*
X416506Y172783D01*
X416576Y172740D01*
X416647Y172670D01*
X416689Y172571D01*
X416703Y172430D01*
Y172416D01*
X416689Y172360D01*
X416675Y172289D01*
X416618Y172191D01*
X412981Y165621D01*
X416365D01*
X416421Y165607D01*
X416506Y165565D01*
X416576Y165523D01*
X416647Y165452D01*
X416689Y165354D01*
X416703Y165213D01*
Y165199D01*
Y165156D01*
X416689Y165086D01*
X416647Y165015D01*
X416604Y164945D01*
X416534Y164874D01*
X416435Y164832D01*
X416294Y164818D01*
X412234D01*
X412164Y164846D01*
X412093Y164874D01*
X412023Y164917D01*
X411952Y164987D01*
X411910Y165086D01*
X411896Y165213D01*
Y165227D01*
X411910Y165283D01*
X411924Y165354D01*
X411967Y165452D01*
X415618Y172036D01*
X412234D01*
X412164Y172064D01*
X412093Y172092D01*
X412023Y172134D01*
X411952Y172205D01*
X411910Y172304D01*
X411896Y172430D01*
Y172444D01*
Y172501D01*
X411924Y172557D01*
X411952Y172642D01*
X411995Y172712D01*
X412065Y172783D01*
X412164Y172825D01*
X412291Y172839D01*
X416365D01*
X416421Y172825D01*
D02*
G37*
G36*
X194527Y296982D02*
X194597Y296940D01*
X194668Y296898D01*
X194738Y296827D01*
X194781Y296729D01*
X194795Y296588D01*
Y296574D01*
X194781Y296517D01*
X194767Y296447D01*
X194724Y296362D01*
X192483Y292993D01*
X194724Y289610D01*
X194738Y289596D01*
X194767Y289539D01*
X194781Y289469D01*
X194795Y289384D01*
Y289370D01*
Y289328D01*
X194781Y289257D01*
X194752Y289187D01*
X194696Y289116D01*
X194625Y289046D01*
X194527Y289004D01*
X194400Y288989D01*
X194358D01*
X194273Y289018D01*
X194160Y289060D01*
X194104Y289102D01*
X194062Y289159D01*
X191989Y292260D01*
X189917Y289159D01*
X189903Y289130D01*
X189833Y289074D01*
X189734Y289018D01*
X189663Y289004D01*
X189593Y288989D01*
X189536D01*
X189466Y289018D01*
X189396Y289046D01*
X189311Y289088D01*
X189255Y289159D01*
X189198Y289257D01*
X189184Y289384D01*
Y289412D01*
X189198Y289455D01*
X189212Y289539D01*
X189255Y289610D01*
X191510Y292993D01*
X189255Y296362D01*
X189240Y296376D01*
X189226Y296433D01*
X189198Y296503D01*
X189184Y296588D01*
Y296602D01*
Y296658D01*
X189212Y296715D01*
X189240Y296799D01*
X189283Y296870D01*
X189353Y296940D01*
X189452Y296982D01*
X189593Y296996D01*
X189635D01*
X189720Y296968D01*
X189818Y296926D01*
X189875Y296870D01*
X189917Y296813D01*
X191989Y293712D01*
X194062Y296813D01*
Y296827D01*
X194090Y296841D01*
X194146Y296912D01*
X194259Y296968D01*
X194315Y296982D01*
X194400Y296996D01*
X194456D01*
X194527Y296982D01*
D02*
G37*
G36*
X200941Y296996D02*
X201096Y296982D01*
X201293Y296940D01*
X201519Y296870D01*
X201759Y296757D01*
X201998Y296616D01*
X202224Y296418D01*
X202252Y296390D01*
X202323Y296320D01*
X202407Y296193D01*
X202520Y296024D01*
X202633Y295812D01*
X202717Y295573D01*
X202788Y295291D01*
X202816Y294995D01*
Y294981D01*
Y294952D01*
Y294896D01*
X202802Y294826D01*
X202788Y294741D01*
X202774Y294642D01*
X202717Y294417D01*
X202619Y294163D01*
X202562Y294036D01*
X202478Y293895D01*
X202379Y293768D01*
X202280Y293627D01*
X202153Y293500D01*
X202012Y293388D01*
X202027D01*
X202041Y293360D01*
X202083Y293331D01*
X202139Y293275D01*
X202266Y293148D01*
X202421Y292965D01*
X202562Y292725D01*
X202689Y292457D01*
X202745Y292302D01*
X202788Y292133D01*
X202802Y291964D01*
X202816Y291781D01*
Y290991D01*
Y290977D01*
Y290949D01*
Y290907D01*
X202802Y290850D01*
X202788Y290695D01*
X202745Y290498D01*
X202675Y290272D01*
X202562Y290047D01*
X202421Y289793D01*
X202224Y289567D01*
X202196Y289539D01*
X202125Y289483D01*
X201998Y289384D01*
X201829Y289286D01*
X201618Y289173D01*
X201378Y289074D01*
X201096Y289018D01*
X200800Y288989D01*
X199151D01*
X199080Y289018D01*
X199010Y289046D01*
X198925Y289088D01*
X198869Y289159D01*
X198812Y289257D01*
X198798Y289384D01*
Y289398D01*
Y289455D01*
X198827Y289511D01*
X198855Y289596D01*
X198897Y289666D01*
X198967Y289737D01*
X199066Y289779D01*
X199207Y289793D01*
X200885D01*
X200983Y289807D01*
X201096Y289835D01*
X201237Y289877D01*
X201378Y289934D01*
X201519Y290019D01*
X201660Y290131D01*
X201674Y290145D01*
X201716Y290202D01*
X201773Y290272D01*
X201843Y290371D01*
X201900Y290498D01*
X201956Y290639D01*
X201998Y290808D01*
X202012Y290991D01*
Y291781D01*
Y291809D01*
Y291865D01*
X201998Y291964D01*
X201970Y292077D01*
X201928Y292218D01*
X201857Y292359D01*
X201773Y292500D01*
X201660Y292640D01*
X201646Y292655D01*
X201604Y292697D01*
X201519Y292753D01*
X201420Y292824D01*
X201293Y292880D01*
X201152Y292937D01*
X200983Y292979D01*
X200800Y292993D01*
X199940D01*
X199870Y293021D01*
X199799Y293049D01*
X199729Y293092D01*
X199658Y293162D01*
X199616Y293261D01*
X199602Y293388D01*
Y293402D01*
Y293458D01*
X199630Y293515D01*
X199658Y293599D01*
X199701Y293670D01*
X199771Y293740D01*
X199870Y293782D01*
X199996Y293797D01*
X200885D01*
X200983Y293811D01*
X201096Y293839D01*
X201237Y293881D01*
X201378Y293937D01*
X201519Y294022D01*
X201660Y294135D01*
X201674Y294149D01*
X201716Y294205D01*
X201773Y294276D01*
X201843Y294375D01*
X201900Y294501D01*
X201956Y294642D01*
X201998Y294811D01*
X202012Y294995D01*
Y295023D01*
Y295079D01*
X201998Y295164D01*
X201970Y295291D01*
X201928Y295418D01*
X201857Y295559D01*
X201773Y295700D01*
X201660Y295841D01*
X201646Y295855D01*
X201604Y295897D01*
X201519Y295953D01*
X201420Y296024D01*
X201293Y296094D01*
X201152Y296151D01*
X200983Y296193D01*
X200800Y296207D01*
X199151D01*
X199080Y296235D01*
X199010Y296264D01*
X198925Y296306D01*
X198869Y296376D01*
X198812Y296475D01*
X198798Y296602D01*
Y296616D01*
Y296672D01*
X198827Y296729D01*
X198855Y296813D01*
X198897Y296884D01*
X198967Y296954D01*
X199066Y296996D01*
X199207Y297011D01*
X200885D01*
X200941Y296996D01*
D02*
G37*
G36*
X47534Y255982D02*
X47604Y255940D01*
X47675Y255898D01*
X47745Y255827D01*
X47788Y255729D01*
X47802Y255588D01*
Y255574D01*
X47788Y255517D01*
X47774Y255447D01*
X47731Y255362D01*
X45490Y251993D01*
X47731Y248610D01*
X47745Y248596D01*
X47774Y248539D01*
X47788Y248469D01*
X47802Y248384D01*
Y248370D01*
Y248328D01*
X47788Y248257D01*
X47759Y248187D01*
X47703Y248116D01*
X47633Y248046D01*
X47534Y248004D01*
X47407Y247989D01*
X47365D01*
X47280Y248018D01*
X47167Y248060D01*
X47111Y248102D01*
X47069Y248159D01*
X44997Y251260D01*
X42924Y248159D01*
X42910Y248130D01*
X42840Y248074D01*
X42741Y248018D01*
X42670Y248004D01*
X42600Y247989D01*
X42544D01*
X42473Y248018D01*
X42403Y248046D01*
X42318Y248088D01*
X42262Y248159D01*
X42205Y248257D01*
X42191Y248384D01*
Y248412D01*
X42205Y248455D01*
X42219Y248539D01*
X42262Y248610D01*
X44517Y251993D01*
X42262Y255362D01*
X42248Y255376D01*
X42233Y255433D01*
X42205Y255503D01*
X42191Y255588D01*
Y255602D01*
Y255658D01*
X42219Y255715D01*
X42248Y255799D01*
X42290Y255870D01*
X42360Y255940D01*
X42459Y255982D01*
X42600Y255996D01*
X42642D01*
X42727Y255968D01*
X42825Y255926D01*
X42882Y255870D01*
X42924Y255813D01*
X44997Y252712D01*
X47069Y255813D01*
Y255827D01*
X47097Y255841D01*
X47153Y255912D01*
X47266Y255968D01*
X47323Y255982D01*
X47407Y255996D01*
X47463D01*
X47534Y255982D01*
D02*
G37*
G36*
X53948Y255996D02*
X54103Y255982D01*
X54300Y255940D01*
X54512Y255870D01*
X54752Y255757D01*
X54991Y255616D01*
X55217Y255418D01*
X55245Y255390D01*
X55315Y255320D01*
X55400Y255193D01*
X55513Y255024D01*
X55626Y254812D01*
X55710Y254573D01*
X55781Y254291D01*
X55809Y253995D01*
Y253967D01*
Y253896D01*
X55795Y253783D01*
X55767Y253642D01*
X55724Y253459D01*
X55654Y253276D01*
X55569Y253064D01*
X55442Y252839D01*
X52919Y248793D01*
X55470D01*
X55541Y248779D01*
X55612Y248737D01*
X55682Y248694D01*
X55753Y248624D01*
X55795Y248525D01*
X55809Y248384D01*
Y248370D01*
Y248328D01*
X55795Y248257D01*
X55767Y248187D01*
X55710Y248116D01*
X55640Y248046D01*
X55541Y248004D01*
X55414Y247989D01*
X52144D01*
X52073Y248018D01*
X52003Y248046D01*
X51932Y248088D01*
X51862Y248159D01*
X51819Y248257D01*
X51805Y248384D01*
Y248412D01*
X51819Y248455D01*
X51834Y248539D01*
X51876Y248610D01*
X54808Y253332D01*
X54822Y253346D01*
X54836Y253389D01*
X54864Y253459D01*
X54907Y253544D01*
X54949Y253642D01*
X54977Y253755D01*
X54991Y253868D01*
X55005Y253995D01*
Y254023D01*
Y254079D01*
X54991Y254178D01*
X54963Y254291D01*
X54921Y254432D01*
X54850Y254573D01*
X54766Y254714D01*
X54653Y254855D01*
X54639Y254869D01*
X54597Y254911D01*
X54512Y254967D01*
X54413Y255038D01*
X54286Y255094D01*
X54145Y255151D01*
X53990Y255193D01*
X53807Y255207D01*
X53779D01*
X53694Y255193D01*
X53567Y255151D01*
X53398Y255080D01*
X53300Y255024D01*
X53201Y254953D01*
X53102Y254883D01*
X52990Y254784D01*
X52877Y254657D01*
X52778Y254530D01*
X52665Y254375D01*
X52552Y254192D01*
Y254178D01*
X52538Y254164D01*
X52468Y254093D01*
X52355Y254023D01*
X52285Y254009D01*
X52200Y253995D01*
X52144D01*
X52073Y254023D01*
X52003Y254051D01*
X51932Y254093D01*
X51862Y254164D01*
X51819Y254263D01*
X51805Y254404D01*
Y254418D01*
Y254460D01*
X51819Y254502D01*
X51848Y254559D01*
X51862Y254573D01*
X51876Y254615D01*
X51918Y254700D01*
X51989Y254784D01*
X52059Y254897D01*
X52144Y255024D01*
X52256Y255151D01*
X52369Y255292D01*
X52510Y255418D01*
X52651Y255545D01*
X52820Y255672D01*
X52990Y255785D01*
X53173Y255884D01*
X53370Y255954D01*
X53582Y255996D01*
X53807Y256011D01*
X53892D01*
X53948Y255996D01*
D02*
G37*
G36*
X267929Y19990D02*
X267999Y19947D01*
X268070Y19905D01*
X268140Y19834D01*
X268182Y19736D01*
X268197Y19595D01*
Y19581D01*
X268182Y19524D01*
X268168Y19454D01*
X268126Y19369D01*
X265885Y16000D01*
X268126Y12617D01*
X268140Y12603D01*
X268168Y12546D01*
X268182Y12476D01*
X268197Y12391D01*
Y12377D01*
Y12335D01*
X268182Y12264D01*
X268154Y12194D01*
X268098Y12123D01*
X268027Y12053D01*
X267929Y12011D01*
X267802Y11997D01*
X267759D01*
X267675Y12025D01*
X267562Y12067D01*
X267506Y12109D01*
X267463Y12166D01*
X265391Y15267D01*
X263319Y12166D01*
X263305Y12137D01*
X263234Y12081D01*
X263136Y12025D01*
X263065Y12011D01*
X262995Y11997D01*
X262938D01*
X262868Y12025D01*
X262797Y12053D01*
X262713Y12095D01*
X262656Y12166D01*
X262600Y12264D01*
X262586Y12391D01*
Y12419D01*
X262600Y12462D01*
X262614Y12546D01*
X262656Y12617D01*
X264912Y16000D01*
X262656Y19369D01*
X262642Y19383D01*
X262628Y19440D01*
X262600Y19510D01*
X262586Y19595D01*
Y19609D01*
Y19665D01*
X262614Y19722D01*
X262642Y19806D01*
X262684Y19877D01*
X262755Y19947D01*
X262854Y19990D01*
X262995Y20004D01*
X263037D01*
X263121Y19975D01*
X263220Y19933D01*
X263277Y19877D01*
X263319Y19820D01*
X265391Y16719D01*
X267463Y19820D01*
Y19834D01*
X267492Y19849D01*
X267548Y19919D01*
X267661Y19975D01*
X267717Y19990D01*
X267802Y20004D01*
X267858D01*
X267929Y19990D01*
D02*
G37*
G36*
X275132D02*
X275217Y19947D01*
X275287Y19905D01*
X275358Y19834D01*
X275400Y19736D01*
X275414Y19595D01*
Y12391D01*
Y12377D01*
Y12335D01*
X275400Y12264D01*
X275358Y12194D01*
X275315Y12123D01*
X275245Y12053D01*
X275146Y12011D01*
X275005Y11997D01*
X274949D01*
X274878Y12025D01*
X274808Y12053D01*
X274737Y12095D01*
X274667Y12166D01*
X274625Y12264D01*
X274611Y12391D01*
Y18636D01*
X273680Y17706D01*
X273666Y17692D01*
X273610Y17649D01*
X273511Y17607D01*
X273398Y17593D01*
X273342D01*
X273271Y17621D01*
X273201Y17649D01*
X273130Y17692D01*
X273060Y17762D01*
X273018Y17861D01*
X273004Y17988D01*
Y18002D01*
Y18016D01*
X273018Y18086D01*
X273046Y18185D01*
X273116Y18270D01*
X274681Y19834D01*
X274695Y19849D01*
X274709Y19863D01*
X274780Y19919D01*
X274878Y19975D01*
X274949Y20004D01*
X275076D01*
X275132Y19990D01*
D02*
G37*
G36*
X183037Y63337D02*
X183107Y63295D01*
X183178Y63252D01*
X183248Y63182D01*
X183290Y63083D01*
X183305Y62942D01*
Y62928D01*
Y62900D01*
X183290Y62815D01*
X180894Y55640D01*
Y55626D01*
X180880Y55598D01*
X180809Y55499D01*
X180753Y55443D01*
X180683Y55386D01*
X180598Y55358D01*
X180499Y55344D01*
X180457D01*
X180401Y55358D01*
X180344Y55386D01*
X180274Y55415D01*
X180203Y55471D01*
X180147Y55541D01*
X180105Y55640D01*
X177708Y62815D01*
Y62829D01*
Y62858D01*
X177694Y62942D01*
Y62956D01*
Y63013D01*
X177722Y63069D01*
X177750Y63154D01*
X177793Y63224D01*
X177863Y63295D01*
X177962Y63337D01*
X178103Y63351D01*
X178145D01*
X178201Y63337D01*
X178258Y63323D01*
X178314Y63281D01*
X178385Y63238D01*
X178441Y63168D01*
X178483Y63069D01*
X180499Y57007D01*
X182529Y63069D01*
Y63083D01*
X182543Y63112D01*
X182614Y63210D01*
X182656Y63267D01*
X182726Y63309D01*
X182811Y63337D01*
X182910Y63351D01*
X182966D01*
X183037Y63337D01*
D02*
G37*
G36*
X198261Y63351D02*
X198417Y63337D01*
X198614Y63295D01*
X198825Y63224D01*
X199065Y63112D01*
X199305Y62970D01*
X199530Y62773D01*
X199558Y62745D01*
X199629Y62674D01*
X199713Y62548D01*
X199826Y62378D01*
X199939Y62167D01*
X200024Y61927D01*
X200094Y61645D01*
X200122Y61349D01*
Y61321D01*
Y61251D01*
X200108Y61138D01*
X200080Y60997D01*
X200038Y60814D01*
X199967Y60630D01*
X199883Y60419D01*
X199756Y60193D01*
X197232Y56147D01*
X199784D01*
X199854Y56133D01*
X199925Y56091D01*
X199995Y56049D01*
X200066Y55978D01*
X200108Y55880D01*
X200122Y55739D01*
Y55725D01*
Y55682D01*
X200108Y55612D01*
X200080Y55541D01*
X200024Y55471D01*
X199953Y55400D01*
X199854Y55358D01*
X199727Y55344D01*
X196457D01*
X196387Y55372D01*
X196316Y55400D01*
X196246Y55443D01*
X196175Y55513D01*
X196133Y55612D01*
X196119Y55739D01*
Y55767D01*
X196133Y55809D01*
X196147Y55894D01*
X196189Y55964D01*
X199121Y60687D01*
X199135Y60701D01*
X199149Y60743D01*
X199178Y60814D01*
X199220Y60898D01*
X199262Y60997D01*
X199291Y61110D01*
X199305Y61223D01*
X199319Y61349D01*
Y61378D01*
Y61434D01*
X199305Y61533D01*
X199276Y61645D01*
X199234Y61786D01*
X199164Y61927D01*
X199079Y62068D01*
X198966Y62209D01*
X198952Y62223D01*
X198910Y62266D01*
X198825Y62322D01*
X198727Y62393D01*
X198600Y62449D01*
X198459Y62505D01*
X198304Y62548D01*
X198120Y62562D01*
X198092D01*
X198008Y62548D01*
X197881Y62505D01*
X197712Y62435D01*
X197613Y62378D01*
X197514Y62308D01*
X197416Y62237D01*
X197303Y62139D01*
X197190Y62012D01*
X197091Y61885D01*
X196979Y61730D01*
X196866Y61547D01*
Y61533D01*
X196852Y61519D01*
X196781Y61448D01*
X196668Y61378D01*
X196598Y61363D01*
X196513Y61349D01*
X196457D01*
X196387Y61378D01*
X196316Y61406D01*
X196246Y61448D01*
X196175Y61519D01*
X196133Y61617D01*
X196119Y61758D01*
Y61772D01*
Y61814D01*
X196133Y61857D01*
X196161Y61913D01*
X196175Y61927D01*
X196189Y61970D01*
X196231Y62054D01*
X196302Y62139D01*
X196372Y62252D01*
X196457Y62378D01*
X196570Y62505D01*
X196683Y62646D01*
X196824Y62773D01*
X196964Y62900D01*
X197134Y63027D01*
X197303Y63140D01*
X197486Y63238D01*
X197684Y63309D01*
X197895Y63351D01*
X198120Y63365D01*
X198205D01*
X198261Y63351D01*
D02*
G37*
G36*
X189846D02*
X190001Y63337D01*
X190198Y63295D01*
X190424Y63224D01*
X190663Y63112D01*
X190903Y62970D01*
X191128Y62773D01*
X191157Y62745D01*
X191227Y62674D01*
X191312Y62548D01*
X191424Y62378D01*
X191537Y62167D01*
X191622Y61927D01*
X191692Y61659D01*
X191720Y61349D01*
Y57346D01*
Y57332D01*
Y57304D01*
Y57261D01*
X191706Y57205D01*
X191692Y57050D01*
X191650Y56852D01*
X191579Y56627D01*
X191467Y56401D01*
X191326Y56147D01*
X191128Y55922D01*
X191100Y55894D01*
X191030Y55837D01*
X190903Y55739D01*
X190734Y55640D01*
X190522Y55527D01*
X190282Y55429D01*
X190001Y55372D01*
X189704Y55344D01*
X187252D01*
X187181Y55372D01*
X187111Y55400D01*
X187040Y55443D01*
X186970Y55513D01*
X186927Y55612D01*
X186913Y55739D01*
Y62956D01*
Y62970D01*
Y63027D01*
X186942Y63083D01*
X186970Y63168D01*
X187012Y63238D01*
X187083Y63309D01*
X187181Y63351D01*
X187308Y63365D01*
X189789D01*
X189846Y63351D01*
D02*
G37*
G36*
X180523Y127982D02*
X180594Y127940D01*
X180664Y127898D01*
X180735Y127827D01*
X180777Y127729D01*
X180791Y127588D01*
Y127574D01*
Y127545D01*
X180777Y127461D01*
X178381Y120286D01*
Y120271D01*
X178367Y120243D01*
X178296Y120145D01*
X178240Y120088D01*
X178169Y120032D01*
X178085Y120003D01*
X177986Y119989D01*
X177944D01*
X177887Y120003D01*
X177831Y120032D01*
X177760Y120060D01*
X177690Y120116D01*
X177633Y120187D01*
X177591Y120286D01*
X175195Y127461D01*
Y127475D01*
Y127503D01*
X175181Y127588D01*
Y127602D01*
Y127658D01*
X175209Y127715D01*
X175237Y127799D01*
X175279Y127870D01*
X175350Y127940D01*
X175448Y127982D01*
X175589Y127997D01*
X175632D01*
X175688Y127982D01*
X175744Y127968D01*
X175801Y127926D01*
X175871Y127884D01*
X175928Y127813D01*
X175970Y127715D01*
X177986Y121653D01*
X180016Y127715D01*
Y127729D01*
X180030Y127757D01*
X180100Y127856D01*
X180143Y127912D01*
X180213Y127954D01*
X180298Y127982D01*
X180396Y127997D01*
X180453D01*
X180523Y127982D01*
D02*
G37*
G36*
X196537D02*
X196622Y127940D01*
X196693Y127898D01*
X196763Y127827D01*
X196805Y127729D01*
X196819Y127588D01*
Y120384D01*
Y120370D01*
Y120328D01*
X196805Y120257D01*
X196763Y120187D01*
X196721Y120116D01*
X196650Y120046D01*
X196552Y120003D01*
X196411Y119989D01*
X196354D01*
X196284Y120018D01*
X196213Y120046D01*
X196143Y120088D01*
X196072Y120159D01*
X196030Y120257D01*
X196016Y120384D01*
Y126629D01*
X195086Y125699D01*
X195071Y125685D01*
X195015Y125642D01*
X194916Y125600D01*
X194804Y125586D01*
X194747D01*
X194677Y125614D01*
X194606Y125642D01*
X194536Y125685D01*
X194465Y125755D01*
X194423Y125854D01*
X194409Y125981D01*
Y125995D01*
Y126009D01*
X194423Y126079D01*
X194451Y126178D01*
X194522Y126263D01*
X196086Y127827D01*
X196101Y127842D01*
X196115Y127856D01*
X196185Y127912D01*
X196284Y127968D01*
X196354Y127997D01*
X196481D01*
X196537Y127982D01*
D02*
G37*
G36*
X187332Y127997D02*
X187487Y127982D01*
X187685Y127940D01*
X187910Y127870D01*
X188150Y127757D01*
X188389Y127616D01*
X188615Y127418D01*
X188643Y127390D01*
X188714Y127320D01*
X188798Y127193D01*
X188911Y127024D01*
X189024Y126812D01*
X189108Y126573D01*
X189179Y126305D01*
X189207Y125995D01*
Y121991D01*
Y121977D01*
Y121949D01*
Y121907D01*
X189193Y121850D01*
X189179Y121695D01*
X189137Y121498D01*
X189066Y121272D01*
X188953Y121047D01*
X188812Y120793D01*
X188615Y120567D01*
X188587Y120539D01*
X188516Y120483D01*
X188389Y120384D01*
X188220Y120286D01*
X188009Y120173D01*
X187769Y120074D01*
X187487Y120018D01*
X187191Y119989D01*
X184738D01*
X184668Y120018D01*
X184597Y120046D01*
X184527Y120088D01*
X184456Y120159D01*
X184414Y120257D01*
X184400Y120384D01*
Y127602D01*
Y127616D01*
Y127672D01*
X184428Y127729D01*
X184456Y127813D01*
X184499Y127884D01*
X184569Y127954D01*
X184668Y127997D01*
X184795Y128011D01*
X187276D01*
X187332Y127997D01*
D02*
G37*
G36*
X250149Y194996D02*
X250304Y194982D01*
X250501Y194940D01*
X250713Y194870D01*
X250952Y194757D01*
X251192Y194616D01*
X251418Y194419D01*
X251446Y194390D01*
X251516Y194320D01*
X251601Y194193D01*
X251714Y194024D01*
X251826Y193812D01*
X251911Y193573D01*
X251982Y193291D01*
X252010Y192995D01*
Y192966D01*
Y192896D01*
X251996Y192783D01*
X251968Y192642D01*
X251925Y192459D01*
X251855Y192276D01*
X251770Y192064D01*
X251643Y191839D01*
X249120Y187793D01*
X251671D01*
X251742Y187779D01*
X251812Y187737D01*
X251883Y187694D01*
X251953Y187624D01*
X251996Y187525D01*
X252010Y187384D01*
Y187370D01*
Y187328D01*
X251996Y187257D01*
X251968Y187187D01*
X251911Y187116D01*
X251841Y187046D01*
X251742Y187003D01*
X251615Y186989D01*
X248344D01*
X248274Y187018D01*
X248204Y187046D01*
X248133Y187088D01*
X248063Y187159D01*
X248020Y187257D01*
X248006Y187384D01*
Y187412D01*
X248020Y187455D01*
X248034Y187539D01*
X248077Y187610D01*
X251009Y192332D01*
X251023Y192346D01*
X251037Y192389D01*
X251065Y192459D01*
X251108Y192544D01*
X251150Y192642D01*
X251178Y192755D01*
X251192Y192868D01*
X251206Y192995D01*
Y193023D01*
Y193079D01*
X251192Y193178D01*
X251164Y193291D01*
X251122Y193432D01*
X251051Y193573D01*
X250967Y193714D01*
X250854Y193855D01*
X250840Y193869D01*
X250797Y193911D01*
X250713Y193967D01*
X250614Y194038D01*
X250487Y194094D01*
X250346Y194151D01*
X250191Y194193D01*
X250008Y194207D01*
X249980D01*
X249895Y194193D01*
X249768Y194151D01*
X249599Y194080D01*
X249501Y194024D01*
X249402Y193953D01*
X249303Y193883D01*
X249190Y193784D01*
X249078Y193657D01*
X248979Y193530D01*
X248866Y193375D01*
X248753Y193192D01*
Y193178D01*
X248739Y193164D01*
X248669Y193093D01*
X248556Y193023D01*
X248486Y193009D01*
X248401Y192995D01*
X248344D01*
X248274Y193023D01*
X248204Y193051D01*
X248133Y193093D01*
X248063Y193164D01*
X248020Y193263D01*
X248006Y193404D01*
Y193418D01*
Y193460D01*
X248020Y193502D01*
X248048Y193559D01*
X248063Y193573D01*
X248077Y193615D01*
X248119Y193700D01*
X248190Y193784D01*
X248260Y193897D01*
X248344Y194024D01*
X248457Y194151D01*
X248570Y194292D01*
X248711Y194419D01*
X248852Y194545D01*
X249021Y194672D01*
X249190Y194785D01*
X249374Y194884D01*
X249571Y194954D01*
X249782Y194996D01*
X250008Y195011D01*
X250093D01*
X250149Y194996D01*
D02*
G37*
G36*
X241733D02*
X241888Y194982D01*
X242085Y194940D01*
X242311Y194870D01*
X242551Y194757D01*
X242790Y194616D01*
X243016Y194419D01*
X243044Y194390D01*
X243115Y194320D01*
X243199Y194193D01*
X243312Y194024D01*
X243425Y193812D01*
X243509Y193573D01*
X243580Y193305D01*
X243608Y192995D01*
Y188991D01*
Y188977D01*
Y188949D01*
Y188907D01*
X243594Y188850D01*
X243580Y188695D01*
X243538Y188498D01*
X243467Y188272D01*
X243354Y188047D01*
X243213Y187793D01*
X243016Y187567D01*
X242988Y187539D01*
X242917Y187483D01*
X242790Y187384D01*
X242621Y187285D01*
X242410Y187173D01*
X242170Y187074D01*
X241888Y187018D01*
X241592Y186989D01*
X239139D01*
X239069Y187018D01*
X238998Y187046D01*
X238928Y187088D01*
X238857Y187159D01*
X238815Y187257D01*
X238801Y187384D01*
Y194602D01*
Y194616D01*
Y194672D01*
X238829Y194729D01*
X238857Y194813D01*
X238899Y194884D01*
X238970Y194954D01*
X239069Y194996D01*
X239196Y195011D01*
X241677D01*
X241733Y194996D01*
D02*
G37*
G36*
X232922D02*
X233078Y194982D01*
X233275Y194940D01*
X233500Y194870D01*
X233740Y194757D01*
X233980Y194616D01*
X234205Y194419D01*
X234233Y194390D01*
X234304Y194320D01*
X234389Y194193D01*
X234501Y194024D01*
X234614Y193812D01*
X234699Y193573D01*
X234769Y193305D01*
X234797Y192995D01*
Y188991D01*
Y188977D01*
Y188949D01*
Y188907D01*
X234783Y188850D01*
X234769Y188695D01*
X234727Y188498D01*
X234656Y188272D01*
X234544Y188047D01*
X234403Y187793D01*
X234205Y187567D01*
X234177Y187539D01*
X234107Y187483D01*
X233980Y187384D01*
X233811Y187285D01*
X233599Y187173D01*
X233359Y187074D01*
X233078Y187018D01*
X232781Y186989D01*
X230329D01*
X230258Y187018D01*
X230188Y187046D01*
X230117Y187088D01*
X230047Y187159D01*
X230004Y187257D01*
X229990Y187384D01*
Y194602D01*
Y194616D01*
Y194672D01*
X230018Y194729D01*
X230047Y194813D01*
X230089Y194884D01*
X230159Y194954D01*
X230258Y194996D01*
X230385Y195011D01*
X232866D01*
X232922Y194996D01*
D02*
G37*
G36*
X136333Y155982D02*
X136418Y155940D01*
X136488Y155898D01*
X136559Y155827D01*
X136601Y155729D01*
X136615Y155588D01*
Y148384D01*
Y148370D01*
Y148328D01*
X136601Y148257D01*
X136559Y148187D01*
X136516Y148116D01*
X136446Y148046D01*
X136347Y148004D01*
X136206Y147989D01*
X136150D01*
X136079Y148018D01*
X136009Y148046D01*
X135938Y148088D01*
X135868Y148159D01*
X135826Y148257D01*
X135812Y148384D01*
Y154629D01*
X134881Y153699D01*
X134867Y153685D01*
X134811Y153642D01*
X134712Y153600D01*
X134599Y153586D01*
X134543D01*
X134472Y153614D01*
X134402Y153642D01*
X134331Y153685D01*
X134261Y153755D01*
X134219Y153854D01*
X134205Y153981D01*
Y153995D01*
Y154009D01*
X134219Y154079D01*
X134247Y154178D01*
X134317Y154263D01*
X135882Y155827D01*
X135896Y155841D01*
X135910Y155856D01*
X135981Y155912D01*
X136079Y155968D01*
X136150Y155997D01*
X136277D01*
X136333Y155982D01*
D02*
G37*
G36*
X127128Y155997D02*
X127283Y155982D01*
X127480Y155940D01*
X127706Y155870D01*
X127945Y155757D01*
X128185Y155616D01*
X128411Y155419D01*
X128439Y155390D01*
X128509Y155320D01*
X128594Y155193D01*
X128707Y155024D01*
X128819Y154812D01*
X128904Y154573D01*
X128975Y154305D01*
X129003Y153995D01*
Y149991D01*
Y149977D01*
Y149949D01*
Y149907D01*
X128989Y149850D01*
X128975Y149695D01*
X128932Y149498D01*
X128862Y149272D01*
X128749Y149047D01*
X128608Y148793D01*
X128411Y148567D01*
X128382Y148539D01*
X128312Y148483D01*
X128185Y148384D01*
X128016Y148286D01*
X127804Y148173D01*
X127565Y148074D01*
X127283Y148018D01*
X126987Y147989D01*
X124534D01*
X124463Y148018D01*
X124393Y148046D01*
X124323Y148088D01*
X124252Y148159D01*
X124210Y148257D01*
X124196Y148384D01*
Y155602D01*
Y155616D01*
Y155672D01*
X124224Y155729D01*
X124252Y155813D01*
X124294Y155884D01*
X124365Y155954D01*
X124463Y155997D01*
X124590Y156011D01*
X127071D01*
X127128Y155997D01*
D02*
G37*
G36*
X118317D02*
X118472Y155982D01*
X118670Y155940D01*
X118895Y155870D01*
X119135Y155757D01*
X119374Y155616D01*
X119600Y155419D01*
X119628Y155390D01*
X119699Y155320D01*
X119783Y155193D01*
X119896Y155024D01*
X120009Y154812D01*
X120093Y154573D01*
X120164Y154305D01*
X120192Y153995D01*
Y149991D01*
Y149977D01*
Y149949D01*
Y149907D01*
X120178Y149850D01*
X120164Y149695D01*
X120122Y149498D01*
X120051Y149272D01*
X119938Y149047D01*
X119797Y148793D01*
X119600Y148567D01*
X119572Y148539D01*
X119501Y148483D01*
X119374Y148384D01*
X119205Y148286D01*
X118994Y148173D01*
X118754Y148074D01*
X118472Y148018D01*
X118176Y147989D01*
X115723D01*
X115653Y148018D01*
X115582Y148046D01*
X115512Y148088D01*
X115441Y148159D01*
X115399Y148257D01*
X115385Y148384D01*
Y155602D01*
Y155616D01*
Y155672D01*
X115413Y155729D01*
X115441Y155813D01*
X115484Y155884D01*
X115554Y155954D01*
X115653Y155997D01*
X115780Y156011D01*
X118261D01*
X118317Y155997D01*
D02*
G37*
G36*
X447730Y187997D02*
X447801Y187954D01*
X447871Y187912D01*
X447942Y187841D01*
X447984Y187743D01*
X447998Y187602D01*
Y187588D01*
Y187545D01*
X447984Y187475D01*
X447956Y187404D01*
X447900Y187334D01*
X447829Y187264D01*
X447730Y187221D01*
X447604Y187207D01*
X445221D01*
Y184797D01*
X446490D01*
X446546Y184782D01*
X446701Y184768D01*
X446899Y184726D01*
X447110Y184655D01*
X447350Y184543D01*
X447589Y184402D01*
X447815Y184204D01*
X447843Y184176D01*
X447914Y184106D01*
X447998Y183979D01*
X448111Y183810D01*
X448224Y183598D01*
X448308Y183359D01*
X448379Y183077D01*
X448407Y182781D01*
Y181991D01*
Y181977D01*
Y181949D01*
Y181907D01*
X448393Y181850D01*
X448379Y181695D01*
X448337Y181498D01*
X448266Y181272D01*
X448153Y181047D01*
X448012Y180793D01*
X447815Y180567D01*
X447787Y180539D01*
X447716Y180483D01*
X447589Y180384D01*
X447420Y180285D01*
X447209Y180173D01*
X446969Y180074D01*
X446701Y180018D01*
X446405Y179989D01*
X444756D01*
X444686Y180018D01*
X444615Y180046D01*
X444544Y180088D01*
X444474Y180159D01*
X444432Y180257D01*
X444418Y180384D01*
Y180398D01*
Y180455D01*
X444446Y180511D01*
X444474Y180596D01*
X444516Y180666D01*
X444587Y180737D01*
X444686Y180779D01*
X444812Y180793D01*
X446490D01*
X446575Y180807D01*
X446701Y180835D01*
X446828Y180877D01*
X446969Y180934D01*
X447110Y181019D01*
X447251Y181131D01*
X447265Y181145D01*
X447308Y181202D01*
X447364Y181272D01*
X447434Y181371D01*
X447491Y181498D01*
X447547Y181639D01*
X447589Y181808D01*
X447604Y181991D01*
Y182781D01*
Y182809D01*
Y182865D01*
X447589Y182964D01*
X447561Y183077D01*
X447519Y183218D01*
X447449Y183359D01*
X447364Y183500D01*
X447251Y183641D01*
X447237Y183655D01*
X447195Y183697D01*
X447110Y183753D01*
X447011Y183824D01*
X446885Y183880D01*
X446744Y183937D01*
X446589Y183979D01*
X446405Y183993D01*
X444756D01*
X444686Y184021D01*
X444615Y184049D01*
X444544Y184092D01*
X444474Y184162D01*
X444432Y184261D01*
X444418Y184388D01*
Y187602D01*
Y187616D01*
Y187672D01*
X444446Y187729D01*
X444474Y187813D01*
X444516Y187884D01*
X444587Y187954D01*
X444686Y187997D01*
X444812Y188011D01*
X447660D01*
X447730Y187997D01*
D02*
G37*
G36*
X439314D02*
X439399Y187954D01*
X439470Y187912D01*
X439540Y187841D01*
X439582Y187743D01*
X439596Y187602D01*
Y187588D01*
Y187545D01*
X439582Y187475D01*
X439540Y187404D01*
X439498Y187334D01*
X439427Y187264D01*
X439329Y187221D01*
X439188Y187207D01*
X437510D01*
X437411Y187193D01*
X437299Y187165D01*
X437158Y187122D01*
X437017Y187052D01*
X436876Y186967D01*
X436735Y186855D01*
X436721Y186841D01*
X436678Y186798D01*
X436622Y186714D01*
X436566Y186615D01*
X436509Y186488D01*
X436453Y186347D01*
X436411Y186178D01*
X436396Y185995D01*
Y181991D01*
Y181963D01*
Y181907D01*
X436411Y181808D01*
X436439Y181695D01*
X436481Y181554D01*
X436537Y181413D01*
X436622Y181272D01*
X436735Y181131D01*
X436749Y181117D01*
X436805Y181075D01*
X436876Y181019D01*
X436974Y180962D01*
X437101Y180906D01*
X437242Y180849D01*
X437411Y180807D01*
X437595Y180793D01*
X439258D01*
X439314Y180779D01*
X439399Y180737D01*
X439470Y180694D01*
X439540Y180624D01*
X439582Y180525D01*
X439596Y180384D01*
Y180370D01*
Y180328D01*
X439582Y180257D01*
X439540Y180187D01*
X439498Y180116D01*
X439427Y180046D01*
X439329Y180004D01*
X439188Y179989D01*
X437510D01*
X437454Y180004D01*
X437299Y180018D01*
X437101Y180060D01*
X436876Y180130D01*
X436650Y180229D01*
X436396Y180370D01*
X436171Y180567D01*
X436143Y180596D01*
X436086Y180680D01*
X435988Y180793D01*
X435889Y180962D01*
X435776Y181174D01*
X435677Y181413D01*
X435621Y181695D01*
X435593Y181991D01*
Y185995D01*
Y186009D01*
Y186037D01*
Y186079D01*
X435607Y186136D01*
X435621Y186291D01*
X435663Y186488D01*
X435734Y186714D01*
X435833Y186953D01*
X435974Y187193D01*
X436171Y187418D01*
X436199Y187447D01*
X436284Y187517D01*
X436396Y187602D01*
X436566Y187715D01*
X436777Y187827D01*
X437017Y187912D01*
X437299Y187982D01*
X437595Y188011D01*
X439258D01*
X439314Y187997D01*
D02*
G37*
G36*
X494577Y166207D02*
X494647Y166165D01*
X494717Y166122D01*
X494788Y166052D01*
X494830Y165953D01*
X494844Y165812D01*
Y165798D01*
Y165784D01*
X494830Y165700D01*
X493364Y160625D01*
X495253D01*
Y161823D01*
Y161837D01*
Y161879D01*
X495281Y161950D01*
X495310Y162020D01*
X495352Y162091D01*
X495422Y162161D01*
X495521Y162204D01*
X495648Y162218D01*
X495718D01*
X495775Y162204D01*
X495859Y162175D01*
X495930Y162119D01*
X496000Y162048D01*
X496043Y161950D01*
X496057Y161823D01*
Y160625D01*
X496917D01*
X496973Y160611D01*
X497058Y160568D01*
X497128Y160526D01*
X497199Y160455D01*
X497241Y160357D01*
X497255Y160216D01*
Y160202D01*
Y160159D01*
X497241Y160089D01*
X497199Y160018D01*
X497156Y159948D01*
X497086Y159878D01*
X496987Y159835D01*
X496846Y159821D01*
X496057D01*
Y158609D01*
Y158595D01*
Y158552D01*
X496043Y158482D01*
X496000Y158411D01*
X495958Y158341D01*
X495888Y158270D01*
X495789Y158228D01*
X495648Y158214D01*
X495592D01*
X495521Y158242D01*
X495451Y158270D01*
X495380Y158313D01*
X495310Y158383D01*
X495267Y158482D01*
X495253Y158609D01*
Y159821D01*
X492786D01*
X492716Y159849D01*
X492645Y159878D01*
X492575Y159920D01*
X492504Y159990D01*
X492462Y160089D01*
X492448Y160216D01*
Y160230D01*
Y160258D01*
Y160329D01*
X494055Y165925D01*
Y165939D01*
X494069Y165967D01*
X494097Y166024D01*
X494140Y166080D01*
X494196Y166122D01*
X494252Y166179D01*
X494351Y166207D01*
X494450Y166221D01*
X494506D01*
X494577Y166207D01*
D02*
G37*
G36*
X487754Y166221D02*
X487838Y166179D01*
X487909Y166136D01*
X487979Y166066D01*
X488022Y165967D01*
X488036Y165826D01*
Y165812D01*
Y165770D01*
X488022Y165700D01*
X487979Y165629D01*
X487937Y165558D01*
X487866Y165488D01*
X487768Y165446D01*
X487627Y165432D01*
X485949D01*
X485850Y165418D01*
X485738Y165389D01*
X485597Y165347D01*
X485456Y165277D01*
X485315Y165192D01*
X485174Y165079D01*
X485160Y165065D01*
X485117Y165023D01*
X485061Y164938D01*
X485005Y164840D01*
X484948Y164713D01*
X484892Y164572D01*
X484850Y164403D01*
X484836Y164219D01*
Y160216D01*
Y160188D01*
Y160131D01*
X484850Y160033D01*
X484878Y159920D01*
X484920Y159779D01*
X484977Y159638D01*
X485061Y159497D01*
X485174Y159356D01*
X485188Y159342D01*
X485244Y159299D01*
X485315Y159243D01*
X485414Y159187D01*
X485540Y159130D01*
X485681Y159074D01*
X485850Y159032D01*
X486034Y159017D01*
X487697D01*
X487754Y159003D01*
X487838Y158961D01*
X487909Y158919D01*
X487979Y158848D01*
X488022Y158750D01*
X488036Y158609D01*
Y158595D01*
Y158552D01*
X488022Y158482D01*
X487979Y158411D01*
X487937Y158341D01*
X487866Y158270D01*
X487768Y158228D01*
X487627Y158214D01*
X485949D01*
X485893Y158228D01*
X485738Y158242D01*
X485540Y158285D01*
X485315Y158355D01*
X485089Y158454D01*
X484836Y158595D01*
X484610Y158792D01*
X484582Y158820D01*
X484525Y158905D01*
X484427Y159017D01*
X484328Y159187D01*
X484215Y159398D01*
X484117Y159638D01*
X484060Y159920D01*
X484032Y160216D01*
Y164219D01*
Y164233D01*
Y164262D01*
Y164304D01*
X484046Y164360D01*
X484060Y164515D01*
X484103Y164713D01*
X484173Y164938D01*
X484272Y165178D01*
X484413Y165418D01*
X484610Y165643D01*
X484638Y165671D01*
X484723Y165742D01*
X484836Y165826D01*
X485005Y165939D01*
X485216Y166052D01*
X485456Y166136D01*
X485738Y166207D01*
X486034Y166235D01*
X487697D01*
X487754Y166221D01*
D02*
G37*
G36*
X498539Y99997D02*
X498694Y99982D01*
X498892Y99940D01*
X499117Y99870D01*
X499357Y99757D01*
X499596Y99616D01*
X499822Y99418D01*
X499850Y99390D01*
X499921Y99320D01*
X500005Y99193D01*
X500118Y99024D01*
X500231Y98812D01*
X500316Y98573D01*
X500386Y98291D01*
X500414Y97995D01*
Y97981D01*
Y97952D01*
Y97896D01*
X500400Y97826D01*
X500386Y97741D01*
X500372Y97642D01*
X500316Y97417D01*
X500217Y97163D01*
X500160Y97036D01*
X500076Y96895D01*
X499977Y96768D01*
X499879Y96627D01*
X499752Y96501D01*
X499611Y96388D01*
X499625D01*
X499639Y96360D01*
X499681Y96331D01*
X499738Y96275D01*
X499864Y96148D01*
X500019Y95965D01*
X500160Y95725D01*
X500287Y95457D01*
X500344Y95302D01*
X500386Y95133D01*
X500400Y94964D01*
X500414Y94781D01*
Y93991D01*
Y93977D01*
Y93949D01*
Y93907D01*
X500400Y93850D01*
X500386Y93695D01*
X500344Y93498D01*
X500273Y93272D01*
X500160Y93047D01*
X500019Y92793D01*
X499822Y92567D01*
X499794Y92539D01*
X499723Y92483D01*
X499596Y92384D01*
X499427Y92285D01*
X499216Y92173D01*
X498976Y92074D01*
X498694Y92018D01*
X498398Y91989D01*
X496749D01*
X496678Y92018D01*
X496608Y92046D01*
X496523Y92088D01*
X496467Y92159D01*
X496411Y92257D01*
X496396Y92384D01*
Y92398D01*
Y92455D01*
X496425Y92511D01*
X496453Y92596D01*
X496495Y92666D01*
X496566Y92737D01*
X496664Y92779D01*
X496805Y92793D01*
X498483D01*
X498582Y92807D01*
X498694Y92835D01*
X498835Y92878D01*
X498976Y92934D01*
X499117Y93019D01*
X499258Y93131D01*
X499272Y93145D01*
X499315Y93202D01*
X499371Y93272D01*
X499441Y93371D01*
X499498Y93498D01*
X499554Y93639D01*
X499596Y93808D01*
X499611Y93991D01*
Y94781D01*
Y94809D01*
Y94865D01*
X499596Y94964D01*
X499568Y95077D01*
X499526Y95218D01*
X499455Y95359D01*
X499371Y95500D01*
X499258Y95641D01*
X499244Y95655D01*
X499202Y95697D01*
X499117Y95753D01*
X499019Y95824D01*
X498892Y95880D01*
X498751Y95937D01*
X498582Y95979D01*
X498398Y95993D01*
X497538D01*
X497468Y96021D01*
X497397Y96049D01*
X497327Y96092D01*
X497256Y96162D01*
X497214Y96261D01*
X497200Y96388D01*
Y96402D01*
Y96458D01*
X497228Y96515D01*
X497256Y96599D01*
X497299Y96670D01*
X497369Y96740D01*
X497468Y96782D01*
X497595Y96797D01*
X498483D01*
X498582Y96811D01*
X498694Y96839D01*
X498835Y96881D01*
X498976Y96938D01*
X499117Y97022D01*
X499258Y97135D01*
X499272Y97149D01*
X499315Y97205D01*
X499371Y97276D01*
X499441Y97374D01*
X499498Y97501D01*
X499554Y97642D01*
X499596Y97811D01*
X499611Y97995D01*
Y98023D01*
Y98079D01*
X499596Y98164D01*
X499568Y98291D01*
X499526Y98418D01*
X499455Y98559D01*
X499371Y98700D01*
X499258Y98841D01*
X499244Y98855D01*
X499202Y98897D01*
X499117Y98953D01*
X499019Y99024D01*
X498892Y99094D01*
X498751Y99151D01*
X498582Y99193D01*
X498398Y99207D01*
X496749D01*
X496678Y99235D01*
X496608Y99263D01*
X496523Y99306D01*
X496467Y99376D01*
X496411Y99475D01*
X496396Y99602D01*
Y99616D01*
Y99672D01*
X496425Y99729D01*
X496453Y99813D01*
X496495Y99884D01*
X496566Y99954D01*
X496664Y99997D01*
X496805Y100011D01*
X498483D01*
X498539Y99997D01*
D02*
G37*
G36*
X491307D02*
X491392Y99954D01*
X491463Y99912D01*
X491533Y99841D01*
X491575Y99743D01*
X491589Y99602D01*
Y99588D01*
Y99545D01*
X491575Y99475D01*
X491533Y99404D01*
X491491Y99334D01*
X491420Y99263D01*
X491322Y99221D01*
X491181Y99207D01*
X489503D01*
X489404Y99193D01*
X489292Y99165D01*
X489151Y99122D01*
X489010Y99052D01*
X488869Y98967D01*
X488728Y98855D01*
X488714Y98841D01*
X488671Y98798D01*
X488615Y98714D01*
X488559Y98615D01*
X488502Y98488D01*
X488446Y98347D01*
X488404Y98178D01*
X488389Y97995D01*
Y93991D01*
Y93963D01*
Y93907D01*
X488404Y93808D01*
X488432Y93695D01*
X488474Y93554D01*
X488530Y93413D01*
X488615Y93272D01*
X488728Y93131D01*
X488742Y93117D01*
X488798Y93075D01*
X488869Y93019D01*
X488967Y92962D01*
X489094Y92906D01*
X489235Y92849D01*
X489404Y92807D01*
X489588Y92793D01*
X491251D01*
X491307Y92779D01*
X491392Y92737D01*
X491463Y92694D01*
X491533Y92624D01*
X491575Y92525D01*
X491589Y92384D01*
Y92370D01*
Y92328D01*
X491575Y92257D01*
X491533Y92187D01*
X491491Y92116D01*
X491420Y92046D01*
X491322Y92003D01*
X491181Y91989D01*
X489503D01*
X489447Y92003D01*
X489292Y92018D01*
X489094Y92060D01*
X488869Y92130D01*
X488643Y92229D01*
X488389Y92370D01*
X488164Y92567D01*
X488136Y92596D01*
X488079Y92680D01*
X487981Y92793D01*
X487882Y92962D01*
X487769Y93174D01*
X487670Y93413D01*
X487614Y93695D01*
X487586Y93991D01*
Y97995D01*
Y98009D01*
Y98037D01*
Y98079D01*
X487600Y98136D01*
X487614Y98291D01*
X487656Y98488D01*
X487727Y98714D01*
X487826Y98953D01*
X487966Y99193D01*
X488164Y99418D01*
X488192Y99447D01*
X488277Y99517D01*
X488389Y99602D01*
X488559Y99715D01*
X488770Y99827D01*
X489010Y99912D01*
X489292Y99982D01*
X489588Y100011D01*
X491251D01*
X491307Y99997D01*
D02*
G37*
G36*
X169730Y246982D02*
X169815Y246940D01*
X169886Y246898D01*
X169956Y246827D01*
X169998Y246729D01*
X170012Y246588D01*
Y239384D01*
Y239370D01*
Y239328D01*
X169998Y239257D01*
X169956Y239187D01*
X169914Y239116D01*
X169843Y239046D01*
X169744Y239004D01*
X169604Y238989D01*
X169547D01*
X169477Y239018D01*
X169406Y239046D01*
X169336Y239088D01*
X169265Y239159D01*
X169223Y239257D01*
X169209Y239384D01*
Y245629D01*
X168279Y244699D01*
X168264Y244685D01*
X168208Y244642D01*
X168109Y244600D01*
X167997Y244586D01*
X167940D01*
X167870Y244614D01*
X167799Y244642D01*
X167729Y244685D01*
X167658Y244755D01*
X167616Y244854D01*
X167602Y244981D01*
Y244995D01*
Y245009D01*
X167616Y245079D01*
X167644Y245178D01*
X167715Y245263D01*
X169279Y246827D01*
X169293Y246841D01*
X169307Y246856D01*
X169378Y246912D01*
X169477Y246968D01*
X169547Y246996D01*
X169674D01*
X169730Y246982D01*
D02*
G37*
G36*
X161709Y246996D02*
X161794Y246954D01*
X161864Y246912D01*
X161935Y246841D01*
X161977Y246743D01*
X161991Y246602D01*
Y246588D01*
Y246545D01*
X161977Y246475D01*
X161935Y246404D01*
X161893Y246334D01*
X161822Y246264D01*
X161723Y246221D01*
X161582Y246207D01*
X159905D01*
X159806Y246193D01*
X159693Y246165D01*
X159552Y246122D01*
X159411Y246052D01*
X159270Y245967D01*
X159129Y245855D01*
X159115Y245841D01*
X159073Y245798D01*
X159017Y245714D01*
X158960Y245615D01*
X158904Y245488D01*
X158848Y245347D01*
X158805Y245178D01*
X158791Y244995D01*
Y240991D01*
Y240963D01*
Y240907D01*
X158805Y240808D01*
X158834Y240695D01*
X158876Y240554D01*
X158932Y240413D01*
X159017Y240272D01*
X159129Y240131D01*
X159144Y240117D01*
X159200Y240075D01*
X159270Y240019D01*
X159369Y239962D01*
X159496Y239906D01*
X159637Y239849D01*
X159806Y239807D01*
X159989Y239793D01*
X161653D01*
X161709Y239779D01*
X161794Y239737D01*
X161864Y239694D01*
X161935Y239624D01*
X161977Y239525D01*
X161991Y239384D01*
Y239370D01*
Y239328D01*
X161977Y239257D01*
X161935Y239187D01*
X161893Y239116D01*
X161822Y239046D01*
X161723Y239004D01*
X161582Y238989D01*
X159905D01*
X159848Y239004D01*
X159693Y239018D01*
X159496Y239060D01*
X159270Y239130D01*
X159045Y239229D01*
X158791Y239370D01*
X158566Y239567D01*
X158537Y239596D01*
X158481Y239680D01*
X158382Y239793D01*
X158284Y239962D01*
X158171Y240174D01*
X158072Y240413D01*
X158016Y240695D01*
X157988Y240991D01*
Y244995D01*
Y245009D01*
Y245037D01*
Y245079D01*
X158002Y245136D01*
X158016Y245291D01*
X158058Y245488D01*
X158129Y245714D01*
X158227Y245953D01*
X158368Y246193D01*
X158566Y246418D01*
X158594Y246447D01*
X158678Y246517D01*
X158791Y246602D01*
X158960Y246715D01*
X159172Y246827D01*
X159411Y246912D01*
X159693Y246982D01*
X159989Y247011D01*
X161653D01*
X161709Y246996D01*
D02*
G37*
%LPC*%
G36*
X110065Y96829D02*
X110010Y96718D01*
Y96663D01*
X110065D01*
X110121Y96718D01*
X110065Y96829D01*
D02*
G37*
G36*
X84292Y81338D02*
X84179Y81331D01*
X83755D01*
X84013Y80998D01*
X84292Y81338D01*
D02*
G37*
G36*
X98233Y78554D02*
X97844D01*
Y78498D01*
Y78442D01*
X98067Y78498D01*
X98233Y78554D01*
D02*
G37*
G36*
X81568Y63055D02*
X81402D01*
X81124Y62888D01*
X81402D01*
X81513Y62944D01*
X81568Y63055D01*
D02*
G37*
G36*
X84136Y22638D02*
X84064D01*
X84016Y22626D01*
X83896Y22613D01*
X83728Y22577D01*
X83548Y22517D01*
X83344Y22421D01*
X83151Y22301D01*
X82959Y22133D01*
X82935Y22109D01*
X82887Y22049D01*
X82803Y21941D01*
X82719Y21785D01*
X82635Y21604D01*
X82551Y21376D01*
X82503Y21124D01*
X82479Y20835D01*
Y20811D01*
Y20751D01*
X82491Y20643D01*
X82503Y20511D01*
X82527Y20355D01*
X82575Y20187D01*
X82623Y20006D01*
X82695Y19826D01*
X82707Y19802D01*
X82743Y19742D01*
X82791Y19658D01*
X82863Y19550D01*
X82947Y19442D01*
X83055Y19310D01*
X83175Y19201D01*
X83320Y19093D01*
X83344Y19081D01*
X83392Y19057D01*
X83476Y19009D01*
X83584Y18973D01*
X83704Y18925D01*
X83848Y18877D01*
X84004Y18853D01*
X84173Y18841D01*
X84233D01*
X84281Y18853D01*
X84401Y18865D01*
X84557Y18901D01*
X84725Y18973D01*
X84917Y19057D01*
X85110Y19189D01*
X85206Y19261D01*
X85290Y19358D01*
Y19370D01*
X85314Y19382D01*
X85362Y19454D01*
X85434Y19574D01*
X85530Y19730D01*
X85614Y19934D01*
X85686Y20175D01*
X85734Y20451D01*
X85758Y20775D01*
Y20787D01*
Y20811D01*
Y20859D01*
X85746Y20919D01*
Y20992D01*
X85734Y21076D01*
X85698Y21268D01*
X85650Y21484D01*
X85566Y21712D01*
X85446Y21929D01*
X85290Y22133D01*
X85266Y22157D01*
X85206Y22217D01*
X85110Y22289D01*
X84978Y22385D01*
X84809Y22481D01*
X84617Y22553D01*
X84389Y22613D01*
X84136Y22638D01*
D02*
G37*
G36*
X97725Y25473D02*
X95754D01*
Y22974D01*
X97797D01*
X97953Y22986D01*
X98121Y22998D01*
X98289Y23010D01*
X98457Y23034D01*
X98590Y23058D01*
X98614Y23070D01*
X98662Y23082D01*
X98734Y23118D01*
X98830Y23166D01*
X98926Y23214D01*
X99034Y23286D01*
X99142Y23382D01*
X99226Y23479D01*
X99238Y23491D01*
X99262Y23526D01*
X99298Y23599D01*
X99334Y23683D01*
X99370Y23779D01*
X99407Y23899D01*
X99431Y24043D01*
X99443Y24199D01*
Y24223D01*
Y24271D01*
X99431Y24344D01*
X99419Y24440D01*
X99395Y24560D01*
X99359Y24680D01*
X99311Y24800D01*
X99238Y24920D01*
X99226Y24932D01*
X99202Y24968D01*
X99154Y25028D01*
X99094Y25088D01*
X99010Y25161D01*
X98914Y25233D01*
X98794Y25305D01*
X98662Y25353D01*
X98650D01*
X98590Y25377D01*
X98505Y25389D01*
X98373Y25413D01*
X98193Y25437D01*
X97989Y25449D01*
X97725Y25473D01*
D02*
G37*
G36*
X97941Y21989D02*
X95754D01*
Y19129D01*
X98121D01*
X98373Y19141D01*
X98482Y19153D01*
X98578Y19165D01*
X98590D01*
X98638Y19177D01*
X98710Y19189D01*
X98794Y19213D01*
X98998Y19286D01*
X99202Y19382D01*
X99214Y19394D01*
X99250Y19418D01*
X99298Y19454D01*
X99359Y19502D01*
X99419Y19574D01*
X99503Y19646D01*
X99563Y19742D01*
X99635Y19850D01*
X99647Y19862D01*
X99659Y19898D01*
X99683Y19970D01*
X99719Y20054D01*
X99755Y20151D01*
X99779Y20271D01*
X99791Y20415D01*
X99803Y20559D01*
Y20583D01*
Y20631D01*
X99791Y20727D01*
X99767Y20835D01*
X99743Y20956D01*
X99695Y21088D01*
X99635Y21220D01*
X99551Y21352D01*
X99539Y21364D01*
X99503Y21412D01*
X99455Y21472D01*
X99383Y21544D01*
X99286Y21628D01*
X99166Y21712D01*
X99034Y21785D01*
X98878Y21845D01*
X98854Y21857D01*
X98806Y21869D01*
X98698Y21893D01*
X98566Y21917D01*
X98397Y21941D01*
X98193Y21965D01*
X97941Y21989D01*
D02*
G37*
G36*
X74285Y24800D02*
X71666Y21076D01*
X74285D01*
Y24800D01*
D02*
G37*
G36*
X114424Y25653D02*
X114352D01*
X114304Y25641D01*
X114172Y25617D01*
X114016Y25581D01*
X113836Y25509D01*
X113643Y25401D01*
X113547Y25329D01*
X113451Y25257D01*
X113367Y25161D01*
X113283Y25052D01*
Y25040D01*
X113259Y25016D01*
X113235Y24968D01*
X113199Y24908D01*
X113163Y24812D01*
X113115Y24704D01*
X113079Y24572D01*
X113031Y24416D01*
X112983Y24235D01*
X112935Y24031D01*
X112886Y23803D01*
X112851Y23551D01*
X112814Y23262D01*
X112790Y22950D01*
X112778Y22613D01*
X112766Y22241D01*
Y22217D01*
Y22157D01*
Y22049D01*
X112778Y21905D01*
Y21748D01*
X112790Y21556D01*
X112802Y21352D01*
X112826Y21136D01*
X112886Y20667D01*
X112923Y20439D01*
X112971Y20223D01*
X113019Y20018D01*
X113091Y19826D01*
X113163Y19658D01*
X113247Y19514D01*
Y19502D01*
X113271Y19490D01*
X113331Y19406D01*
X113439Y19297D01*
X113571Y19177D01*
X113751Y19057D01*
X113956Y18949D01*
X114184Y18865D01*
X114304Y18853D01*
X114436Y18841D01*
X114508D01*
X114557Y18853D01*
X114677Y18877D01*
X114845Y18925D01*
X115025Y19009D01*
X115229Y19129D01*
X115325Y19201D01*
X115421Y19297D01*
X115518Y19394D01*
X115614Y19514D01*
Y19526D01*
X115638Y19550D01*
X115662Y19586D01*
X115686Y19646D01*
X115734Y19730D01*
X115770Y19838D01*
X115818Y19958D01*
X115866Y20103D01*
X115902Y20283D01*
X115950Y20475D01*
X115998Y20703D01*
X116034Y20944D01*
X116058Y21232D01*
X116082Y21532D01*
X116106Y21869D01*
Y22241D01*
Y22253D01*
Y22265D01*
Y22325D01*
Y22433D01*
X116094Y22577D01*
Y22734D01*
X116082Y22926D01*
X116070Y23130D01*
X116046Y23358D01*
X115986Y23815D01*
X115950Y24043D01*
X115902Y24259D01*
X115854Y24464D01*
X115782Y24656D01*
X115710Y24824D01*
X115626Y24968D01*
Y24980D01*
X115602Y24992D01*
X115578Y25028D01*
X115542Y25076D01*
X115434Y25185D01*
X115301Y25317D01*
X115121Y25437D01*
X114917Y25545D01*
X114809Y25593D01*
X114689Y25629D01*
X114557Y25641D01*
X114424Y25653D01*
D02*
G37*
G36*
X119059Y40473D02*
X116680D01*
Y37505D01*
X118915D01*
X118999Y37517D01*
X119083D01*
X119179Y37529D01*
X119408Y37553D01*
X119660Y37601D01*
X119912Y37674D01*
X120140Y37770D01*
X120248Y37830D01*
X120333Y37902D01*
X120357Y37926D01*
X120405Y37974D01*
X120477Y38070D01*
X120561Y38190D01*
X120645Y38346D01*
X120717Y38539D01*
X120765Y38755D01*
X120789Y39007D01*
Y39019D01*
Y39031D01*
Y39091D01*
X120777Y39199D01*
X120753Y39320D01*
X120729Y39452D01*
X120681Y39608D01*
X120609Y39752D01*
X120525Y39896D01*
X120513Y39908D01*
X120477Y39956D01*
X120417Y40016D01*
X120345Y40100D01*
X120237Y40184D01*
X120116Y40257D01*
X119984Y40329D01*
X119828Y40389D01*
X119816D01*
X119768Y40401D01*
X119696Y40413D01*
X119600Y40437D01*
X119455Y40449D01*
X119275Y40461D01*
X119059Y40473D01*
D02*
G37*
G36*
X60970Y40593D02*
Y40581D01*
X60958Y40557D01*
Y40509D01*
X60934Y40461D01*
X60922Y40377D01*
X60898Y40293D01*
X60850Y40088D01*
X60790Y39848D01*
X60706Y39584D01*
X60622Y39295D01*
X60514Y38995D01*
X59613Y36568D01*
X62424D01*
X61559Y38851D01*
Y38863D01*
X61547Y38899D01*
X61523Y38959D01*
X61499Y39031D01*
X61463Y39115D01*
X61427Y39223D01*
X61391Y39344D01*
X61343Y39464D01*
X61247Y39740D01*
X61151Y40028D01*
X61055Y40317D01*
X60970Y40593D01*
D02*
G37*
G36*
X45484Y40473D02*
X43105D01*
Y37505D01*
X45340D01*
X45424Y37517D01*
X45508D01*
X45604Y37529D01*
X45833Y37553D01*
X46085Y37601D01*
X46337Y37673D01*
X46565Y37770D01*
X46673Y37830D01*
X46758Y37902D01*
X46782Y37926D01*
X46830Y37974D01*
X46902Y38070D01*
X46986Y38190D01*
X47070Y38346D01*
X47142Y38539D01*
X47190Y38755D01*
X47214Y39007D01*
Y39019D01*
Y39031D01*
Y39091D01*
X47202Y39199D01*
X47178Y39320D01*
X47154Y39452D01*
X47106Y39608D01*
X47034Y39752D01*
X46950Y39896D01*
X46938Y39908D01*
X46902Y39956D01*
X46842Y40016D01*
X46770Y40100D01*
X46662Y40184D01*
X46541Y40257D01*
X46409Y40329D01*
X46253Y40389D01*
X46241D01*
X46193Y40401D01*
X46121Y40413D01*
X46025Y40437D01*
X45881Y40449D01*
X45700Y40461D01*
X45484Y40473D01*
D02*
G37*
G36*
X135350Y40653D02*
X135242D01*
X135158Y40641D01*
X135050Y40629D01*
X134942Y40605D01*
X134810Y40581D01*
X134665Y40557D01*
X134353Y40461D01*
X134185Y40389D01*
X134017Y40317D01*
X133836Y40221D01*
X133668Y40112D01*
X133500Y39992D01*
X133344Y39848D01*
X133332Y39836D01*
X133308Y39812D01*
X133272Y39764D01*
X133212Y39692D01*
X133152Y39608D01*
X133080Y39500D01*
X133008Y39368D01*
X132923Y39211D01*
X132851Y39043D01*
X132767Y38839D01*
X132695Y38623D01*
X132635Y38382D01*
X132575Y38118D01*
X132539Y37818D01*
X132515Y37505D01*
X132503Y37169D01*
Y37157D01*
Y37109D01*
Y37025D01*
X132515Y36917D01*
X132527Y36797D01*
X132551Y36652D01*
X132575Y36484D01*
X132599Y36316D01*
X132695Y35931D01*
X132767Y35739D01*
X132839Y35535D01*
X132935Y35343D01*
X133044Y35151D01*
X133164Y34970D01*
X133308Y34802D01*
X133320Y34790D01*
X133344Y34766D01*
X133392Y34718D01*
X133452Y34670D01*
X133536Y34598D01*
X133632Y34526D01*
X133740Y34454D01*
X133861Y34370D01*
X134005Y34286D01*
X134161Y34214D01*
X134329Y34141D01*
X134509Y34069D01*
X134702Y34021D01*
X134894Y33973D01*
X135110Y33949D01*
X135338Y33937D01*
X135398D01*
X135458Y33949D01*
X135543D01*
X135651Y33961D01*
X135771Y33985D01*
X135915Y34009D01*
X136059Y34045D01*
X136227Y34093D01*
X136383Y34153D01*
X136564Y34214D01*
X136732Y34298D01*
X136900Y34406D01*
X137068Y34514D01*
X137237Y34646D01*
X137393Y34802D01*
X137405Y34814D01*
X137429Y34838D01*
X137465Y34898D01*
X137525Y34970D01*
X137585Y35055D01*
X137645Y35163D01*
X137717Y35295D01*
X137801Y35439D01*
X137873Y35607D01*
X137945Y35799D01*
X138006Y36004D01*
X138077Y36220D01*
X138126Y36460D01*
X138162Y36724D01*
X138186Y37001D01*
X138198Y37289D01*
Y37301D01*
Y37337D01*
Y37385D01*
Y37457D01*
X138186Y37541D01*
Y37650D01*
X138174Y37758D01*
X138150Y37890D01*
X138114Y38166D01*
X138054Y38454D01*
X137969Y38767D01*
X137849Y39055D01*
Y39067D01*
X137837Y39091D01*
X137813Y39127D01*
X137789Y39175D01*
X137705Y39320D01*
X137597Y39488D01*
X137453Y39680D01*
X137273Y39872D01*
X137068Y40064D01*
X136840Y40233D01*
X136828D01*
X136816Y40257D01*
X136780Y40269D01*
X136720Y40305D01*
X136660Y40329D01*
X136588Y40365D01*
X136408Y40449D01*
X136191Y40521D01*
X135939Y40593D01*
X135651Y40641D01*
X135350Y40653D01*
D02*
G37*
G36*
X89528Y40653D02*
X89420D01*
X89336Y40641D01*
X89228Y40629D01*
X89120Y40605D01*
X88988Y40581D01*
X88843Y40557D01*
X88531Y40461D01*
X88363Y40389D01*
X88195Y40317D01*
X88014Y40220D01*
X87846Y40112D01*
X87678Y39992D01*
X87522Y39848D01*
X87510Y39836D01*
X87486Y39812D01*
X87450Y39764D01*
X87390Y39692D01*
X87330Y39608D01*
X87257Y39500D01*
X87185Y39367D01*
X87101Y39211D01*
X87029Y39043D01*
X86945Y38839D01*
X86873Y38623D01*
X86813Y38382D01*
X86753Y38118D01*
X86717Y37818D01*
X86693Y37505D01*
X86681Y37169D01*
Y37157D01*
Y37109D01*
Y37025D01*
X86693Y36917D01*
X86705Y36797D01*
X86729Y36652D01*
X86753Y36484D01*
X86777Y36316D01*
X86873Y35931D01*
X86945Y35739D01*
X87017Y35535D01*
X87113Y35343D01*
X87221Y35151D01*
X87342Y34970D01*
X87486Y34802D01*
X87498Y34790D01*
X87522Y34766D01*
X87570Y34718D01*
X87630Y34670D01*
X87714Y34598D01*
X87810Y34526D01*
X87918Y34454D01*
X88038Y34370D01*
X88183Y34286D01*
X88339Y34213D01*
X88507Y34141D01*
X88687Y34069D01*
X88879Y34021D01*
X89072Y33973D01*
X89288Y33949D01*
X89516Y33937D01*
X89576D01*
X89636Y33949D01*
X89720D01*
X89829Y33961D01*
X89949Y33985D01*
X90093Y34009D01*
X90237Y34045D01*
X90405Y34093D01*
X90561Y34153D01*
X90742Y34213D01*
X90910Y34297D01*
X91078Y34406D01*
X91246Y34514D01*
X91414Y34646D01*
X91571Y34802D01*
X91583Y34814D01*
X91607Y34838D01*
X91643Y34898D01*
X91703Y34970D01*
X91763Y35054D01*
X91823Y35163D01*
X91895Y35295D01*
X91979Y35439D01*
X92051Y35607D01*
X92123Y35799D01*
X92183Y36004D01*
X92255Y36220D01*
X92303Y36460D01*
X92339Y36724D01*
X92364Y37001D01*
X92375Y37289D01*
Y37301D01*
Y37337D01*
Y37385D01*
Y37457D01*
X92364Y37541D01*
Y37650D01*
X92352Y37758D01*
X92327Y37890D01*
X92291Y38166D01*
X92231Y38454D01*
X92147Y38767D01*
X92027Y39055D01*
Y39067D01*
X92015Y39091D01*
X91991Y39127D01*
X91967Y39175D01*
X91883Y39320D01*
X91775Y39488D01*
X91631Y39680D01*
X91450Y39872D01*
X91246Y40064D01*
X91018Y40233D01*
X91006D01*
X90994Y40257D01*
X90958Y40269D01*
X90898Y40305D01*
X90838Y40329D01*
X90766Y40365D01*
X90585Y40449D01*
X90369Y40521D01*
X90117Y40593D01*
X89829Y40641D01*
X89528Y40653D01*
D02*
G37*
G36*
X324195Y273990D02*
X320670Y272805D01*
X324195Y271635D01*
Y273990D01*
D02*
G37*
G36*
X299604Y274018D02*
X299589D01*
X299575D01*
X299491D01*
X299364Y273990D01*
X299209Y273961D01*
X299025Y273905D01*
X298842Y273820D01*
X298645Y273693D01*
X298462Y273538D01*
X298448Y273524D01*
X298391Y273454D01*
X298321Y273355D01*
X298222Y273228D01*
X298137Y273059D01*
X298067Y272862D01*
X298011Y272650D01*
X297997Y272411D01*
Y270804D01*
X301196D01*
Y272439D01*
X301182Y272523D01*
X301168Y272650D01*
X301140Y272805D01*
X301084Y272974D01*
X300999Y273172D01*
X300900Y273355D01*
X300745Y273538D01*
X300717Y273552D01*
X300661Y273609D01*
X300562Y273693D01*
X300421Y273778D01*
X300266Y273863D01*
X300069Y273947D01*
X299843Y274004D01*
X299604Y274018D01*
D02*
G37*
G36*
X295995Y273609D02*
X295966D01*
X295910D01*
X295826Y273595D01*
X295699Y273567D01*
X295572Y273524D01*
X295431Y273454D01*
X295290Y273369D01*
X295149Y273256D01*
X295135Y273242D01*
X295093Y273200D01*
X295036Y273116D01*
X294966Y273017D01*
X294895Y272890D01*
X294839Y272749D01*
X294796Y272580D01*
X294782Y272397D01*
Y270804D01*
X297193D01*
Y272481D01*
X297179Y272580D01*
X297151Y272693D01*
X297108Y272833D01*
X297038Y272974D01*
X296953Y273116D01*
X296840Y273256D01*
X296826Y273270D01*
X296784Y273313D01*
X296700Y273369D01*
X296601Y273440D01*
X296474Y273496D01*
X296333Y273552D01*
X296178Y273595D01*
X295995Y273609D01*
D02*
G37*
G36*
X383998Y56832D02*
X379995D01*
X379967D01*
X379910D01*
X379811Y56818D01*
X379699Y56789D01*
X379558Y56747D01*
X379417Y56677D01*
X379276Y56592D01*
X379135Y56479D01*
X379121Y56465D01*
X379078Y56423D01*
X379022Y56338D01*
X378951Y56240D01*
X378895Y56113D01*
X378839Y55972D01*
X378796Y55803D01*
X378782Y55620D01*
Y53632D01*
X385196D01*
Y55704D01*
X385182Y55803D01*
X385154Y55915D01*
X385112Y56056D01*
X385056Y56198D01*
X384971Y56338D01*
X384858Y56479D01*
X384844Y56494D01*
X384788Y56536D01*
X384717Y56592D01*
X384618Y56663D01*
X384492Y56719D01*
X384351Y56775D01*
X384182Y56818D01*
X383998Y56832D01*
D02*
G37*
G36*
X331604Y68053D02*
X328389D01*
X328375D01*
X328361D01*
X328277D01*
X328150Y68025D01*
X327995Y67997D01*
X327811Y67940D01*
X327628Y67856D01*
X327431Y67743D01*
X327248Y67588D01*
X327233Y67574D01*
X327177Y67503D01*
X327107Y67405D01*
X327008Y67278D01*
X326923Y67109D01*
X326853Y66911D01*
X326796Y66686D01*
X326782Y66446D01*
Y66333D01*
X326810Y66206D01*
X326839Y66051D01*
X326895Y65868D01*
X326980Y65685D01*
X327093Y65487D01*
X327248Y65304D01*
X327262Y65290D01*
X327332Y65234D01*
X327431Y65163D01*
X327558Y65079D01*
X327727Y64994D01*
X327924Y64924D01*
X328150Y64867D01*
X328389Y64853D01*
X331604D01*
X331618D01*
X331632D01*
X331716Y64867D01*
X331843Y64881D01*
X331998Y64909D01*
X332182Y64966D01*
X332365Y65050D01*
X332562Y65149D01*
X332745Y65304D01*
X332760Y65332D01*
X332816Y65389D01*
X332886Y65487D01*
X332971Y65628D01*
X333055Y65783D01*
X333126Y65981D01*
X333182Y66206D01*
X333196Y66446D01*
Y66474D01*
X333182Y66559D01*
X333168Y66686D01*
X333140Y66841D01*
X333084Y67024D01*
X332999Y67207D01*
X332900Y67405D01*
X332745Y67588D01*
X332717Y67602D01*
X332661Y67658D01*
X332562Y67729D01*
X332421Y67828D01*
X332266Y67912D01*
X332069Y67983D01*
X331843Y68039D01*
X331604Y68053D01*
D02*
G37*
G36*
X331998Y59228D02*
X327995D01*
X327966D01*
X327910D01*
X327811Y59214D01*
X327699Y59186D01*
X327558Y59144D01*
X327417Y59073D01*
X327276Y58989D01*
X327135Y58876D01*
X327121Y58862D01*
X327078Y58819D01*
X327022Y58735D01*
X326951Y58636D01*
X326895Y58509D01*
X326839Y58368D01*
X326796Y58199D01*
X326782Y58016D01*
Y56028D01*
X333196D01*
Y58101D01*
X333182Y58199D01*
X333154Y58312D01*
X333112Y58453D01*
X333055Y58594D01*
X332971Y58735D01*
X332858Y58876D01*
X332844Y58890D01*
X332788Y58932D01*
X332717Y58989D01*
X332618Y59059D01*
X332492Y59116D01*
X332351Y59172D01*
X332182Y59214D01*
X331998Y59228D01*
D02*
G37*
G36*
X435785Y247207D02*
X434192D01*
Y243993D01*
X435813D01*
X435898Y244007D01*
X436025Y244021D01*
X436180Y244049D01*
X436363Y244106D01*
X436546Y244190D01*
X436744Y244303D01*
X436927Y244458D01*
X436941Y244486D01*
X436997Y244543D01*
X437068Y244641D01*
X437166Y244782D01*
X437251Y244937D01*
X437322Y245135D01*
X437378Y245360D01*
X437392Y245600D01*
Y245614D01*
Y245628D01*
Y245713D01*
X437364Y245840D01*
X437336Y245995D01*
X437279Y246164D01*
X437195Y246361D01*
X437082Y246544D01*
X436927Y246728D01*
X436913Y246742D01*
X436842Y246798D01*
X436744Y246883D01*
X436617Y246968D01*
X436448Y247052D01*
X436250Y247137D01*
X436025Y247193D01*
X435785Y247207D01*
D02*
G37*
G36*
X141496Y127078D02*
X139903D01*
Y123864D01*
X141525D01*
X141609Y123878D01*
X141736Y123892D01*
X141891Y123920D01*
X142074Y123976D01*
X142258Y124061D01*
X142455Y124174D01*
X142638Y124329D01*
X142652Y124357D01*
X142709Y124413D01*
X142779Y124512D01*
X142878Y124653D01*
X142963Y124808D01*
X143033Y125005D01*
X143090Y125231D01*
X143104Y125471D01*
Y125485D01*
Y125499D01*
Y125583D01*
X143075Y125710D01*
X143047Y125865D01*
X142991Y126034D01*
X142906Y126232D01*
X142793Y126415D01*
X142638Y126598D01*
X142624Y126613D01*
X142554Y126669D01*
X142455Y126753D01*
X142328Y126838D01*
X142159Y126923D01*
X141962Y127007D01*
X141736Y127064D01*
X141496Y127078D01*
D02*
G37*
G36*
X141750Y63578D02*
X140157D01*
Y60364D01*
X141779D01*
X141863Y60378D01*
X141990Y60392D01*
X142145Y60420D01*
X142329Y60476D01*
X142512Y60561D01*
X142709Y60674D01*
X142892Y60829D01*
X142906Y60857D01*
X142963Y60913D01*
X143033Y61012D01*
X143132Y61153D01*
X143217Y61308D01*
X143287Y61505D01*
X143343Y61731D01*
X143357Y61971D01*
Y61985D01*
Y61999D01*
Y62083D01*
X143329Y62210D01*
X143301Y62365D01*
X143245Y62534D01*
X143160Y62732D01*
X143047Y62915D01*
X142892Y63098D01*
X142878Y63113D01*
X142808Y63169D01*
X142709Y63253D01*
X142582Y63338D01*
X142413Y63423D01*
X142216Y63507D01*
X141990Y63564D01*
X141750Y63578D01*
D02*
G37*
G36*
X422708Y172036D02*
X422596D01*
X422469Y172008D01*
X422314Y171979D01*
X422130Y171923D01*
X421947Y171838D01*
X421750Y171726D01*
X421567Y171570D01*
X421552Y171556D01*
X421496Y171486D01*
X421426Y171387D01*
X421341Y171260D01*
X421256Y171091D01*
X421186Y170894D01*
X421129Y170668D01*
X421115Y170429D01*
Y167215D01*
Y167200D01*
Y167186D01*
X421129Y167102D01*
X421144Y166975D01*
X421172Y166820D01*
X421228Y166637D01*
X421313Y166453D01*
X421412Y166256D01*
X421567Y166073D01*
X421595Y166059D01*
X421651Y166002D01*
X421750Y165932D01*
X421891Y165847D01*
X422046Y165763D01*
X422243Y165692D01*
X422469Y165636D01*
X422708Y165621D01*
X422779D01*
X422835Y165636D01*
X422976Y165650D01*
X423145Y165692D01*
X423343Y165763D01*
X423554Y165861D01*
X423752Y166002D01*
X423949Y166199D01*
X423921Y166228D01*
X423864Y166284D01*
X423766Y166369D01*
X423653Y166467D01*
Y166481D01*
X423625Y166496D01*
X423582Y166580D01*
X423540Y166679D01*
X423512Y166806D01*
Y166820D01*
Y166862D01*
X423540Y166933D01*
X423568Y167003D01*
X423611Y167073D01*
X423681Y167144D01*
X423780Y167186D01*
X423907Y167200D01*
X423935D01*
X424019Y167172D01*
X424076Y167144D01*
X424132Y167116D01*
X424217Y167059D01*
X424287Y166989D01*
Y167003D01*
X424301Y167059D01*
Y167130D01*
Y167215D01*
Y170429D01*
Y170443D01*
Y170457D01*
Y170541D01*
X424273Y170668D01*
X424245Y170823D01*
X424189Y171007D01*
X424104Y171190D01*
X423991Y171387D01*
X423836Y171570D01*
X423822Y171585D01*
X423752Y171641D01*
X423653Y171711D01*
X423526Y171810D01*
X423357Y171895D01*
X423159Y171965D01*
X422948Y172022D01*
X422708Y172036D01*
D02*
G37*
G36*
X189704Y62562D02*
X187717D01*
Y56147D01*
X189789D01*
X189888Y56162D01*
X190001Y56190D01*
X190142Y56232D01*
X190282Y56288D01*
X190424Y56373D01*
X190564Y56486D01*
X190579Y56500D01*
X190621Y56556D01*
X190677Y56627D01*
X190748Y56726D01*
X190804Y56852D01*
X190861Y56993D01*
X190903Y57162D01*
X190917Y57346D01*
Y61349D01*
Y61378D01*
Y61434D01*
X190903Y61533D01*
X190875Y61645D01*
X190832Y61786D01*
X190762Y61927D01*
X190677Y62068D01*
X190564Y62209D01*
X190550Y62223D01*
X190508Y62266D01*
X190424Y62322D01*
X190325Y62393D01*
X190198Y62449D01*
X190057Y62505D01*
X189888Y62548D01*
X189704Y62562D01*
D02*
G37*
G36*
X187191Y127207D02*
X185203D01*
Y120793D01*
X187276D01*
X187374Y120807D01*
X187487Y120835D01*
X187628Y120878D01*
X187769Y120934D01*
X187910Y121018D01*
X188051Y121131D01*
X188065Y121145D01*
X188107Y121202D01*
X188164Y121272D01*
X188234Y121371D01*
X188291Y121498D01*
X188347Y121639D01*
X188389Y121808D01*
X188404Y121991D01*
Y125995D01*
Y126023D01*
Y126079D01*
X188389Y126178D01*
X188361Y126291D01*
X188319Y126432D01*
X188249Y126573D01*
X188164Y126714D01*
X188051Y126855D01*
X188037Y126869D01*
X187995Y126911D01*
X187910Y126967D01*
X187812Y127038D01*
X187685Y127094D01*
X187544Y127151D01*
X187374Y127193D01*
X187191Y127207D01*
D02*
G37*
G36*
X241592Y194207D02*
X239604D01*
Y187793D01*
X241677D01*
X241775Y187807D01*
X241888Y187835D01*
X242029Y187878D01*
X242170Y187934D01*
X242311Y188018D01*
X242452Y188131D01*
X242466Y188145D01*
X242508Y188202D01*
X242565Y188272D01*
X242635Y188371D01*
X242692Y188498D01*
X242748Y188639D01*
X242790Y188808D01*
X242804Y188991D01*
Y192995D01*
Y193023D01*
Y193079D01*
X242790Y193178D01*
X242762Y193291D01*
X242720Y193432D01*
X242649Y193573D01*
X242565Y193714D01*
X242452Y193855D01*
X242438Y193869D01*
X242396Y193911D01*
X242311Y193967D01*
X242212Y194038D01*
X242085Y194094D01*
X241945Y194151D01*
X241775Y194193D01*
X241592Y194207D01*
D02*
G37*
G36*
X232781D02*
X230794D01*
Y187793D01*
X232866D01*
X232965Y187807D01*
X233078Y187835D01*
X233218Y187878D01*
X233359Y187934D01*
X233500Y188018D01*
X233641Y188131D01*
X233655Y188145D01*
X233698Y188202D01*
X233754Y188272D01*
X233825Y188371D01*
X233881Y188498D01*
X233937Y188639D01*
X233980Y188808D01*
X233994Y188991D01*
Y192995D01*
Y193023D01*
Y193079D01*
X233980Y193178D01*
X233951Y193291D01*
X233909Y193432D01*
X233839Y193573D01*
X233754Y193714D01*
X233641Y193855D01*
X233627Y193869D01*
X233585Y193911D01*
X233500Y193967D01*
X233402Y194038D01*
X233275Y194094D01*
X233134Y194151D01*
X232965Y194193D01*
X232781Y194207D01*
D02*
G37*
G36*
X126987Y155207D02*
X124999D01*
Y148793D01*
X127071D01*
X127170Y148807D01*
X127283Y148835D01*
X127424Y148877D01*
X127565Y148934D01*
X127706Y149018D01*
X127847Y149131D01*
X127861Y149145D01*
X127903Y149202D01*
X127959Y149272D01*
X128030Y149371D01*
X128086Y149498D01*
X128143Y149639D01*
X128185Y149808D01*
X128199Y149991D01*
Y153995D01*
Y154023D01*
Y154079D01*
X128185Y154178D01*
X128157Y154291D01*
X128115Y154432D01*
X128044Y154573D01*
X127959Y154714D01*
X127847Y154855D01*
X127833Y154869D01*
X127790Y154911D01*
X127706Y154967D01*
X127607Y155038D01*
X127480Y155094D01*
X127339Y155151D01*
X127170Y155193D01*
X126987Y155207D01*
D02*
G37*
G36*
X118176D02*
X116188D01*
Y148793D01*
X118261D01*
X118359Y148807D01*
X118472Y148835D01*
X118613Y148877D01*
X118754Y148934D01*
X118895Y149018D01*
X119036Y149131D01*
X119050Y149145D01*
X119093Y149202D01*
X119149Y149272D01*
X119219Y149371D01*
X119276Y149498D01*
X119332Y149639D01*
X119374Y149808D01*
X119389Y149991D01*
Y153995D01*
Y154023D01*
Y154079D01*
X119374Y154178D01*
X119346Y154291D01*
X119304Y154432D01*
X119233Y154573D01*
X119149Y154714D01*
X119036Y154855D01*
X119022Y154869D01*
X118980Y154911D01*
X118895Y154967D01*
X118796Y155038D01*
X118670Y155094D01*
X118529Y155151D01*
X118359Y155193D01*
X118176Y155207D01*
D02*
G37*
%LPD*%
D10*
X321390Y236370D02*
X319390D01*
X321390D01*
X296390D02*
X294390D01*
X296390D01*
X257390Y172370D02*
X255390D01*
X257390D01*
X286390Y123370D02*
X284390D01*
X286390D01*
X311390D02*
X309390D01*
X311390D01*
X336390D02*
X334390D01*
X336390D01*
X370390Y167370D02*
X368390D01*
X370390D01*
Y192370D02*
X368390D01*
X370390D01*
X257390Y197370D02*
X255390D01*
X257390D01*
X334820Y281050D02*
X336600Y281953D01*
X337220Y283850D01*
X337220Y303850D02*
X336600Y305747D01*
X334820Y306650D01*
X210220Y283850D02*
X211040Y281870D01*
X213020Y281050D01*
Y306650D02*
X211040Y305830D01*
X210220Y303850D01*
X391570Y6730D02*
X393550Y7550D01*
X394370Y9530D01*
X394370Y29530D02*
X393550Y31510D01*
X391570Y32330D01*
X292770Y9530D02*
X293390Y7633D01*
X295170Y6730D01*
Y32330D02*
X293390Y31427D01*
X292770Y29530D01*
X460475Y139732D02*
X459745Y142207D01*
X458755Y144590D01*
X457515Y146853D01*
X456042Y148971D01*
X454350Y150920D01*
X452460Y152677D01*
X450393Y154222D01*
X448174Y155537D01*
X445826Y156608D01*
X443377Y157422D01*
X440856Y157970D01*
X438290Y158245D01*
X435710D01*
X433144Y157970D01*
X430623Y157422D01*
X428174Y156608D01*
X425826Y155537D01*
X423606Y154222D01*
X421540Y152677D01*
X419650Y150920D01*
X417958Y148971D01*
X416484Y146853D01*
X415245Y144590D01*
X414255Y142207D01*
X413525Y139732D01*
Y65068D02*
X414255Y62593D01*
X415245Y60210D01*
X416484Y57947D01*
X417958Y55829D01*
X419650Y53880D01*
X421540Y52123D01*
X423606Y50578D01*
X425826Y49263D01*
X428174Y48192D01*
X430623Y47378D01*
X433144Y46830D01*
X435710Y46554D01*
X438290D01*
X440856Y46830D01*
X443377Y47378D01*
X445826Y48192D01*
X448174Y49263D01*
X450394Y50578D01*
X452460Y52123D01*
X454350Y53880D01*
X456042Y55829D01*
X457516Y57947D01*
X458755Y60210D01*
X459745Y62593D01*
X460475Y65068D01*
X281890Y148870D02*
X343890D01*
X281890D02*
Y210870D01*
X343890D01*
Y148870D02*
Y210870D01*
X343990D01*
X344590Y211470D01*
Y235470D01*
X339690D02*
X344590D01*
X3050Y223540D02*
X17480D01*
X3050Y146540D02*
X17480D01*
X95050Y206376D02*
Y216790D01*
X47960Y223540D02*
X72090D01*
X95050Y153798D02*
Y163704D01*
X47960Y146540D02*
X71836D01*
X263560Y306550D02*
Y306650D01*
X261020Y304010D02*
X263560Y306550D01*
X261020Y304010D02*
Y304110D01*
X263660Y306650D02*
X284020D01*
X263560Y306550D02*
X263660Y306650D01*
X261020Y283690D02*
X263560Y281150D01*
Y281050D02*
X284020D01*
X283880Y306550D02*
X286420Y304010D01*
X288960Y306550D01*
Y306650D01*
X309280D01*
X314360Y306550D02*
X314460Y306650D01*
X334820D01*
X288960Y281050D02*
Y281150D01*
Y281050D02*
X309280D01*
X283880Y281150D02*
X286420Y283690D01*
X288960Y281150D01*
X314360Y281050D02*
X334820D01*
X309280Y306650D02*
X311820Y304110D01*
Y304010D02*
Y304110D01*
Y304010D02*
X314360Y306550D01*
Y306650D01*
X309280Y281150D02*
X311820Y283690D01*
X314360Y281150D01*
X337220Y283850D02*
Y303850D01*
X311820Y283690D02*
Y304110D01*
X235620Y304010D02*
X238160Y306550D01*
X238260Y306650D02*
X258620D01*
X235620Y283690D02*
X238160Y281150D01*
Y281050D02*
X258620D01*
X258480Y306550D02*
X261020Y304010D01*
X258480Y281150D02*
X261020Y283690D01*
X210220Y283850D02*
Y303850D01*
X212760Y306650D02*
X233080D01*
X212760Y281050D02*
X233080D01*
Y306650D02*
X235620Y304110D01*
X233080Y281150D02*
X235620Y283690D01*
X485500Y68440D02*
X504500D01*
X485500Y85190D02*
X504500D01*
X485500Y51690D02*
Y85190D01*
X504500Y51690D02*
Y85190D01*
X485500Y51690D02*
X504500D01*
X318170Y9270D02*
Y29690D01*
X368970D02*
X371510Y32230D01*
X368970Y9270D02*
X371510Y6730D01*
Y32330D02*
X391830D01*
X371510Y6730D02*
X391830D01*
X394370Y9530D02*
Y29530D01*
X292770Y9530D02*
Y29530D01*
X315630Y32230D02*
X318170Y29690D01*
X320710Y32230D01*
X315630Y6730D02*
Y6830D01*
X318170Y9370D01*
Y9270D02*
Y9370D01*
Y9270D02*
X320710Y6730D01*
X295170Y32330D02*
X315630D01*
X341030Y32230D02*
X343570Y29690D01*
X346110Y32230D01*
X320710Y32330D02*
X341030D01*
Y32230D02*
Y32330D01*
X295170Y6730D02*
X315530D01*
X315630Y6830D01*
X320710Y6730D02*
X341030D01*
Y6830D01*
X343570Y9370D01*
X346110Y6830D01*
X345970Y32330D02*
X366430D01*
Y32230D02*
X368970Y29690D01*
X391830Y32230D02*
Y32330D01*
X366330Y6730D02*
X366430Y6830D01*
X345970Y6730D02*
X366330D01*
X368970Y9270D02*
Y9370D01*
X366430Y6830D02*
X368970Y9370D01*
X366430Y6730D02*
Y6830D01*
X391830Y6730D02*
Y6830D01*
X425730Y213030D02*
Y232330D01*
Y213030D02*
X459380D01*
X425730Y232330D02*
X459380Y232330D01*
Y213030D02*
Y232330D01*
X440230Y193890D02*
Y208390D01*
X425880D02*
X454730D01*
X425730Y193890D02*
Y208390D01*
X425880Y193890D02*
X454580D01*
X454730D02*
Y208390D01*
X192250Y231750D02*
Y246250D01*
X177900D02*
X206750D01*
X177750Y231750D02*
Y246250D01*
X177900Y231750D02*
X206600D01*
X206750D02*
Y246250D01*
X166060Y93950D02*
Y114270D01*
Y93950D02*
X211780D01*
X207970D02*
Y114270D01*
X211780Y93950D02*
Y114270D01*
X166060D02*
X211780D01*
X204160Y93950D02*
Y114270D01*
X162640Y94050D02*
Y113350D01*
X128991D02*
X162640D01*
X128991Y94050D02*
X162640Y94050D01*
X128991Y94050D02*
Y113350D01*
X204160Y69970D02*
Y90290D01*
X166060D02*
X211780D01*
Y69970D02*
Y90290D01*
X207970Y69970D02*
Y90290D01*
X166060Y69970D02*
X211780D01*
X166060D02*
Y90290D01*
X162490Y70990D02*
Y90290D01*
X128840D02*
X162490D01*
X128840Y70990D02*
X162490Y70990D01*
X128840Y70990D02*
Y90290D01*
X460500Y65068D02*
Y139732D01*
X413500Y65068D02*
Y139732D01*
X485500Y151750D02*
X504500D01*
X485500Y118250D02*
Y151750D01*
X504500Y118250D02*
Y151750D01*
X485500Y118250D02*
X504500D01*
X485500Y135000D02*
X504500D01*
D11*
X193440Y206770D02*
X192190Y208935D01*
X189690D01*
X188440Y206770D01*
X189690Y204605D01*
X192190D01*
X193440Y206770D01*
Y194270D02*
Y198235D01*
X189904Y201770D02*
X193440Y198235D01*
X185940Y201770D02*
X189904D01*
X193440Y151770D02*
Y159270D01*
X185940Y151770D02*
X193440D01*
X143440Y201770D02*
X150940D01*
X143440Y194270D02*
Y201770D01*
Y151770D02*
Y159270D01*
Y151770D02*
X150940D01*
D12*
X417951Y75799D02*
X418130Y73316D01*
X418631Y70879D01*
X419445Y68527D01*
X420560Y66301D01*
X421955Y64240D01*
X423607Y62378D01*
X425488Y60747D01*
X427565Y59376D01*
X429803Y58287D01*
X432164Y57499D01*
X434608Y57026D01*
X437093Y56875D01*
X439575Y57050D01*
X442014Y57547D01*
X444368Y58358D01*
X446595Y59468D01*
X448659Y60860D01*
X450524Y62508D01*
X452158Y64386D01*
X453533Y66461D01*
X454626Y68697D01*
X455418Y71057D01*
X455895Y73500D01*
X456050Y75984D01*
Y130086D02*
X455871Y132569D01*
X455370Y135007D01*
X454555Y137359D01*
X453441Y139584D01*
X452045Y141646D01*
X450393Y143507D01*
X448513Y145138D01*
X446436Y146509D01*
X444197Y147598D01*
X441836Y148386D01*
X439393Y148859D01*
X436908Y149010D01*
X434425Y148835D01*
X431986Y148338D01*
X429633Y147528D01*
X427405Y146417D01*
X425341Y145026D01*
X423477Y143377D01*
X421843Y141499D01*
X420468Y139424D01*
X419375Y137188D01*
X418583Y134828D01*
X418105Y132385D01*
X417951Y129901D01*
X436746Y107734D02*
Y115608D01*
X427856Y107734D02*
X446652D01*
X436746Y89700D02*
Y97320D01*
X427602D02*
X446652D01*
X456050Y75976D02*
Y129317D01*
X417950Y76230D02*
Y129571D01*
D13*
X175932Y250000D02*
Y270000D01*
X178218Y250000D02*
Y270000D01*
X180250Y250000D02*
Y270000D01*
X176440Y250000D02*
X243750D01*
Y270000D01*
X176440D02*
X243750D01*
M02*
