G04*
G04 #@! TF.GenerationSoftware,Altium Limited,Altium Designer,20.2.5 (213)*
G04*
G04 Layer_Color=8388736*
%FSLAX44Y44*%
%MOMM*%
G71*
G04*
G04 #@! TF.SameCoordinates,3C0D8923-7957-4DC4-8908-925B2C91420C*
G04*
G04*
G04 #@! TF.FilePolarity,Negative*
G04*
G01*
G75*
G04:AMPARAMS|DCode=25|XSize=0.4mm|YSize=2mm|CornerRadius=0.065mm|HoleSize=0mm|Usage=FLASHONLY|Rotation=90.000|XOffset=0mm|YOffset=0mm|HoleType=Round|Shape=RoundedRectangle|*
%AMROUNDEDRECTD25*
21,1,0.4000,1.8700,0,0,90.0*
21,1,0.2700,2.0000,0,0,90.0*
1,1,0.1300,0.9350,0.1350*
1,1,0.1300,0.9350,-0.1350*
1,1,0.1300,-0.9350,-0.1350*
1,1,0.1300,-0.9350,0.1350*
%
%ADD25ROUNDEDRECTD25*%
G04:AMPARAMS|DCode=26|XSize=0.4mm|YSize=2mm|CornerRadius=0.065mm|HoleSize=0mm|Usage=FLASHONLY|Rotation=180.000|XOffset=0mm|YOffset=0mm|HoleType=Round|Shape=RoundedRectangle|*
%AMROUNDEDRECTD26*
21,1,0.4000,1.8700,0,0,180.0*
21,1,0.2700,2.0000,0,0,180.0*
1,1,0.1300,-0.1350,0.9350*
1,1,0.1300,0.1350,0.9350*
1,1,0.1300,0.1350,-0.9350*
1,1,0.1300,-0.1350,-0.9350*
%
%ADD26ROUNDEDRECTD26*%
G04:AMPARAMS|DCode=27|XSize=2.7032mm|YSize=2.2032mm|CornerRadius=0.2016mm|HoleSize=0mm|Usage=FLASHONLY|Rotation=180.000|XOffset=0mm|YOffset=0mm|HoleType=Round|Shape=RoundedRectangle|*
%AMROUNDEDRECTD27*
21,1,2.7032,1.8000,0,0,180.0*
21,1,2.3000,2.2032,0,0,180.0*
1,1,0.4032,-1.1500,0.9000*
1,1,0.4032,1.1500,0.9000*
1,1,0.4032,1.1500,-0.9000*
1,1,0.4032,-1.1500,-0.9000*
%
%ADD27ROUNDEDRECTD27*%
%ADD28O,2.4532X0.7032*%
%ADD29R,0.4572X1.1032*%
%ADD30R,1.1032X0.4572*%
%ADD31R,3.3032X3.3032*%
G04:AMPARAMS|DCode=32|XSize=1.3mm|YSize=1.6mm|CornerRadius=0.155mm|HoleSize=0mm|Usage=FLASHONLY|Rotation=90.000|XOffset=0mm|YOffset=0mm|HoleType=Round|Shape=RoundedRectangle|*
%AMROUNDEDRECTD32*
21,1,1.3000,1.2900,0,0,90.0*
21,1,0.9900,1.6000,0,0,90.0*
1,1,0.3100,0.6450,0.4950*
1,1,0.3100,0.6450,-0.4950*
1,1,0.3100,-0.6450,-0.4950*
1,1,0.3100,-0.6450,0.4950*
%
%ADD32ROUNDEDRECTD32*%
G04:AMPARAMS|DCode=33|XSize=1.3mm|YSize=1.6mm|CornerRadius=0.155mm|HoleSize=0mm|Usage=FLASHONLY|Rotation=0.000|XOffset=0mm|YOffset=0mm|HoleType=Round|Shape=RoundedRectangle|*
%AMROUNDEDRECTD33*
21,1,1.3000,1.2900,0,0,0.0*
21,1,0.9900,1.6000,0,0,0.0*
1,1,0.3100,0.4950,-0.6450*
1,1,0.3100,-0.4950,-0.6450*
1,1,0.3100,-0.4950,0.6450*
1,1,0.3100,0.4950,0.6450*
%
%ADD33ROUNDEDRECTD33*%
G04:AMPARAMS|DCode=34|XSize=1.15mm|YSize=1.15mm|CornerRadius=0.1475mm|HoleSize=0mm|Usage=FLASHONLY|Rotation=180.000|XOffset=0mm|YOffset=0mm|HoleType=Round|Shape=RoundedRectangle|*
%AMROUNDEDRECTD34*
21,1,1.1500,0.8550,0,0,180.0*
21,1,0.8550,1.1500,0,0,180.0*
1,1,0.2950,-0.4275,0.4275*
1,1,0.2950,0.4275,0.4275*
1,1,0.2950,0.4275,-0.4275*
1,1,0.2950,-0.4275,-0.4275*
%
%ADD34ROUNDEDRECTD34*%
%ADD35R,2.7032X1.7032*%
G04:AMPARAMS|DCode=36|XSize=1.7032mm|YSize=1.5032mm|CornerRadius=0.4266mm|HoleSize=0mm|Usage=FLASHONLY|Rotation=90.000|XOffset=0mm|YOffset=0mm|HoleType=Round|Shape=RoundedRectangle|*
%AMROUNDEDRECTD36*
21,1,1.7032,0.6500,0,0,90.0*
21,1,0.8500,1.5032,0,0,90.0*
1,1,0.8532,0.3250,0.4250*
1,1,0.8532,0.3250,-0.4250*
1,1,0.8532,-0.3250,-0.4250*
1,1,0.8532,-0.3250,0.4250*
%
%ADD36ROUNDEDRECTD36*%
%ADD37C,1.2000*%
%ADD38C,3.2032*%
%ADD39C,1.8000*%
%ADD40C,1.5000*%
D25*
X356390Y207370D02*
D03*
Y202370D02*
D03*
Y197370D02*
D03*
Y192370D02*
D03*
Y187370D02*
D03*
Y182370D02*
D03*
Y177370D02*
D03*
Y172370D02*
D03*
Y167370D02*
D03*
Y162370D02*
D03*
Y157370D02*
D03*
Y152370D02*
D03*
X269390Y207370D02*
D03*
Y202370D02*
D03*
Y197370D02*
D03*
Y192370D02*
D03*
Y187370D02*
D03*
Y182370D02*
D03*
Y177370D02*
D03*
Y172370D02*
D03*
Y167370D02*
D03*
Y162370D02*
D03*
Y157370D02*
D03*
Y152370D02*
D03*
D26*
X285390Y136370D02*
D03*
X290390D02*
D03*
X295390D02*
D03*
X300390D02*
D03*
X305390D02*
D03*
X310390D02*
D03*
X315390D02*
D03*
X320390D02*
D03*
X325390D02*
D03*
X330390D02*
D03*
X335390D02*
D03*
X340390D02*
D03*
Y223370D02*
D03*
X285390D02*
D03*
X290390D02*
D03*
X295390D02*
D03*
X300390D02*
D03*
X305390D02*
D03*
X310390D02*
D03*
X315390D02*
D03*
X320390D02*
D03*
X325390D02*
D03*
X330390D02*
D03*
X335390D02*
D03*
D27*
X32850Y229540D02*
D03*
X87350D02*
D03*
X32850Y140540D02*
D03*
X87350D02*
D03*
D28*
X88600Y201040D02*
D03*
Y193040D02*
D03*
Y185040D02*
D03*
Y177040D02*
D03*
Y169040D02*
D03*
D29*
X183440Y200770D02*
D03*
X178440D02*
D03*
X173440D02*
D03*
X168440D02*
D03*
X163440D02*
D03*
X158440D02*
D03*
X153440D02*
D03*
Y152770D02*
D03*
X158440D02*
D03*
X163440D02*
D03*
X168440D02*
D03*
X173440D02*
D03*
X178440D02*
D03*
X183440D02*
D03*
D30*
X144440Y191770D02*
D03*
Y186770D02*
D03*
Y181770D02*
D03*
Y176770D02*
D03*
Y171770D02*
D03*
Y166770D02*
D03*
Y161770D02*
D03*
X192440D02*
D03*
Y166770D02*
D03*
Y171770D02*
D03*
Y176770D02*
D03*
Y181770D02*
D03*
Y186770D02*
D03*
Y191770D02*
D03*
D31*
X168440Y176770D02*
D03*
D32*
X495000Y77190D02*
D03*
Y59690D02*
D03*
Y143750D02*
D03*
Y126250D02*
D03*
D33*
X451380Y222730D02*
D03*
X433880D02*
D03*
X136991Y103650D02*
D03*
X154490D02*
D03*
X136840Y80590D02*
D03*
X154340D02*
D03*
D34*
X447480Y201140D02*
D03*
X432980D02*
D03*
X199500Y239000D02*
D03*
X185000D02*
D03*
D35*
X229000Y260000D02*
D03*
X195000D02*
D03*
D36*
X194610Y104110D02*
D03*
X175610D02*
D03*
Y80130D02*
D03*
X194610D02*
D03*
D37*
X62900Y207040D02*
D03*
Y163040D02*
D03*
D38*
X491250Y290250D02*
D03*
X491000Y23250D02*
D03*
X23750Y24000D02*
D03*
Y289250D02*
D03*
D39*
X222920Y293850D02*
D03*
X299120D02*
D03*
X273720D02*
D03*
X248320D02*
D03*
X324520D02*
D03*
X381670Y19530D02*
D03*
X356270D02*
D03*
X330870D02*
D03*
X305470D02*
D03*
D40*
X437000Y126800D02*
D03*
Y78000D02*
D03*
M02*
