M48
;Layer_Color=9474304
;FILE_FORMAT=4:4
METRIC,LZ
;TYPE=PLATED
T1F00S00C0.2540
T2F00S00C0.8000
T3F00S00C1.0000
T4F00S00C3.0000
%
T01
X0034Y00114
X0033539Y0016261
X00314Y00168
Y00191
X00299Y00192
X00302Y00243
X0034025Y0024275
X003815Y002075
X00376Y00187
X0047057Y0022273
X0024Y00231
X00232
Y00224
X00224
Y00231
X00216
Y00224
X0021575Y0021625
X0019975Y002175
X0017625Y0021225
X0015825Y002135
X0016325Y0022925
X00144Y0022775
X00138Y00236
X00119
X0011025
X00113Y00169
X00132Y00177
Y00187
X00199Y00141
X00205Y00127
X00245Y0015225
Y00173
X0024325Y0024125
X00239Y00095
X00271
Y00106
X001465Y00286329
X0013825Y0028675
X0009975Y00273
X00088Y002735
X00065Y0026225
X000575Y002625
X000505Y0026225
X00043Y0026275
T02
X00437Y00078
Y001268
T03
X0030547Y0001953
X0033087
X0035627
X0038167
X000629Y0016304
Y0020704
X0022292Y0029385
X0024832
X0027372
X0029912
X0032452
T04
X00491Y0002325
X0002375Y00024
Y0028925
X0049125Y0029025
M30
