G04*
G04 #@! TF.GenerationSoftware,Altium Limited,Altium Designer,20.2.5 (213)*
G04*
G04 Layer_Color=32896*
%FSLAX44Y44*%
%MOMM*%
G71*
G04*
G04 #@! TF.SameCoordinates,3C0D8923-7957-4DC4-8908-925B2C91420C*
G04*
G04*
G04 #@! TF.FilePolarity,Positive*
G04*
G01*
G75*
%ADD10C,0.3000*%
%ADD11C,0.1270*%
%ADD54C,0.2000*%
G36*
X385337Y191996D02*
X385435Y191954D01*
X385506Y191884D01*
X385548Y191813D01*
X385576Y191729D01*
X385604Y191672D01*
Y191616D01*
Y191602D01*
Y184384D01*
X385590Y184257D01*
X385548Y184159D01*
X385478Y184088D01*
X385407Y184046D01*
X385337Y184018D01*
X385266Y183989D01*
X385210D01*
X385069Y184004D01*
X384970Y184046D01*
X384900Y184116D01*
X384857Y184187D01*
X384815Y184257D01*
X384801Y184328D01*
Y184370D01*
Y184384D01*
Y187189D01*
X383053D01*
X381559Y184201D01*
X381516Y184130D01*
X381460Y184074D01*
X381404Y184046D01*
X381333Y184018D01*
X381249Y183989D01*
X381206D01*
X381093Y184004D01*
X381009Y184046D01*
X380952Y184088D01*
X380924Y184102D01*
X380854Y184201D01*
X380812Y184286D01*
X380797Y184356D01*
Y184384D01*
Y184455D01*
X380812Y184511D01*
X380826Y184553D01*
X380840Y184567D01*
X382249Y187359D01*
X381996Y187486D01*
X381770Y187626D01*
X381573Y187782D01*
X381404Y187951D01*
X381263Y188134D01*
X381150Y188317D01*
X381051Y188515D01*
X380981Y188698D01*
X380924Y188881D01*
X380868Y189050D01*
X380840Y189191D01*
X380826Y189332D01*
X380812Y189445D01*
X380797Y189529D01*
Y189586D01*
Y189600D01*
X380812Y189783D01*
X380826Y189967D01*
X380910Y190291D01*
X381023Y190587D01*
X381150Y190826D01*
X381277Y191024D01*
X381333Y191108D01*
X381389Y191179D01*
X381432Y191235D01*
X381474Y191278D01*
X381488Y191292D01*
X381502Y191306D01*
X381643Y191433D01*
X381784Y191545D01*
X381925Y191630D01*
X382066Y191715D01*
X382348Y191842D01*
X382616Y191926D01*
X382855Y191968D01*
X382954Y191996D01*
X383039D01*
X383109Y192011D01*
X385210D01*
X385337Y191996D01*
D02*
G37*
G36*
X373721Y191982D02*
X373833Y191954D01*
X373918Y191912D01*
X373946Y191898D01*
X373960D01*
X374270Y191757D01*
X374552Y191574D01*
X374806Y191390D01*
X375046Y191207D01*
X375229Y191038D01*
X375370Y190897D01*
X375426Y190841D01*
X375469Y190798D01*
X375483Y190784D01*
X375497Y190770D01*
X375652Y190573D01*
X375793Y190375D01*
X375906Y190164D01*
X376004Y189967D01*
X376089Y189755D01*
X376174Y189558D01*
X376272Y189191D01*
X376315Y189022D01*
X376343Y188867D01*
X376357Y188740D01*
X376371Y188613D01*
X376385Y188515D01*
Y188444D01*
Y188402D01*
Y188388D01*
Y185977D01*
X376357Y185681D01*
X376300Y185413D01*
X376202Y185159D01*
X376089Y184962D01*
X375990Y184793D01*
X375892Y184666D01*
X375835Y184596D01*
X375807Y184567D01*
X375582Y184370D01*
X375342Y184229D01*
X375102Y184130D01*
X374891Y184060D01*
X374693Y184018D01*
X374538Y184004D01*
X374482Y183989D01*
X374397D01*
X374101Y184018D01*
X373819Y184074D01*
X373580Y184173D01*
X373382Y184286D01*
X373213Y184384D01*
X373086Y184483D01*
X373016Y184539D01*
X372988Y184567D01*
X372790Y184793D01*
X372649Y185033D01*
X372537Y185272D01*
X372466Y185498D01*
X372424Y185695D01*
X372410Y185850D01*
X372396Y185907D01*
Y185949D01*
Y185977D01*
Y185991D01*
Y186781D01*
X372424Y187091D01*
X372480Y187359D01*
X372579Y187598D01*
X372677Y187810D01*
X372790Y187979D01*
X372889Y188106D01*
X372945Y188176D01*
X372974Y188204D01*
X373199Y188402D01*
X373439Y188543D01*
X373678Y188655D01*
X373904Y188726D01*
X374101Y188768D01*
X374256Y188782D01*
X374313Y188797D01*
X375553D01*
X375511Y189064D01*
X375426Y189318D01*
X375328Y189544D01*
X375229Y189755D01*
X375116Y189924D01*
X375032Y190065D01*
X374975Y190150D01*
X374947Y190164D01*
Y190178D01*
X374820Y190333D01*
X374693Y190474D01*
X374426Y190700D01*
X374172Y190883D01*
X373932Y191038D01*
X373721Y191137D01*
X373636Y191165D01*
X373551Y191207D01*
X373495Y191221D01*
X373453Y191235D01*
X373425Y191249D01*
X373410D01*
X373340Y191278D01*
X373284Y191320D01*
X373256Y191376D01*
X373227Y191433D01*
X373213Y191489D01*
X373199Y191545D01*
Y191574D01*
Y191588D01*
X373213Y191729D01*
X373256Y191827D01*
X373326Y191898D01*
X373396Y191940D01*
X373481Y191982D01*
X373537Y191996D01*
X373608D01*
X373721Y191982D01*
D02*
G37*
G36*
X275337Y195996D02*
X275435Y195954D01*
X275506Y195884D01*
X275548Y195813D01*
X275576Y195729D01*
X275604Y195672D01*
Y195616D01*
Y195602D01*
Y188384D01*
X275590Y188257D01*
X275548Y188159D01*
X275478Y188088D01*
X275407Y188046D01*
X275337Y188018D01*
X275266Y187989D01*
X275210D01*
X275069Y188004D01*
X274970Y188046D01*
X274900Y188116D01*
X274857Y188187D01*
X274815Y188257D01*
X274801Y188328D01*
Y188370D01*
Y188384D01*
Y191189D01*
X273053D01*
X271559Y188201D01*
X271516Y188130D01*
X271460Y188074D01*
X271404Y188046D01*
X271333Y188018D01*
X271248Y187989D01*
X271206D01*
X271093Y188004D01*
X271009Y188046D01*
X270952Y188088D01*
X270924Y188102D01*
X270854Y188201D01*
X270811Y188286D01*
X270797Y188356D01*
Y188384D01*
Y188455D01*
X270811Y188511D01*
X270826Y188553D01*
X270840Y188567D01*
X272249Y191359D01*
X271996Y191486D01*
X271770Y191626D01*
X271573Y191782D01*
X271404Y191951D01*
X271263Y192134D01*
X271150Y192317D01*
X271051Y192515D01*
X270981Y192698D01*
X270924Y192881D01*
X270868Y193050D01*
X270840Y193191D01*
X270826Y193332D01*
X270811Y193445D01*
X270797Y193529D01*
Y193586D01*
Y193600D01*
X270811Y193783D01*
X270826Y193967D01*
X270910Y194291D01*
X271023Y194587D01*
X271150Y194827D01*
X271277Y195024D01*
X271333Y195108D01*
X271389Y195179D01*
X271432Y195235D01*
X271474Y195278D01*
X271488Y195292D01*
X271502Y195306D01*
X271643Y195433D01*
X271784Y195545D01*
X271925Y195630D01*
X272066Y195715D01*
X272348Y195841D01*
X272616Y195926D01*
X272855Y195968D01*
X272954Y195996D01*
X273039D01*
X273109Y196011D01*
X275210D01*
X275337Y195996D01*
D02*
G37*
G36*
X266117D02*
X266216Y195954D01*
X266286Y195884D01*
X266329Y195813D01*
X266357Y195729D01*
X266385Y195672D01*
Y195616D01*
Y195602D01*
Y192388D01*
X266371Y192261D01*
X266329Y192162D01*
X266258Y192092D01*
X266188Y192049D01*
X266117Y192021D01*
X266047Y191993D01*
X264397D01*
X264214Y191979D01*
X264059Y191937D01*
X263918Y191880D01*
X263791Y191824D01*
X263692Y191753D01*
X263608Y191697D01*
X263566Y191655D01*
X263552Y191640D01*
X263439Y191500D01*
X263354Y191359D01*
X263284Y191218D01*
X263241Y191077D01*
X263213Y190964D01*
X263199Y190865D01*
Y190809D01*
Y190781D01*
Y189991D01*
X263213Y189808D01*
X263256Y189639D01*
X263312Y189498D01*
X263368Y189371D01*
X263439Y189272D01*
X263495Y189202D01*
X263537Y189145D01*
X263552Y189131D01*
X263692Y189018D01*
X263833Y188934D01*
X263974Y188878D01*
X264101Y188835D01*
X264228Y188807D01*
X264313Y188793D01*
X265990D01*
X266117Y188779D01*
X266216Y188737D01*
X266286Y188666D01*
X266329Y188596D01*
X266357Y188511D01*
X266385Y188455D01*
Y188398D01*
Y188384D01*
X266371Y188257D01*
X266329Y188159D01*
X266258Y188088D01*
X266188Y188046D01*
X266117Y188018D01*
X266047Y187989D01*
X264397D01*
X264101Y188018D01*
X263833Y188074D01*
X263594Y188173D01*
X263382Y188286D01*
X263213Y188384D01*
X263086Y188483D01*
X263016Y188539D01*
X262988Y188567D01*
X262790Y188793D01*
X262649Y189047D01*
X262537Y189272D01*
X262466Y189498D01*
X262424Y189695D01*
X262410Y189850D01*
X262395Y189907D01*
Y189949D01*
Y189977D01*
Y189991D01*
Y190781D01*
X262424Y191077D01*
X262494Y191359D01*
X262579Y191598D01*
X262692Y191810D01*
X262804Y191979D01*
X262889Y192106D01*
X262959Y192176D01*
X262988Y192204D01*
X263213Y192402D01*
X263453Y192543D01*
X263692Y192656D01*
X263904Y192726D01*
X264101Y192768D01*
X264256Y192782D01*
X264313Y192796D01*
X265581D01*
Y195207D01*
X263199D01*
X263072Y195221D01*
X262973Y195264D01*
X262903Y195334D01*
X262847Y195404D01*
X262818Y195475D01*
X262804Y195545D01*
Y195588D01*
Y195602D01*
X262818Y195743D01*
X262861Y195841D01*
X262931Y195912D01*
X263002Y195954D01*
X263072Y195996D01*
X263143Y196011D01*
X265990D01*
X266117Y195996D01*
D02*
G37*
G36*
X157095Y198982D02*
X157194Y198954D01*
X157250Y198898D01*
X157307Y198856D01*
X157349Y198799D01*
X157377Y198743D01*
X157391Y198715D01*
Y198701D01*
X158998Y193104D01*
Y193034D01*
Y193005D01*
Y192991D01*
X158984Y192864D01*
X158942Y192766D01*
X158871Y192695D01*
X158801Y192653D01*
X158730Y192625D01*
X158660Y192596D01*
X156193D01*
Y191384D01*
X156179Y191257D01*
X156137Y191159D01*
X156066Y191088D01*
X155996Y191046D01*
X155925Y191018D01*
X155855Y190989D01*
X155798D01*
X155657Y191003D01*
X155559Y191046D01*
X155488Y191116D01*
X155446Y191187D01*
X155403Y191257D01*
X155389Y191328D01*
Y191370D01*
Y191384D01*
Y192596D01*
X154600D01*
X154459Y192611D01*
X154360Y192653D01*
X154290Y192723D01*
X154248Y192794D01*
X154205Y192864D01*
X154191Y192935D01*
Y192977D01*
Y192991D01*
X154205Y193132D01*
X154248Y193231D01*
X154318Y193301D01*
X154389Y193344D01*
X154473Y193386D01*
X154529Y193400D01*
X155389D01*
Y194598D01*
X155403Y194725D01*
X155446Y194824D01*
X155516Y194894D01*
X155587Y194951D01*
X155671Y194979D01*
X155728Y194993D01*
X155798D01*
X155925Y194979D01*
X156024Y194937D01*
X156094Y194866D01*
X156137Y194796D01*
X156165Y194725D01*
X156193Y194655D01*
Y194612D01*
Y194598D01*
Y193400D01*
X158082D01*
X156616Y198475D01*
X156602Y198559D01*
Y198574D01*
Y198588D01*
X156616Y198729D01*
X156658Y198827D01*
X156729Y198898D01*
X156799Y198940D01*
X156870Y198982D01*
X156940Y198997D01*
X156996D01*
X157095Y198982D01*
D02*
G37*
G36*
X167541Y198997D02*
X167640Y198954D01*
X167710Y198884D01*
X167752Y198813D01*
X167781Y198729D01*
X167809Y198672D01*
Y198616D01*
Y198602D01*
Y191384D01*
X167795Y191257D01*
X167752Y191159D01*
X167682Y191088D01*
X167612Y191046D01*
X167541Y191018D01*
X167470Y190989D01*
X167414D01*
X167273Y191003D01*
X167174Y191046D01*
X167104Y191116D01*
X167062Y191187D01*
X167019Y191257D01*
X167005Y191328D01*
Y191370D01*
Y191384D01*
Y194189D01*
X165257D01*
X163763Y191201D01*
X163721Y191130D01*
X163664Y191074D01*
X163608Y191046D01*
X163538Y191018D01*
X163453Y190989D01*
X163411D01*
X163298Y191003D01*
X163213Y191046D01*
X163157Y191088D01*
X163129Y191102D01*
X163058Y191201D01*
X163016Y191285D01*
X163002Y191356D01*
Y191384D01*
Y191455D01*
X163016Y191511D01*
X163030Y191553D01*
X163044Y191567D01*
X164454Y194359D01*
X164200Y194485D01*
X163974Y194627D01*
X163777Y194781D01*
X163608Y194951D01*
X163467Y195134D01*
X163354Y195317D01*
X163256Y195515D01*
X163185Y195698D01*
X163129Y195881D01*
X163072Y196050D01*
X163044Y196191D01*
X163030Y196332D01*
X163016Y196445D01*
X163002Y196530D01*
Y196586D01*
Y196600D01*
X163016Y196783D01*
X163030Y196967D01*
X163115Y197291D01*
X163227Y197587D01*
X163354Y197826D01*
X163481Y198024D01*
X163538Y198108D01*
X163594Y198179D01*
X163636Y198235D01*
X163678Y198278D01*
X163692Y198292D01*
X163707Y198306D01*
X163848Y198433D01*
X163989Y198545D01*
X164130Y198630D01*
X164270Y198715D01*
X164552Y198841D01*
X164820Y198926D01*
X165060Y198968D01*
X165159Y198997D01*
X165243D01*
X165314Y199011D01*
X167414D01*
X167541Y198997D01*
D02*
G37*
G36*
X157344Y223997D02*
X157442Y223954D01*
X157513Y223884D01*
X157555Y223813D01*
X157583Y223729D01*
X157612Y223672D01*
Y223616D01*
Y223602D01*
Y216384D01*
X157597Y216257D01*
X157555Y216159D01*
X157485Y216088D01*
X157414Y216046D01*
X157344Y216018D01*
X157273Y215989D01*
X157217D01*
X157076Y216003D01*
X156977Y216046D01*
X156907Y216116D01*
X156864Y216187D01*
X156822Y216257D01*
X156808Y216328D01*
Y216370D01*
Y216384D01*
Y219189D01*
X155060D01*
X153566Y216201D01*
X153523Y216130D01*
X153467Y216074D01*
X153411Y216046D01*
X153340Y216018D01*
X153256Y215989D01*
X153213D01*
X153101Y216003D01*
X153016Y216046D01*
X152959Y216088D01*
X152931Y216102D01*
X152861Y216201D01*
X152818Y216285D01*
X152804Y216356D01*
Y216384D01*
Y216455D01*
X152818Y216511D01*
X152833Y216553D01*
X152847Y216567D01*
X154256Y219359D01*
X154003Y219485D01*
X153777Y219627D01*
X153580Y219781D01*
X153411Y219951D01*
X153270Y220134D01*
X153157Y220317D01*
X153058Y220515D01*
X152988Y220698D01*
X152931Y220881D01*
X152875Y221050D01*
X152847Y221191D01*
X152833Y221332D01*
X152818Y221445D01*
X152804Y221530D01*
Y221586D01*
Y221600D01*
X152818Y221783D01*
X152833Y221967D01*
X152917Y222291D01*
X153030Y222587D01*
X153157Y222826D01*
X153284Y223024D01*
X153340Y223108D01*
X153397Y223179D01*
X153439Y223235D01*
X153481Y223278D01*
X153495Y223292D01*
X153509Y223306D01*
X153650Y223433D01*
X153791Y223545D01*
X153932Y223630D01*
X154073Y223715D01*
X154355Y223841D01*
X154623Y223926D01*
X154863Y223968D01*
X154961Y223997D01*
X155046D01*
X155116Y224011D01*
X157217D01*
X157344Y223997D01*
D02*
G37*
G36*
X148138D02*
X148237Y223954D01*
X148308Y223884D01*
X148350Y223813D01*
X148378Y223729D01*
X148406Y223672D01*
Y223616D01*
Y223602D01*
X148392Y223475D01*
X148336Y223376D01*
X148279Y223306D01*
X148195Y223263D01*
X148124Y223235D01*
X148054Y223207D01*
X146404D01*
X146221Y223193D01*
X146052Y223151D01*
X145911Y223094D01*
X145784Y223024D01*
X145685Y222953D01*
X145601Y222897D01*
X145559Y222855D01*
X145545Y222841D01*
X145432Y222700D01*
X145347Y222559D01*
X145277Y222418D01*
X145234Y222291D01*
X145206Y222164D01*
X145192Y222079D01*
Y222023D01*
Y221995D01*
X145206Y221812D01*
X145248Y221642D01*
X145305Y221501D01*
X145361Y221374D01*
X145432Y221276D01*
X145488Y221205D01*
X145530Y221149D01*
X145545Y221135D01*
X145685Y221022D01*
X145826Y220938D01*
X145967Y220881D01*
X146108Y220839D01*
X146221Y220811D01*
X146320Y220797D01*
X147208D01*
X147335Y220782D01*
X147434Y220740D01*
X147504Y220670D01*
X147546Y220599D01*
X147574Y220515D01*
X147603Y220458D01*
Y220402D01*
Y220388D01*
X147589Y220261D01*
X147546Y220162D01*
X147476Y220092D01*
X147405Y220049D01*
X147335Y220021D01*
X147264Y219993D01*
X146404D01*
X146221Y219979D01*
X146052Y219937D01*
X145911Y219880D01*
X145784Y219824D01*
X145685Y219753D01*
X145601Y219697D01*
X145559Y219655D01*
X145545Y219641D01*
X145432Y219500D01*
X145347Y219359D01*
X145277Y219218D01*
X145234Y219077D01*
X145206Y218964D01*
X145192Y218865D01*
Y218809D01*
Y218781D01*
Y217991D01*
X145206Y217808D01*
X145248Y217639D01*
X145305Y217498D01*
X145361Y217371D01*
X145432Y217272D01*
X145488Y217202D01*
X145530Y217145D01*
X145545Y217131D01*
X145685Y217019D01*
X145826Y216934D01*
X145967Y216877D01*
X146108Y216835D01*
X146221Y216807D01*
X146320Y216793D01*
X147997D01*
X148138Y216779D01*
X148237Y216737D01*
X148308Y216666D01*
X148350Y216596D01*
X148378Y216511D01*
X148406Y216455D01*
Y216398D01*
Y216384D01*
X148392Y216257D01*
X148336Y216159D01*
X148279Y216088D01*
X148195Y216046D01*
X148124Y216018D01*
X148054Y215989D01*
X146404D01*
X146108Y216018D01*
X145826Y216074D01*
X145587Y216173D01*
X145375Y216285D01*
X145206Y216384D01*
X145079Y216483D01*
X145009Y216539D01*
X144981Y216567D01*
X144783Y216793D01*
X144642Y217047D01*
X144529Y217272D01*
X144459Y217498D01*
X144417Y217695D01*
X144403Y217850D01*
X144389Y217907D01*
Y217949D01*
Y217977D01*
Y217991D01*
Y218781D01*
X144403Y218964D01*
X144417Y219133D01*
X144459Y219302D01*
X144515Y219457D01*
X144642Y219725D01*
X144783Y219965D01*
X144938Y220148D01*
X145065Y220275D01*
X145122Y220331D01*
X145164Y220359D01*
X145178Y220388D01*
X145192D01*
X145051Y220501D01*
X144924Y220627D01*
X144825Y220768D01*
X144727Y220895D01*
X144642Y221036D01*
X144586Y221163D01*
X144487Y221417D01*
X144431Y221642D01*
X144417Y221741D01*
X144403Y221826D01*
X144389Y221896D01*
Y221952D01*
Y221981D01*
Y221995D01*
X144417Y222291D01*
X144487Y222573D01*
X144572Y222812D01*
X144684Y223024D01*
X144797Y223193D01*
X144882Y223320D01*
X144952Y223390D01*
X144981Y223419D01*
X145206Y223616D01*
X145446Y223757D01*
X145685Y223870D01*
X145911Y223940D01*
X146108Y223982D01*
X146263Y223997D01*
X146320Y224011D01*
X147997D01*
X148138Y223997D01*
D02*
G37*
G36*
X111921Y297218D02*
X112019Y297162D01*
X112090Y297106D01*
X112104Y297092D01*
X112118Y297077D01*
X113683Y295513D01*
X113753Y295428D01*
X113781Y295329D01*
X113796Y295259D01*
Y295245D01*
Y295231D01*
X113781Y295104D01*
X113739Y295005D01*
X113669Y294935D01*
X113598Y294892D01*
X113528Y294864D01*
X113457Y294836D01*
X113401D01*
X113288Y294850D01*
X113189Y294892D01*
X113133Y294935D01*
X113119Y294949D01*
X112189Y295879D01*
Y289634D01*
X112174Y289507D01*
X112132Y289409D01*
X112062Y289338D01*
X111991Y289296D01*
X111921Y289268D01*
X111850Y289239D01*
X111794D01*
X111653Y289254D01*
X111554Y289296D01*
X111484Y289366D01*
X111441Y289437D01*
X111399Y289507D01*
X111385Y289578D01*
Y289620D01*
Y289634D01*
Y296838D01*
X111399Y296979D01*
X111441Y297077D01*
X111512Y297148D01*
X111582Y297190D01*
X111667Y297232D01*
X111723Y297246D01*
X111850D01*
X111921Y297218D01*
D02*
G37*
G36*
X132347Y297246D02*
X132446Y297204D01*
X132516Y297134D01*
X132559Y297063D01*
X132587Y296979D01*
X132615Y296922D01*
Y296866D01*
Y296852D01*
Y289634D01*
X132601Y289507D01*
X132559Y289409D01*
X132488Y289338D01*
X132418Y289296D01*
X132347Y289268D01*
X132277Y289239D01*
X129824D01*
X129528Y289268D01*
X129246Y289324D01*
X129006Y289423D01*
X128795Y289536D01*
X128626Y289634D01*
X128499Y289733D01*
X128428Y289789D01*
X128400Y289817D01*
X128203Y290043D01*
X128062Y290297D01*
X127949Y290522D01*
X127879Y290748D01*
X127836Y290945D01*
X127822Y291100D01*
X127808Y291157D01*
Y291199D01*
Y291227D01*
Y291241D01*
Y295245D01*
X127836Y295555D01*
X127907Y295823D01*
X127991Y296062D01*
X128104Y296274D01*
X128217Y296443D01*
X128301Y296570D01*
X128372Y296640D01*
X128400Y296668D01*
X128626Y296866D01*
X128865Y297007D01*
X129105Y297120D01*
X129330Y297190D01*
X129528Y297232D01*
X129683Y297246D01*
X129739Y297261D01*
X132220D01*
X132347Y297246D01*
D02*
G37*
G36*
X121507Y297232D02*
X121591Y297190D01*
X121662Y297148D01*
X121718Y297092D01*
X121760Y297021D01*
X121789Y296979D01*
X121803Y296936D01*
Y296922D01*
X124199Y289761D01*
X124213Y289676D01*
Y289648D01*
Y289634D01*
X124199Y289507D01*
X124143Y289409D01*
X124086Y289338D01*
X124002Y289296D01*
X123931Y289268D01*
X123861Y289239D01*
X123804D01*
X123706Y289254D01*
X123621Y289282D01*
X123565Y289324D01*
X123508Y289380D01*
X123438Y289465D01*
X123424Y289493D01*
Y289507D01*
X122846Y291241D01*
X119956D01*
X119378Y289507D01*
X119336Y289423D01*
X119279Y289352D01*
X119223Y289310D01*
X119152Y289268D01*
X119096Y289254D01*
X119040Y289239D01*
X118997D01*
X118870Y289254D01*
X118772Y289296D01*
X118701Y289366D01*
X118645Y289437D01*
X118617Y289507D01*
X118603Y289578D01*
Y289620D01*
Y289634D01*
Y289719D01*
X118617Y289747D01*
Y289761D01*
X121013Y296936D01*
X121055Y297035D01*
X121112Y297120D01*
X121182Y297176D01*
X121253Y297204D01*
X121309Y297232D01*
X121366Y297246D01*
X121408D01*
X121507Y297232D01*
D02*
G37*
G36*
X341733Y245695D02*
X341832Y245639D01*
X341902Y245582D01*
X341916Y245568D01*
X341930Y245554D01*
X343495Y243989D01*
X343566Y243905D01*
X343594Y243806D01*
X343608Y243735D01*
Y243721D01*
Y243707D01*
X343594Y243580D01*
X343551Y243482D01*
X343481Y243411D01*
X343410Y243369D01*
X343340Y243341D01*
X343270Y243312D01*
X343213D01*
X343100Y243327D01*
X343002Y243369D01*
X342945Y243411D01*
X342931Y243425D01*
X342001Y244356D01*
Y238111D01*
X341987Y237984D01*
X341944Y237885D01*
X341874Y237815D01*
X341803Y237772D01*
X341733Y237744D01*
X341662Y237716D01*
X341606D01*
X341465Y237730D01*
X341366Y237772D01*
X341296Y237843D01*
X341254Y237913D01*
X341211Y237984D01*
X341197Y238054D01*
Y238097D01*
Y238111D01*
Y245314D01*
X341211Y245455D01*
X341254Y245554D01*
X341324Y245624D01*
X341395Y245667D01*
X341479Y245709D01*
X341536Y245723D01*
X341662D01*
X341733Y245695D01*
D02*
G37*
G36*
X351516Y245709D02*
X351798Y245639D01*
X352038Y245554D01*
X352249Y245441D01*
X352419Y245328D01*
X352531Y245244D01*
X352616Y245173D01*
X352644Y245145D01*
X352841Y244920D01*
X352982Y244680D01*
X353081Y244440D01*
X353152Y244215D01*
X353194Y244017D01*
X353208Y243862D01*
X353222Y243806D01*
Y243764D01*
Y243735D01*
Y243721D01*
Y239718D01*
X353194Y239422D01*
X353137Y239140D01*
X353039Y238900D01*
X352926Y238689D01*
X352827Y238519D01*
X352729Y238407D01*
X352672Y238322D01*
X352644Y238294D01*
X352419Y238097D01*
X352165Y237956D01*
X351939Y237857D01*
X351714Y237787D01*
X351516Y237744D01*
X351361Y237730D01*
X351305Y237716D01*
X349627D01*
X349486Y237730D01*
X349388Y237772D01*
X349317Y237843D01*
X349275Y237913D01*
X349233Y237984D01*
X349218Y238054D01*
Y238097D01*
Y238111D01*
X349233Y238252D01*
X349275Y238350D01*
X349345Y238421D01*
X349416Y238463D01*
X349500Y238505D01*
X349557Y238519D01*
X351220D01*
X351404Y238534D01*
X351573Y238576D01*
X351714Y238632D01*
X351841Y238689D01*
X351939Y238745D01*
X352010Y238801D01*
X352066Y238844D01*
X352080Y238858D01*
X352193Y238999D01*
X352277Y239140D01*
X352334Y239281D01*
X352376Y239422D01*
X352404Y239534D01*
X352419Y239633D01*
Y239690D01*
Y239718D01*
Y243721D01*
X352404Y243905D01*
X352362Y244074D01*
X352306Y244215D01*
X352249Y244342D01*
X352193Y244440D01*
X352136Y244525D01*
X352094Y244567D01*
X352080Y244581D01*
X351939Y244694D01*
X351798Y244779D01*
X351657Y244849D01*
X351516Y244891D01*
X351404Y244920D01*
X351305Y244934D01*
X349627D01*
X349486Y244948D01*
X349388Y244990D01*
X349317Y245061D01*
X349275Y245131D01*
X349233Y245201D01*
X349218Y245272D01*
Y245314D01*
Y245328D01*
X349233Y245469D01*
X349275Y245568D01*
X349345Y245639D01*
X349416Y245681D01*
X349500Y245723D01*
X349557Y245737D01*
X351220D01*
X351516Y245709D01*
D02*
G37*
G36*
X333796Y245723D02*
X333994Y245667D01*
X334163Y245596D01*
X334332Y245498D01*
X334487Y245385D01*
X334614Y245258D01*
X334840Y244976D01*
X335023Y244694D01*
X335093Y244553D01*
X335150Y244440D01*
X335192Y244342D01*
X335220Y244271D01*
X335248Y244215D01*
Y244201D01*
X335361Y243792D01*
X335446Y243369D01*
X335502Y242960D01*
X335544Y242565D01*
X335559Y242396D01*
X335573Y242227D01*
Y242086D01*
X335587Y241959D01*
Y241861D01*
Y241790D01*
Y241734D01*
Y241720D01*
X335573Y241198D01*
X335530Y240733D01*
X335502Y240507D01*
X335474Y240310D01*
X335446Y240112D01*
X335418Y239943D01*
X335389Y239788D01*
X335361Y239647D01*
X335333Y239520D01*
X335305Y239422D01*
X335276Y239351D01*
X335262Y239281D01*
X335248Y239253D01*
Y239238D01*
X335150Y238971D01*
X335023Y238731D01*
X334896Y238534D01*
X334769Y238365D01*
X334628Y238209D01*
X334501Y238083D01*
X334360Y237984D01*
X334233Y237913D01*
X334106Y237843D01*
X333980Y237801D01*
X333881Y237758D01*
X333782Y237744D01*
X333712Y237730D01*
X333641Y237716D01*
X333599D01*
X333387Y237730D01*
X333204Y237787D01*
X333021Y237857D01*
X332866Y237956D01*
X332711Y238068D01*
X332584Y238195D01*
X332344Y238477D01*
X332175Y238759D01*
X332105Y238886D01*
X332048Y238999D01*
X332006Y239097D01*
X331978Y239168D01*
X331950Y239224D01*
Y239238D01*
X331837Y239647D01*
X331752Y240070D01*
X331682Y240479D01*
X331640Y240874D01*
X331625Y241043D01*
X331611Y241212D01*
Y241353D01*
X331597Y241480D01*
Y241579D01*
Y241663D01*
Y241705D01*
Y241720D01*
X331611Y242241D01*
X331654Y242720D01*
X331682Y242932D01*
X331710Y243143D01*
X331738Y243327D01*
X331766Y243496D01*
X331809Y243651D01*
X331837Y243792D01*
X331865Y243919D01*
X331893Y244017D01*
X331921Y244102D01*
X331936Y244158D01*
X331950Y244186D01*
Y244201D01*
X332048Y244468D01*
X332175Y244708D01*
X332302Y244920D01*
X332429Y245089D01*
X332570Y245244D01*
X332697Y245357D01*
X332838Y245469D01*
X332965Y245540D01*
X333092Y245610D01*
X333218Y245653D01*
X333317Y245695D01*
X333416Y245709D01*
X333486Y245723D01*
X333543Y245737D01*
X333599D01*
X333796Y245723D01*
D02*
G37*
G36*
X272701Y139982D02*
X272983Y139912D01*
X273223Y139827D01*
X273434Y139715D01*
X273603Y139602D01*
X273716Y139517D01*
X273801Y139447D01*
X273829Y139418D01*
X274027Y139193D01*
X274167Y138953D01*
X274266Y138714D01*
X274337Y138488D01*
X274379Y138291D01*
X274393Y138136D01*
X274407Y138079D01*
Y138037D01*
Y138009D01*
Y137995D01*
Y133991D01*
X274379Y133695D01*
X274322Y133413D01*
X274224Y133174D01*
X274111Y132962D01*
X274012Y132793D01*
X273914Y132680D01*
X273857Y132596D01*
X273829Y132567D01*
X273603Y132370D01*
X273350Y132229D01*
X273124Y132130D01*
X272899Y132060D01*
X272701Y132018D01*
X272546Y132003D01*
X272490Y131989D01*
X270812D01*
X270671Y132003D01*
X270573Y132046D01*
X270502Y132116D01*
X270460Y132187D01*
X270418Y132257D01*
X270403Y132328D01*
Y132370D01*
Y132384D01*
X270418Y132525D01*
X270460Y132624D01*
X270530Y132694D01*
X270601Y132737D01*
X270686Y132779D01*
X270742Y132793D01*
X272405D01*
X272589Y132807D01*
X272758Y132849D01*
X272899Y132906D01*
X273026Y132962D01*
X273124Y133019D01*
X273195Y133075D01*
X273251Y133117D01*
X273265Y133131D01*
X273378Y133272D01*
X273463Y133413D01*
X273519Y133554D01*
X273561Y133695D01*
X273589Y133808D01*
X273603Y133907D01*
Y133963D01*
Y133991D01*
Y137995D01*
X273589Y138178D01*
X273547Y138347D01*
X273491Y138488D01*
X273434Y138615D01*
X273378Y138714D01*
X273322Y138798D01*
X273279Y138841D01*
X273265Y138855D01*
X273124Y138967D01*
X272983Y139052D01*
X272842Y139122D01*
X272701Y139165D01*
X272589Y139193D01*
X272490Y139207D01*
X270812D01*
X270671Y139221D01*
X270573Y139263D01*
X270502Y139334D01*
X270460Y139404D01*
X270418Y139475D01*
X270403Y139545D01*
Y139588D01*
Y139602D01*
X270418Y139743D01*
X270460Y139841D01*
X270530Y139912D01*
X270601Y139954D01*
X270686Y139997D01*
X270742Y140011D01*
X272405D01*
X272701Y139982D01*
D02*
G37*
G36*
X263891Y139968D02*
X264159Y139898D01*
X264412Y139813D01*
X264610Y139700D01*
X264779Y139588D01*
X264906Y139503D01*
X264976Y139433D01*
X265004Y139404D01*
X265202Y139179D01*
X265343Y138939D01*
X265441Y138700D01*
X265512Y138474D01*
X265554Y138277D01*
X265568Y138122D01*
X265582Y138065D01*
Y138023D01*
Y137995D01*
Y137981D01*
Y137191D01*
X265554Y136895D01*
X265498Y136613D01*
X265399Y136374D01*
X265286Y136162D01*
X265188Y135993D01*
X265089Y135880D01*
X265033Y135796D01*
X265004Y135767D01*
X264779Y135570D01*
X264539Y135429D01*
X264300Y135330D01*
X264088Y135260D01*
X263891Y135218D01*
X263736Y135204D01*
X263679Y135189D01*
X262425D01*
X262467Y134950D01*
X262537Y134724D01*
X262608Y134513D01*
X262721Y134315D01*
X262833Y134118D01*
X262946Y133949D01*
X263073Y133780D01*
X263200Y133639D01*
X263327Y133512D01*
X263454Y133399D01*
X263566Y133300D01*
X263665Y133216D01*
X263736Y133145D01*
X263806Y133103D01*
X263848Y133075D01*
X263862Y133061D01*
X264102Y132934D01*
X264328Y132821D01*
X264426Y132779D01*
X264511Y132751D01*
X264567Y132737D01*
X264582Y132723D01*
X264652Y132694D01*
X264694Y132652D01*
X264751Y132539D01*
X264765Y132483D01*
X264779Y132426D01*
Y132398D01*
Y132384D01*
X264765Y132271D01*
X264722Y132187D01*
X264680Y132130D01*
X264666Y132102D01*
X264567Y132032D01*
X264483Y132003D01*
X264412Y131989D01*
X264384D01*
X264257Y132003D01*
X264130Y132046D01*
X263975Y132116D01*
X263820Y132187D01*
X263693Y132243D01*
X263581Y132314D01*
X263510Y132356D01*
X263482Y132370D01*
X263144Y132596D01*
X262862Y132849D01*
X262608Y133103D01*
X262382Y133371D01*
X262213Y133639D01*
X262058Y133907D01*
X261931Y134174D01*
X261833Y134428D01*
X261748Y134654D01*
X261692Y134879D01*
X261649Y135077D01*
X261621Y135246D01*
X261607Y135387D01*
X261593Y135500D01*
Y135556D01*
Y135584D01*
Y137995D01*
X261621Y138291D01*
X261692Y138573D01*
X261776Y138812D01*
X261889Y139010D01*
X262002Y139179D01*
X262086Y139306D01*
X262157Y139376D01*
X262185Y139404D01*
X262411Y139602D01*
X262650Y139743D01*
X262890Y139855D01*
X263101Y139926D01*
X263299Y139968D01*
X263454Y139982D01*
X263510Y139997D01*
X263595D01*
X263891Y139968D01*
D02*
G37*
G36*
X383701Y169982D02*
X383983Y169912D01*
X384223Y169827D01*
X384434Y169715D01*
X384604Y169602D01*
X384716Y169517D01*
X384801Y169447D01*
X384829Y169419D01*
X385027Y169193D01*
X385167Y168953D01*
X385266Y168714D01*
X385337Y168488D01*
X385379Y168291D01*
X385393Y168136D01*
X385407Y168079D01*
Y168037D01*
Y168009D01*
Y167995D01*
Y163991D01*
X385379Y163695D01*
X385322Y163413D01*
X385224Y163174D01*
X385111Y162962D01*
X385012Y162793D01*
X384914Y162680D01*
X384857Y162596D01*
X384829Y162567D01*
X384604Y162370D01*
X384350Y162229D01*
X384124Y162130D01*
X383899Y162060D01*
X383701Y162018D01*
X383546Y162003D01*
X383490Y161989D01*
X381812D01*
X381671Y162003D01*
X381573Y162046D01*
X381502Y162116D01*
X381460Y162187D01*
X381418Y162257D01*
X381404Y162328D01*
Y162370D01*
Y162384D01*
X381418Y162525D01*
X381460Y162624D01*
X381530Y162694D01*
X381601Y162737D01*
X381685Y162779D01*
X381742Y162793D01*
X383405D01*
X383589Y162807D01*
X383758Y162849D01*
X383899Y162906D01*
X384026Y162962D01*
X384124Y163018D01*
X384195Y163075D01*
X384251Y163117D01*
X384265Y163131D01*
X384378Y163272D01*
X384463Y163413D01*
X384519Y163554D01*
X384561Y163695D01*
X384590Y163808D01*
X384604Y163907D01*
Y163963D01*
Y163991D01*
Y167995D01*
X384590Y168178D01*
X384547Y168347D01*
X384491Y168488D01*
X384434Y168615D01*
X384378Y168714D01*
X384322Y168798D01*
X384279Y168841D01*
X384265Y168855D01*
X384124Y168967D01*
X383983Y169052D01*
X383842Y169123D01*
X383701Y169165D01*
X383589Y169193D01*
X383490Y169207D01*
X381812D01*
X381671Y169221D01*
X381573Y169263D01*
X381502Y169334D01*
X381460Y169404D01*
X381418Y169475D01*
X381404Y169545D01*
Y169588D01*
Y169602D01*
X381418Y169743D01*
X381460Y169841D01*
X381530Y169912D01*
X381601Y169954D01*
X381685Y169996D01*
X381742Y170011D01*
X383405D01*
X383701Y169982D01*
D02*
G37*
G36*
X374891Y169968D02*
X375159Y169898D01*
X375412Y169813D01*
X375610Y169701D01*
X375779Y169588D01*
X375906Y169503D01*
X375976Y169433D01*
X376004Y169404D01*
X376202Y169179D01*
X376343Y168939D01*
X376441Y168700D01*
X376512Y168474D01*
X376554Y168291D01*
X376568Y168136D01*
X376582Y168079D01*
Y168037D01*
Y168009D01*
Y167995D01*
X376568Y167812D01*
X376554Y167642D01*
X376512Y167473D01*
X376455Y167318D01*
X376329Y167050D01*
X376174Y166811D01*
X376033Y166627D01*
X375906Y166500D01*
X375849Y166444D01*
X375807Y166416D01*
X375793Y166402D01*
X375779Y166388D01*
X375920Y166275D01*
X376047Y166148D01*
X376145Y166021D01*
X376244Y165880D01*
X376315Y165753D01*
X376385Y165612D01*
X376484Y165359D01*
X376540Y165133D01*
X376554Y165034D01*
X376568Y164950D01*
X376582Y164879D01*
Y164823D01*
Y164795D01*
Y164781D01*
Y163991D01*
X376554Y163695D01*
X376498Y163413D01*
X376399Y163174D01*
X376286Y162962D01*
X376188Y162793D01*
X376089Y162680D01*
X376033Y162596D01*
X376004Y162567D01*
X375779Y162370D01*
X375539Y162229D01*
X375299Y162130D01*
X375088Y162060D01*
X374891Y162018D01*
X374736Y162003D01*
X374679Y161989D01*
X374595D01*
X374299Y162018D01*
X374017Y162074D01*
X373777Y162173D01*
X373580Y162285D01*
X373410Y162384D01*
X373284Y162483D01*
X373213Y162539D01*
X373185Y162567D01*
X372988Y162793D01*
X372847Y163047D01*
X372734Y163272D01*
X372663Y163498D01*
X372621Y163695D01*
X372607Y163850D01*
X372593Y163907D01*
Y163949D01*
Y163977D01*
Y163991D01*
Y164174D01*
Y164329D01*
Y164485D01*
X372607Y164626D01*
X372621Y164851D01*
Y165034D01*
X372635Y165161D01*
X372649Y165246D01*
X372663Y165302D01*
Y165316D01*
X372734Y165542D01*
X372847Y165753D01*
X372959Y165937D01*
X373086Y166092D01*
X373199Y166218D01*
X373298Y166303D01*
X373368Y166374D01*
X373396Y166388D01*
X373256Y166500D01*
X373129Y166627D01*
X373030Y166768D01*
X372931Y166895D01*
X372847Y167036D01*
X372790Y167163D01*
X372692Y167417D01*
X372635Y167642D01*
X372621Y167741D01*
X372607Y167826D01*
X372593Y167896D01*
Y167952D01*
Y167981D01*
Y167995D01*
X372621Y168291D01*
X372692Y168559D01*
X372776Y168798D01*
X372889Y169010D01*
X373002Y169179D01*
X373086Y169306D01*
X373157Y169376D01*
X373185Y169404D01*
X373410Y169602D01*
X373650Y169743D01*
X373890Y169855D01*
X374101Y169926D01*
X374299Y169968D01*
X374454Y169982D01*
X374510Y169996D01*
X374595D01*
X374891Y169968D01*
D02*
G37*
G36*
X383774Y262473D02*
X384056Y262402D01*
X384296Y262318D01*
X384507Y262205D01*
X384677Y262092D01*
X384789Y262008D01*
X384874Y261937D01*
X384902Y261909D01*
X385099Y261684D01*
X385240Y261444D01*
X385339Y261204D01*
X385410Y260979D01*
X385452Y260781D01*
X385466Y260626D01*
X385480Y260570D01*
Y260528D01*
Y260499D01*
Y260485D01*
Y256482D01*
X385452Y256186D01*
X385395Y255904D01*
X385297Y255664D01*
X385184Y255453D01*
X385085Y255284D01*
X384987Y255171D01*
X384930Y255086D01*
X384902Y255058D01*
X384677Y254861D01*
X384423Y254720D01*
X384197Y254621D01*
X383972Y254550D01*
X383774Y254508D01*
X383619Y254494D01*
X383563Y254480D01*
X381885D01*
X381744Y254494D01*
X381646Y254536D01*
X381575Y254607D01*
X381533Y254677D01*
X381491Y254748D01*
X381477Y254818D01*
Y254861D01*
Y254875D01*
X381491Y255016D01*
X381533Y255114D01*
X381603Y255185D01*
X381674Y255227D01*
X381758Y255269D01*
X381815Y255284D01*
X383478D01*
X383661Y255298D01*
X383831Y255340D01*
X383972Y255396D01*
X384099Y255453D01*
X384197Y255509D01*
X384268Y255565D01*
X384324Y255608D01*
X384338Y255622D01*
X384451Y255763D01*
X384535Y255904D01*
X384592Y256045D01*
X384634Y256186D01*
X384662Y256299D01*
X384677Y256397D01*
Y256454D01*
Y256482D01*
Y260485D01*
X384662Y260669D01*
X384620Y260838D01*
X384564Y260979D01*
X384507Y261106D01*
X384451Y261204D01*
X384394Y261289D01*
X384352Y261331D01*
X384338Y261345D01*
X384197Y261458D01*
X384056Y261543D01*
X383915Y261613D01*
X383774Y261655D01*
X383661Y261684D01*
X383563Y261698D01*
X381885D01*
X381744Y261712D01*
X381646Y261754D01*
X381575Y261824D01*
X381533Y261895D01*
X381491Y261966D01*
X381477Y262036D01*
Y262078D01*
Y262092D01*
X381491Y262233D01*
X381533Y262332D01*
X381603Y262402D01*
X381674Y262445D01*
X381758Y262487D01*
X381815Y262501D01*
X383478D01*
X383774Y262473D01*
D02*
G37*
G36*
X376401Y262487D02*
X376500Y262445D01*
X376571Y262374D01*
X376613Y262304D01*
X376641Y262219D01*
X376669Y262163D01*
Y262106D01*
Y262092D01*
X376655Y261966D01*
X376613Y261867D01*
X376543Y261796D01*
X376472Y261754D01*
X376401Y261726D01*
X376331Y261698D01*
X373568D01*
X374188Y258892D01*
X374668D01*
X374795Y258878D01*
X374893Y258836D01*
X374964Y258766D01*
X375006Y258695D01*
X375034Y258610D01*
X375062Y258554D01*
Y258498D01*
Y258484D01*
X375048Y258357D01*
X375006Y258258D01*
X374935Y258188D01*
X374865Y258145D01*
X374809Y258117D01*
X374738Y258089D01*
X374372D01*
X375062Y254959D01*
Y254903D01*
Y254889D01*
Y254875D01*
X375048Y254748D01*
X375006Y254649D01*
X374935Y254579D01*
X374865Y254536D01*
X374795Y254508D01*
X374724Y254480D01*
X374668D01*
X374555Y254494D01*
X374470Y254522D01*
X374400Y254579D01*
X374357Y254635D01*
X374315Y254692D01*
X374287Y254748D01*
X374273Y254776D01*
Y254790D01*
X373554Y258089D01*
X373060D01*
X372920Y258103D01*
X372821Y258145D01*
X372750Y258216D01*
X372708Y258286D01*
X372666Y258357D01*
X372652Y258427D01*
Y258470D01*
Y258484D01*
X372666Y258624D01*
X372708Y258723D01*
X372779Y258794D01*
X372849Y258836D01*
X372934Y258878D01*
X372990Y258892D01*
X373357D01*
X372666Y262008D01*
X372652Y262078D01*
Y262106D01*
X372680Y262233D01*
X372722Y262332D01*
X372793Y262402D01*
X372863Y262459D01*
X372934Y262487D01*
X373004Y262501D01*
X376275D01*
X376401Y262487D01*
D02*
G37*
G36*
X302748Y243931D02*
X303030Y243860D01*
X303270Y243776D01*
X303481Y243663D01*
X303650Y243550D01*
X303763Y243466D01*
X303848Y243395D01*
X303876Y243367D01*
X304073Y243142D01*
X304214Y242902D01*
X304313Y242662D01*
X304384Y242437D01*
X304426Y242239D01*
X304440Y242084D01*
X304454Y242028D01*
Y241986D01*
Y241957D01*
Y241943D01*
Y237940D01*
X304426Y237644D01*
X304369Y237362D01*
X304271Y237122D01*
X304158Y236911D01*
X304059Y236742D01*
X303961Y236629D01*
X303904Y236544D01*
X303876Y236516D01*
X303650Y236319D01*
X303397Y236178D01*
X303171Y236079D01*
X302946Y236008D01*
X302748Y235966D01*
X302593Y235952D01*
X302537Y235938D01*
X300859D01*
X300718Y235952D01*
X300620Y235994D01*
X300549Y236065D01*
X300507Y236135D01*
X300465Y236206D01*
X300450Y236276D01*
Y236319D01*
Y236333D01*
X300465Y236474D01*
X300507Y236572D01*
X300577Y236643D01*
X300648Y236685D01*
X300732Y236727D01*
X300789Y236742D01*
X302452D01*
X302635Y236756D01*
X302805Y236798D01*
X302946Y236854D01*
X303072Y236911D01*
X303171Y236967D01*
X303242Y237024D01*
X303298Y237066D01*
X303312Y237080D01*
X303425Y237221D01*
X303510Y237362D01*
X303566Y237503D01*
X303608Y237644D01*
X303636Y237757D01*
X303650Y237855D01*
Y237912D01*
Y237940D01*
Y241943D01*
X303636Y242127D01*
X303594Y242296D01*
X303538Y242437D01*
X303481Y242564D01*
X303425Y242662D01*
X303368Y242747D01*
X303326Y242789D01*
X303312Y242803D01*
X303171Y242916D01*
X303030Y243001D01*
X302889Y243071D01*
X302748Y243113D01*
X302635Y243142D01*
X302537Y243156D01*
X300859D01*
X300718Y243170D01*
X300620Y243212D01*
X300549Y243283D01*
X300507Y243353D01*
X300465Y243424D01*
X300450Y243494D01*
Y243536D01*
Y243550D01*
X300465Y243691D01*
X300507Y243790D01*
X300577Y243860D01*
X300648Y243903D01*
X300732Y243945D01*
X300789Y243959D01*
X302452D01*
X302748Y243931D01*
D02*
G37*
G36*
X292965D02*
X293078Y243903D01*
X293162Y243860D01*
X293190Y243846D01*
X293205D01*
X293515Y243706D01*
X293797Y243522D01*
X294050Y243339D01*
X294290Y243156D01*
X294473Y242987D01*
X294614Y242845D01*
X294671Y242789D01*
X294713Y242747D01*
X294727Y242733D01*
X294741Y242719D01*
X294896Y242521D01*
X295037Y242324D01*
X295150Y242113D01*
X295249Y241915D01*
X295333Y241704D01*
X295418Y241506D01*
X295516Y241140D01*
X295559Y240971D01*
X295587Y240816D01*
X295601Y240689D01*
X295615Y240562D01*
X295629Y240463D01*
Y240393D01*
Y240350D01*
Y240336D01*
Y237926D01*
X295601Y237630D01*
X295545Y237362D01*
X295446Y237108D01*
X295333Y236911D01*
X295235Y236742D01*
X295136Y236615D01*
X295079Y236544D01*
X295051Y236516D01*
X294826Y236319D01*
X294586Y236178D01*
X294347Y236079D01*
X294135Y236008D01*
X293938Y235966D01*
X293783Y235952D01*
X293726Y235938D01*
X293642D01*
X293346Y235966D01*
X293064Y236023D01*
X292824Y236121D01*
X292627Y236234D01*
X292458Y236333D01*
X292331Y236431D01*
X292260Y236488D01*
X292232Y236516D01*
X292034Y236742D01*
X291894Y236981D01*
X291781Y237221D01*
X291710Y237446D01*
X291668Y237644D01*
X291654Y237799D01*
X291640Y237855D01*
Y237897D01*
Y237926D01*
Y237940D01*
Y238729D01*
X291668Y239039D01*
X291724Y239307D01*
X291823Y239547D01*
X291922Y239758D01*
X292034Y239928D01*
X292133Y240054D01*
X292190Y240125D01*
X292218Y240153D01*
X292443Y240350D01*
X292683Y240491D01*
X292923Y240604D01*
X293148Y240675D01*
X293346Y240717D01*
X293501Y240731D01*
X293557Y240745D01*
X294798D01*
X294755Y241013D01*
X294671Y241267D01*
X294572Y241492D01*
X294473Y241704D01*
X294361Y241873D01*
X294276Y242014D01*
X294220Y242098D01*
X294191Y242113D01*
Y242127D01*
X294065Y242282D01*
X293938Y242423D01*
X293670Y242648D01*
X293416Y242831D01*
X293176Y242987D01*
X292965Y243085D01*
X292880Y243113D01*
X292796Y243156D01*
X292739Y243170D01*
X292697Y243184D01*
X292669Y243198D01*
X292655D01*
X292584Y243226D01*
X292528Y243268D01*
X292500Y243325D01*
X292472Y243381D01*
X292458Y243438D01*
X292443Y243494D01*
Y243522D01*
Y243536D01*
X292458Y243677D01*
X292500Y243776D01*
X292570Y243846D01*
X292641Y243889D01*
X292725Y243931D01*
X292782Y243945D01*
X292852D01*
X292965Y243931D01*
D02*
G37*
%LPC*%
G36*
X384801Y191207D02*
X383208D01*
X382968Y191193D01*
X382743Y191137D01*
X382545Y191052D01*
X382376Y190967D01*
X382249Y190883D01*
X382151Y190798D01*
X382080Y190742D01*
X382066Y190728D01*
X381911Y190544D01*
X381798Y190361D01*
X381714Y190164D01*
X381657Y189995D01*
X381629Y189840D01*
X381601Y189713D01*
Y189628D01*
Y189614D01*
Y189600D01*
X381615Y189360D01*
X381671Y189135D01*
X381742Y188937D01*
X381826Y188782D01*
X381925Y188641D01*
X381996Y188543D01*
X382052Y188486D01*
X382066Y188458D01*
X382249Y188303D01*
X382447Y188190D01*
X382630Y188106D01*
X382813Y188049D01*
X382968Y188021D01*
X383095Y188007D01*
X383180Y187993D01*
X384801D01*
Y191207D01*
D02*
G37*
G36*
X375582Y187993D02*
X374397D01*
X374214Y187979D01*
X374059Y187937D01*
X373918Y187880D01*
X373791Y187824D01*
X373693Y187753D01*
X373608Y187697D01*
X373566Y187655D01*
X373551Y187640D01*
X373439Y187500D01*
X373354Y187359D01*
X373284Y187218D01*
X373241Y187077D01*
X373213Y186964D01*
X373199Y186865D01*
Y186809D01*
Y186781D01*
Y185991D01*
X373213Y185808D01*
X373256Y185639D01*
X373312Y185498D01*
X373368Y185371D01*
X373439Y185272D01*
X373495Y185202D01*
X373537Y185145D01*
X373551Y185131D01*
X373693Y185019D01*
X373833Y184934D01*
X373974Y184877D01*
X374101Y184835D01*
X374228Y184807D01*
X374313Y184793D01*
X374397D01*
X374581Y184807D01*
X374736Y184849D01*
X374877Y184906D01*
X375004Y184962D01*
X375102Y185019D01*
X375187Y185075D01*
X375229Y185117D01*
X375243Y185131D01*
X375356Y185272D01*
X375440Y185413D01*
X375497Y185554D01*
X375539Y185695D01*
X375567Y185808D01*
X375582Y185907D01*
Y185963D01*
Y185991D01*
Y187993D01*
D02*
G37*
G36*
X274801Y195207D02*
X273208D01*
X272968Y195193D01*
X272743Y195137D01*
X272545Y195052D01*
X272376Y194967D01*
X272249Y194883D01*
X272151Y194798D01*
X272080Y194742D01*
X272066Y194728D01*
X271911Y194545D01*
X271798Y194361D01*
X271714Y194164D01*
X271657Y193995D01*
X271629Y193840D01*
X271601Y193713D01*
Y193628D01*
Y193614D01*
Y193600D01*
X271615Y193360D01*
X271671Y193135D01*
X271742Y192938D01*
X271826Y192782D01*
X271925Y192641D01*
X271996Y192543D01*
X272052Y192486D01*
X272066Y192458D01*
X272249Y192303D01*
X272447Y192190D01*
X272630Y192106D01*
X272813Y192049D01*
X272968Y192021D01*
X273095Y192007D01*
X273180Y191993D01*
X274801D01*
Y195207D01*
D02*
G37*
G36*
X167005Y198207D02*
X165412D01*
X165173Y198193D01*
X164947Y198137D01*
X164750Y198052D01*
X164581Y197967D01*
X164454Y197883D01*
X164355Y197798D01*
X164285Y197742D01*
X164270Y197728D01*
X164115Y197544D01*
X164003Y197361D01*
X163918Y197164D01*
X163862Y196995D01*
X163834Y196840D01*
X163805Y196713D01*
Y196628D01*
Y196614D01*
Y196600D01*
X163819Y196360D01*
X163876Y196135D01*
X163946Y195938D01*
X164031Y195782D01*
X164130Y195641D01*
X164200Y195543D01*
X164256Y195486D01*
X164270Y195458D01*
X164454Y195303D01*
X164651Y195190D01*
X164834Y195106D01*
X165018Y195049D01*
X165173Y195021D01*
X165300Y195007D01*
X165384Y194993D01*
X167005D01*
Y198207D01*
D02*
G37*
G36*
X156808Y223207D02*
X155215D01*
X154975Y223193D01*
X154750Y223137D01*
X154552Y223052D01*
X154383Y222967D01*
X154256Y222883D01*
X154158Y222798D01*
X154087Y222742D01*
X154073Y222728D01*
X153918Y222544D01*
X153805Y222361D01*
X153721Y222164D01*
X153664Y221995D01*
X153636Y221840D01*
X153608Y221713D01*
Y221628D01*
Y221614D01*
Y221600D01*
X153622Y221360D01*
X153678Y221135D01*
X153749Y220938D01*
X153834Y220782D01*
X153932Y220641D01*
X154003Y220543D01*
X154059Y220486D01*
X154073Y220458D01*
X154256Y220303D01*
X154454Y220190D01*
X154637Y220106D01*
X154820Y220049D01*
X154975Y220021D01*
X155102Y220007D01*
X155187Y219993D01*
X156808D01*
Y223207D01*
D02*
G37*
G36*
X131812Y296457D02*
X129824D01*
X129641Y296443D01*
X129471Y296401D01*
X129330Y296344D01*
X129204Y296288D01*
X129105Y296217D01*
X129020Y296161D01*
X128978Y296119D01*
X128964Y296105D01*
X128851Y295964D01*
X128767Y295823D01*
X128696Y295682D01*
X128654Y295541D01*
X128626Y295428D01*
X128611Y295329D01*
Y295273D01*
Y295245D01*
Y291241D01*
X128626Y291058D01*
X128668Y290889D01*
X128724Y290748D01*
X128781Y290621D01*
X128851Y290522D01*
X128907Y290452D01*
X128950Y290395D01*
X128964Y290381D01*
X129105Y290268D01*
X129246Y290184D01*
X129387Y290128D01*
X129528Y290085D01*
X129641Y290057D01*
X129739Y290043D01*
X131812D01*
Y296457D01*
D02*
G37*
G36*
X121408Y295569D02*
X120224Y292045D01*
X122578D01*
X121408Y295569D01*
D02*
G37*
G36*
X333627Y244934D02*
X333599D01*
X333472Y244920D01*
X333359Y244877D01*
X333261Y244807D01*
X333162Y244722D01*
X333077Y244624D01*
X332993Y244511D01*
X332852Y244271D01*
X332753Y244017D01*
X332711Y243905D01*
X332669Y243806D01*
X332640Y243721D01*
X332626Y243651D01*
X332612Y243609D01*
Y243594D01*
X332542Y243270D01*
X332485Y242932D01*
X332457Y242622D01*
X332429Y242326D01*
X332415Y242086D01*
X332401Y241973D01*
Y241889D01*
Y241818D01*
Y241762D01*
Y241734D01*
Y241720D01*
X332415Y241353D01*
X332429Y241015D01*
X332471Y240690D01*
X332499Y240408D01*
X332542Y240183D01*
X332556Y240084D01*
X332584Y240000D01*
X332598Y239929D01*
Y239887D01*
X332612Y239859D01*
Y239845D01*
X332683Y239605D01*
X332753Y239408D01*
X332824Y239224D01*
X332908Y239083D01*
X332979Y238957D01*
X333063Y238844D01*
X333148Y238759D01*
X333232Y238689D01*
X333303Y238632D01*
X333373Y238590D01*
X333486Y238548D01*
X333571Y238519D01*
X333599D01*
X333726Y238534D01*
X333825Y238576D01*
X333937Y238646D01*
X334036Y238731D01*
X334121Y238830D01*
X334205Y238942D01*
X334346Y239182D01*
X334445Y239422D01*
X334487Y239534D01*
X334529Y239633D01*
X334558Y239718D01*
X334572Y239788D01*
X334586Y239831D01*
Y239845D01*
X334656Y240183D01*
X334698Y240507D01*
X334741Y240831D01*
X334755Y241113D01*
X334769Y241367D01*
X334783Y241466D01*
Y241550D01*
Y241621D01*
Y241677D01*
Y241705D01*
Y241720D01*
X334769Y242086D01*
X334755Y242424D01*
X334713Y242735D01*
X334670Y243016D01*
X334642Y243256D01*
X334614Y243355D01*
X334600Y243439D01*
X334586Y243510D01*
Y243552D01*
X334572Y243580D01*
Y243594D01*
X334515Y243834D01*
X334445Y244032D01*
X334360Y244215D01*
X334290Y244370D01*
X334205Y244497D01*
X334121Y244609D01*
X334050Y244694D01*
X333965Y244764D01*
X333895Y244821D01*
X333825Y244863D01*
X333712Y244920D01*
X333627Y244934D01*
D02*
G37*
G36*
X263679Y139193D02*
X263595D01*
X263411Y139179D01*
X263256Y139137D01*
X263115Y139080D01*
X262988Y139024D01*
X262890Y138953D01*
X262805Y138897D01*
X262763Y138855D01*
X262749Y138841D01*
X262636Y138700D01*
X262551Y138559D01*
X262481Y138418D01*
X262439Y138291D01*
X262411Y138164D01*
X262396Y138079D01*
Y138023D01*
Y137995D01*
Y135993D01*
X263595D01*
X263778Y136007D01*
X263933Y136049D01*
X264074Y136106D01*
X264201Y136162D01*
X264300Y136219D01*
X264384Y136275D01*
X264426Y136317D01*
X264440Y136331D01*
X264553Y136472D01*
X264638Y136613D01*
X264694Y136754D01*
X264736Y136895D01*
X264765Y137008D01*
X264779Y137107D01*
Y137163D01*
Y137191D01*
Y137995D01*
X264765Y138178D01*
X264722Y138333D01*
X264666Y138474D01*
X264610Y138601D01*
X264553Y138700D01*
X264497Y138784D01*
X264455Y138827D01*
X264440Y138841D01*
X264300Y138953D01*
X264159Y139038D01*
X264018Y139108D01*
X263891Y139151D01*
X263764Y139179D01*
X263679Y139193D01*
D02*
G37*
G36*
X374679Y169193D02*
X374595D01*
X374411Y169179D01*
X374256Y169137D01*
X374115Y169080D01*
X373988Y169024D01*
X373890Y168953D01*
X373805Y168897D01*
X373763Y168855D01*
X373749Y168841D01*
X373636Y168700D01*
X373551Y168559D01*
X373481Y168418D01*
X373439Y168291D01*
X373410Y168164D01*
X373396Y168079D01*
Y168023D01*
Y167995D01*
X373410Y167812D01*
X373453Y167642D01*
X373509Y167501D01*
X373566Y167374D01*
X373636Y167276D01*
X373693Y167205D01*
X373735Y167149D01*
X373749Y167135D01*
X373890Y167022D01*
X374031Y166938D01*
X374172Y166881D01*
X374299Y166839D01*
X374426Y166811D01*
X374510Y166796D01*
X374595D01*
X374778Y166811D01*
X374933Y166853D01*
X375074Y166909D01*
X375201Y166966D01*
X375299Y167022D01*
X375384Y167078D01*
X375426Y167121D01*
X375440Y167135D01*
X375553Y167276D01*
X375638Y167417D01*
X375694Y167558D01*
X375737Y167699D01*
X375765Y167812D01*
X375779Y167910D01*
Y167966D01*
Y167995D01*
X375765Y168178D01*
X375722Y168347D01*
X375666Y168488D01*
X375610Y168615D01*
X375553Y168714D01*
X375497Y168784D01*
X375455Y168827D01*
X375440Y168841D01*
X375299Y168953D01*
X375159Y169038D01*
X375018Y169108D01*
X374891Y169151D01*
X374764Y169179D01*
X374679Y169193D01*
D02*
G37*
G36*
Y165993D02*
X374595D01*
X374411Y165979D01*
X374256Y165937D01*
X374115Y165880D01*
X373988Y165824D01*
X373890Y165753D01*
X373805Y165697D01*
X373763Y165655D01*
X373749Y165641D01*
X373636Y165500D01*
X373551Y165359D01*
X373481Y165218D01*
X373439Y165091D01*
X373410Y164964D01*
X373396Y164879D01*
Y164823D01*
Y164795D01*
Y163991D01*
X373410Y163808D01*
X373453Y163639D01*
X373509Y163498D01*
X373566Y163371D01*
X373636Y163272D01*
X373693Y163202D01*
X373735Y163145D01*
X373749Y163131D01*
X373890Y163018D01*
X374031Y162934D01*
X374172Y162878D01*
X374299Y162835D01*
X374426Y162807D01*
X374510Y162793D01*
X374595D01*
X374778Y162807D01*
X374933Y162849D01*
X375074Y162906D01*
X375201Y162962D01*
X375299Y163018D01*
X375384Y163075D01*
X375426Y163117D01*
X375440Y163131D01*
X375553Y163272D01*
X375638Y163413D01*
X375694Y163554D01*
X375737Y163695D01*
X375765Y163808D01*
X375779Y163907D01*
Y163963D01*
Y163991D01*
Y164795D01*
X375765Y164978D01*
X375722Y165133D01*
X375666Y165274D01*
X375610Y165401D01*
X375553Y165500D01*
X375497Y165584D01*
X375455Y165626D01*
X375440Y165641D01*
X375299Y165753D01*
X375159Y165838D01*
X375018Y165908D01*
X374891Y165951D01*
X374764Y165979D01*
X374679Y165993D01*
D02*
G37*
G36*
X294826Y239942D02*
X293642D01*
X293458Y239928D01*
X293303Y239885D01*
X293162Y239829D01*
X293035Y239772D01*
X292937Y239702D01*
X292852Y239646D01*
X292810Y239603D01*
X292796Y239589D01*
X292683Y239448D01*
X292598Y239307D01*
X292528Y239166D01*
X292486Y239025D01*
X292458Y238913D01*
X292443Y238814D01*
Y238757D01*
Y238729D01*
Y237940D01*
X292458Y237757D01*
X292500Y237587D01*
X292556Y237446D01*
X292612Y237320D01*
X292683Y237221D01*
X292739Y237150D01*
X292782Y237094D01*
X292796Y237080D01*
X292937Y236967D01*
X293078Y236882D01*
X293219Y236826D01*
X293346Y236784D01*
X293472Y236756D01*
X293557Y236742D01*
X293642D01*
X293825Y236756D01*
X293980Y236798D01*
X294121Y236854D01*
X294248Y236911D01*
X294347Y236967D01*
X294431Y237024D01*
X294473Y237066D01*
X294487Y237080D01*
X294600Y237221D01*
X294685Y237362D01*
X294741Y237503D01*
X294783Y237644D01*
X294812Y237757D01*
X294826Y237855D01*
Y237912D01*
Y237940D01*
Y239942D01*
D02*
G37*
%LPD*%
D10*
X325400Y178840D02*
Y198140D01*
X359050D01*
X325400Y178840D02*
X359050Y178840D01*
Y198140D01*
X104100Y202400D02*
Y221700D01*
X137749D01*
X104100Y202400D02*
X137749Y202400D01*
Y221700D01*
X178860Y167310D02*
Y186610D01*
X145210Y167310D02*
X178860D01*
X145210Y186610D02*
X178860Y186610D01*
X145210Y167310D02*
Y186610D01*
X371880Y141080D02*
X386380D01*
Y126730D02*
Y155580D01*
X371880Y126580D02*
X386380D01*
X371880Y126730D02*
Y155430D01*
Y155580D02*
X386380D01*
X284900Y163300D02*
Y182600D01*
X251250Y163300D02*
X284900D01*
X251250Y182600D02*
X284900Y182600D01*
X251250Y163300D02*
Y182600D01*
X270749Y144360D02*
Y158860D01*
X256399Y144360D02*
X285250D01*
X256249D02*
Y158860D01*
X256399D02*
X285099D01*
X285250Y144360D02*
Y158860D01*
X333000Y216750D02*
X347500D01*
X333000Y202250D02*
Y231100D01*
Y231250D02*
X347500D01*
Y202400D02*
Y231100D01*
X333000Y202250D02*
X347500D01*
X374250Y233500D02*
X388750D01*
Y219150D02*
Y248000D01*
X374250Y219000D02*
X388750D01*
X374250Y219150D02*
Y247850D01*
Y248000D02*
X388750D01*
X293140Y214740D02*
X307640D01*
X293140Y200240D02*
Y229090D01*
Y229240D02*
X307640D01*
Y200390D02*
Y229090D01*
X293140Y200240D02*
X307640D01*
D11*
X113200Y255250D02*
Y269250D01*
X143600Y255250D02*
Y269250D01*
X113200Y255250D02*
X114200D01*
X113200Y269250D02*
X114200D01*
X142600Y255250D02*
X143600D01*
X142600Y269250D02*
X143600D01*
D54*
X121130Y283250D02*
X119130D01*
X121130D01*
M02*
