G04*
G04 #@! TF.GenerationSoftware,Altium Limited,Altium Designer,20.2.5 (213)*
G04*
G04 Layer_Physical_Order=1*
G04 Layer_Color=255*
%FSLAX44Y44*%
%MOMM*%
G71*
G04*
G04 #@! TF.SameCoordinates,3C0D8923-7957-4DC4-8908-925B2C91420C*
G04*
G04*
G04 #@! TF.FilePolarity,Positive*
G04*
G01*
G75*
%ADD13C,0.2540*%
G04:AMPARAMS|DCode=14|XSize=0.3mm|YSize=1.9mm|CornerRadius=0.015mm|HoleSize=0mm|Usage=FLASHONLY|Rotation=90.000|XOffset=0mm|YOffset=0mm|HoleType=Round|Shape=RoundedRectangle|*
%AMROUNDEDRECTD14*
21,1,0.3000,1.8700,0,0,90.0*
21,1,0.2700,1.9000,0,0,90.0*
1,1,0.0300,0.9350,0.1350*
1,1,0.0300,0.9350,-0.1350*
1,1,0.0300,-0.9350,-0.1350*
1,1,0.0300,-0.9350,0.1350*
%
%ADD14ROUNDEDRECTD14*%
G04:AMPARAMS|DCode=15|XSize=0.3mm|YSize=1.9mm|CornerRadius=0.015mm|HoleSize=0mm|Usage=FLASHONLY|Rotation=180.000|XOffset=0mm|YOffset=0mm|HoleType=Round|Shape=RoundedRectangle|*
%AMROUNDEDRECTD15*
21,1,0.3000,1.8700,0,0,180.0*
21,1,0.2700,1.9000,0,0,180.0*
1,1,0.0300,-0.1350,0.9350*
1,1,0.0300,0.1350,0.9350*
1,1,0.0300,0.1350,-0.9350*
1,1,0.0300,-0.1350,-0.9350*
%
%ADD15ROUNDEDRECTD15*%
G04:AMPARAMS|DCode=16|XSize=2.5mm|YSize=2mm|CornerRadius=0.1mm|HoleSize=0mm|Usage=FLASHONLY|Rotation=180.000|XOffset=0mm|YOffset=0mm|HoleType=Round|Shape=RoundedRectangle|*
%AMROUNDEDRECTD16*
21,1,2.5000,1.8000,0,0,180.0*
21,1,2.3000,2.0000,0,0,180.0*
1,1,0.2000,-1.1500,0.9000*
1,1,0.2000,1.1500,0.9000*
1,1,0.2000,1.1500,-0.9000*
1,1,0.2000,-1.1500,-0.9000*
%
%ADD16ROUNDEDRECTD16*%
%ADD17O,2.2500X0.5000*%
%ADD18R,0.2540X0.9000*%
%ADD19R,0.9000X0.2540*%
G04:AMPARAMS|DCode=20|XSize=1.1mm|YSize=1.4mm|CornerRadius=0.055mm|HoleSize=0mm|Usage=FLASHONLY|Rotation=90.000|XOffset=0mm|YOffset=0mm|HoleType=Round|Shape=RoundedRectangle|*
%AMROUNDEDRECTD20*
21,1,1.1000,1.2900,0,0,90.0*
21,1,0.9900,1.4000,0,0,90.0*
1,1,0.1100,0.6450,0.4950*
1,1,0.1100,0.6450,-0.4950*
1,1,0.1100,-0.6450,-0.4950*
1,1,0.1100,-0.6450,0.4950*
%
%ADD20ROUNDEDRECTD20*%
G04:AMPARAMS|DCode=21|XSize=1.1mm|YSize=1.4mm|CornerRadius=0.055mm|HoleSize=0mm|Usage=FLASHONLY|Rotation=0.000|XOffset=0mm|YOffset=0mm|HoleType=Round|Shape=RoundedRectangle|*
%AMROUNDEDRECTD21*
21,1,1.1000,1.2900,0,0,0.0*
21,1,0.9900,1.4000,0,0,0.0*
1,1,0.1100,0.4950,-0.6450*
1,1,0.1100,-0.4950,-0.6450*
1,1,0.1100,-0.4950,0.6450*
1,1,0.1100,0.4950,0.6450*
%
%ADD21ROUNDEDRECTD21*%
G04:AMPARAMS|DCode=22|XSize=0.95mm|YSize=0.95mm|CornerRadius=0.0475mm|HoleSize=0mm|Usage=FLASHONLY|Rotation=180.000|XOffset=0mm|YOffset=0mm|HoleType=Round|Shape=RoundedRectangle|*
%AMROUNDEDRECTD22*
21,1,0.9500,0.8550,0,0,180.0*
21,1,0.8550,0.9500,0,0,180.0*
1,1,0.0950,-0.4275,0.4275*
1,1,0.0950,0.4275,0.4275*
1,1,0.0950,0.4275,-0.4275*
1,1,0.0950,-0.4275,-0.4275*
%
%ADD22ROUNDEDRECTD22*%
%ADD23R,2.5000X1.5000*%
G04:AMPARAMS|DCode=24|XSize=1.5mm|YSize=1.3mm|CornerRadius=0.325mm|HoleSize=0mm|Usage=FLASHONLY|Rotation=90.000|XOffset=0mm|YOffset=0mm|HoleType=Round|Shape=RoundedRectangle|*
%AMROUNDEDRECTD24*
21,1,1.5000,0.6500,0,0,90.0*
21,1,0.8500,1.3000,0,0,90.0*
1,1,0.6500,0.3250,0.4250*
1,1,0.6500,0.3250,-0.4250*
1,1,0.6500,-0.3250,-0.4250*
1,1,0.6500,-0.3250,0.4250*
%
%ADD24ROUNDEDRECTD24*%
%ADD41R,3.1000X3.1000*%
%ADD42C,0.1650*%
%ADD43C,1.0000*%
%ADD44C,3.0000*%
%ADD45C,1.6000*%
%ADD46C,1.3000*%
%ADD47C,0.4060*%
G36*
X169940Y290690D02*
X169941Y290690D01*
Y281750D01*
X170000Y281455D01*
Y277784D01*
X169924Y277670D01*
X169691Y276500D01*
Y241000D01*
X138646D01*
X138000Y241129D01*
X137354Y241000D01*
X119646D01*
X119000Y241129D01*
X118354Y241000D01*
X114000D01*
Y236646D01*
X113871Y236000D01*
X114000Y235354D01*
Y198000D01*
X99827D01*
X99496Y198221D01*
X97350Y198648D01*
X79850D01*
X78270Y198333D01*
X77136Y199073D01*
X77000Y199277D01*
Y216000D01*
X105000D01*
Y242216D01*
X105076Y242330D01*
X105309Y243500D01*
Y289483D01*
X106554Y290250D01*
X106562D01*
X106810Y290353D01*
X106855Y290362D01*
X106886Y290374D01*
X107136Y290424D01*
X107349Y290566D01*
X107555Y290651D01*
X108051Y290750D01*
X109449D01*
X110294Y290582D01*
X110350Y290559D01*
X110651Y290559D01*
X110946Y290500D01*
X132554D01*
X132849Y290559D01*
X133150Y290559D01*
X133206Y290582D01*
X134051Y290750D01*
X169640D01*
X169940Y290690D01*
D02*
G37*
G36*
X242091Y304491D02*
X242459Y303218D01*
X240475Y301695D01*
X238711Y299398D01*
X237603Y296722D01*
X237225Y293850D01*
X237603Y290978D01*
X238711Y288302D01*
X240475Y286005D01*
X242773Y284242D01*
X245190Y283240D01*
Y281750D01*
X173000D01*
Y293250D01*
X171600D01*
X171112Y293576D01*
X169941Y293809D01*
X133750D01*
X132579Y293576D01*
X132554Y293559D01*
X110946D01*
X110920Y293576D01*
X109750Y293809D01*
X107750D01*
X106580Y293576D01*
X106259Y293362D01*
X106080Y293326D01*
X105966Y293250D01*
X102250D01*
Y243500D01*
X72000D01*
Y239688D01*
X71772Y238540D01*
Y220540D01*
X72000Y219392D01*
Y208939D01*
X70730Y208855D01*
X70694Y209128D01*
X69888Y211075D01*
X68606Y212746D01*
X66934Y214028D01*
X64988Y214834D01*
X62900Y215109D01*
X60812Y214834D01*
X58865Y214028D01*
X57194Y212746D01*
X55912Y211075D01*
X55106Y209128D01*
X54831Y207040D01*
X55106Y204952D01*
X55912Y203006D01*
X57194Y201334D01*
X58865Y200052D01*
X60812Y199246D01*
X62900Y198971D01*
X64988Y199246D01*
X66934Y200052D01*
X68606Y201334D01*
X69888Y203006D01*
X70694Y204952D01*
X70730Y205225D01*
X72000Y205141D01*
Y171500D01*
X79509D01*
X79850Y171432D01*
X97350D01*
X97691Y171500D01*
X118750D01*
Y143500D01*
X205250D01*
Y132334D01*
X205000Y132128D01*
X203037Y131738D01*
X201374Y130626D01*
X200262Y128963D01*
X199872Y127000D01*
X200262Y125037D01*
X201374Y123374D01*
X203037Y122262D01*
X205000Y121872D01*
X205250Y121666D01*
Y116000D01*
X144500D01*
Y91026D01*
X143230Y90348D01*
X143175Y90384D01*
X141790Y90660D01*
X131890D01*
X130505Y90384D01*
X129331Y89599D01*
X128546Y88425D01*
X128271Y87040D01*
Y74140D01*
X128546Y72755D01*
X129331Y71581D01*
X130505Y70796D01*
X131890Y70521D01*
X134164D01*
Y63410D01*
X134164Y63410D01*
X134368Y62385D01*
X134948Y61517D01*
X148357Y48108D01*
X148357Y48108D01*
X149226Y47527D01*
X150250Y47324D01*
X150250Y47324D01*
X242750D01*
Y47013D01*
X244020Y47195D01*
X273577Y17638D01*
X273577Y17637D01*
X274446Y17057D01*
X275470Y16854D01*
X275470Y16854D01*
X294727D01*
X294753Y16658D01*
X295861Y13982D01*
X297625Y11685D01*
X299923Y9922D01*
X302598Y8813D01*
X305470Y8435D01*
X308342Y8813D01*
X311017Y9922D01*
X313315Y11685D01*
X315079Y13982D01*
X316187Y16658D01*
X316565Y19530D01*
X316187Y22402D01*
X315079Y25078D01*
X313315Y27375D01*
X311017Y29139D01*
X308342Y30247D01*
X305470Y30625D01*
X302598Y30247D01*
X299923Y29139D01*
X297625Y27375D01*
X295861Y25078D01*
X294753Y22402D01*
X294727Y22206D01*
X276579D01*
X247676Y51109D01*
Y118000D01*
X304914D01*
X305400Y116827D01*
X297703Y109130D01*
X274958D01*
X274626Y109627D01*
X272963Y110738D01*
X271000Y111129D01*
X269037Y110738D01*
X267374Y109627D01*
X266262Y107963D01*
X265872Y106000D01*
X266262Y104037D01*
X267374Y102374D01*
X269037Y101262D01*
X269613Y101147D01*
Y99853D01*
X269037Y99738D01*
X267374Y98626D01*
X266262Y96963D01*
X265872Y95000D01*
X266262Y93037D01*
X267374Y91374D01*
X269037Y90262D01*
X271000Y89872D01*
X272963Y90262D01*
X274626Y91374D01*
X274958Y91870D01*
X305000D01*
X305000Y91870D01*
X306198Y92108D01*
X307213Y92787D01*
X317603Y103177D01*
X318282Y104192D01*
X318520Y105390D01*
Y118000D01*
X327260D01*
Y29941D01*
X325322Y29139D01*
X323025Y27375D01*
X321261Y25078D01*
X320153Y22402D01*
X319775Y19530D01*
X320153Y16658D01*
X321261Y13982D01*
X323025Y11685D01*
X325322Y9922D01*
X327998Y8813D01*
X330870Y8435D01*
X333742Y8813D01*
X336418Y9922D01*
X338715Y11685D01*
X340479Y13982D01*
X341587Y16658D01*
X341965Y19530D01*
X341587Y22402D01*
X340479Y25078D01*
X338715Y27375D01*
X336418Y29139D01*
X333742Y30247D01*
X333520Y30276D01*
Y118000D01*
X335096D01*
X335775Y116730D01*
X335262Y115963D01*
X334871Y114000D01*
X335262Y112037D01*
X336374Y110374D01*
X338037Y109262D01*
X340000Y108871D01*
X341963Y109262D01*
X343626Y110374D01*
X344738Y112037D01*
X345129Y114000D01*
X344738Y115963D01*
X344225Y116730D01*
X344904Y118000D01*
X353260D01*
Y30189D01*
X350723Y29139D01*
X348425Y27375D01*
X346661Y25078D01*
X345553Y22402D01*
X345175Y19530D01*
X345553Y16658D01*
X346661Y13982D01*
X348425Y11685D01*
X350723Y9922D01*
X353398Y8813D01*
X356270Y8435D01*
X359142Y8813D01*
X361818Y9922D01*
X364115Y11685D01*
X365878Y13982D01*
X366987Y16658D01*
X367365Y19530D01*
X366987Y22402D01*
X365878Y25078D01*
X364115Y27375D01*
X361818Y29139D01*
X359520Y30090D01*
Y118000D01*
X378250D01*
Y182454D01*
X379626Y183374D01*
X380738Y185037D01*
X381129Y187000D01*
X380738Y188963D01*
X379626Y190626D01*
X378250Y191546D01*
Y202275D01*
X379370Y202874D01*
X379537Y202762D01*
X381500Y202372D01*
X383463Y202762D01*
X385126Y203874D01*
X386238Y205537D01*
X386628Y207500D01*
X386238Y209463D01*
X385126Y211126D01*
X383463Y212238D01*
X381500Y212629D01*
X379537Y212238D01*
X379370Y212126D01*
X378250Y212725D01*
Y245480D01*
X379187Y246500D01*
X380500D01*
X381573Y246855D01*
X381720Y246870D01*
X393703D01*
X397870Y242703D01*
Y100000D01*
X397870Y100000D01*
X398108Y98802D01*
X398787Y97787D01*
X420787Y75787D01*
X420787Y75787D01*
X421802Y75108D01*
X423000Y74870D01*
X428014D01*
X428702Y73209D01*
X430224Y71225D01*
X432209Y69702D01*
X434520Y68745D01*
X437000Y68418D01*
X439480Y68745D01*
X441791Y69702D01*
X443775Y71225D01*
X445298Y73209D01*
X446255Y75520D01*
X446301Y75870D01*
X484930D01*
Y72240D01*
X485206Y70855D01*
X485991Y69681D01*
X487165Y68896D01*
X488550Y68621D01*
X501450D01*
X502835Y68896D01*
X504009Y69681D01*
X504794Y70855D01*
X505070Y72240D01*
Y82140D01*
X504794Y83525D01*
X504009Y84699D01*
X502835Y85484D01*
X501450Y85759D01*
X488550D01*
X487165Y85484D01*
X485991Y84699D01*
X485206Y83525D01*
X484930Y82140D01*
Y82130D01*
X445572D01*
X445298Y82791D01*
X443775Y84775D01*
X441791Y86298D01*
X439480Y87255D01*
X437000Y87582D01*
X434520Y87255D01*
X432209Y86298D01*
X430224Y84775D01*
X428702Y82791D01*
X428014Y81130D01*
X424296D01*
X404130Y101297D01*
Y244000D01*
X404130Y244000D01*
X403892Y245198D01*
X403213Y246213D01*
X397213Y252213D01*
X396198Y252892D01*
X395000Y253130D01*
X395000Y253130D01*
X324000D01*
X324000Y253130D01*
X323192Y252969D01*
X322567Y254140D01*
X324297Y255870D01*
X403703D01*
X410870Y248703D01*
Y138000D01*
X410870Y138000D01*
X411108Y136802D01*
X411787Y135787D01*
X422987Y124587D01*
X424002Y123908D01*
X425200Y123670D01*
X425200Y123670D01*
X428014D01*
X428702Y122009D01*
X430224Y120025D01*
X432209Y118502D01*
X434520Y117545D01*
X437000Y117218D01*
X439480Y117545D01*
X441791Y118502D01*
X443775Y120025D01*
X445298Y122009D01*
X445758Y123120D01*
X484930D01*
Y121300D01*
X485206Y119915D01*
X485991Y118741D01*
X487165Y117956D01*
X488550Y117681D01*
X501450D01*
X502835Y117956D01*
X504009Y118741D01*
X504794Y119915D01*
X505070Y121300D01*
Y131200D01*
X504794Y132585D01*
X504009Y133759D01*
X502835Y134544D01*
X501450Y134819D01*
X488550D01*
X487165Y134544D01*
X485991Y133759D01*
X485206Y132585D01*
X484930Y131200D01*
Y129380D01*
X446214D01*
X445298Y131591D01*
X443775Y133575D01*
X441791Y135098D01*
X439480Y136055D01*
X437000Y136382D01*
X434520Y136055D01*
X432209Y135098D01*
X430224Y133575D01*
X428702Y131591D01*
X428014Y129930D01*
X426497D01*
X417130Y139297D01*
Y250000D01*
X417130Y250000D01*
X416892Y251198D01*
X416213Y252213D01*
X416213Y252213D01*
X407213Y261213D01*
X406770Y261510D01*
X407155Y262780D01*
X419743D01*
X430750Y251773D01*
Y232800D01*
X428930D01*
X427545Y232524D01*
X426371Y231740D01*
X425586Y230565D01*
X425311Y229180D01*
Y216280D01*
X425586Y214895D01*
X426371Y213721D01*
X427545Y212936D01*
X428930Y212661D01*
X430750D01*
Y208958D01*
X428705D01*
X427349Y208688D01*
X426200Y207920D01*
X425432Y206771D01*
X425162Y205415D01*
Y196865D01*
X425432Y195509D01*
X426200Y194360D01*
X427349Y193592D01*
X428705Y193322D01*
X437255D01*
X438611Y193592D01*
X439761Y194360D01*
X440529Y195509D01*
X440798Y196865D01*
Y205415D01*
X440529Y206771D01*
X439761Y207920D01*
X438611Y208688D01*
X437255Y208958D01*
X437010D01*
Y212661D01*
X438830D01*
X440215Y212936D01*
X441389Y213721D01*
X441924Y214521D01*
X442065Y214567D01*
X443194D01*
X443335Y214521D01*
X443870Y213721D01*
X445045Y212936D01*
X446430Y212661D01*
X456330D01*
X457715Y212936D01*
X458889Y213721D01*
X459674Y214895D01*
X459949Y216280D01*
Y219600D01*
X466612D01*
X466944Y219104D01*
X468607Y217992D01*
X470570Y217602D01*
X472533Y217992D01*
X474196Y219104D01*
X475308Y220767D01*
X475699Y222730D01*
X475308Y224693D01*
X474196Y226356D01*
X472533Y227468D01*
X470570Y227859D01*
X468607Y227468D01*
X466944Y226356D01*
X466612Y225860D01*
X459949D01*
Y229180D01*
X459674Y230565D01*
X458889Y231740D01*
X457715Y232524D01*
X456330Y232800D01*
X446430D01*
X445045Y232524D01*
X443870Y231740D01*
X443335Y230939D01*
X443194Y230894D01*
X442065D01*
X441924Y230939D01*
X441389Y231740D01*
X440215Y232524D01*
X438830Y232800D01*
X437010D01*
Y253070D01*
X437010Y253070D01*
X436772Y254268D01*
X436093Y255283D01*
X436093Y255283D01*
X423253Y268123D01*
X422238Y268802D01*
X421040Y269040D01*
X421040Y269040D01*
X319440D01*
X319440Y269040D01*
X319219Y268996D01*
X318593Y270167D01*
X326213Y277787D01*
X326213Y277787D01*
X326892Y278802D01*
X327130Y280000D01*
Y283099D01*
X327392Y283133D01*
X330067Y284242D01*
X332365Y286005D01*
X334128Y288302D01*
X335237Y290978D01*
X335615Y293850D01*
X335237Y296722D01*
X334128Y299398D01*
X332365Y301695D01*
X331234Y302563D01*
X331670Y303830D01*
X476749Y302760D01*
X477287Y301610D01*
X476211Y300299D01*
X474540Y297172D01*
X473511Y293779D01*
X473163Y290250D01*
X473511Y286721D01*
X474540Y283328D01*
X476211Y280201D01*
X478461Y277460D01*
X481201Y275211D01*
X484328Y273540D01*
X487721Y272511D01*
X491250Y272163D01*
X494779Y272511D01*
X498172Y273540D01*
X501299Y275211D01*
X504039Y277460D01*
X506289Y280201D01*
X507960Y283328D01*
X508989Y286721D01*
X509230Y289163D01*
X510500Y289100D01*
Y6000D01*
X499606D01*
X499288Y7270D01*
X501049Y8211D01*
X503789Y10460D01*
X506039Y13201D01*
X507710Y16328D01*
X508740Y19721D01*
X509087Y23250D01*
X508740Y26779D01*
X507710Y30172D01*
X506039Y33299D01*
X503789Y36040D01*
X501049Y38289D01*
X497922Y39960D01*
X494529Y40990D01*
X491000Y41337D01*
X487471Y40990D01*
X484078Y39960D01*
X480951Y38289D01*
X478210Y36040D01*
X475961Y33299D01*
X474290Y30172D01*
X473260Y26779D01*
X472913Y23250D01*
X473260Y19721D01*
X474290Y16328D01*
X475961Y13201D01*
X478210Y10460D01*
X480951Y8211D01*
X482712Y7270D01*
X482394Y6000D01*
X30795D01*
X30607Y7270D01*
X30672Y7290D01*
X33799Y8961D01*
X36539Y11211D01*
X38789Y13951D01*
X40460Y17078D01*
X41490Y20471D01*
X41837Y24000D01*
X41490Y27529D01*
X40460Y30922D01*
X38789Y34049D01*
X36539Y36790D01*
X33799Y39039D01*
X30672Y40710D01*
X27279Y41740D01*
X23750Y42087D01*
X20221Y41740D01*
X16828Y40710D01*
X13701Y39039D01*
X10961Y36790D01*
X10446Y36162D01*
X9250Y36590D01*
Y171500D01*
Y276660D01*
X10446Y277088D01*
X10961Y276460D01*
X13701Y274211D01*
X16828Y272540D01*
X20221Y271511D01*
X23750Y271163D01*
X27279Y271511D01*
X30672Y272540D01*
X33799Y274211D01*
X36539Y276460D01*
X38789Y279201D01*
X40460Y282328D01*
X41490Y285721D01*
X41837Y289250D01*
X41490Y292779D01*
X40460Y296172D01*
X38789Y299299D01*
X36539Y302040D01*
X34488Y303723D01*
X34942Y304993D01*
X173901D01*
D01*
X242091Y304491D01*
D02*
G37*
G36*
X260750Y222000D02*
Y216500D01*
X248750D01*
Y210500D01*
X207000D01*
Y226500D01*
X202630D01*
Y231182D01*
X203775D01*
X205131Y231452D01*
X206280Y232220D01*
X207048Y233369D01*
X207318Y234725D01*
Y243275D01*
X207048Y244631D01*
X206280Y245780D01*
X205131Y246548D01*
X203775Y246818D01*
X195225D01*
X193869Y246548D01*
X192719Y245780D01*
X191952Y244631D01*
X191682Y243275D01*
Y234725D01*
X191952Y233369D01*
X192719Y232220D01*
X193869Y231452D01*
X195225Y231182D01*
X196370D01*
Y226500D01*
X172750D01*
Y276500D01*
X260750D01*
Y222000D01*
D02*
G37*
%LPC*%
G36*
X44350Y242618D02*
X21350D01*
X19789Y242308D01*
X18466Y241424D01*
X17582Y240101D01*
X17272Y238540D01*
Y220540D01*
X17582Y218979D01*
X18466Y217656D01*
X19789Y216772D01*
X21350Y216462D01*
X44350D01*
X45911Y216772D01*
X47234Y217656D01*
X48118Y218979D01*
X48428Y220540D01*
Y238540D01*
X48118Y240101D01*
X47234Y241424D01*
X45911Y242308D01*
X44350Y242618D01*
D02*
G37*
G36*
X66699Y171500D02*
X59101D01*
X59353Y170230D01*
X58865Y170028D01*
X57194Y168746D01*
X55912Y167075D01*
X55106Y165128D01*
X54831Y163040D01*
X55106Y160952D01*
X55912Y159005D01*
X57194Y157334D01*
X58865Y156052D01*
X60812Y155246D01*
X62900Y154971D01*
X64988Y155246D01*
X66934Y156052D01*
X68606Y157334D01*
X69888Y159005D01*
X70694Y160952D01*
X70969Y163040D01*
X70694Y165128D01*
X69888Y167075D01*
X68606Y168746D01*
X66934Y170028D01*
X66447Y170230D01*
X66699Y171500D01*
D02*
G37*
G36*
X98850Y153618D02*
X75850D01*
X74289Y153308D01*
X72966Y152424D01*
X72082Y151101D01*
X71772Y149540D01*
Y131540D01*
X72082Y129979D01*
X72966Y128656D01*
X74289Y127772D01*
X75850Y127462D01*
X98850D01*
X100411Y127772D01*
X101734Y128656D01*
X102618Y129979D01*
X102928Y131540D01*
Y149540D01*
X102618Y151101D01*
X101734Y152424D01*
X100411Y153308D01*
X98850Y153618D01*
D02*
G37*
G36*
X44350D02*
X21350D01*
X19789Y153308D01*
X18466Y152424D01*
X17582Y151101D01*
X17272Y149540D01*
Y131540D01*
X17582Y129979D01*
X18466Y128656D01*
X19789Y127772D01*
X21350Y127462D01*
X44350D01*
X45911Y127772D01*
X47234Y128656D01*
X48118Y129979D01*
X48428Y131540D01*
Y149540D01*
X48118Y151101D01*
X47234Y152424D01*
X45911Y153308D01*
X44350Y153618D01*
D02*
G37*
G36*
X244500Y270500D02*
X213500D01*
Y249500D01*
X225870D01*
Y246750D01*
X225870Y246750D01*
X226069Y245751D01*
X226108Y245552D01*
X226787Y244537D01*
X232037Y239287D01*
X232037Y239287D01*
X233052Y238608D01*
X234250Y238370D01*
X239125D01*
X239624Y237624D01*
X241287Y236512D01*
X243250Y236122D01*
X245213Y236512D01*
X246876Y237624D01*
X247988Y239287D01*
X248379Y241250D01*
X247988Y243213D01*
X246876Y244876D01*
X245213Y245988D01*
X243250Y246379D01*
X241287Y245988D01*
X239624Y244876D01*
X239459Y244630D01*
X235546D01*
X232130Y248047D01*
Y249500D01*
X244500D01*
Y270500D01*
D02*
G37*
%LPD*%
D13*
X330390Y20010D02*
Y136370D01*
X310390Y223370D02*
Y256860D01*
X320390Y223370D02*
Y246390D01*
X290390Y223370D02*
Y260390D01*
X310390Y117390D02*
Y136370D01*
X356390Y187370D02*
X375219D01*
X315390Y223370D02*
Y251390D01*
X285390Y223370D02*
Y259610D01*
X315390Y105390D02*
Y136370D01*
X295390Y223370D02*
Y251390D01*
X246041Y172370D02*
X269390D01*
X356390Y19650D02*
Y152370D01*
X356270Y19530D02*
X356390Y19650D01*
X245411Y173000D02*
X246041Y172370D01*
X245000Y173000D02*
X245411D01*
X324000Y293330D02*
X324520Y293850D01*
X324000Y280000D02*
Y293330D01*
X295390Y251390D02*
X324000Y280000D01*
X305000Y95000D02*
X315390Y105390D01*
X271000Y95000D02*
X305000D01*
X273720Y271280D02*
Y293850D01*
Y271280D02*
X285390Y259610D01*
X425200Y126800D02*
X437000D01*
X414000Y138000D02*
X425200Y126800D01*
X414000Y138000D02*
Y250000D01*
X405000Y259000D02*
X414000Y250000D01*
X323000Y259000D02*
X405000D01*
X315390Y251390D02*
X323000Y259000D01*
X375589Y187000D02*
X376000D01*
X375219Y187370D02*
X375589Y187000D01*
X299000Y106000D02*
X310390Y117390D01*
X271000Y106000D02*
X299000D01*
X299120Y269120D02*
Y293850D01*
X290390Y260390D02*
X299120Y269120D01*
X423000Y78000D02*
X437000D01*
X401000Y100000D02*
X423000Y78000D01*
X401000Y100000D02*
Y244000D01*
X395000Y250000D02*
X401000Y244000D01*
X324000Y250000D02*
X395000D01*
X320390Y246390D02*
X324000Y250000D01*
X433880Y222730D02*
Y253070D01*
X421040Y265910D02*
X433880Y253070D01*
X319440Y265910D02*
X421040D01*
X310390Y256860D02*
X319440Y265910D01*
X330390Y20010D02*
X330870Y19530D01*
X158440Y200770D02*
Y213310D01*
X158250Y213500D02*
X158440Y213310D01*
X144000Y191770D02*
Y227750D01*
X151560Y212355D02*
X153440Y210475D01*
X151560Y212355D02*
Y224940D01*
X153440Y200770D02*
Y210475D01*
X144000Y227750D02*
X148750D01*
X151560Y224940D01*
X144000Y191770D02*
X144440D01*
X176250Y211839D02*
Y212250D01*
X175490Y211079D02*
X176250Y211839D01*
X175490Y211079D02*
Y211079D01*
X173440Y209029D02*
X175490Y211079D01*
X173440Y200770D02*
Y209029D01*
X185210Y159540D02*
X185650D01*
X168440Y176770D02*
X182670Y162540D01*
Y162080D02*
Y162540D01*
Y162080D02*
X185210Y159540D01*
X185650D02*
X199000Y146190D01*
Y141000D02*
Y146190D01*
X88500Y273000D02*
X99750D01*
X88000Y273500D02*
X88500Y273000D01*
X88600Y169040D02*
X113000D01*
Y169000D02*
Y169040D01*
X199500Y217750D02*
Y239000D01*
Y217750D02*
X199750Y217500D01*
X252000Y239000D02*
Y271500D01*
X248320Y275180D02*
Y293850D01*
Y275180D02*
X252000Y271500D01*
X229000Y246750D02*
Y260000D01*
X234250Y241500D02*
X243000D01*
X243250Y241250D01*
X229000Y246750D02*
X234250Y241500D01*
X192440Y181770D02*
X214230D01*
X225000Y171000D01*
X205230Y176770D02*
X216000Y166000D01*
X192440Y176770D02*
X205230D01*
X225000Y96000D02*
Y171000D01*
X216000Y127000D02*
Y166000D01*
X132230Y186770D02*
X144440D01*
X132000Y187000D02*
X132230Y186770D01*
Y176770D02*
X144440D01*
X132000Y177000D02*
X132230Y176770D01*
X154340Y80590D02*
X175151D01*
X175610Y80130D01*
X154951Y104110D02*
X175610D01*
X154490Y103650D02*
X154951Y104110D01*
X216000Y108000D02*
Y127000D01*
X205000D02*
X216000D01*
X225000Y84000D02*
Y96000D01*
X226000Y95000D02*
X239000D01*
X225000Y96000D02*
X226000Y95000D01*
X194610Y80130D02*
X221130D01*
X225000Y84000D01*
X212110Y104110D02*
X216000Y108000D01*
X194610Y104110D02*
X212110D01*
X438000Y79000D02*
X493000D01*
X437000Y78000D02*
X438000Y79000D01*
X494810Y77190D02*
X495000D01*
X493000Y79000D02*
X494810Y77190D01*
X437550Y126250D02*
X495000D01*
X437000Y126800D02*
X437550Y126250D01*
X240000Y231000D02*
X244000D01*
X252000Y239000D01*
X451380Y222730D02*
X470570D01*
X470570Y222730D01*
X433880Y202040D02*
Y222730D01*
X432980Y201140D02*
X433880Y202040D01*
D14*
X356390Y207370D02*
D03*
Y202370D02*
D03*
Y197370D02*
D03*
Y192370D02*
D03*
Y187370D02*
D03*
Y182370D02*
D03*
Y177370D02*
D03*
Y172370D02*
D03*
Y167370D02*
D03*
Y162370D02*
D03*
Y157370D02*
D03*
Y152370D02*
D03*
X269390Y207370D02*
D03*
Y202370D02*
D03*
Y197370D02*
D03*
Y192370D02*
D03*
Y187370D02*
D03*
Y182370D02*
D03*
Y177370D02*
D03*
Y172370D02*
D03*
Y167370D02*
D03*
Y162370D02*
D03*
Y157370D02*
D03*
Y152370D02*
D03*
D15*
X285390Y136370D02*
D03*
X290390D02*
D03*
X295390D02*
D03*
X300390D02*
D03*
X305390D02*
D03*
X310390D02*
D03*
X315390D02*
D03*
X320390D02*
D03*
X325390D02*
D03*
X330390D02*
D03*
X335390D02*
D03*
X340390D02*
D03*
Y223370D02*
D03*
X285390D02*
D03*
X290390D02*
D03*
X295390D02*
D03*
X300390D02*
D03*
X305390D02*
D03*
X310390D02*
D03*
X315390D02*
D03*
X320390D02*
D03*
X325390D02*
D03*
X330390D02*
D03*
X335390D02*
D03*
D16*
X32850Y229540D02*
D03*
X87350D02*
D03*
X32850Y140540D02*
D03*
X87350D02*
D03*
D17*
X88600Y201040D02*
D03*
Y193040D02*
D03*
Y185040D02*
D03*
Y177040D02*
D03*
Y169040D02*
D03*
D18*
X183440Y200770D02*
D03*
X178440D02*
D03*
X173440D02*
D03*
X168440D02*
D03*
X163440D02*
D03*
X158440D02*
D03*
X153440D02*
D03*
Y152770D02*
D03*
X158440D02*
D03*
X163440D02*
D03*
X168440D02*
D03*
X173440D02*
D03*
X178440D02*
D03*
X183440D02*
D03*
D19*
X144440Y191770D02*
D03*
Y186770D02*
D03*
Y181770D02*
D03*
Y176770D02*
D03*
Y171770D02*
D03*
Y166770D02*
D03*
Y161770D02*
D03*
X192440D02*
D03*
Y166770D02*
D03*
Y171770D02*
D03*
Y176770D02*
D03*
Y181770D02*
D03*
Y186770D02*
D03*
Y191770D02*
D03*
D20*
X495000Y77190D02*
D03*
Y59690D02*
D03*
Y143750D02*
D03*
Y126250D02*
D03*
D21*
X451380Y222730D02*
D03*
X433880D02*
D03*
X136991Y103650D02*
D03*
X154490D02*
D03*
X136840Y80590D02*
D03*
X154340D02*
D03*
D22*
X447480Y201140D02*
D03*
X432980D02*
D03*
X199500Y239000D02*
D03*
X185000D02*
D03*
D23*
X229000Y260000D02*
D03*
X195000D02*
D03*
D24*
X194610Y104110D02*
D03*
X175610D02*
D03*
Y80130D02*
D03*
X194610D02*
D03*
D41*
X168440Y176770D02*
D03*
D42*
X340390Y114390D02*
Y136370D01*
X335390D02*
Y162610D01*
X245120Y152370D02*
X269390D01*
X325370Y202370D02*
X356390D01*
X305390Y215370D02*
Y223370D01*
X305000Y214695D02*
X305368Y215063D01*
X305697D01*
X305390Y215370D02*
X305697Y215063D01*
X269390Y157370D02*
X310120D01*
X300250Y223510D02*
X300390Y223370D01*
X340390D02*
Y242610D01*
X356390Y207370D02*
X381370D01*
X381500Y207500D01*
X340250Y242750D02*
X340390Y242610D01*
X302000Y242578D02*
Y243000D01*
X300250Y240828D02*
X302000Y242578D01*
X300250Y223510D02*
Y240828D01*
X314000Y161250D02*
Y168000D01*
X310120Y157370D02*
X314000Y161250D01*
X305000Y198000D02*
Y214695D01*
X299000Y192000D02*
X305000Y198000D01*
X314000Y191000D02*
X325370Y202370D01*
X245000Y152250D02*
X245120Y152370D01*
X340000Y114000D02*
X340390Y114390D01*
X163440Y200770D02*
Y229250D01*
X168440Y200770D02*
Y232060D01*
X88600Y193040D02*
X88640Y193000D01*
X119000Y197000D02*
Y236000D01*
X88640Y193000D02*
X115000D01*
X119000Y197000D01*
X88600Y185040D02*
X116040D01*
X138000Y207000D02*
Y236000D01*
X116040Y185040D02*
X138000Y207000D01*
X163250Y229250D02*
X163440D01*
X138000Y236000D02*
X164500D01*
X168440Y232060D01*
X136840Y63410D02*
Y80590D01*
X150250Y50000D02*
X245000D01*
X136840Y63410D02*
X150250Y50000D01*
X275470Y19530D02*
X305470D01*
X245000Y50000D02*
X275470Y19530D01*
X245000Y50000D02*
Y152250D01*
D43*
X62900Y207040D02*
D03*
Y163040D02*
D03*
D44*
X491250Y290250D02*
D03*
X491000Y23250D02*
D03*
X23750Y24000D02*
D03*
Y289250D02*
D03*
D45*
X222920Y293850D02*
D03*
X299120D02*
D03*
X273720D02*
D03*
X248320D02*
D03*
X324520D02*
D03*
X381670Y19530D02*
D03*
X356270D02*
D03*
X330870D02*
D03*
X305470D02*
D03*
D46*
X437000Y126800D02*
D03*
Y78000D02*
D03*
D47*
X176250Y212250D02*
D03*
X470570Y222730D02*
D03*
X340250Y242750D02*
D03*
X381500Y207500D02*
D03*
X245000Y152250D02*
D03*
X302000Y243000D02*
D03*
X245000Y173000D02*
D03*
X376000Y187000D02*
D03*
X340000Y114000D02*
D03*
X271000Y95000D02*
D03*
X239000D02*
D03*
X271000Y106000D02*
D03*
X205000Y127000D02*
D03*
X132000Y177000D02*
D03*
X314000Y191000D02*
D03*
X335390Y162610D02*
D03*
X314000Y168000D02*
D03*
X299000Y192000D02*
D03*
X138000Y236000D02*
D03*
X199000Y141000D02*
D03*
X132000Y187000D02*
D03*
X216000Y231000D02*
D03*
X224000D02*
D03*
X240000D02*
D03*
X232000D02*
D03*
Y224000D02*
D03*
X224000D02*
D03*
X216000D02*
D03*
X199750Y217500D02*
D03*
X243250Y241250D02*
D03*
X215750Y216250D02*
D03*
X158250Y213500D02*
D03*
X144000Y227750D02*
D03*
X138250Y286750D02*
D03*
X163250Y229250D02*
D03*
X146500Y286329D02*
D03*
X110250Y236000D02*
D03*
X119000D02*
D03*
X113000Y169000D02*
D03*
X43000Y262750D02*
D03*
X50500Y262250D02*
D03*
X57500Y262500D02*
D03*
X65000Y262250D02*
D03*
X88000Y273500D02*
D03*
X99750Y273000D02*
D03*
M02*
