G04*
G04 #@! TF.GenerationSoftware,Altium Limited,Altium Designer,20.2.5 (213)*
G04*
G04 Layer_Color=32768*
%FSLAX44Y44*%
%MOMM*%
G71*
G04*
G04 #@! TF.SameCoordinates,3C0D8923-7957-4DC4-8908-925B2C91420C*
G04*
G04*
G04 #@! TF.FilePolarity,Positive*
G04*
G01*
G75*
%ADD55C,0.0500*%
G36*
X143393Y151770D02*
Y201817D01*
X193440D01*
Y151770D01*
X143393D01*
D02*
G37*
D55*
X332300Y182190D02*
X352300D01*
X332300Y194690D02*
X352300D01*
X341300Y189440D02*
X343300Y187440D01*
X341300D02*
X343300Y189440D01*
X352300Y182190D02*
Y194690D01*
X332300Y182190D02*
Y194690D01*
X111000Y205750D02*
X131000D01*
X111000Y218250D02*
X131000D01*
X119999Y213000D02*
X121999Y211000D01*
X119999D02*
X121999Y213000D01*
X131000Y205750D02*
Y218250D01*
X111000Y205750D02*
Y218250D01*
X151960Y183260D02*
X171960D01*
X151960Y170760D02*
X171960D01*
X160960Y178010D02*
X162960Y176010D01*
X160960D02*
X162960Y178010D01*
X151960Y170760D02*
Y183260D01*
X171960Y170760D02*
Y183260D01*
X258000Y179250D02*
X278000D01*
X258000Y166750D02*
X278000D01*
X267000Y174000D02*
X269000Y172000D01*
X267000D02*
X269000Y174000D01*
X258000Y166750D02*
Y179250D01*
X278000Y166750D02*
Y179250D01*
X432630Y228980D02*
X452630D01*
X432630Y216480D02*
X452630D01*
X441630Y221730D02*
X443630Y223730D01*
X441630D02*
X443630Y221730D01*
X452630Y216480D02*
Y228980D01*
X432630Y216480D02*
Y228980D01*
X135741Y97400D02*
X155741D01*
X135741Y109900D02*
X155741D01*
X144741Y102650D02*
X146741Y104650D01*
X144741D02*
X146741Y102650D01*
X135741Y97400D02*
Y109900D01*
X155741Y97400D02*
Y109900D01*
X135590Y74340D02*
X155590D01*
X135590Y86840D02*
X155590D01*
X144591Y79590D02*
X146590Y81590D01*
X144591D02*
X146590Y79590D01*
X135590Y74340D02*
Y86840D01*
X155590Y74340D02*
Y86840D01*
X110700Y242950D02*
Y281550D01*
X146100D01*
Y242950D02*
Y281550D01*
X110700Y242950D02*
X146100D01*
M02*
